<svg width="1000" height="1000" viewBox="0 0 1000 1000" xmlns="http://www.w3.org/2000/svg"><path d="M391,102C391,106,390,109,390,112C389,115,389,117,388,119C387,120,386,121,385,122C384,123,383,123,381,123H315V195C315,197,315,198,314,199C314,200,312,201,311,202C309,203,307,203,304,204C301,204,298,204,293,204C289,204,285,204,283,204C280,203,278,203,276,202C274,201,273,200,272,199C271,198,271,197,271,195V123H205C204,123,203,123,202,122C201,121,200,120,199,119C198,117,197,115,197,112C196,109,196,106,196,102C196,98,196,95,197,92C197,90,198,87,198,86C199,84,200,83,201,82C202,81,203,81,204,81H271V9C271,8,271,7,272,5C273,4,274,3,276,2C278,2,280,1,283,1C285,0,289,0,293,0C297,0,301,0,304,1C307,1,309,2,311,2C312,3,314,4,314,5C315,7,315,8,315,9V81H382C383,81,384,82,385,82C386,83,387,84,388,86C389,87,389,90,390,92C390,95,391,98,391,102zM391,363C391,370,390,375,388,379C386,382,384,383,381,383H219C216,383,214,382,212,379C211,375,210,370,210,363C210,355,210,350,212,347C213,344,216,342,219,342H381C384,342,387,344,388,347C390,350,391,355,391,363zM391,448C391,456,390,461,388,464C386,467,384,469,381,469H219C216,469,214,467,212,464C211,461,210,456,210,448C210,441,210,436,212,433C213,430,216,428,219,428H381C384,428,387,430,388,433C390,436,391,441,391,448zM707,256C707,264,706,270,705,273C703,276,701,278,697,278H213C209,278,207,276,205,273C204,270,203,264,203,256C203,248,204,242,205,239C207,236,209,234,213,234H697C699,234,700,235,702,235C703,236,704,237,705,239C706,241,706,243,707,246C707,249,707,252,707,256zM404,628C404,632,404,635,404,638C403,641,403,643,402,644C401,646,400,647,399,648C398,649,396,649,395,649H329V721C329,722,329,724,328,725C327,726,326,727,324,727C323,728,320,729,318,729C315,730,311,730,307,730C303,730,299,730,296,729C294,729,291,728,290,727C288,727,287,726,286,725C285,724,285,722,285,721V649H219C218,649,216,649,215,648C214,647,213,646,212,644C212,643,211,641,210,638C210,635,210,632,210,628C210,624,210,621,210,618C211,615,211,613,212,611C213,610,214,609,215,608C216,607,217,607,218,607H285V535C285,534,285,532,286,531C287,530,288,529,290,528C291,527,294,527,296,526C299,526,303,526,307,526C311,526,315,526,318,526C320,527,323,527,324,528C326,529,327,530,328,531C329,532,329,534,329,535V607H396C397,607,398,607,399,608C400,609,401,610,402,611C403,613,403,615,404,618C404,621,404,624,404,628zM404,888C404,896,403,901,402,904C400,907,398,909,395,909H233C230,909,228,907,226,904C224,901,224,896,224,888C224,881,224,876,226,873C227,870,230,868,233,868H395C398,868,401,870,402,873C404,876,404,881,404,888zM404,974C404,982,403,987,402,990C400,993,398,995,395,995H233C230,995,228,993,226,990C224,987,224,982,224,974C224,967,224,962,226,959C227,955,230,954,233,954H395C398,954,401,955,402,959C404,962,404,967,404,974zM721,782C721,790,720,796,719,799C717,802,715,804,711,804H227C223,804,221,802,219,799C218,796,217,790,217,782C217,774,218,768,219,765C221,762,223,760,227,760H711C713,760,714,760,715,761C717,762,718,763,719,765C719,766,720,769,720,772C721,774,721,778,721,782z"/></svg>