<svg width="1000" height="1000" viewBox="0 0 1000 1000" xmlns="http://www.w3.org/2000/svg"><path d="M303,641C303,645,301,647,299,649C297,651,293,653,289,653C285,653,277,655,267,655C257,655,248,655,244,653C240,653,236,651,234,649C232,647,232,645,232,641V617C220,631,206,641,190,649C174,657,156,661,136,661C120,661,104,659,92,655C78,651,66,645,56,637C46,629,38,619,32,607C26,595,24,577,24,561C24,543,28,527,34,515C42,501,52,491,66,481C80,473,96,467,118,463C140,459,162,457,190,457H220V439C220,429,220,421,218,413C216,405,212,399,208,395C204,391,198,387,190,385C180,383,172,381,160,381C146,381,132,383,122,385C110,389,100,391,92,395C84,399,76,403,70,405C64,409,60,409,56,409C54,409,52,409,50,407C48,405,46,403,46,401C44,399,44,395,44,391C44,387,42,381,42,377C42,369,42,365,44,361C46,357,48,353,50,349C54,345,58,343,66,339C74,335,84,331,94,327C104,323,116,321,130,319C142,317,156,315,170,315C194,315,214,317,232,321C248,325,263,333,275,343C287,353,293,365,299,381C305,397,307,415,307,435V641zM218,511H186C172,511,160,513,150,515C140,517,132,521,126,525C120,529,116,535,112,539C110,545,108,551,108,559C108,571,112,581,120,589C128,597,140,599,154,599C166,599,178,595,188,589C198,583,208,573,218,561V511zM661,335C661,337,661,337,661,339C661,341,661,343,661,345C661,347,661,349,659,351C659,353,657,357,657,359L565,635C563,639,563,643,561,645C559,647,555,649,551,651C547,653,541,653,533,653C525,653,515,653,503,653C491,653,481,653,473,653C465,653,459,651,455,651C451,649,447,647,445,645C443,643,441,639,441,635L349,359C347,355,347,351,345,347C345,343,343,341,343,339C343,337,343,335,343,335C343,333,343,331,345,329C347,327,349,325,351,325C355,323,359,323,365,323C371,323,377,323,387,323C397,323,403,323,409,323C415,323,419,325,423,325C427,327,429,327,431,329C433,331,433,333,435,337L503,561L505,569L507,561L575,337C575,335,577,331,579,329C581,327,583,325,587,325C591,323,595,323,599,323C603,323,611,323,621,323C629,323,637,323,641,323C647,323,651,325,653,325C655,327,659,327,659,329C659,331,661,333,661,335zM978,357C978,367,976,377,974,381C972,387,968,389,964,389H928C934,395,936,401,938,407C940,413,942,421,942,429C942,447,940,463,934,477C928,491,920,503,908,511C896,519,884,527,868,533C852,537,836,541,816,541C806,541,796,539,788,537C780,535,772,531,768,529C766,531,762,535,760,539C758,543,756,547,756,553C756,559,758,565,764,569C770,573,778,575,788,577L862,579C880,579,894,583,908,587C922,591,932,597,942,605C952,613,958,621,964,633C968,643,972,655,972,669C972,685,968,699,962,711C956,725,946,735,932,745C918,756,902,764,882,770C862,776,838,778,812,778C786,778,764,776,745,772C727,768,711,762,699,754C687,745,679,737,673,727C667,717,665,705,665,693C665,685,665,679,667,671C669,663,671,657,675,651C679,645,683,639,689,633C695,627,701,621,707,617C697,611,689,605,685,595C679,587,677,577,677,565C677,551,681,539,687,529C693,517,701,507,711,499C703,491,697,481,691,471C687,459,683,445,683,429C683,411,687,395,693,381C699,367,707,355,719,345C731,335,743,327,760,323C776,317,792,315,812,315C822,315,830,315,840,317C848,319,856,319,864,321H960C964,321,968,323,970,329C978,337,978,345,978,357zM888,671C888,661,884,653,876,647C868,641,856,639,842,639L782,637C776,641,772,645,768,649C764,653,762,657,760,661C758,665,756,669,756,671C756,675,754,677,754,681C754,693,760,701,772,707C784,713,800,715,820,715C834,715,844,713,852,711C860,709,868,705,874,701C880,697,884,691,886,687C888,683,888,677,888,671zM868,429C868,413,864,399,854,391C844,381,832,377,816,377C808,377,800,379,794,381C788,383,782,387,778,393C774,397,770,403,768,411C766,417,764,425,764,431C764,447,768,459,778,467C788,475,802,481,818,481C826,481,834,479,840,477C846,475,852,471,856,465C860,461,864,455,866,449C868,443,868,435,868,429z"/></svg>