<svg width="1000" height="1000" viewBox="0 0 1000 1000" xmlns="http://www.w3.org/2000/svg"><path d="M356,200H979V223H356zM356,259H979V282H356zM356,318H979V340H356zM356,377H979V399H356zM356,436H979V458H356zM356,495H979V517H356zM356,554H979V576H356zM356,613H979V635H356zM356,672H979V694H356zM356,731H979V753H356zM356,790H979V812H356zM450,170H238C221,176,204,184,188,192H500C484,184,467,176,450,170zM111,251H577C569,244,562,236,553,229H135C127,236,119,244,111,251zM66,310H622C618,303,613,295,608,288H81C76,295,71,303,66,310zM39,369H650C647,362,644,354,641,347H47C44,354,41,362,39,369zM24,428H664C663,421,662,413,660,406H28C27,413,25,421,24,428zM21,476C21,480,21,484,21,487H668C668,484,668,480,668,476C668,472,668,469,668,465H21C21,469,21,472,21,476zM28,546H660C662,539,663,531,664,524H24C25,531,27,539,28,546zM47,605H641C644,598,647,590,650,583H39C41,590,44,598,47,605zM81,664H608C613,657,618,649,622,642H66C71,649,76,657,81,664zM135,723H553C562,716,569,709,577,701H111C119,709,127,716,135,723zM238,782H450C467,776,484,768,500,760H188C204,768,221,776,238,782z"/></svg>