<?xml version="1.0" encoding="utf-8"?>
<!-- Generator: Adobe Illustrator 20.1.0, SVG Export Plug-In . SVG Version: 6.00 Build 0)  -->
<svg version="1.1" id="Layer_1" xmlns="http://www.w3.org/2000/svg" xmlns:xlink="http://www.w3.org/1999/xlink" x="0px" y="0px"
	 viewBox="0 0 1000 1000" enable-background="new 0 0 1000 1000" xml:space="preserve">
<g>
	<rect x="355.993042" y="200.2923737" width="623.4804077" height="22.2722969"/>
	<rect x="355.993042" y="259.2484436" width="623.4804077" height="22.2722969"/>
	<rect x="355.993042" y="318.2045288" width="623.4804077" height="22.2722969"/>
	<rect x="355.993042" y="377.160614" width="623.4804077" height="22.2722969"/>
	<rect x="355.993042" y="436.1166687" width="623.4804077" height="22.2722969"/>
	<rect x="355.993042" y="495.0727539" width="623.4804077" height="22.2722969"/>
	<rect x="355.993042" y="554.0288086" width="623.4804077" height="22.2722969"/>
	<rect x="355.993042" y="612.9849243" width="623.4804077" height="22.2722969"/>
	<rect x="355.993042" y="671.940979" width="623.4804077" height="22.2722969"/>
	<rect x="355.993042" y="730.8970947" width="623.4804077" height="22.2722969"/>
	<rect x="355.993042" y="789.8531494" width="623.4804077" height="22.2722969"/>
</g>
<g>
	<path d="M449.8608398,170.159256H238.3989563c-17.4341431,6.024704-34.1917877,13.4949493-50.1311188,22.2723389h311.7240601
		C484.0525513,183.6542053,467.2949829,176.18396,449.8608398,170.159256z"/>
	<path d="M111.2711945,251.3876648h465.7174072c-7.5422974-7.8148193-15.4769287-15.2459869-23.767395-22.2722778H135.0385437
		C126.748085,236.1416779,118.8134766,243.5728455,111.2711945,251.3876648z"/>
	<path d="M66.1530914,310.3437195h555.9536133c-4.5596313-7.6313171-9.414978-15.0648193-14.5684204-22.2722778H80.7215195
		C75.5680313,295.2789001,70.7127609,302.7124023,66.1530914,310.3437195z"/>
	<path d="M38.5813751,369.2998657h611.0970459c-2.6404419-7.5561829-5.5527344-14.983551-8.7260742-22.2723389H47.3074722
		C44.1340942,354.3163147,41.2218208,361.7436829,38.5813751,369.2998657z"/>
	<path d="M24.0506897,428.2559204h640.1584473c-1.112915-7.5126038-2.4916382-14.9373474-4.1116333-22.2723389H28.162302
		C26.5423508,413.318573,25.1636047,420.7433167,24.0506897,428.2559204z"/>
	<path d="M20.5265427,476.0758362c0,3.7290955,0.0862808,7.4375305,0.2114353,11.1361389h646.7838135
		c0.1251831-3.6986084,0.2114868-7.4070435,0.2114868-11.1361389s-0.0863037-7.4375-0.2114868-11.1361389H20.737978
		C20.6128235,468.6383362,20.5265427,472.3467407,20.5265427,476.0758362z"/>
	<path d="M28.1622314,546.1680298h631.9353027c1.6199951-7.3349609,2.9986572-14.7597046,4.1115723-22.2722778H24.0506897
		C25.1636047,531.4083252,26.5422802,538.8330688,28.1622314,546.1680298z"/>
	<path d="M47.3074722,605.1240845h593.6448364c3.1733398-7.2888184,6.0856323-14.7160034,8.7260742-22.2722778H38.5813751
		C41.2218208,590.4080811,44.1340942,597.8352661,47.3074722,605.1240845z"/>
	<path d="M80.7215881,664.0802002H607.538208c5.1535034-7.2074585,10.0088501-14.6409912,14.5684814-22.2723389H66.1530914
		C70.7127609,649.439209,75.5681076,656.8727417,80.7215881,664.0802002z"/>
	<path d="M135.0386047,723.0363159h418.1825867c8.2904663-7.0263062,16.2249756-14.4574585,23.767334-22.2722778H111.2711945
		C118.8134766,708.5788574,126.748085,716.0100098,135.0386047,723.0363159z"/>
	<path d="M238.3987427,781.9923706h211.4623108c17.4341431-6.0247192,34.1914978-13.4949951,50.1307678-22.2722778h-311.723938
		C204.2071686,768.4973755,220.9645996,775.9676514,238.3987427,781.9923706z"/>
</g>
</svg>
