<svg width="1000" height="1000" viewBox="0 0 1000 1000" xmlns="http://www.w3.org/2000/svg"><path d="M770,571C770,536,770,500,770,465C770,430,762,421,730,421C698,421,689,430,689,464C689,504,690,543,688,583C688,600,683,618,677,635C668,655,649,661,627,659C605,657,594,642,591,622C589,606,588,591,588,575C587,535,588,495,587,455C587,430,574,421,546,421C519,421,507,430,507,454C506,521,506,588,508,655C509,694,533,721,571,726C592,728,614,723,636,722C657,720,678,718,699,717C708,717,717,720,725,720C759,721,770,710,770,677C770,641,770,606,770,571zM468,516C468,460,468,404,468,349C467,319,454,308,425,307C392,307,377,317,377,346C376,458,376,569,377,681C377,711,393,722,426,721C456,720,468,708,468,678C468,624,468,570,468,516zM817,566C817,529,817,492,817,455C818,422,831,410,865,411C877,411,889,415,901,416C917,418,933,420,949,418C967,416,984,414,992,435C1000,456,993,486,974,491C911,507,906,552,910,605C912,628,911,651,910,674C909,710,898,720,863,720C829,720,818,710,817,674C817,638,817,602,817,566zM298,542C273,526,275,513,294,490C307,474,321,455,325,436C334,383,304,343,247,338C182,332,116,333,51,332C21,332,11,342,11,372C11,423,11,474,11,525C11,577,11,630,11,682C11,701,15,720,38,719C111,718,185,718,258,712C298,709,330,686,339,644C348,601,337,567,298,542zM85,425C89,400,103,387,130,384C139,384,149,384,159,384C159,384,159,383,159,382C176,384,194,385,210,389C232,396,246,412,247,436C248,460,237,481,215,485C182,491,147,492,114,488C91,486,81,456,85,425zM234,655C195,676,153,674,112,663C103,661,93,647,90,637C70,575,96,546,167,545C183,546,198,546,214,549C238,553,256,566,261,592C267,617,257,642,234,655z"/></svg>