<svg width="1000" height="1000" viewBox="0 0 1000 1000" xmlns="http://www.w3.org/2000/svg"><path d="M879,912H801V881H847V834H879M737,912H609V881H737V912zM545,912H417V881H545V912zM353,912H225V881H353V912zM161,912H83V834H114V881H161M114,769H83V642H114V769zM114,578H83V450H114V578zM114,386H83V258H114V386zM114,194H83V116H161V147H114M737,147H609V116H737V147zM545,147H417V116H545V147zM353,147H225V116H353V147zM879,194H847V147H801V116H879M879,769H847V642H879V769zM879,578H847V450H879V578zM879,386H847V258H879V386z"/></svg>