<svg width="1000" height="1000" viewBox="0 0 1000 1000" xmlns="http://www.w3.org/2000/svg"><path d="M489,799C325,799,192,665,192,501C192,338,325,204,489,204C653,204,786,338,786,501C786,665,653,799,489,799zM489,264C359,264,252,371,252,501C252,632,359,738,489,738C620,738,726,632,726,501C726,371,620,264,489,264zM489,168C473,168,459,155,459,138V57C459,41,473,27,489,27C506,27,519,41,519,57V138C519,155,506,168,489,168zM308,217C297,217,287,212,282,202L241,132C233,117,238,99,252,91C267,82,285,87,293,102L334,172C342,186,337,205,323,213C318,216,313,217,308,217zM175,350C170,350,165,349,160,346L90,305C75,297,70,279,79,264C87,250,105,245,120,253L190,294C204,302,209,321,201,335C195,345,185,350,175,350zM126,531H45C28,531,15,518,15,501C15,485,28,471,45,471H126C143,471,156,485,156,501C156,518,143,531,126,531zM105,754C94,754,84,748,79,739C70,724,75,706,90,698L160,657C174,649,193,654,201,668C209,682,204,701,190,709L120,750C115,752,110,754,105,754zM267,916C262,916,257,915,252,912C238,904,233,886,241,871L282,801C290,787,308,782,323,790C337,798,342,817,334,831L293,901C288,911,278,916,267,916zM489,976C473,976,459,962,459,946V865C459,848,473,835,489,835C506,835,519,848,519,865V946C519,962,506,976,489,976zM711,916C701,916,691,911,685,901L645,831C637,817,642,798,656,790C670,782,689,787,697,801L737,871C746,886,741,904,726,912C722,915,717,916,711,916zM874,754C869,754,864,752,859,750L789,709C774,701,770,682,778,668C786,654,805,649,819,657L889,698C903,706,908,724,900,739C895,748,884,754,874,754zM934,531H852C836,531,822,518,822,501C822,485,836,471,852,471H934C950,471,964,485,964,501C964,518,950,531,934,531zM804,350C793,350,783,345,778,335C770,321,774,302,789,294L859,253C873,245,892,250,900,264C908,279,903,297,889,305L819,346C814,349,809,350,804,350zM671,217C666,217,661,216,656,213C642,205,637,186,645,172L685,102C694,87,712,82,726,91C741,99,746,117,737,132L697,202C691,212,681,217,671,217z"/></svg>