<svg width="1000" height="1000" viewBox="0 0 1000 1000" xmlns="http://www.w3.org/2000/svg"><path d="M175,544C144,548,129,554,97,557C88,558,80,551,80,541C80,509,80,493,80,461C80,451,88,443,98,445C130,450,146,462,178,465C187,466,195,470,195,470C195,470,194,501,193,528C193,536,185,543,175,544zM280,673C251,669,241,663,212,659C203,658,195,651,195,645C195,625,193,597,193,562C193,551,201,543,209,544C235,546,240,549,266,552C274,553,282,561,282,570C284,598,283,624,294,656C297,666,289,674,280,673zM372,574C339,571,356,570,309,558C295,554,282,546,282,538C280,514,271,535,281,463C284,441,295,430,310,429C360,426,355,425,383,420C391,419,397,429,391,456C370,548,389,532,393,559C394,567,382,575,372,574zM521,696C489,697,474,698,443,698C433,699,425,691,424,680C421,646,408,625,397,593C394,583,403,576,428,581C512,598,506,586,539,580C549,578,557,585,556,595C551,626,543,644,539,678C538,688,530,696,521,696zM657,562C621,575,606,576,574,577C565,578,557,570,559,562C564,534,582,545,568,459C563,433,571,421,582,423C619,429,630,436,662,445C672,448,680,459,679,476C676,530,678,518,678,540C678,546,669,558,657,562zM759,657C727,660,712,666,680,669C671,670,663,662,666,653C676,623,674,607,677,572C678,562,685,551,693,548C719,539,725,539,752,538C760,538,768,546,769,556C770,589,774,606,775,638C776,648,768,656,759,657zM868,557C836,553,819,544,786,540C776,538,768,530,768,525C768,508,768,534,766,485C766,471,774,461,784,460C817,456,835,448,868,444C878,443,886,453,888,470C893,529,888,518,886,543C886,551,878,558,868,557zM183,347C152,344,138,336,107,333C98,331,90,324,91,314C92,281,95,265,96,232C97,222,105,215,113,216C141,220,148,230,176,234C185,236,193,243,193,253C195,284,198,299,200,331C200,340,192,348,183,347zM270,435C241,445,238,454,211,462C203,464,195,457,196,447C197,415,199,398,200,366C200,356,208,348,217,347C248,343,262,334,293,329C303,328,309,337,307,346C301,376,298,386,291,415C289,423,278,432,270,435zM397,298C372,302,370,303,330,322C319,327,312,320,312,311C315,279,312,263,311,230C310,221,318,213,327,212C358,209,372,202,403,199C413,198,420,206,420,214C418,243,414,252,413,280C412,289,404,296,397,298zM542,417C504,408,499,397,428,411C407,416,399,410,400,400C402,366,408,348,411,314C412,304,420,296,433,295C477,291,490,294,527,296C538,296,546,304,546,314C549,348,553,368,559,402C560,412,553,419,542,417zM650,321C616,316,597,304,563,298C553,296,546,289,545,280C543,252,538,243,536,214C536,206,543,198,553,199C586,202,605,209,638,212C648,213,656,221,656,230C659,261,664,275,667,306C667,315,660,323,650,321zM750,461C724,460,721,459,696,453C688,452,681,442,680,432C677,397,671,376,668,341C667,331,675,323,684,323C714,325,725,327,754,328C763,328,771,336,771,347C769,383,767,406,766,442C766,453,758,461,750,461zM853,334C824,333,816,330,787,329C779,328,771,320,770,312C769,283,765,273,764,245C763,236,771,228,780,227C809,224,819,217,848,214C856,213,864,221,865,231C866,264,868,283,869,317C869,327,861,335,853,334zM178,789C146,789,130,789,97,789C88,789,80,781,81,772C83,740,89,727,91,696C92,686,100,679,108,677C138,673,149,664,179,660C187,658,195,666,195,677C195,712,195,735,195,770C195,781,187,789,178,789zM289,894C257,892,241,887,209,884C199,884,191,876,192,868C192,840,194,833,195,805C195,796,203,789,213,789C245,789,261,789,293,789C303,789,310,796,310,806C309,836,308,848,307,878C307,887,299,895,289,894zM408,789C376,789,360,789,328,789C318,789,310,781,310,771C307,739,301,723,298,691C297,681,306,673,321,675C372,680,376,692,408,697C418,699,425,706,425,714C425,741,425,746,425,773C425,781,418,789,408,789zM523,904C491,904,475,904,443,904C433,904,425,896,425,886C425,854,425,838,425,806C425,796,433,789,443,789C475,789,491,789,523,789C533,789,541,796,541,806C541,838,541,854,541,886C541,896,533,904,523,904zM638,789C606,789,590,789,558,789C548,789,541,781,540,773C540,745,539,739,538,712C538,704,546,696,556,694C590,689,611,677,645,672C655,670,663,678,663,688C661,721,658,738,656,771C656,781,648,789,638,789zM752,882C719,885,702,891,670,894C660,895,652,887,652,878C653,848,655,836,655,806C656,796,663,789,673,789C705,789,721,789,753,789C763,789,771,796,771,805C770,832,770,838,770,865C770,873,762,881,752,882zM847,773C820,777,814,784,787,788C779,789,771,781,771,770C772,734,774,710,776,674C776,664,784,656,792,657C822,659,832,665,861,668C870,669,878,676,877,685C873,715,867,726,864,755C863,764,855,772,847,773zM293,214C260,219,243,229,210,234C200,236,193,228,193,218C192,184,191,165,190,131C190,121,198,113,208,112C241,109,259,102,293,99C303,98,310,106,310,115C310,147,310,163,310,196C310,205,303,213,293,214zM519,198C491,198,482,198,441,198C429,198,420,190,421,182C422,153,424,143,425,114C425,106,433,98,443,98C475,98,491,98,523,98C533,98,541,106,540,114C539,143,537,153,536,182C536,190,528,198,519,198zM746,227C716,224,703,217,673,214C664,213,656,205,656,196C656,163,656,147,656,115C656,106,663,98,673,99C706,102,724,108,757,111C767,112,775,119,774,129C771,162,766,178,764,211C763,220,755,228,746,227z"/></svg>