<svg width="1000" height="1000" viewBox="0 0 1000 1000" xmlns="http://www.w3.org/2000/svg"><path d="M359,2L4,995L1000,517L359,2zM895,493L548,462C547,448,542,435,535,425L651,297L895,493zM632,282L519,407C506,398,491,392,475,392C473,392,470,392,468,392L390,88L632,282zM494,493C488,497,482,498,475,498C473,498,472,498,471,498C470,498,470,498,469,498C461,496,454,491,448,485C446,482,445,479,444,475C443,472,442,469,442,466C442,461,443,456,445,452C448,446,452,442,455,439C461,435,467,433,475,433C476,433,477,433,478,433C483,434,488,435,491,438C498,441,504,448,506,456C506,457,506,457,507,458C508,460,508,463,508,466C508,471,506,477,504,480C502,485,498,490,494,493zM371,107L445,399C425,409,409,427,404,448L254,435L371,107zM246,457L402,471C404,488,411,503,421,515L98,871L246,457zM111,892L440,530C450,535,462,539,475,539C477,539,479,539,481,539L521,695L111,892zM543,684L504,532C524,523,540,505,545,484L893,515L543,684z"/></svg>