<?xml version="1.0" encoding="utf-8"?>
<!-- Generator: Adobe Illustrator 21.0.0, SVG Export Plug-In . SVG Version: 6.00 Build 0)  -->
<svg version="1.1" baseProfile="tiny" id="Laag_1" xmlns="http://www.w3.org/2000/svg" xmlns:xlink="http://www.w3.org/1999/xlink"
	 x="0px" y="0px" viewBox="0 0 128 128" overflow="inherit" xml:space="preserve">
<g>
	<path d="M45.9,0.3L0.5,127.4L128,66.2L45.9,0.3z M114.5,63.1l-44.4-4c-0.1-1.7-0.7-3.4-1.6-4.7L83.3,38L114.5,63.1z M80.9,36.1
		l-14.5,16c-1.6-1.2-3.5-1.9-5.6-1.9c-0.3,0-0.6,0-0.9,0l-10-39L80.9,36.1z M63.2,63.1c-0.7,0.5-1.5,0.7-2.4,0.7
		c-0.2,0-0.4,0-0.5-0.1c-0.1,0-0.2,0-0.3,0c-1-0.2-1.9-0.8-2.6-1.6c-0.3-0.4-0.5-0.8-0.6-1.3c-0.1-0.4-0.2-0.8-0.2-1.2
		c0-0.6,0.1-1.2,0.4-1.8c0.3-0.7,0.8-1.2,1.3-1.6c0.7-0.5,1.5-0.8,2.5-0.8c0.1,0,0.3,0,0.4,0c0.6,0.1,1.2,0.3,1.7,0.6
		c0.9,0.5,1.6,1.4,1.9,2.4c0,0.1,0,0.1,0.1,0.2c0.1,0.3,0.1,0.7,0.1,1c0,0.7-0.2,1.4-0.5,1.9C64.2,62.1,63.8,62.7,63.2,63.1z
		 M47.5,13.7L57,51.1c-2.6,1.2-4.6,3.5-5.3,6.3l-19.2-1.7L47.5,13.7z M31.5,58.5l20,1.8c0.2,2.1,1.1,4.1,2.4,5.6l-41.4,45.6
		L31.5,58.5z M14.2,114.2l42.1-46.4c1.3,0.7,2.9,1.2,4.5,1.2c0.3,0,0.5,0,0.8,0L66.7,89L14.2,114.2z M69.5,87.6l-5-19.5
		c2.6-1.1,4.6-3.4,5.3-6.2l44.5,4L69.5,87.6z"/>
</g>
</svg>
