<svg width="1000" height="1000" viewBox="0 0 1000 1000" xmlns="http://www.w3.org/2000/svg"><path d="M923,155C898,155,876,167,862,186C819,177,772,173,726,174C714,148,687,129,656,129C616,129,583,160,580,199C571,202,563,205,556,209C522,223,488,245,467,262C462,261,458,261,454,261C411,261,377,295,377,338C377,372,399,401,430,411C439,433,454,460,466,481C475,498,485,515,493,533C473,547,460,570,460,596C460,619,470,640,487,655C465,684,440,707,412,723C398,709,380,701,359,701C329,701,303,719,290,744C243,738,194,719,150,688C152,681,154,674,154,666C154,624,119,589,77,589C34,589,0,624,0,666C0,708,34,743,77,743C87,743,98,741,107,737C164,778,227,803,289,809C300,836,327,855,359,855C400,855,433,823,436,783C477,762,513,730,543,687C547,682,550,676,553,671C587,664,613,633,613,596C613,562,591,532,560,523C548,499,532,467,522,449C512,433,504,417,497,402C517,388,531,364,531,338C531,324,527,312,521,301C537,290,557,278,582,268C588,265,595,262,601,260C615,274,635,283,656,283C687,283,714,265,726,239C767,238,810,241,848,249C856,283,887,309,923,309C966,309,1000,275,1000,232C1000,190,966,155,923,155zM77,695C61,695,48,682,48,666C48,650,61,637,77,637C92,637,105,650,105,666C105,682,92,695,77,695zM359,807C343,807,330,794,330,778C330,762,343,750,359,750C375,750,388,762,388,778C388,794,375,807,359,807zM454,309C470,309,482,322,482,338C482,353,470,366,454,366C438,366,425,353,425,338C425,322,438,309,454,309zM536,624C521,624,508,612,508,596C508,580,521,567,536,567C552,567,565,580,565,596C565,612,552,624,536,624zM656,235C641,235,628,222,628,206C628,190,641,178,656,178C672,178,685,190,685,206C685,222,672,235,656,235zM923,261C908,261,895,248,895,232C895,216,908,204,923,204C939,204,952,216,952,232C952,248,939,261,923,261z"/></svg>