<svg width="1000" height="1000" viewBox="0 0 1000 1000" xmlns="http://www.w3.org/2000/svg"><path d="M315,0V1000H699V0H315zM630,70V204H384V70H630zM384,392V239H630V392H384zM630,426V579H384V426H630V426zM630,930H384V801H630V930V930zM384,766V614H630V766H384zM286,599C287,602,288,605,288,607C288,609,286,611,284,612C281,614,277,615,271,615C266,615,259,616,249,616C241,616,234,616,229,615C223,615,219,614,216,614C213,613,211,612,210,610C208,609,207,608,207,606L159,515L112,606C111,608,110,609,109,610C108,612,106,613,103,614C100,614,96,615,91,615C86,616,80,616,72,616C63,616,57,615,52,615C47,615,43,614,41,612C39,611,37,609,37,607C37,605,38,602,40,599L110,474L45,356C43,352,43,349,42,347C42,345,44,343,46,341C49,340,52,339,58,338C63,338,71,338,80,338C88,338,95,338,100,338C105,338,109,339,112,339C115,340,117,341,118,342C120,343,121,345,122,347L167,432L213,347C213,345,214,344,215,343C216,342,218,341,221,340C223,339,226,339,231,338C235,338,241,338,248,338C257,338,263,338,268,338C274,339,277,339,279,341C282,342,283,344,283,346C282,349,281,352,279,356L216,472L286,599zM972,371C972,387,970,401,965,414C961,426,954,437,946,446C938,455,928,463,917,468C906,474,893,477,879,479L877,535C877,538,874,541,869,542C864,544,856,545,846,545C840,545,835,545,830,545C826,544,823,544,820,543C818,542,816,541,815,540C814,539,813,537,813,535L810,467C810,461,810,456,811,452C812,448,813,445,815,443C817,441,820,439,823,438C826,438,829,437,834,437H838C848,437,856,435,864,432C871,429,877,425,882,419C887,414,890,408,892,400C895,393,896,386,896,377C896,368,894,360,892,352C889,345,885,338,880,332C875,327,868,323,860,320C852,317,843,315,832,315C823,315,814,316,807,318C799,320,793,322,788,324C782,327,778,329,774,331C771,333,768,334,766,334C765,334,763,333,762,332C761,331,760,330,759,328C759,325,758,322,758,318C757,314,757,308,757,302C757,295,757,290,758,287C758,284,760,282,761,280C763,278,767,276,772,273C778,270,784,268,792,266C799,264,807,262,816,260C826,259,835,258,845,258C868,258,887,261,903,267C919,273,932,282,942,292C952,303,960,315,965,328C969,342,972,356,972,371zM887,617C887,624,886,631,885,636C884,642,882,646,879,649C876,652,871,655,866,656C861,658,854,658,847,658C839,658,832,658,827,656C822,655,818,652,815,649C811,646,809,642,808,636C807,631,806,624,806,617C806,609,807,602,808,596C809,591,811,587,815,583C818,580,822,577,827,576C832,575,839,574,847,574C854,574,861,575,866,576C871,577,876,580,879,583C882,587,884,591,885,596C886,602,887,609,887,617z"/></svg>