<svg width="1000" height="1000" viewBox="0 0 1000 1000" xmlns="http://www.w3.org/2000/svg"><path d="M762,892C762,874,755,857,745,843L746,844C813,618,796,441,694,317C529,115,201,127,140,131C126,114,104,102,79,102C35,102,0,138,0,181C0,225,35,261,79,261C111,261,138,242,150,215C211,212,494,206,628,370C711,471,723,621,666,815C630,823,604,854,604,892C604,936,639,971,683,971C726,971,762,936,762,892zM43,181C43,162,59,146,79,146C99,146,115,162,115,181C115,201,99,217,79,217C59,217,43,201,43,181zM647,892C647,873,663,857,683,857C702,857,718,873,718,892C718,912,702,928,683,928C663,928,647,912,647,892zM792,197C792,176,809,159,830,159C851,159,868,176,868,197C868,218,851,235,830,235C809,235,792,218,792,197zM921,326C921,305,938,288,960,288C981,288,998,305,998,326C998,347,981,365,960,365C938,365,921,347,921,326z"/></svg>