<svg width="1000" height="1000" viewBox="0 0 1000 1000" xmlns="http://www.w3.org/2000/svg"><path d="M307,659C289,659,274,673,274,691C274,709,289,724,307,724C325,724,340,709,340,691C340,673,325,659,307,659zM705,261C688,261,673,276,673,294C673,312,688,327,705,327C723,327,738,312,738,294C738,276,723,261,705,261zM999,214L786,1L500,287L214,1L1,214L287,500L1,786L214,999L500,713L786,999L999,786L713,500L999,214zM642,330C601,340,488,374,478,470C467,576,398,643,374,664C378,673,380,682,380,692C380,732,347,765,307,765C267,765,234,732,234,692C234,652,267,620,307,620C320,620,333,623,343,629C361,613,422,555,431,466C445,338,584,296,633,284C638,248,668,220,705,220C746,220,778,253,778,293C778,333,745,366,705,366C679,366,655,352,642,330z"/></svg>