<svg width="1000" height="1000" viewBox="0 0 1000 1000" xmlns="http://www.w3.org/2000/svg"><path d="M583,783V763L547,749L533,763L542,789L519,774L528,800L506,784L513,810L492,792L497,819L479,798L481,825L465,803L464,830L450,806L445,833L434,808L427,834L418,809L400,834L386,806L364,828L356,798L330,815L328,784L300,796L305,766L275,772L285,743L253,742L267,714L236,708L254,682L224,672L244,645L215,627L238,603L211,582L236,560L211,540L238,522L214,501L242,485L221,461L225,444L255,435L237,410L268,406L255,378L285,380L276,351L305,359L302,328L329,342L334,311L359,330L370,300L391,324L408,298L415,324L424,298L430,325L441,300L444,327L457,303V330L472,308L470,335L487,314L483,341L503,321L496,348L517,330L509,356L532,341L523,367L547,353L536,378L538,374L564,325L538,275L564,225L538,175L564,124H666L692,258L666,392L692,525L666,659L692,792M369,579L344,591L371,599L347,612L374,618L351,633L378,636L357,654L385,653L366,673L393,667L377,690L403,679L391,704L414,689L408,716L426,696L428,723L441,699L448,726L458,699L474,722L475,694L497,712L492,684L520,695L513,666L542,674L532,645L564,643L538,612L564,582L538,552L564,522L538,493L556,477L530,486L544,462L519,473L531,449L508,462L521,438L499,454L509,429L488,446L498,421L480,441L487,415L471,437L474,411L463,434V408L454,433L452,407L446,433L436,407L430,434L415,411L417,439L395,421L405,447L380,435L395,458L369,451L387,471L359,469L380,488L352,490L375,506L348,511L372,526L345,534L370,547L343,557L369,569V579z"/></svg>