<?xml version="1.0" encoding="utf-8"?>
<!-- Generator: Adobe Illustrator 20.1.0, SVG Export Plug-In . SVG Version: 6.00 Build 0)  -->
<svg version="1.1" id="Layer_1" xmlns="http://www.w3.org/2000/svg" xmlns:xlink="http://www.w3.org/1999/xlink" x="0px" y="0px"
	 viewBox="0 0 1000 1000" enable-background="new 0 0 1000 1000" xml:space="preserve">
<g>
	<path d="M582.9299927,782.522522v-19.6082153l-36.0194702-13.7980347l-13.9092407,13.4833374l9.4916992,26.2233276
		l-23.072876-14.7562256l8.7001343,25.9750977l-21.8628845-16.4959717l6.523407,26.6034546l-20.3149719-18.3610229
		l4.3969727,26.8604126l-17.7641907-20.6239014l1.4232178,27.1828613l-15.3759155-22.4613647l-1.6096191,27.1759644
		l-13.3353271-23.9136353l-4.8215332,26.9455566L434.28125,807.9242554l-7.0994873,26.4395142l-9.0717773-25.8338013
		L400.0585327,833.84198l-13.802124-27.8287354l-22.1199341,21.8284302l-8.3375244-29.9172974l-26.043335,16.9378052
		l-1.3635864-30.6033936l-28.2207642,11.9187622l4.5938721-30.2913208l-29.979126,6.2883911l10.1182251-28.9273682
		l-31.7103882-0.7891846l13.9880981-28.4974976l-31.1856689-5.855835l17.9679565-26.180481l-30.1731567-9.8527832
		l20.2059326-27.3870239l-29.3376465-17.2142944l23.3011475-24.8098145l-27.3658447-20.2150879l25.5353394-22.505249
		l-25.6083984-19.8110352l27.1164551-17.6790771l-23.8562012-21.8855896l28.5649414-15.224762l-21.7438354-23.9848633
		l4.4412231-17.463501l30.0140991-8.4530029l-17.7458496-25.652832l30.904541-4.0996094l-13.5822754-28.0720825l30.355957,2.2075806
		l-9.1903076-29.0230713l29.3885498,7.9257202l-3.4210815-30.2440186l27.3425293,13.3912964l4.5310669-31.0693359
		l25.1636963,18.8475952l11.6851196-29.1604004l20.7321777,23.6618652l16.7175903-26.6208496l7.3161011,26.125l9.1254883-25.5513306
		l5.3898926,26.5874634l11.0582886-24.7746582l3.2232666,26.9334106l12.8886719-23.7783203l0.440918,27.0447388
		l15.0874329-22.449585l-2.113739,26.9661865l17.122467-20.9389038l-4.0930786,26.8879395l19.2962646-19.163208
		l-6.2100525,26.4818115l20.6697998-17.6759644l-8.0410156,25.9842529l22.7346802-15.5328369l-9.1177368,25.9876709
		l23.8227539-13.8120117l-10.8534546,25.3133545l2.4563599-3.7030029l25.9866943-49.5480347l-26-50.1359253l26-50.1290894
		l-26-50.1306763l26-50.1282959l102-0.0200195l26,133.5736084l-26,133.5735474l26,133.5673828l-26,133.5687256l26,133.5667725
		 M369.3251343,578.7389526l-25.3359985,11.9348755l26.8892822,7.8344727l-24.3378906,13.8574219l27.40802,5.7602539
		l-23.213501,15.2930298l27.6879883,2.3782349l-21.2532959,17.9126587l27.7615967-1.1588135l-18.6084595,20.6405029
		l26.7549438-6.0408936l-15.8862915,22.3652344l25.4318848-10.2580566l-11.8322754,24.7422485l23.1969604-14.6210938
		l-6.281311,26.696167l18.7058105-20.0678711l1.3707886,27.3946533l12.9060059-24.2409058l7.6306152,26.3688965
		l9.2245483-26.6446533l16.2315369,23.0551147l1.6295776-28.1699829l21.6191101,18.1151123l-4.9763489-27.8006592
		l27.6787415,11.1289673l-6.861084-29.083252l28.9283447,7.3939209l-9.8796387-28.2011108l32.161438-1.9224243
		l-25.946228-31.2533569l26-30.0723877l-26-30.0682373l26-30.0692139l-25.9795532-29.339386l17.8182373-15.8294067
		l-25.907959,9.1976013l14.1774292-23.5599976l-25.3584595,10.6071777l12.6050415-24.4337769l-23.141449,13.7388306
		l12.4153748-23.8823242l-22.1513977,15.2780762l10.5349731-24.7667847l-20.7080078,17.1756592l9.2514648-24.9318848
		l-17.7289734,19.8104248l6.543335-25.7705688l-15.2030334,21.8002319l2.9608459-26.4164429l-11.4661865,23.8598022
		l0.2300415-26.4707031l-8.6697998,25.0113525l-2.7991333-26.322876l-5.7628174,25.8372192l-10.2645874-25.5355225
		l-5.1365356,26.9996338l-15.6047974-22.6383057l1.8806152,27.3937378l-21.3598633-17.2647095l9.6565552,25.635376
		l-24.5339355-12.1775513l14.5443726,23.2219849l-26.3881226-7.3599854l18.3725586,20.3405762l-27.7887573-1.8394775
		l20.7247925,18.62323l-27.7857666,1.9783936l22.8874512,15.8995667l-27.3901978,5.1060791l24.1525879,14.776886
		l-27.0553589,8.3397217l25.0710449,13.159668l-26.4721069,10.0412598l25.8300781,11.5993652L369.3251343,578.7389526z"/>
</g>
</svg>
