<svg width="1000" height="1000" viewBox="0 0 1000 1000" xmlns="http://www.w3.org/2000/svg"><path d="M508,138V96H563V40H410V96H467V139C373,145,288,183,222,243L200,218L238,181L200,140L90,245L129,286L170,247L194,272C131,343,92,435,92,537C92,758,272,937,492,937C713,937,892,758,892,537C892,322,721,146,508,138zM492,865C312,865,164,718,164,537C164,356,312,209,492,209C673,209,820,356,820,537C820,718,673,865,492,865zM488,304C614,304,717,406,717,533C717,612,677,682,616,723C579,748,535,762,488,762C380,762,290,688,265,589L487,531L488,304z"/></svg>