<svg width="1000" height="1000" viewBox="0 0 1000 1000" xmlns="http://www.w3.org/2000/svg"><path d="M947,96V0H890V96H838L878,147L919,199L959,147L1000,96M947,596V500H890V596H838L878,647L919,699L959,647L1000,596M980,916C980,926,978,935,975,943C971,951,966,957,959,962C952,968,944,972,935,974C926,977,915,979,904,979C897,979,891,978,884,977C878,976,873,975,868,973C863,971,859,969,855,968C852,966,849,964,848,963C846,961,845,959,844,957C843,954,843,951,843,946C843,944,843,941,843,939C844,938,844,936,844,935C845,934,846,933,846,932C847,932,848,932,849,932C851,932,853,933,856,935C859,937,863,939,867,941C872,943,877,945,883,947C890,949,897,950,905,950C911,950,916,950,921,948C926,947,930,945,934,942C937,940,940,937,942,933C944,929,945,924,945,919C945,914,944,909,941,905C938,902,934,898,930,895C925,893,920,890,914,888C908,886,903,883,896,881C890,878,884,876,879,873C873,870,868,866,863,861C858,857,855,852,852,845C849,839,848,832,848,823C848,816,849,808,852,801C855,794,859,788,865,783C871,778,879,774,887,771C896,767,907,766,918,766C923,766,929,766,934,767C939,768,944,769,948,770C952,772,955,773,958,775C961,776,964,777,965,778C967,780,968,781,968,781C969,782,969,783,969,784C969,785,970,787,970,788C970,790,970,792,970,794C970,797,970,799,970,800C970,802,969,804,969,805C968,806,968,807,967,807C966,808,965,808,964,808C963,808,961,807,959,806C956,804,953,802,949,801C946,799,941,797,936,796C930,794,924,793,918,793C912,793,906,794,902,795C897,797,894,799,891,801C888,804,885,807,884,810C882,814,882,817,882,821C882,827,883,832,886,835C889,839,893,842,897,845C902,848,907,851,913,853C919,855,925,858,931,860C937,863,943,865,949,868C955,871,960,875,965,879C969,884,973,889,976,895C979,901,980,908,980,916zM196,326C196,332,194,336,191,339C188,341,184,343,180,343H41C41,354,43,365,45,374C47,384,51,392,57,398C62,405,69,410,78,414C87,417,98,419,110,419C121,419,129,418,137,417C145,415,152,413,158,411C163,409,168,407,172,406C176,404,178,403,180,403C181,403,182,404,183,404C184,405,185,405,185,407C186,408,186,409,186,411C186,413,187,416,187,418C187,420,187,422,186,424C186,425,186,426,186,428C186,429,185,430,185,431C184,432,183,433,183,433C182,434,179,436,175,438C171,440,165,442,158,443C152,445,144,447,135,448C126,450,117,451,107,451C89,451,74,448,61,443C48,439,37,431,28,422C19,412,13,400,8,386C4,372,1,355,1,336C1,318,4,301,8,287C13,272,20,260,29,250C37,240,48,232,61,227C73,221,87,219,103,219C119,219,133,221,145,227C157,232,166,239,174,248C181,257,187,268,190,280C194,292,196,305,196,319V326V326zM157,314C157,294,153,278,143,266C133,255,119,249,101,249C91,249,83,251,75,254C68,258,62,263,57,269C52,275,49,281,46,289C43,297,42,306,41,314C41,314,157,314,157,314zM472,440C472,442,472,443,471,444C471,444,470,445,468,446C467,446,465,447,462,447C460,447,457,448,453,448C449,448,446,447,443,447C441,447,439,446,438,446C436,445,435,444,435,444C434,443,434,442,434,440V317C434,305,433,295,431,288C429,280,426,274,423,269C419,263,414,259,409,256C403,254,396,252,389,252C379,252,369,256,360,263C350,269,340,279,329,293V440C329,442,329,443,328,444C328,444,327,445,325,446C324,446,322,447,319,447C317,447,314,448,310,448C306,448,303,447,300,447C298,447,296,446,294,446C293,445,292,444,291,444C291,443,291,442,291,440V229C291,228,291,227,291,226C292,225,293,224,294,224C295,223,297,222,299,222C302,222,305,222,308,222C312,222,314,222,317,222C319,223,321,223,322,224C323,224,324,225,325,226C325,227,326,228,326,229V257C337,244,349,234,361,228C373,222,385,219,397,219C411,219,423,221,432,226C442,231,450,237,456,245C462,253,466,262,468,273C471,284,472,297,472,312V440V440zM760,440C760,442,760,443,759,444C758,445,758,445,756,446C755,446,753,447,751,447C749,447,746,448,743,448C740,448,737,447,735,447C733,447,731,446,729,446C728,445,727,445,726,444C726,443,725,442,725,440V412C714,424,703,434,691,441C679,447,666,451,651,451C636,451,623,448,612,442C601,436,592,427,585,417C578,407,573,395,570,381C567,367,566,353,566,337C566,319,568,303,571,288C575,274,581,261,589,251C596,240,606,233,617,227C629,221,642,219,657,219C669,219,680,221,690,227C701,232,711,240,721,251V128C721,127,721,126,722,125C722,124,723,123,725,122C726,122,728,121,731,121C733,121,736,120,740,120C744,120,747,121,750,121C752,121,754,122,756,122C757,123,758,124,759,125C759,126,760,127,760,128C760,128,760,440,760,440zM721,292C710,279,700,269,690,262C681,255,671,252,660,252C650,252,642,254,635,259C628,264,622,270,618,278C614,285,611,294,609,304C607,313,606,323,606,333C606,344,607,354,608,364C610,375,613,384,617,391C621,399,626,406,633,410C640,415,648,418,658,418C663,418,668,417,673,416C678,414,683,412,688,408C693,405,698,401,704,396C709,390,715,384,721,376C721,376,721,292,721,292zM1000,383C1000,394,998,403,994,412C990,420,984,427,977,433C970,439,961,443,951,446C941,449,929,451,917,451C910,451,903,450,896,449C889,448,883,446,877,444C872,443,867,441,864,439C860,437,857,435,855,434C854,432,853,430,852,427C851,424,851,420,851,415C851,413,851,410,851,408C851,406,852,404,852,403C853,402,853,401,854,400C855,400,856,400,857,400C859,400,861,401,865,403C868,405,872,407,877,410C882,412,888,414,895,417C901,419,909,420,918,420C924,420,930,419,936,418C941,416,946,414,950,411C953,409,956,405,959,401C961,397,962,392,962,386C962,380,960,375,957,371C954,367,950,363,945,360C940,357,934,354,928,352C922,349,915,347,909,344C902,342,896,338,889,335C883,332,877,328,872,323C867,318,863,312,860,305C857,299,856,291,856,281C856,273,857,265,860,257C864,250,868,243,875,238C881,232,889,227,899,224C909,220,920,219,933,219C938,219,944,219,949,220C955,221,960,222,965,224C969,225,973,226,976,228C980,230,982,231,984,233C985,234,986,235,987,236C987,237,988,238,988,239C988,240,989,242,989,243C989,245,989,247,989,250C989,252,989,255,989,257C989,259,988,260,988,261C987,263,986,263,986,264C985,265,984,265,983,265C982,265,980,264,977,262C974,261,971,259,967,257C962,255,957,253,952,251C946,250,939,249,932,249C926,249,920,249,915,251C910,252,906,255,902,257C899,260,897,263,895,267C893,271,893,275,893,279C893,285,894,290,897,295C900,299,905,302,910,305C915,309,920,311,927,314C933,316,940,319,946,322C953,324,959,327,966,331C972,334,978,338,983,343C988,347,992,353,995,359C998,366,1000,374,1000,383z"/></svg>