<svg width="1000" height="1000" viewBox="0 0 1000 1000" xmlns="http://www.w3.org/2000/svg"><path d="M466,438C466,452,464,462,461,467C458,473,454,476,449,476H153C147,476,143,473,140,467C137,462,136,452,136,438C136,425,137,416,139,410C142,405,146,402,153,402H449C455,402,459,405,462,410C464,416,466,425,466,438zM466,596C466,610,464,619,461,625C458,630,454,632,449,632H153C147,632,143,630,140,625C137,619,136,610,136,596C136,583,137,573,139,567C142,562,146,558,153,558H449C455,558,459,562,462,567C464,573,466,583,466,596zM861,438C861,452,860,462,857,467C854,473,850,476,844,476H548C543,476,539,473,536,467C533,462,531,452,531,438C531,425,533,416,535,410C537,405,542,402,548,402H844C850,402,854,405,857,410C860,416,861,425,861,438zM861,596C861,610,860,619,857,625C854,630,850,632,844,632H548C543,632,539,630,536,625C533,619,531,610,531,596C531,583,533,573,535,567C537,562,542,558,548,558H844C850,558,854,562,857,567C860,573,861,583,861,596z"/></svg>