<svg width="1000" height="1000" viewBox="0 0 1000 1000" xmlns="http://www.w3.org/2000/svg"><path d="M288,498H274V476H176V408H274V368H176V301H274V261H176L175,193H274V153H175V82H137V153H44V193H137L138,261H44V301H138V368H44V408H138V476H44V498H20V604H44V624H139V692H44V732H139L140,800H44V840H140V914H178V840H274V800H178L177,732H274V692H177V624H274V604H288M634,382H615V368H517V301H615V261H517L516,193H615V153H516V82H478V153H385V193H478L479,261H385V301H479V368H385V382H366V488H385V516H480V584H385V624H480V692H385V732H480L481,800H385V840H481V914H519V840H615V800H519L518,732H615V692H518V624H615V584H518V516H615V488H634M980,604H959V584H862V516H959V476H861V408H959V368H861V301H959V261H861L860,193H959V153H860V82H822V153H729V193H822L823,261H729V301H823V368H729V408H823V476H729V516H824V584H729V604H712V710H729V732H824L825,800H729V840H825V914H863V840H959V800H863L862,732H959V710H980"/></svg>