<svg width="1000" height="1000" viewBox="0 0 1000 1000" xmlns="http://www.w3.org/2000/svg"><path d="M521,104C293,104,108,290,108,518C108,746,293,931,521,931C749,931,935,746,935,518C935,290,749,104,521,104zM425,178H450V223H405V184C412,182,418,180,425,178zM691,208V223H646V187C661,193,676,200,691,208zM826,403V358H836C844,373,850,388,855,403H826zM860,418C864,433,868,448,870,463H826V418H860zM811,316V343H766V298H798C802,304,807,310,811,316zM766,643V598H811V643H766zM811,658V704H766V658H811zM766,583V538H811V583H766zM766,523V478H811V523H766zM766,463V418H811V463H766zM766,403V358H811V403H766zM751,249V283H706V238H737C741,242,746,246,751,249zM706,704V658H751V704H706zM751,719V764H706V719H751zM706,643V598H751V643H706zM706,583V538H751V583H706zM706,523V478H751V523H706zM706,463V418H751V463H706zM706,403V358H751V403H706zM706,343V298H751V343H706zM646,764V719H691V764H646zM691,779V824H646V779H691zM646,704V658H691V704H646zM646,643V598H691V643H646zM646,583V538H691V583H646zM646,523V478H691V523H646zM646,463V418H691V463H646zM646,403V358H691V403H646zM646,343V298H691V343H646zM646,283V238H691V283H646zM631,182V223H586V178H618C622,179,626,180,631,182zM586,764V719H631V764H586zM631,779V824H586V779H631zM586,704V658H631V704H586zM586,643V598H631V643H586zM586,583V538H631V583H586zM586,523V478H631V523H586zM586,463V418H631V463H586zM586,403V358H631V403H586zM586,343V298H631V343H586zM586,283V238H631V283H586zM526,764V719H571V764H526zM571,779V824H526V779H571zM526,704V658H571V704H526zM526,643V598H571V643H526zM526,583V538H571V583H526zM526,523V478H571V523H526zM526,463V418H571V463H526zM526,403V358H571V403H526zM526,283V238H571V283H526zM526,223V178H571V223H526zM465,764V719H511V764H465zM511,779V824H465V779H511zM465,704V658H511V704H465zM465,643V598H511V643H465zM465,583V538H511V583H465zM465,463V418H511V463H465zM465,403V358H511V403H465zM465,283V238H511V283H465zM465,223V178H511V223H465zM405,343V298H450V343H405zM450,779V824H405V779H450zM405,283V238H450V283H405zM345,779H390V824H345V779zM345,764V719H390V764H345zM345,704V658H390V704H345zM345,643V598H390V643H345zM345,583V538H390V583H345zM345,463V418H390V463H345zM345,403V358H390V403H345zM345,343V298H390V343H345zM345,283V238H390V283H345zM345,223V211C360,203,375,196,390,190V223H345zM285,719H330V764H285V719zM285,704V658H330V704H285zM285,643V598H330V643H285zM285,583V538H330V583H285zM285,523V478H330V523H285zM285,463V418H330V463H285zM285,403V358H330V403H285zM285,343V298H330V343H285zM285,283V255C292,249,299,244,306,238H330V283H285zM270,418V463H225V418H270zM225,403V358H270V403H225zM270,478V523H225V478H270zM270,538V583H225V538H270zM270,598V643H225V598H270zM270,658V704H225V658H270zM245,298H270V343H225V325C231,316,238,307,245,298zM210,358V403H187C192,388,199,373,206,358H210zM177,598H210V643H191C186,629,181,614,177,598zM174,583C171,569,170,554,169,538H210V583H174zM168,523C168,521,168,520,168,518C168,504,169,491,170,478H210V523H168zM172,463C175,448,178,433,182,418H210V463H172zM270,719V764H268C254,750,242,735,231,719H270zM285,780V779H330V815C314,805,299,793,285,780zM405,839H450V864C435,861,420,856,405,851V839zM465,839H511V871C495,870,480,869,465,866V839zM526,839H571V867C556,869,541,871,526,871V839zM586,839H631V854C616,858,601,862,586,865V839zM706,779H751V786C737,798,722,809,706,819V779zM766,764V719H811V720C800,735,788,750,775,764H766zM826,658H845C840,671,833,684,826,696V658zM826,643V598H865C861,614,857,629,851,643H826zM826,583V538H874C873,554,871,569,868,583H826zM826,523V478H872C874,491,875,504,875,518C875,520,874,521,874,523H826zM785,283H766V263C772,270,779,276,785,283z"/></svg>