<svg width="1000" height="1000" viewBox="0 0 1000 1000" xmlns="http://www.w3.org/2000/svg"><path d="M436,761H418L417,758C417,755,417,753,416,750C415,744,414,738,413,732C413,730,414,727,414,725C414,725,415,723,415,723C410,714,406,706,401,698C400,697,400,696,399,695C398,696,398,697,397,698C392,705,387,712,382,719C380,723,378,727,376,730C375,732,374,734,373,736L371,739L354,733L355,729C356,725,357,722,358,719C360,711,363,705,364,697C367,679,372,667,382,659C392,651,405,648,425,649C444,649,461,654,478,659C489,661,500,665,512,666C518,667,525,676,526,682C527,689,519,696,516,698C509,703,505,708,505,713C505,718,508,723,515,729C518,731,520,734,523,737C524,739,524,740,525,741L529,745L524,748C523,749,522,750,520,751C516,754,513,756,508,757C490,762,479,762,470,757C460,752,454,741,449,726C447,723,446,720,443,716L436,761zM426,752H429L439,689L445,701C447,704,449,707,450,710C453,715,455,719,457,723C468,751,476,756,506,749C509,748,512,746,515,744C515,743,515,743,516,743C515,743,515,743,515,743C513,740,512,738,509,736C500,728,496,721,496,713C496,705,501,698,510,691C514,688,517,684,517,683C517,680,512,675,511,675C499,673,487,670,476,667C459,663,443,658,425,658C392,656,378,667,373,699C371,707,369,714,367,721C366,723,366,725,365,727L367,728C367,727,367,727,368,726C370,722,372,718,374,714C379,707,385,700,390,693C392,690,394,687,396,684L400,678L404,684C405,687,407,690,409,693C414,702,418,710,423,719C424,722,424,725,423,728C423,729,422,730,422,731C423,737,424,743,425,749C425,750,425,751,426,752zM278,750L277,740C274,716,284,702,297,688C305,679,308,673,302,666L278,676L275,673C275,673,274,672,274,672C273,670,272,669,271,667C270,647,269,635,276,631C282,626,291,630,311,640C323,646,333,644,347,641C352,640,356,641,361,642C362,643,364,643,365,643L372,645L368,650C367,652,367,653,366,654C364,658,362,661,358,664L355,666C332,681,311,696,301,723C300,728,296,731,292,735C289,737,287,740,284,742L278,750zM305,655L307,657C322,674,310,687,304,694C294,705,287,714,286,729C289,725,292,722,293,720C303,690,327,674,350,659L353,656C355,655,356,653,358,651C355,650,352,649,349,649C337,653,323,656,307,648C299,644,283,636,281,638C278,640,279,656,280,665L305,655zM585,747C584,747,583,747,583,747C577,744,563,738,560,728C556,714,554,698,552,683C552,681,551,679,551,677C550,671,554,664,558,661C561,658,567,660,569,660C570,661,571,661,572,661L574,658C581,648,588,644,596,644C597,644,597,644,597,644C611,644,627,658,650,689L660,703L575,664C575,665,576,665,576,665C582,681,588,698,595,715C596,720,598,726,600,731L602,734L599,736C599,737,597,738,596,739C593,743,589,747,585,747zM563,668C561,670,560,674,560,675C560,677,561,679,561,681C563,696,564,712,569,726C570,730,576,734,585,738C586,737,589,734,590,733C590,732,591,732,591,732C589,727,588,722,586,718C580,701,574,685,568,669C567,669,564,668,563,668zM585,659L632,680C617,662,605,653,597,653C593,653,589,655,585,659zM692,734L689,732C668,721,672,703,675,688C675,687,675,685,676,684L677,679L682,681C692,684,699,692,701,701C704,712,702,722,695,731L692,734zM683,691C680,705,679,715,690,722C693,716,694,710,693,704C691,699,688,694,683,691zM472,633C450,633,431,630,414,624C350,601,309,554,292,485C284,454,293,425,301,398C303,392,305,386,306,379C309,371,311,363,313,355C313,353,314,351,315,348C308,347,303,347,300,349C297,351,295,355,294,361C292,377,283,383,273,390C271,391,269,393,267,394C248,408,229,427,212,450C200,465,191,481,182,497C177,506,172,514,167,522C161,533,159,544,162,554C166,564,173,572,183,576C196,581,205,587,213,593C218,596,219,601,221,606C222,608,223,610,223,611L226,616L221,618C218,618,215,619,212,620C202,624,196,626,193,622C186,612,180,614,170,616C168,616,167,616,166,616C159,618,152,616,145,615C142,615,140,614,138,614C132,613,126,612,120,612C104,610,87,608,71,605C58,603,49,598,46,590C43,583,45,574,53,563C67,542,82,522,97,503C103,496,108,489,113,482C119,475,126,465,143,472C146,473,152,471,158,465C166,458,170,450,170,446C169,445,163,441,160,442C156,442,152,445,148,447C146,448,144,450,141,451L137,453L135,449C125,428,136,416,147,407C149,405,151,403,154,401C161,396,168,391,172,384C174,380,173,368,170,365C167,363,155,363,151,366C143,372,137,381,130,390C128,392,126,395,124,397C117,406,110,415,103,424C96,433,89,443,81,452C80,455,77,455,74,456C72,456,71,457,69,458L62,460L63,453C64,445,67,438,70,431C76,417,78,408,69,400L65,397L69,394C77,387,85,381,92,375C108,362,123,349,138,337C153,326,153,312,152,295C152,282,152,268,158,255L162,247L166,254C168,257,169,259,170,261C173,265,174,268,175,272C175,279,177,283,180,285C183,288,189,287,198,284C203,282,208,280,213,279C231,272,250,265,267,256C274,252,280,242,285,232C286,230,287,228,288,226C291,221,292,214,294,208C295,205,296,202,297,199L298,196L311,197V200C312,203,313,206,314,209C316,216,317,222,320,229C322,235,325,239,327,239C329,240,332,238,335,235C347,222,361,206,386,226C389,228,399,228,413,224C426,220,438,214,442,209C445,205,448,203,451,200C453,199,454,198,455,197L457,195L470,201L469,205C468,208,468,211,467,214C464,222,462,231,460,239C459,241,458,243,456,245C455,247,454,248,454,250C452,257,451,266,451,275C452,275,454,276,456,276C463,269,472,260,478,250C479,248,479,244,479,241C479,236,479,231,484,229C496,224,510,218,524,219C538,221,553,224,567,228C573,230,580,231,587,233C595,235,603,237,611,239C631,244,652,249,672,250C672,250,672,250,672,250C680,250,690,242,699,235C703,231,708,228,712,225C716,223,719,220,723,217C725,216,726,215,728,214L731,211L740,221L738,224C737,227,735,229,734,231C730,236,727,241,724,246C722,251,720,257,719,263C719,264,718,265,718,267C720,267,722,268,725,269C733,271,741,274,748,273C754,273,760,270,767,266C770,264,773,262,777,260L785,257L783,265C778,295,789,311,826,324C845,331,862,342,879,352C884,355,890,359,895,362C899,364,904,371,905,375C905,377,905,379,904,380C892,397,900,405,911,416C915,420,920,424,923,429C923,429,923,429,923,430C924,431,925,432,925,434C926,435,926,436,926,438C926,439,926,441,926,443L927,453L919,447C916,445,912,443,909,441C902,436,896,432,891,427C884,421,877,414,871,408C860,397,849,385,836,376C828,370,817,367,805,364C800,362,794,360,789,358L786,357V354C786,346,782,338,774,332C761,322,742,318,726,323V323C724,323,723,324,722,324C716,330,709,337,703,343C702,343,702,344,701,344C702,345,704,345,705,346C712,349,719,352,726,353C733,354,739,354,746,354C758,355,770,355,783,358L792,360L763,385L830,388L825,394C817,407,812,414,813,418C813,421,819,426,829,433H830C849,446,867,457,891,456C902,456,914,467,918,472C924,478,926,483,925,489C923,494,918,498,910,500C905,501,898,507,897,511C897,514,903,520,907,522C918,526,928,528,939,531C946,533,952,534,959,536C963,538,966,540,968,542C969,543,970,544,971,545L976,549L970,552C969,553,968,554,967,554C964,557,960,559,956,558C948,556,940,556,932,555C912,553,892,551,874,532C865,522,851,516,835,511C828,508,820,505,812,501C799,494,787,487,774,480C770,478,766,475,762,473C757,470,752,467,746,463C746,463,745,463,745,462L752,494L735,502L733,498C732,495,731,492,730,490C727,484,724,478,721,472C719,468,717,464,715,461C711,451,707,443,701,437C697,433,694,431,691,433C687,434,685,439,684,446C683,451,683,457,683,462C683,473,683,484,679,495C666,533,649,562,627,584C602,608,571,622,531,628C513,630,492,633,472,633C472,633,472,633,472,633zM307,338C311,338,316,339,321,341L325,342L324,346C323,350,322,354,322,357C319,365,317,374,315,382C313,388,311,394,310,401C301,428,293,454,300,483C317,549,356,594,417,615C452,628,489,624,530,619C600,609,645,569,671,492C674,483,674,473,674,462C674,456,674,451,675,445C676,434,681,427,688,424C691,423,699,422,707,430C715,437,719,447,723,457C725,461,727,464,729,468C732,474,735,480,738,486C738,487,739,489,740,490L742,489L731,444L740,449C744,452,748,454,751,456C757,459,762,462,766,465C771,467,775,470,779,472C791,479,804,487,816,493C823,497,831,500,839,502C854,508,870,514,880,526C896,543,914,544,933,546C941,547,949,548,958,550C958,549,960,549,961,548C959,547,958,545,957,545C950,543,943,541,937,540C926,537,915,534,904,530C897,528,887,517,888,510C890,501,900,493,907,491C912,490,916,488,916,486C917,484,915,481,912,478C904,470,896,465,891,465C865,466,846,455,825,440H824C811,431,805,427,804,419C803,413,806,407,813,396L739,393L772,365C763,364,754,364,746,363C739,363,732,363,725,362C717,361,709,357,701,354C698,353,695,351,691,350L685,347L690,342C692,340,694,338,696,336C703,330,709,324,716,318C718,316,721,315,723,314H724C743,309,765,313,780,325C789,332,794,341,795,351C799,352,804,354,808,355C820,358,832,362,841,369C855,378,866,390,877,401C884,408,890,415,897,421C902,425,907,429,914,433C914,433,915,434,915,434C915,434,915,434,915,434C913,430,909,426,905,422C894,411,881,398,896,376C895,374,892,371,891,370C885,367,880,363,874,360C858,350,841,339,823,333C792,321,771,306,773,272C773,273,772,273,771,274C764,278,756,282,748,282C739,283,731,280,722,277C718,276,715,275,711,274L707,273L708,269C709,266,709,263,710,261C712,255,713,248,716,242C719,237,722,232,726,227C723,229,720,231,717,233C713,235,709,239,705,242C694,250,683,259,672,259C650,258,629,253,609,247C601,245,593,243,585,242C578,240,571,238,564,237C551,233,537,230,523,228C512,227,499,232,489,237C488,238,488,240,488,241C488,246,488,251,486,255C479,266,469,276,461,283C456,287,444,282,444,282C441,281,441,278,441,278C442,267,443,257,445,248C446,245,447,242,449,240C450,239,451,237,451,236C454,228,456,220,458,212C459,210,459,208,460,206H459C458,206,458,207,457,207C454,210,451,212,449,215C443,221,430,228,416,232C406,235,389,239,381,233C363,219,355,226,342,241C337,246,331,249,326,248C320,247,315,241,311,232C309,225,307,218,305,211C305,210,304,208,304,207C304,208,303,209,303,210C301,217,299,224,296,230C295,232,294,234,293,236C287,246,281,258,271,264C254,274,234,280,216,287C211,289,206,291,201,292C194,295,183,298,175,293C169,289,166,282,166,272C166,271,165,269,163,267C161,276,161,285,161,294C162,312,162,331,144,345C128,356,113,369,97,382C91,387,85,392,79,397C88,409,83,423,78,435C76,439,75,443,73,447C74,447,74,447,74,446C82,437,89,428,96,419C103,410,110,400,117,391C119,389,121,387,123,384C130,375,137,366,146,359C153,354,170,353,176,359C182,364,184,381,179,389C175,397,167,403,159,408C157,410,155,412,152,414C140,424,138,432,141,440C142,440,143,440,143,439C148,436,153,433,159,433C165,432,177,437,178,444C181,454,172,465,164,472C160,475,149,484,140,480C130,476,127,479,121,488C115,495,110,502,105,508C90,528,74,548,60,568C56,574,52,581,54,587C57,593,66,595,73,596C89,599,105,601,121,603C127,604,133,604,139,605C141,605,144,606,147,606C153,608,159,609,164,608C165,607,167,607,168,607C178,605,189,602,199,615C201,615,206,613,209,612C211,611,212,611,213,610C213,610,213,610,213,609C211,605,210,602,208,600C201,594,191,589,180,584C167,579,158,569,154,557C150,544,152,530,159,518C164,510,169,501,174,493C183,476,193,460,205,444C223,420,242,401,262,387C264,385,266,384,268,383C277,376,284,372,285,360C286,351,290,345,295,341C298,339,302,338,307,338zM686,564C686,564,686,564,685,564H678L681,557C696,528,739,501,765,504L772,505L769,511C763,521,749,534,731,545C713,557,696,564,686,564zM756,513C736,516,709,534,694,553C713,548,742,529,756,513zM472,633C450,633,431,630,414,624C350,601,309,554,292,485C284,454,293,425,301,398C303,392,305,386,306,379C309,371,311,363,313,355C313,353,314,351,315,348C308,347,303,347,300,349C297,351,295,355,294,361C292,377,283,383,273,390C271,391,269,393,267,394C248,408,229,427,212,450C200,465,191,481,182,497C177,506,172,514,167,522C161,533,159,544,162,554C166,564,173,572,183,576C196,581,205,587,213,593C218,596,219,601,221,606C222,608,223,610,223,611L226,616L221,618C218,618,215,619,212,620C202,624,196,626,193,622C186,612,180,614,170,616C168,616,167,616,166,616C159,618,152,616,145,615C142,615,140,614,138,614C132,613,126,612,120,612C104,610,87,608,71,605C58,603,49,598,46,590C43,583,45,574,53,563C67,542,82,522,97,503C103,496,108,489,113,482C119,475,126,465,143,472C146,473,152,471,158,465C166,458,170,450,170,446C169,445,163,441,160,442C156,442,152,445,148,447C146,448,144,450,141,451L137,453L135,449C125,428,136,416,147,407C149,405,151,403,154,401C161,396,168,391,172,384C174,380,173,368,170,365C167,363,155,363,151,366C143,372,137,381,130,390C128,392,126,395,124,397C117,406,110,415,103,424C96,433,89,443,81,452C80,455,77,455,74,456C72,456,71,457,69,458L62,460L63,453C64,445,67,438,70,431C76,417,78,408,69,400L65,397L69,394C77,387,85,381,92,375C108,362,123,349,138,337C153,326,153,312,152,295C152,282,152,268,158,255L162,247L166,254C168,257,169,259,170,261C173,265,174,268,175,272C175,279,177,283,180,285C183,288,189,287,198,284C203,282,208,280,213,279C231,272,250,265,267,256C274,252,280,242,285,232C286,230,287,228,288,226C291,221,292,214,294,208C295,205,296,202,297,199L298,196L311,197V200C312,203,313,206,314,209C316,216,317,222,320,229C322,235,325,239,327,239C329,240,332,238,335,235C347,222,361,206,386,226C389,228,399,228,413,224C426,220,438,214,442,209C445,205,448,203,451,200C453,199,454,198,455,197L457,195L470,201L469,205C468,208,468,211,467,214C464,222,462,231,460,239C459,241,458,243,456,245C455,247,454,248,454,250C452,257,451,266,451,275C452,275,454,276,456,276C463,269,472,260,478,250C479,248,479,244,479,241C479,236,479,231,484,229C496,224,510,218,524,219C538,221,553,224,567,228C573,230,580,231,587,233C595,235,603,237,611,239C631,244,652,249,672,250C680,250,690,242,699,235C703,231,708,228,712,225C716,223,719,220,723,217C725,216,726,215,728,214L731,211L740,221L738,224C737,227,735,229,734,231C730,236,727,241,724,246C722,251,720,257,719,263C719,264,718,265,718,267C720,267,722,268,725,269C733,271,741,274,748,273C754,273,760,270,767,266C770,264,773,262,777,260L785,257L783,265C778,295,789,311,826,324C845,331,862,342,879,352C884,355,890,359,895,362C899,364,904,371,905,375C905,377,905,379,904,380C892,397,900,405,911,416C915,420,920,424,923,429C923,429,923,429,923,430C924,431,925,432,925,434C926,435,926,436,926,438C926,439,926,441,926,443L927,453L919,447C916,445,912,443,909,441C902,436,896,432,891,427C884,421,877,414,871,408C860,397,849,385,836,376C828,370,817,367,805,364C800,362,794,360,789,358L786,357V354C786,346,782,338,774,332C761,322,742,318,726,323V323C724,323,723,324,722,324C716,330,709,337,703,343C702,343,702,344,701,344C702,345,704,345,705,346C712,349,719,352,726,353C733,354,739,354,746,354C758,355,770,355,783,358L792,360L763,385L830,388L825,394C817,407,812,414,813,418C813,421,819,426,829,433H830C849,446,867,457,891,456C902,456,914,467,918,472C924,478,926,483,925,489C923,494,918,498,910,500C905,501,898,507,897,511C897,514,903,520,907,522C918,526,928,528,939,531C946,533,952,534,959,536C963,538,966,540,968,542C969,543,970,544,971,545L976,549L970,552C969,553,968,554,967,554C964,557,960,559,956,558C948,556,940,556,932,555C912,553,892,551,874,532C865,522,851,516,835,511C828,508,820,505,812,501C799,494,787,487,774,480C770,478,766,475,762,473C757,470,752,467,746,463C746,463,745,463,745,462L752,494L735,502L733,498C732,495,731,492,730,490C727,484,724,478,721,472C719,468,717,464,715,461C711,451,707,443,701,437C697,433,694,431,691,433C687,434,685,439,684,446C683,451,683,457,683,462C683,473,683,484,679,495C666,533,649,562,627,584C602,608,571,622,531,628C513,630,492,633,472,633C472,633,472,633,472,633zM307,338C311,338,316,339,321,341L325,342L324,346C323,350,322,354,322,357C319,365,317,374,315,382C313,388,311,394,310,401C301,428,293,454,300,483C317,549,356,594,417,615C452,628,489,624,530,619C600,609,645,569,671,492C674,483,674,473,674,462C674,456,674,451,675,445C676,434,681,427,688,424C691,423,699,422,707,430C715,437,719,447,723,457C725,461,727,464,729,468C732,474,735,480,738,486C738,487,739,489,740,490L742,489L731,444L740,449C744,452,748,454,751,456C757,459,762,462,766,465C771,467,775,470,779,472C791,479,804,487,816,493C823,497,831,500,839,502C854,508,870,514,880,526C896,543,914,544,933,546C941,547,949,548,958,550C958,549,960,549,961,548C959,547,958,545,957,545C950,543,943,541,937,540C926,537,915,534,904,530C897,528,887,517,888,510C890,501,900,493,907,491C912,490,916,488,916,486C917,484,915,481,912,478C904,470,896,465,891,465C891,465,891,465,891,465C865,466,846,455,825,440H824C811,431,805,427,804,419C803,413,806,407,813,396L739,393L772,365C763,364,754,364,746,363C739,363,732,363,725,362C717,361,709,357,701,354C698,353,695,351,691,350L685,347L690,342C692,340,694,338,696,336C703,330,709,324,716,318C718,316,721,315,723,314H724C743,309,765,313,780,325C789,332,794,341,795,351C799,352,804,354,808,355C820,358,832,362,841,369C855,378,866,390,877,401C884,408,890,415,897,421C902,425,907,429,914,433C914,433,915,434,915,434C915,434,915,434,915,434C913,430,909,426,905,422C894,411,881,398,896,376C895,374,892,371,891,370C885,367,880,363,874,360C858,350,841,339,823,333C792,321,771,306,773,272C773,273,772,273,771,274C764,278,756,282,748,282C739,283,731,280,722,277C718,276,715,275,711,274L707,273L708,269C709,266,709,263,710,261C712,255,713,248,716,242C719,237,722,232,726,227C723,229,720,231,717,233C713,235,709,239,705,242C694,250,683,259,672,259C650,258,629,253,609,247C601,245,593,243,585,242C578,240,571,238,564,237C551,233,537,230,523,228C512,227,499,232,489,237C488,238,488,240,488,241C488,246,488,251,486,255C479,266,469,276,461,283C456,287,444,282,444,282C441,281,441,278,441,278C442,267,443,257,445,248C446,245,447,242,449,240C450,239,451,237,451,236C454,228,456,220,458,212C459,210,459,208,460,206H459C458,206,458,207,457,207C454,210,451,212,449,215C443,221,430,228,416,232C406,235,389,239,381,233C363,219,355,226,342,241C338,244,335,247,332,248C345,256,351,263,351,271C351,280,343,287,334,293L333,294L319,293L324,247C319,246,315,240,311,232C309,225,307,218,305,211C305,210,304,208,304,207C304,208,303,209,303,210C301,217,299,224,296,230C295,232,294,234,293,236C287,246,281,258,271,264C254,274,234,280,216,287C211,289,206,291,201,292C194,295,183,298,175,293C169,289,166,282,166,272C166,271,165,269,163,267C161,276,161,285,161,294C162,312,162,331,144,345C128,356,113,369,97,382C91,387,85,392,79,397C88,409,83,423,78,435C76,439,75,443,73,447C74,447,74,447,74,446C82,437,89,428,96,419C103,410,110,400,117,391C119,389,121,387,123,384C130,375,137,366,146,359C153,354,170,353,176,359C182,364,184,381,179,389C175,397,167,403,159,408C157,410,155,412,152,414C140,424,138,432,141,440C142,440,143,440,143,439C148,436,153,433,159,433C165,432,177,437,178,444C181,454,172,465,164,472C160,475,149,484,140,480C130,476,127,479,121,488C115,495,110,502,105,508C90,528,74,548,60,568C56,574,52,581,54,587C57,593,66,595,73,596C89,599,105,601,121,603C127,604,133,604,139,605C141,605,144,606,147,606C153,608,159,609,164,608C165,607,167,607,168,607C178,605,189,602,199,615C201,615,206,613,209,612C211,611,212,611,213,610C213,610,213,610,213,609C211,605,210,602,208,600C201,594,191,589,180,584C167,579,158,569,154,557C150,544,152,530,159,518C164,510,169,501,174,493C183,476,193,460,205,444C223,420,242,401,262,387C264,385,266,384,268,383C277,376,284,372,285,360C286,351,290,345,295,341C298,339,302,338,307,338zM329,285H331C339,279,342,274,342,271C342,268,339,264,332,259L329,285zM510,593C494,593,478,583,464,574L461,572C456,569,452,566,450,567C449,567,447,569,444,574C442,580,435,582,429,584C427,584,425,585,423,586L418,588L417,583C416,581,415,579,415,577C412,571,410,565,412,560V559C416,549,417,546,410,541C405,537,403,526,406,521C409,515,418,512,424,512C430,512,437,514,442,516L443,517C445,517,447,518,450,519C461,523,473,527,484,532C496,537,509,543,520,552C525,556,533,558,541,556C550,555,557,550,561,544C563,540,565,536,567,532C569,530,570,528,571,525L574,521L578,524C587,530,591,535,592,541C594,550,588,557,583,565C565,588,540,590,518,592C516,593,515,593,513,593C512,593,511,593,510,593zM451,558C456,558,460,561,466,565L469,566C482,575,499,585,512,584C514,584,516,584,517,583C539,581,561,579,575,559C581,552,584,547,583,543C583,540,581,537,577,534C576,535,576,536,575,536C573,541,571,545,568,549C563,557,554,563,543,565C532,567,522,565,514,559C504,551,492,545,481,540C470,535,458,531,447,527C445,526,442,526,440,525H439C434,523,429,521,424,521C420,521,415,523,414,525C413,526,414,532,416,534C428,543,424,553,420,562V563C420,565,421,569,423,574C423,574,424,575,424,576C425,576,426,575,426,575C430,574,435,572,436,570C440,563,443,560,448,558C449,558,450,558,451,558zM122,588C115,588,108,585,102,580C99,578,99,575,100,569C100,566,102,559,106,557C128,547,139,566,144,574L146,577L143,580C136,585,129,588,122,588zM108,573C117,580,125,581,134,575C126,564,120,561,110,565C109,566,108,571,108,573zM387,518C381,518,374,516,370,514C349,502,340,481,344,454C344,450,344,446,344,442C344,435,344,429,344,422C346,409,350,395,368,389C374,387,379,383,384,379C388,376,393,373,398,370C402,368,408,369,412,370C414,371,416,371,417,371L422,372L421,376C421,378,421,379,421,381C420,385,420,389,418,392C404,427,393,456,403,489C406,497,402,510,396,516C394,518,391,518,387,518zM403,378C403,378,402,378,402,378C397,380,393,383,389,386C384,390,378,395,371,397C359,402,355,411,353,423C353,429,353,435,353,442C353,446,353,450,353,455V455V455C350,471,352,493,375,506C380,509,389,510,390,509C394,506,396,497,395,492C383,453,397,419,410,389C411,386,412,383,412,380C412,380,412,380,412,379C411,379,411,379,410,379C408,378,405,378,403,378zM199,374C196,374,194,373,192,373C187,371,184,368,182,363C177,351,179,329,188,320C203,305,222,295,243,284C254,279,261,281,265,283C270,286,276,294,275,312V313C274,325,269,342,248,352C242,355,235,358,229,362C226,364,223,366,219,368C212,372,205,374,199,374zM256,290C253,290,250,291,247,292C226,303,208,313,194,327C188,332,186,350,190,360C191,362,193,363,195,364C200,366,207,364,215,360C218,358,221,356,224,354C231,351,237,347,244,343C258,337,265,327,266,312C267,301,264,294,260,291C259,290,257,290,256,290zM343,352L347,343C355,326,362,315,372,312C382,308,393,313,409,322L417,327L343,352zM378,320C377,320,376,320,375,320C370,322,366,327,360,337L395,325C388,321,383,320,378,320zM634,338L636,331C641,313,655,297,670,289C680,285,689,284,697,287C701,289,712,295,712,302C711,309,707,321,699,323C686,327,673,330,658,333C653,334,647,335,641,336L634,338zM687,294C683,294,679,295,674,297C663,303,653,313,648,326C651,325,654,324,657,324C671,321,684,318,697,314C699,314,702,307,703,302C702,301,698,297,693,295C691,294,689,294,687,294zM703,302V302V302zM591,306H590C585,305,579,304,574,303C560,300,546,297,532,293C526,291,523,279,523,278C522,275,522,272,525,270C526,269,528,267,530,266C538,259,548,251,557,251C557,251,558,251,558,251C582,251,606,257,626,262C633,264,639,270,644,275C646,278,648,280,650,282L655,286L650,289C647,290,645,292,642,293C636,297,630,301,623,303C615,305,607,305,599,306C597,306,594,306,591,306V306zM535,284C548,288,562,291,576,294C581,295,586,296,591,297C594,297,596,297,599,297C606,296,614,296,621,294C626,292,632,289,637,286C638,285,639,285,640,284C639,283,638,282,637,282C633,277,629,272,624,271C604,266,581,260,557,260C551,260,543,267,536,273C534,274,533,275,532,276C532,278,534,283,535,284zM384,292L381,288C378,285,375,282,372,279C364,271,360,268,363,263C366,257,375,242,385,242C393,242,399,247,406,252C408,253,411,255,413,257L418,260L384,292zM371,266C373,267,376,270,378,273C380,275,382,277,385,279L404,261C403,260,402,260,400,259C395,255,390,251,386,251C383,251,377,256,371,266zM436,761H418L417,758C417,755,417,753,416,750C415,744,414,738,413,732C413,730,414,727,414,725C414,725,415,723,415,723C410,714,406,706,401,698C400,697,400,696,399,695C398,696,398,697,397,698C392,705,387,712,382,719C380,723,378,727,376,730C375,732,374,734,373,736L371,739L354,733L355,729C356,725,357,722,358,719C360,711,363,705,364,697C367,679,372,667,382,659C392,651,405,648,425,649C444,649,461,654,478,659C489,661,500,665,512,666C518,667,525,676,526,682C527,689,519,696,516,698C509,703,505,708,505,713C505,718,508,723,515,729C518,731,520,734,523,737C524,739,524,740,525,741L529,745L524,748C523,749,522,750,520,751C516,754,513,756,508,757C490,762,479,762,470,757C460,752,454,741,449,726C447,723,446,720,443,716L436,761zM426,752H429L439,689L445,701C447,704,449,707,450,710C453,715,455,719,457,723C468,751,476,756,506,749C509,748,512,746,515,744C515,743,515,743,516,743C515,743,515,743,515,743C513,740,512,738,509,736C500,728,496,721,496,713C496,705,501,698,510,691C514,688,517,684,517,683C517,680,512,675,511,675C499,673,487,670,476,667C459,663,443,658,425,658C392,656,378,667,373,699C371,707,369,714,367,721C366,723,366,725,365,727L367,728C367,727,367,727,368,726C370,722,372,718,374,714C379,707,385,700,390,693C392,690,394,687,396,684L400,678L404,684C405,687,407,690,409,693C414,702,418,710,423,719C424,722,424,725,423,728C423,729,422,730,422,731C423,737,424,743,425,749C425,750,425,751,426,752zM415,723C415,723,415,723,415,723C415,723,415,723,415,723zM278,750L277,740C274,716,284,702,297,688C305,679,308,673,302,666L278,676L275,673C275,673,274,672,274,672C273,670,272,669,271,667C270,647,269,635,276,631C282,626,291,630,311,640C323,646,333,644,347,641C352,640,356,641,361,642C362,643,364,643,365,643L372,645L368,650C367,652,367,653,366,654C364,658,362,661,358,664L355,666C332,681,311,696,301,723C300,728,296,731,292,735C289,737,287,740,284,742L278,750zM305,655L307,657C322,674,310,687,304,694C294,705,287,714,286,729C289,725,292,722,293,720C303,690,327,674,350,659L353,656C355,655,356,653,358,651C355,650,352,649,349,649C337,653,323,656,307,648C299,644,283,636,281,638C278,640,279,656,280,665L305,655zM585,747C584,747,583,747,583,747C577,744,563,738,560,728C556,714,554,698,552,683C552,681,551,679,551,677C550,671,554,664,558,661C561,658,567,660,569,660C572,661,575,663,576,665C582,681,588,698,595,715C596,720,598,726,600,731L602,734L599,736C599,737,597,738,596,739C593,743,589,747,585,747zM563,668C561,670,560,674,560,675C560,677,561,679,561,681C563,696,564,712,569,726C570,730,576,734,585,738C586,737,589,734,590,733C590,732,591,732,591,732C589,727,588,722,586,718C580,701,574,685,568,669C567,669,564,668,563,668zM563,668V668V668zM686,564C686,564,686,564,685,564H678L681,557C696,528,739,501,765,504L772,505L769,511C763,521,749,534,731,545C713,557,696,564,686,564zM756,513C736,516,709,534,694,553C713,548,742,529,756,513zM660,703L571,662L574,658C581,648,588,644,596,644C597,644,597,644,597,644C611,644,627,658,650,689L660,703zM585,659L632,680C617,662,605,653,597,653C597,653,597,653,597,653C593,653,589,655,585,659zM692,734L689,732C668,721,672,703,675,688C675,687,675,685,676,684L677,679L682,681C692,684,699,692,701,701C704,712,702,722,695,731L692,734zM683,691C680,705,679,715,690,722C693,716,694,710,693,704C691,699,688,694,683,691zM510,593C494,593,478,583,464,574L461,572C456,569,452,566,450,567C449,567,447,569,444,574C442,580,435,582,429,584C427,584,425,585,423,586L418,588L417,583C416,581,415,579,415,577C412,571,410,565,412,560V559C416,549,417,546,410,541C405,537,403,526,406,521C409,515,418,512,424,512C430,512,437,514,442,516L443,517C445,517,447,518,450,519C461,523,473,527,484,532C496,537,509,543,520,552C525,556,533,558,541,556C550,555,557,550,561,544C563,540,565,536,567,532C569,530,570,528,571,525L574,521L578,524C587,530,591,535,592,541C594,550,588,557,583,565C565,588,540,590,518,592C516,593,515,593,513,593C512,593,511,593,510,593zM451,558C456,558,460,561,466,565L469,566C482,575,499,585,512,584C514,584,516,584,517,583C539,581,561,579,575,559C581,552,584,547,583,543C583,540,581,537,577,534C576,535,576,536,575,536C573,541,571,545,568,549C563,557,554,563,543,565C532,567,522,565,514,559C504,551,492,545,481,540C470,535,458,531,447,527C445,526,442,526,440,525H439C434,523,429,521,424,521C420,521,415,523,414,525C413,526,414,532,416,534C428,543,424,553,420,562V563C420,565,421,569,423,574C423,574,424,575,424,576C425,576,426,575,426,575C430,574,435,572,436,570C440,563,443,560,448,558C449,558,450,558,451,558zM387,518C381,518,374,516,370,514C349,502,340,481,344,454C344,450,344,446,344,442C344,435,344,429,344,422C346,409,350,395,368,389C374,387,379,383,384,379C388,376,393,373,398,370C402,368,408,369,412,370C414,371,416,371,417,371L422,372L421,376C421,378,421,379,421,381C420,385,420,389,418,392C404,427,393,456,403,489C406,497,402,510,396,516C394,518,391,518,387,518zM403,378C403,378,402,378,402,378C397,380,393,383,389,386C384,390,378,395,371,397C359,402,355,411,353,423C353,429,353,435,353,442C353,446,353,450,353,455V455V455C350,471,352,493,375,506C380,509,389,510,390,509C394,506,396,497,395,492C383,453,397,419,410,389C411,386,412,383,412,380C412,380,412,380,412,379C411,379,411,379,410,379C408,378,405,378,403,378zM199,374C196,374,194,373,192,373C187,371,184,368,182,363C179,357,179,349,180,341C180,335,182,326,188,320C203,305,222,295,243,284C254,279,261,281,265,283C270,286,276,294,275,312V313C274,325,269,342,248,352C242,355,235,358,229,362C226,364,223,366,219,368C212,372,205,374,199,374zM256,290C253,290,250,291,247,292C226,303,208,313,194,327C188,332,186,350,190,360C191,362,193,363,195,364C200,366,207,364,215,360C218,358,221,356,224,354C231,351,237,347,244,343C258,337,265,327,266,312C267,301,264,294,260,291C259,290,257,290,256,290zM591,306H590C585,305,579,304,574,303C560,300,546,297,532,293C526,291,523,279,523,278C522,275,522,272,525,270C526,269,528,267,530,266C538,259,548,251,557,251C557,251,558,251,558,251C582,251,606,257,626,262C633,264,639,270,644,275C646,278,648,280,650,282L655,286L650,289C647,290,645,292,642,293C636,297,630,301,623,303C615,305,607,305,599,306C597,306,594,306,591,306V306zM535,284C548,288,562,291,576,294C581,295,586,296,591,297C594,297,596,297,599,297C606,296,614,296,621,294C626,292,632,289,637,286C638,285,639,285,640,284C639,283,638,282,637,282C633,277,629,272,624,271C604,266,581,260,557,260C551,260,543,267,536,273C534,274,533,275,532,276C532,278,534,283,535,284zM634,338L636,331C641,313,655,297,670,289C680,285,689,284,697,287C701,289,712,295,712,302C711,309,707,321,699,323C686,327,673,330,658,333C653,334,647,335,641,336L634,338zM687,294C683,294,679,295,674,297C663,303,653,313,648,326C651,325,654,324,657,324C671,321,684,318,697,314C699,314,702,307,703,302C702,301,698,297,693,295C691,294,689,294,687,294zM703,302V302V302zM384,292L381,288C378,285,375,282,372,279C364,271,360,268,363,263C373,244,382,242,385,242C393,242,399,247,406,252C408,253,411,255,413,257L418,260L384,292zM371,266C373,267,376,270,378,273C380,275,382,277,385,279L404,261C403,260,402,260,400,259C395,255,390,251,386,251C383,251,377,256,371,266zM343,352L347,343C355,326,362,315,372,312C382,308,393,313,409,322L417,327L343,352zM378,320C377,320,376,320,375,320C370,322,366,327,360,337L395,325C388,321,383,320,378,320zM122,588C115,588,108,585,102,580C99,578,99,575,100,569C100,566,102,559,106,557C128,547,139,566,144,574L146,577L143,580C136,585,129,588,122,588zM108,573C117,580,125,581,134,575C126,564,120,561,110,565C109,566,108,571,108,573zM110,564V564zM333,294L319,293L324,243L330,247C341,254,351,261,351,271C351,280,343,287,334,293L333,294zM329,285H331C339,279,342,274,342,271C342,268,339,264,332,259L329,285z"/></svg>