<svg width="1000" height="1000" viewBox="0 0 1000 1000" xmlns="http://www.w3.org/2000/svg"><path d="M1-3V997H1001V-3H1zM922,469C916,377,881,293,826,226L922,130V469zM445,495L221,718C173,657,144,580,144,497C144,412,174,335,223,273L445,495zM278,218C339,169,417,140,501,140C585,140,662,169,723,218L501,439L278,218zM501,550L725,773C664,823,586,853,501,853C416,853,337,823,276,773L501,550zM556,495L778,273C828,335,857,412,857,497C857,580,828,657,780,718L556,495zM770,171C704,116,620,81,529,75H867L770,171zM473,75C381,81,298,116,231,171L135,75H473zM176,226C120,293,85,377,79,469V130L176,226zM79,525C85,616,119,699,174,765L79,859V525zM229,820C296,877,380,912,473,919H130L229,820zM529,919C621,912,706,877,772,820L871,919H529zM827,765C882,698,916,615,922,525V859L827,765z"/></svg>