<svg width="1000" height="1000" viewBox="0 0 1000 1000" xmlns="http://www.w3.org/2000/svg"><path d="M513,982C513,978,513,974,511,970C509,966,507,962,505,960C503,958,499,954,495,954C491,952,485,952,479,952C477,952,477,952,475,952C473,952,471,952,469,952C465,952,463,954,459,954C453,956,447,958,443,960C439,962,435,964,431,966C427,968,425,970,423,970C421,970,421,970,421,970L419,968C419,966,419,964,417,962C417,960,417,956,417,952C417,948,417,946,417,944C417,942,417,940,417,938C417,936,417,936,419,934C419,932,421,932,421,930C423,928,425,926,429,924C433,922,439,920,445,916C451,914,459,912,467,910C475,908,483,908,493,908C495,908,497,908,501,908C505,908,507,908,511,908C517,908,521,910,527,912C537,914,545,920,551,924C557,930,563,936,565,944C569,952,569,960,569,970C569,978,569,984,567,992C567,994,565,998,565,1000H685C663,912,585,846,491,846C397,846,317,912,297,1000H509C511,998,511,996,513,994C513,994,513,988,513,982zM854,1000H968H854zM822,0V224H184V0H4V1000H32V944H146V1000H186V796H822V1000H854V944H968V1000H1002V0H822zM144,872H30V816H144V872zM144,741H30V685H144V741zM144,611H30V555H144V611zM144,483H30V427H144V483zM144,353H30V297H144V353zM144,222H30V166H144V222zM144,94H30V38H144V94zM822,764H184V259H822V764zM968,872H854V816H968V872zM968,741H854V685H968V741zM968,611H854V555H968V611zM968,483H854V427H968V483zM968,353H854V297H968V353zM968,222H854V166H968V222zM968,94H854V38H968V94zM531,0V46H573C575,46,575,46,577,48C577,48,579,50,579,52C579,54,581,56,581,58C581,60,581,64,581,68C581,72,581,74,581,78C581,80,581,82,579,84C579,86,577,86,577,88C577,88,575,88,573,88H433C431,88,431,88,431,88C431,88,429,86,429,84C429,82,427,80,427,78C427,76,427,72,427,68C427,64,427,62,427,58C427,56,427,54,429,52C429,50,431,50,431,48C431,48,433,46,435,46H483V0H297C313,94,395,166,495,166C595,166,677,94,691,0H531zM491,303C381,303,291,393,291,503C291,614,381,704,491,704C601,704,692,614,692,503C692,393,601,303,491,303zM577,601C577,603,576,605,575,607L573,610L570,611H431C429,611,426,611,424,610C422,610,421,609,419,608C418,606,417,604,417,601C416,599,416,595,416,591C416,587,416,583,416,580C417,577,418,575,419,572C420,570,421,568,422,566C424,564,426,561,428,559L470,514C478,505,485,497,490,490C495,483,499,477,502,471C505,465,507,459,508,454C509,450,509,445,509,440C509,436,509,432,507,429C506,425,504,422,502,419C499,416,496,414,492,413C488,411,484,410,479,410C471,410,465,411,459,413C453,415,449,417,444,419C440,422,436,424,434,426C431,428,428,429,427,429L424,428L422,424C422,422,421,420,421,417C421,414,420,410,420,406C420,403,420,401,421,399C421,397,421,395,421,394L423,390L426,386C428,385,431,383,435,381C439,378,444,376,450,374C456,372,463,370,470,369C478,367,485,366,493,366C506,366,517,368,526,371C535,374,543,379,549,384C555,390,560,397,563,404C566,412,568,420,568,429C568,437,567,445,565,452C564,460,561,468,556,477C551,486,545,495,536,506C528,516,516,529,502,543L474,572H569L572,573L575,576C576,578,576,580,577,582C577,585,577,588,577,591C577,595,577,598,577,601z"/></svg>