<?xml version="1.0" encoding="utf-8"?>
<!-- Generator: Adobe Illustrator 21.0.0, SVG Export Plug-In . SVG Version: 6.00 Build 0)  -->
<svg version="1.1" baseProfile="tiny" id="Laag_1" xmlns="http://www.w3.org/2000/svg" xmlns:xlink="http://www.w3.org/1999/xlink"
	 x="0px" y="0px" viewBox="0 0 128 128" overflow="inherit" xml:space="preserve">
<path d="M23.2,101.8h81.6V128H128V0h-23.2v28.8H23.2V0H0v128h23.2L23.2,101.8L23.2,101.8z M23.2,33h81.6v64.6H23.2V33z M109,4.7
	h14.6v7.2H109V4.7z M109,21.3h14.6v7.2H109V21.3z M109,37.8h14.6v7.2H109V37.8z M109,54.4h14.6v7.2H109V54.4z M109,71h14.6v7.2H109
	V71z M109,87.6h14.6v7.2H109V87.6z M109,104.2h14.6v7.2H109V104.2z M109,120.8h14.6v7.2H109V120.8z M3.5,4.7h14.6v7.2H3.5V4.7z
	 M3.5,21.3h14.6v7.2H3.5V21.3z M3.5,37.8h14.6v7.2H3.5V37.8z M3.5,54.4h14.6v7.2H3.5V54.4z M3.5,71h14.6v7.2H3.5V71z M3.5,87.6h14.6
	v7.2H3.5V87.6z M3.5,104.2h14.6v7.2H3.5V104.2z M3.5,120.8h14.6v7.2H3.5V120.8z"/>
<path d="M62.9,39.1c-14.3,0-25.8,11.4-25.8,25.5c0,14.1,11.6,25.5,25.8,25.5c14.3,0,25.8-11.4,25.8-25.5
	C88.8,50.5,77.2,39.1,62.9,39.1z M74.8,78.3c0,0.3-0.1,0.6-0.2,0.8c-0.1,0.2-0.2,0.4-0.3,0.5c-0.1,0.1-0.3,0.1-0.5,0.1H55
	c-0.4,0-0.7,0-1-0.1c-0.3-0.1-0.5-0.2-0.7-0.4c-0.2-0.2-0.3-0.5-0.4-0.8c-0.1-0.4-0.1-0.8-0.1-1.4c0-0.5,0-1,0.1-1.4
	c0.1-0.4,0.1-0.7,0.3-1.1c0.1-0.3,0.3-0.6,0.5-0.9c0.2-0.3,0.5-0.6,0.8-1l5.7-6c1.1-1.2,2-2.2,2.7-3.2c0.7-1,1.2-1.8,1.6-2.6
	c0.4-0.8,0.7-1.5,0.8-2.2c0.1-0.7,0.2-1.3,0.2-1.9c0-0.6-0.1-1.1-0.3-1.6c-0.2-0.5-0.4-0.9-0.8-1.3c-0.3-0.4-0.8-0.7-1.3-0.9
	c-0.5-0.2-1.1-0.3-1.8-0.3c-1,0-1.9,0.1-2.6,0.4c-0.8,0.3-1.4,0.5-2,0.8c-0.6,0.3-1.1,0.6-1.5,0.8c-0.4,0.3-0.7,0.4-0.9,0.4
	c-0.2,0-0.3-0.1-0.4-0.2c-0.1-0.1-0.2-0.3-0.3-0.5c-0.1-0.2-0.1-0.5-0.2-0.9c0-0.4-0.1-0.9-0.1-1.4c0-0.4,0-0.7,0-1
	c0-0.3,0.1-0.5,0.1-0.7c0.1-0.2,0.1-0.4,0.2-0.5c0.1-0.1,0.2-0.3,0.4-0.5c0.2-0.2,0.6-0.5,1.2-0.8c0.6-0.3,1.3-0.6,2.1-0.9
	c0.8-0.3,1.7-0.5,2.7-0.7c1-0.2,2-0.3,3.1-0.3c1.7,0,3.2,0.2,4.5,0.6c1.3,0.4,2.3,1,3.2,1.8c0.8,0.8,1.5,1.7,1.9,2.7
	c0.4,1,0.6,2.2,0.6,3.4c0,1.1-0.1,2.1-0.3,3.1c-0.2,1-0.6,2.1-1.3,3.3c-0.6,1.2-1.5,2.5-2.7,3.9c-1.2,1.4-2.7,3.1-4.6,5l-3.8,3.9
	h12.9c0.2,0,0.3,0.1,0.5,0.2c0.1,0.1,0.3,0.3,0.4,0.5c0.1,0.2,0.2,0.5,0.2,0.8c0,0.3,0.1,0.7,0.1,1.2C74.8,77.6,74.8,78,74.8,78.3z"
	/>
<g>
	<path d="M68.2,5.8h5.3c0.2,0,0.3,0,0.4,0.1c0.1,0.1,0.2,0.2,0.3,0.4c0.1,0.2,0.2,0.5,0.2,0.8c0,0.3,0.1,0.7,0.1,1.2
		c0,0.5,0,0.9-0.1,1.2c-0.1,0.3-0.1,0.6-0.2,0.8c-0.1,0.2-0.2,0.3-0.3,0.4c-0.1,0.1-0.3,0.1-0.4,0.1H55.4c-0.1,0-0.3,0-0.4-0.1
		c-0.1-0.1-0.2-0.2-0.3-0.4c-0.1-0.2-0.2-0.5-0.2-0.8c-0.1-0.3-0.1-0.7-0.1-1.2c0-0.5,0-0.9,0.1-1.2c0-0.3,0.1-0.6,0.2-0.8
		C54.8,6.2,54.9,6,55,5.9c0.1-0.1,0.3-0.1,0.4-0.1h6.1V0H37.5c2.1,12.1,12.6,21.3,25.4,21.3c12.8,0,23.4-9.2,25.4-21.3H68.2
		C68.2,0,68.2,5.8,68.2,5.8z"/>
</g>
<g>
	<path d="M65.5,127.3c0.3-0.6,0.4-1.2,0.4-2c0-0.6-0.1-1.1-0.3-1.6c-0.2-0.5-0.5-0.9-0.8-1.3c-0.4-0.4-0.8-0.6-1.4-0.9
		c-0.6-0.2-1.2-0.3-2-0.3c-0.9,0-1.7,0.1-2.5,0.4c-0.8,0.3-1.5,0.5-2.1,0.9c-0.6,0.3-1.1,0.6-1.6,0.9c-0.4,0.3-0.7,0.4-0.9,0.4
		c-0.1,0-0.3,0-0.4-0.1c-0.1-0.1-0.2-0.2-0.3-0.3c-0.1-0.2-0.1-0.4-0.2-0.7c0-0.3-0.1-0.7-0.1-1.2c0-0.4,0-0.8,0-1
		c0-0.3,0.1-0.5,0.1-0.7c0.1-0.2,0.1-0.3,0.2-0.5c0.1-0.1,0.2-0.3,0.4-0.4c0.2-0.2,0.5-0.4,1-0.7c0.5-0.3,1.2-0.6,2-0.9
		c0.8-0.3,1.7-0.6,2.7-0.8c1-0.2,2.2-0.3,3.4-0.3c1.6,0,3,0.2,4.2,0.5c1.2,0.4,2.3,0.9,3.1,1.6c0.8,0.7,1.5,1.5,1.9,2.6
		c0.4,1,0.6,2.1,0.6,3.4c0,1-0.1,1.9-0.4,2.8c-0.1,0.4-0.2,0.7-0.4,1H88c-2.7-11.2-12.9-19.6-25.1-19.6c-12.2,0-22.4,8.3-25.1,19.6
		h27.3C65.3,127.8,65.4,127.6,65.5,127.3z"/>
</g>
</svg>
