<svg width="1000" height="1000" viewBox="0 0 1000 1000" xmlns="http://www.w3.org/2000/svg"><path d="M424,95H954V147H424zM424,285H954V336H424zM424,474H954V526H424zM424,664H954V715H424zM424,853H954V905H424zM258,764V615L387,689M213,789C213,790,213,792,212,793C211,794,210,794,208,795C206,796,203,796,199,797C196,797,192,797,187,797C182,797,177,797,174,797C170,796,168,796,166,795C164,794,162,794,162,793C161,792,160,790,160,789V682C160,673,160,666,158,661C157,656,155,651,153,647C150,644,147,641,143,639C139,637,134,636,129,636C122,636,115,638,109,643C102,648,95,655,87,664V789C87,790,87,792,86,793C85,794,84,794,82,795C80,796,77,796,73,797C70,797,66,797,61,797C56,797,51,797,48,797C45,796,42,796,40,795C38,794,36,794,36,793C35,792,34,790,34,789V602C34,600,35,599,35,598C36,597,37,596,39,595C41,595,43,594,46,594C49,594,53,593,57,593C61,593,65,594,68,594C71,594,73,595,75,595C76,596,78,597,78,598C79,599,79,600,79,602V623C90,612,100,604,111,598C122,593,133,590,144,590C157,590,168,592,177,596C185,600,192,606,198,613C203,620,207,629,209,638C212,648,213,660,213,673V789z"/></svg>