<svg width="1000" height="1000" viewBox="0 0 1000 1000" xmlns="http://www.w3.org/2000/svg"><path d="M250,498C250,364,358,256,492,256C625,256,733,364,733,498C733,631,625,739,492,739C358,739,250,631,250,498zM356,212C356,194,371,179,389,179C406,179,421,194,421,212C421,229,406,244,389,244C371,244,356,229,356,212zM209,137C209,128,217,120,226,120C236,120,244,128,244,137C244,147,236,155,226,155C217,155,209,147,209,137zM281,158C281,144,293,133,307,133C321,133,332,144,332,158C332,172,321,184,307,184C293,184,281,172,281,158zM286,248C286,230,300,216,318,216C336,216,350,230,350,248C350,266,336,280,318,280C300,280,286,266,286,248zM125,218C125,209,132,201,142,201C152,201,160,209,160,218C160,228,152,236,142,236C132,236,125,228,125,218zM200,218C200,204,211,193,225,193C239,193,251,204,251,218C251,232,239,243,225,243C211,243,200,232,200,218zM227,302C227,284,242,270,259,270C277,270,292,284,292,302C292,319,277,334,259,334C242,334,227,319,227,302zM64,319C64,309,72,301,82,301C91,301,99,309,99,319C99,328,91,336,82,336C72,336,64,328,64,319zM137,297C137,283,148,271,162,271C176,271,187,283,187,297C187,310,176,322,162,322C148,322,137,310,137,297zM185,369C185,351,199,337,217,337C234,337,249,351,249,369C249,386,234,401,217,401C199,401,185,386,185,369zM32,431C32,421,40,413,49,413C59,413,67,421,67,431C67,441,59,448,49,448C40,448,32,441,32,431zM96,389C96,375,107,364,121,364C135,364,147,375,147,389C147,403,135,414,121,414C107,414,96,403,96,389zM161,444C161,427,175,412,193,412C210,412,225,427,225,444C225,462,210,476,193,476C175,476,161,462,161,444zM30,548C30,538,38,530,47,530C57,530,65,538,65,548C65,557,57,565,47,565C38,565,30,557,30,548zM80,489C80,475,92,463,106,463C120,463,131,475,131,489C131,503,120,514,106,514C92,514,80,503,80,489zM197,493C215,497,225,515,220,532C216,549,198,559,181,555C164,550,154,532,158,515C163,498,180,488,197,493zM58,661C58,652,66,644,75,644C85,644,93,652,93,661C93,671,85,679,75,679C66,679,58,671,58,661zM91,589C91,575,103,564,117,564C131,564,142,575,142,589C142,603,131,614,117,614C103,614,91,603,91,589zM206,569C224,569,238,583,238,601C238,619,224,633,206,633C189,633,174,619,174,601C174,583,189,569,206,569zM114,763C114,754,122,746,132,746C142,746,149,754,149,763C149,773,142,781,132,781C122,781,114,773,114,763zM128,683C128,669,139,658,153,658C167,658,178,669,178,683C178,697,167,708,153,708C139,708,128,697,128,683zM235,641C252,636,269,646,274,663C278,680,268,698,251,703C234,707,216,697,212,680C207,663,217,645,235,641zM196,848C196,838,203,830,213,830C223,830,231,838,231,848C231,857,223,865,213,865C203,865,196,857,196,848zM206,740C220,736,233,744,237,758C241,771,233,785,219,789C206,792,192,784,188,771C185,757,193,744,206,740zM280,703C296,694,315,699,324,714C333,730,328,749,312,758C297,767,277,762,269,746C260,731,265,711,280,703zM296,908C296,898,304,890,313,890C323,890,331,898,331,908C331,918,323,925,313,925C304,925,296,918,296,908zM279,806C291,799,306,803,313,815C320,827,316,843,304,850C292,857,276,852,269,840C262,828,266,813,279,806zM341,750C353,738,373,738,386,750C399,763,399,783,386,796C373,808,353,808,341,796C328,783,328,763,341,750zM408,940C408,931,416,923,426,923C435,923,443,931,443,940C443,950,435,958,426,958C416,958,408,950,408,940zM366,851C376,841,392,841,401,851C411,860,411,876,401,886C392,896,376,896,366,886C356,876,356,860,366,851zM411,781C420,766,440,760,455,769C470,778,476,798,467,813C458,828,438,834,423,825C408,816,402,796,411,781zM525,942C525,933,533,925,542,925C552,925,560,933,560,942C560,952,552,960,542,960C533,960,525,952,525,942zM458,884C458,870,469,859,483,859C497,859,509,870,509,884C509,898,497,909,483,909C469,909,458,898,458,884zM487,792C492,775,510,765,527,770C544,774,554,792,549,809C545,826,527,836,510,832C493,827,483,809,487,792zM639,910C641,900,651,895,660,897C670,900,675,910,673,919C670,928,661,934,651,931C642,929,636,919,639,910zM558,873C558,859,570,848,584,848C598,848,609,859,609,873C609,887,598,898,584,898C570,898,558,887,558,873zM564,783C564,766,578,751,596,751C614,751,628,766,628,783C628,801,614,816,596,816C578,816,564,801,564,783zM741,858C741,848,749,840,758,840C768,840,776,848,776,858C776,867,768,875,758,875C749,875,741,867,741,858zM652,837C652,823,664,811,678,811C692,811,703,823,703,837C703,851,692,862,678,862C664,862,652,851,652,837zM635,755C631,738,641,721,658,716C675,711,693,721,697,739C702,756,692,773,675,778C658,783,640,772,635,755zM825,781C823,772,829,762,838,760C847,757,857,763,859,772C862,781,856,791,847,794C838,796,828,791,825,781zM735,784C731,770,739,756,753,753C766,749,780,757,784,771C787,784,779,798,766,802C752,805,738,797,735,784zM697,709C688,694,694,674,709,666C724,657,744,662,753,677C762,693,756,712,741,721C726,730,706,725,697,709zM888,685C883,677,886,666,894,661C902,657,913,659,918,668C923,676,920,687,911,692C903,697,892,694,888,685zM797,699C797,685,808,673,822,673C836,673,848,685,848,699C848,712,836,724,822,724C808,724,797,712,797,699zM745,649C733,637,733,616,745,604C758,591,778,591,790,604C803,616,803,637,790,649C778,662,758,662,745,649zM923,577C916,570,916,559,923,552C929,545,941,545,947,552C954,559,954,570,947,577C941,583,929,583,923,577zM845,624C835,614,835,598,845,588C855,578,871,578,881,588C891,598,891,614,881,624C871,634,855,634,845,624zM776,579C760,570,755,550,764,535C773,519,792,514,808,523C823,532,828,551,820,567C811,582,791,587,776,579zM928,462C920,458,917,447,922,439C927,430,938,427,946,432C954,437,957,448,952,456C948,464,937,467,928,462zM866,528C854,521,850,506,857,494C864,482,879,478,891,485C903,492,908,507,901,519C894,531,878,535,866,528zM787,502C770,498,760,480,764,463C769,446,786,436,804,440C821,445,831,463,826,480C822,497,804,507,787,502zM905,351C895,348,890,339,892,329C895,320,904,314,914,317C923,319,928,329,926,338C923,348,914,353,905,351zM861,431C848,427,840,413,843,400C847,386,861,378,874,382C888,385,896,399,892,413C889,426,875,434,861,431zM778,426C760,426,746,412,746,394C746,376,760,362,778,362C796,362,810,376,810,394C810,412,796,426,778,426zM852,249C843,249,835,241,835,232C835,222,843,214,853,214C862,214,870,222,870,232C870,241,862,249,852,249zM831,337C817,337,806,326,806,312C806,298,817,287,831,287C845,287,857,298,857,312C857,326,845,337,831,337zM750,354C733,359,715,349,711,332C706,315,716,297,733,292C750,288,768,298,773,315C777,332,767,350,750,354zM776,164C767,167,757,161,754,152C752,143,758,133,767,130C776,128,786,133,788,143C791,152,785,162,776,164zM778,255C765,259,751,251,747,237C744,224,752,210,765,206C779,203,793,211,796,224C800,238,792,251,778,255zM704,293C689,301,669,296,660,281C651,265,657,246,672,237C687,228,707,233,716,249C725,264,719,284,704,293zM680,102C672,107,661,104,656,96C651,87,654,77,662,72C671,67,682,70,686,78C691,87,688,97,680,102zM706,189C694,196,678,192,671,180C664,168,668,152,681,145C693,138,708,143,715,155C722,167,718,182,706,189zM644,245C631,257,611,257,598,245C586,232,586,212,598,199C611,187,631,187,644,199C656,212,656,232,644,245zM571,67C564,74,553,74,547,67C540,60,540,49,547,42C553,35,564,35,571,42C578,49,578,60,571,67zM619,144C609,154,593,154,583,144C573,135,573,119,583,109C593,99,609,99,619,109C629,119,629,135,619,144zM573,214C564,229,545,235,529,226C514,217,509,197,518,182C527,167,546,161,561,170C577,179,582,199,573,214zM457,61C452,70,442,73,433,68C425,63,422,52,427,44C432,35,442,33,451,37C459,42,462,53,457,61zM523,124C516,136,501,140,489,133C476,126,472,111,479,98C486,86,502,82,514,89C526,96,530,112,523,124zM497,203C493,220,475,230,458,225C441,221,431,203,435,186C440,169,457,159,474,163C492,168,502,186,497,203zM345,85C343,95,333,100,324,98C315,95,309,85,312,76C314,67,324,61,333,64C342,66,348,76,345,85zM425,128C422,142,408,150,394,146C381,143,373,129,376,115C380,102,394,94,407,97C421,101,429,115,425,128z"/></svg>