<svg width="1000" height="1000" viewBox="0 0 1000 1000" xmlns="http://www.w3.org/2000/svg"><path d="M621,866C588,890,542,883,518,850C494,817,502,771,535,746C568,722,614,730,638,763C662,796,654,842,621,866zM779,853C752,873,715,867,695,840C676,813,682,776,709,756C735,737,773,743,792,770C812,796,806,834,779,853zM911,843C889,859,859,854,843,832C827,811,832,780,854,765C876,749,906,754,922,775C937,797,933,827,911,843zM621,715C588,739,542,731,518,698C494,665,502,619,535,595C568,571,614,578,638,611C662,644,654,691,621,715zM779,702C752,721,715,715,695,689C676,662,682,625,709,605C735,586,773,592,792,618C812,645,806,683,779,702zM911,692C889,707,859,703,843,681C827,659,832,629,854,613C876,597,906,602,922,624C937,646,933,676,911,692zM621,563C588,587,542,580,518,547C494,514,502,468,535,444C568,420,614,427,638,460C662,493,654,539,621,563zM779,551C752,570,715,564,695,537C676,511,682,473,709,454C735,434,773,440,792,467C812,494,806,531,779,551zM911,540C889,556,859,551,843,530C827,508,832,478,854,462C876,446,906,451,922,473C937,494,933,525,911,540zM621,412C588,436,542,429,518,396C494,363,502,316,535,292C568,268,614,276,638,309C662,342,654,388,621,412zM779,399C752,419,715,413,695,386C676,359,682,322,709,302C735,283,773,289,792,316C812,342,806,380,779,399zM911,389C889,405,859,400,843,378C827,357,832,326,854,310C876,295,906,300,922,321C937,343,933,373,911,389zM473,300C466,291,458,284,450,278C451,278,452,277,452,276C493,247,502,190,473,149C443,108,386,99,345,129C304,158,295,215,325,256C331,265,339,272,348,278C347,279,346,279,345,280C304,310,295,367,325,407C331,416,339,424,348,430C347,430,346,431,345,431C304,461,295,518,325,559C331,568,339,575,348,581C347,582,346,582,345,583C304,612,295,669,325,710C331,719,339,726,348,732C347,733,346,733,345,734C304,764,295,821,325,862C355,902,412,912,452,882C493,852,502,795,473,754C466,745,458,738,450,732C451,732,452,731,452,730C493,701,502,644,473,603C466,594,458,587,450,581C451,580,452,580,452,579C493,549,502,492,473,452C466,443,458,435,450,430C451,429,452,428,452,428C493,398,502,341,473,300zM284,136C247,86,177,75,126,111C76,148,65,219,101,269C104,272,106,275,109,278C74,317,69,376,101,420C104,424,106,427,109,430C74,468,69,528,101,572C104,575,106,578,109,581C74,620,69,679,101,723C104,726,106,729,109,732C74,771,69,830,101,874C138,925,208,936,259,899C309,863,320,792,284,742C281,739,279,735,276,732C311,694,316,634,284,591C281,587,279,584,276,581C311,542,316,483,284,439C281,436,279,433,276,430C311,391,316,332,284,288C281,284,279,281,276,278C311,240,316,180,284,136zM621,261C588,285,542,277,518,244C494,211,502,165,535,141C568,117,614,124,638,157C662,190,654,237,621,261zM779,248C752,267,715,261,695,235C676,208,682,170,709,151C735,132,773,137,792,164C812,191,806,228,779,248zM911,238C889,253,859,248,843,227C827,205,832,175,854,159C876,143,906,148,922,170C937,191,933,222,911,238z"/></svg>