<svg width="1000" height="1000" viewBox="0 0 1000 1000" xmlns="http://www.w3.org/2000/svg"><path d="M816,102C908,181,830,238,779,253C715,271,684,299,689,321C695,346,746,334,779,327C803,321,900,335,814,419C711,521,501,532,397,507C301,484,139,393,158,225C178,57,380-1,509,0C607,1,728,26,816,102zM663,144C629,144,601,161,601,181C601,202,629,219,663,219C697,219,725,202,725,181C725,161,697,144,663,144zM254,709C254,713,253,716,253,719C253,722,252,725,252,727C251,728,250,730,249,730C248,731,247,732,246,732C244,732,241,730,237,728C233,725,227,722,220,719C213,716,205,713,196,711C186,708,175,707,162,707C149,707,137,709,126,714C115,719,106,725,98,734C90,742,84,753,80,765C76,777,74,790,74,804C74,820,76,834,80,846C84,858,90,869,98,877C106,885,115,891,125,895C136,899,148,901,161,901C167,901,173,901,179,899C186,898,191,896,197,893V828H144C141,828,139,827,138,823C136,820,136,815,136,807C136,803,136,800,136,797C137,794,137,792,138,790C139,789,139,787,141,787C141,786,143,786,144,786H238C240,786,242,786,244,787C246,787,247,789,249,790C250,792,251,794,252,796C253,798,253,801,253,804V914C253,919,252,922,251,926C249,929,246,931,241,933C237,935,231,937,224,939C217,941,210,943,203,944C195,946,188,947,180,947C173,948,165,949,158,949C135,949,116,945,98,939C80,933,66,923,53,911C41,899,32,884,25,867C19,849,16,830,16,808C16,785,19,764,26,746C33,728,43,713,55,700C68,687,83,678,101,671C119,664,139,661,161,661C173,661,184,662,194,663C204,665,212,667,220,669C227,672,233,674,238,677C243,680,246,682,248,684C250,686,251,689,252,692C253,696,254,702,254,709zM518,936C518,938,517,939,517,940C516,942,515,942,513,943C510,944,507,944,503,945C499,945,493,945,486,945C480,945,475,945,472,945C468,944,465,944,463,943C461,942,460,941,459,940C458,939,457,937,457,936L432,873C429,866,426,860,423,855C420,849,417,845,413,841C410,837,406,835,401,833C397,831,391,830,385,830H368V936C368,937,367,939,366,940C365,941,364,942,362,943C359,943,357,944,353,944C349,945,345,945,339,945C334,945,329,945,326,944C322,944,319,943,317,943C315,942,313,941,312,940C311,939,311,937,311,936V683C311,677,313,672,316,670C319,667,323,665,328,665H400C407,665,413,666,418,666C423,666,427,667,431,667C442,669,452,671,461,675C470,679,478,684,484,690C490,697,495,704,498,713C501,721,503,731,503,742C503,751,502,760,500,767C497,775,494,782,489,788C485,794,479,799,472,804C465,808,458,812,449,814C453,816,457,819,461,822C465,825,468,828,471,832C474,836,477,841,480,846C483,851,486,857,489,864L512,919C514,924,516,928,516,931C517,933,518,935,518,936zM445,748C445,738,443,731,438,724C434,718,427,714,418,711C415,710,412,710,408,709C405,709,399,709,393,709H368V788H396C404,788,411,787,418,785C424,783,429,780,433,777C437,773,440,769,442,764C444,759,445,754,445,748zM787,923C789,928,790,932,790,935C791,938,790,940,789,942C787,943,784,944,780,945C776,945,771,945,764,945C756,945,751,945,746,945C742,945,739,944,737,943C735,943,733,942,733,941C732,940,731,938,730,936L712,880H607L590,935C589,937,588,938,587,940C586,941,585,942,583,943C581,944,578,944,574,945C570,945,565,945,559,945C552,945,547,945,544,944C540,944,537,943,536,941C534,940,534,937,534,934C535,931,536,927,538,922L623,675C624,673,625,671,626,669C628,668,629,667,632,666C634,665,638,665,642,665C647,664,653,664,660,664C668,664,675,664,680,665C685,665,689,665,692,666C695,667,697,668,698,670C699,671,700,673,701,676L787,923zM659,719V719L620,837H699L659,719zM903,838V936C903,937,902,939,901,940C900,941,899,942,896,943C894,943,891,944,888,944C884,945,880,945,874,945C869,945,864,945,860,944C857,944,854,943,852,943C849,942,848,941,847,940C846,939,846,937,846,936V838L770,687C767,681,765,677,764,674C764,671,764,669,766,668C767,666,770,665,775,665C779,664,785,664,793,664C800,664,805,664,809,665C813,665,816,665,818,666C821,667,822,668,823,669C825,671,826,672,827,674L858,743C861,749,864,756,866,764C869,771,872,779,875,787H876C879,779,881,771,884,764C887,757,890,750,893,743L923,675C924,673,925,671,926,670C927,668,929,667,931,666C933,665,936,665,939,665C943,664,948,664,954,664C963,664,969,664,973,665C978,665,981,666,983,668C984,669,985,671,984,674C983,677,981,681,979,687L903,838z"/></svg>