<?xml version="1.0" encoding="utf-8"?>
<!-- Generator: Adobe Illustrator 20.1.0, SVG Export Plug-In . SVG Version: 6.00 Build 0)  -->
<svg version="1.1" id="Layer_1" xmlns="http://www.w3.org/2000/svg" xmlns:xlink="http://www.w3.org/1999/xlink" x="0px" y="0px"
	 viewBox="0 0 1000 1000" enable-background="new 0 0 1000 1000" xml:space="preserve">
<path d="M609.4429932-0.0000292v1000h384v-1000h-384V-0.0000292z M924.4429932,69.9999695v134h-246v-134H924.4429932z
	 M678.4429932,392V238.9999695h246V392H678.4429932z M924.4429932,426v153h-246V426H924.4429932L924.4429932,426z M924.4429932,930
	h-246V801h246V930L924.4429932,930z M678.4429932,766V614h246v152H678.4429932z"/>
<rect x="781.2728882" y="108.6700745" width="48.0047989" height="48.0047989"/>
<rect x="781.2728882" y="478.4975891" width="48.0047989" height="48.0047989"/>
<rect x="781.2728882" y="665.9975586" width="48.0047989" height="48.0047989"/>
<rect x="730.2677612" y="288.6880798" width="144.0144043" height="39.0038986"/>
<rect x="730.2677612" y="845.9980469" width="144.0144043" height="39.0038986"/>
<polygon points="556.0875854,149.4979248 556.0875854,120.9993286 317.4333496,120.9993286 317.4333496,132.6724854 
	317.4333496,149.4979248 317.4333496,485.7506714 317.4333496,514.2492676 317.4333496,675.7506714 317.4333496,704.2492676 
	350.4366455,704.2492676 556.0875854,704.2492676 556.0875854,675.7506714 350.4366455,675.7506714 350.4366455,514.2492676 
	556.0875854,514.2492676 556.0875854,485.7506714 350.4366455,485.7506714 350.4366455,149.4979248 "/>
<polygon points="277.1015625,315.8735962 277.1015625,287.375 38.4472656,287.375 38.4472656,299.0481567 38.4472656,315.8735962 
	38.4472656,842.1264038 38.4472656,870.624939 71.4505615,870.624939 277.1015625,870.624939 277.1015625,842.1264038 
	71.4505615,842.1264038 71.4505615,315.8735962 "/>
</svg>
