<svg width="1000" height="1000" viewBox="0 0 1000 1000" xmlns="http://www.w3.org/2000/svg"><path d="M816,102C908,181,830,238,779,253C715,271,684,299,689,321C695,346,746,334,779,327C803,321,900,335,814,419C711,521,501,532,397,507C301,484,139,393,158,225C178,57,380-1,509,0C607,1,728,26,816,102zM663,144C629,144,601,161,601,181C601,202,629,219,663,219C697,219,725,202,725,181C725,161,697,144,663,144zM370,937C370,939,370,940,369,941C368,942,366,943,364,944C362,945,359,945,356,946C352,946,347,946,342,946C336,946,332,946,328,946C324,945,322,945,320,944C317,943,316,942,315,941C314,940,314,939,314,937V825H210V937C210,939,209,940,208,941C207,942,206,943,204,944C202,945,199,945,195,946C192,946,187,946,181,946C176,946,171,946,168,946C164,945,161,945,159,944C157,943,155,942,154,941C153,940,153,939,153,937V675C153,673,153,672,154,671C155,670,157,669,159,668C161,667,164,667,168,666C171,666,176,665,181,665C187,665,192,666,195,666C199,667,202,667,204,668C206,669,207,670,208,671C209,672,210,673,210,675V777H314V675C314,673,314,672,315,671C316,670,317,669,320,668C322,667,324,667,328,666C332,666,336,665,342,665C347,665,352,666,356,666C359,667,362,667,364,668C366,669,368,670,369,671C370,672,370,673,370,675V937zM596,923C596,927,596,931,595,933C595,936,594,938,594,940C593,942,592,943,591,944C590,945,589,945,587,945H448C443,945,439,944,436,941C432,938,431,934,431,927V685C431,678,432,674,436,671C439,668,443,667,448,667H587C588,667,589,667,590,668C591,669,592,670,593,672C593,673,594,676,594,679C595,681,595,685,595,689C595,693,595,697,594,699C594,702,593,704,593,706C592,708,591,709,590,710C589,711,588,711,587,711H487V779H571C573,779,574,779,575,780C576,781,577,782,578,784C578,786,579,788,579,791C579,793,580,797,580,801C580,805,579,808,579,811C579,814,578,816,578,818C577,819,576,821,575,821C574,822,573,822,571,822H487V901H587C589,901,590,901,591,902C592,903,593,904,594,906C594,907,595,910,595,913C596,915,596,919,596,923zM844,924C847,929,848,933,849,936C850,939,849,941,848,943C846,944,843,945,838,946C834,946,827,946,819,946C813,946,807,946,804,946C800,946,797,945,794,945C792,944,791,943,790,942C789,941,788,939,787,938L735,837L683,938C682,939,681,941,680,942C679,943,677,944,675,945C673,945,670,946,666,946C662,946,657,946,650,946C643,946,637,946,633,946C629,945,626,944,625,943C623,941,623,939,624,936C625,933,626,929,629,924L696,802L634,688C631,683,630,679,629,676C628,673,628,670,630,669C631,667,634,666,639,666C643,666,650,665,658,665C664,665,670,666,674,666C678,666,681,667,683,667C685,668,687,669,688,670C689,671,690,673,691,674L739,766L787,674C788,673,789,671,790,670C791,669,792,668,794,667C796,667,799,666,803,666C806,666,812,665,818,665C825,665,831,666,835,666C839,666,842,667,844,669C845,671,846,673,845,676C844,679,842,683,840,688L778,802L844,924z"/></svg>