<svg width="1000" height="1000" viewBox="0 0 1000 1000" xmlns="http://www.w3.org/2000/svg"><path d="M300,897C300,899,299,901,298,902C297,904,295,905,292,906C289,907,285,908,281,908C276,909,270,909,263,909C255,909,249,909,245,908C240,908,236,907,233,906C231,905,229,904,227,902C226,901,226,899,226,897V750H120V897C120,899,120,901,118,902C117,904,115,905,113,906C110,907,106,908,101,908C97,909,91,909,83,909C76,909,70,909,65,908C60,908,57,907,54,906C51,905,49,904,48,902C47,901,46,899,46,897V552C46,550,47,549,48,547C49,546,51,545,54,544C57,543,60,542,65,541C70,541,76,540,83,540C91,540,97,541,101,541C106,542,110,543,113,544C115,545,117,546,118,547C120,549,120,550,120,552V686H226V552C226,550,226,549,227,547C229,546,231,545,233,544C236,543,240,542,245,541C249,541,255,540,263,540C270,540,276,541,281,541C285,542,289,543,292,544C295,545,297,546,298,547C299,549,300,550,300,552V897zM627,798C627,817,624,834,616,848C609,863,600,875,587,885C575,894,561,902,544,907C528,911,511,914,492,914C479,914,468,913,457,911C446,909,436,906,428,903C420,900,413,897,407,894C402,891,398,888,395,886C393,883,391,880,390,875C389,871,389,864,389,855C389,849,389,844,389,841C390,837,390,833,391,831C392,829,393,827,394,826C396,825,397,824,399,824C402,824,406,826,410,829C415,832,421,835,429,839C436,843,445,846,456,849C466,853,478,854,492,854C501,854,509,853,516,851C524,849,530,846,535,842C540,838,543,833,546,827C549,821,550,815,550,808C550,799,548,792,543,786C539,780,533,775,526,770C518,766,510,761,501,757C492,753,482,749,472,745C463,740,453,735,444,729C435,723,426,717,419,709C412,701,406,691,402,680C397,669,395,656,395,641C395,623,398,608,405,595C411,582,420,571,431,562C442,553,455,546,470,542C485,538,501,536,517,536C526,536,535,536,543,538C552,539,560,541,568,543C575,545,582,548,588,551C593,553,597,556,599,558C601,560,602,561,603,562C604,564,604,566,605,568C605,570,605,573,606,576C606,579,606,583,606,588C606,594,606,598,606,602C605,606,605,609,604,611C603,614,603,616,601,617C600,618,598,618,596,618C594,618,591,617,586,614C582,612,576,609,570,606C563,603,556,600,547,597C538,595,529,594,518,594C510,594,503,595,497,597C491,598,486,601,482,605C478,608,475,612,473,617C471,622,470,627,470,633C470,641,472,648,477,654C481,660,487,665,495,670C502,674,510,679,520,683C529,687,539,691,549,695C558,700,568,705,577,711C587,717,595,723,603,731C610,739,616,749,620,760C625,770,627,783,627,798zM955,876C955,882,955,887,954,891C954,895,953,898,952,900C951,903,950,905,949,906C947,907,945,907,944,907H776C770,907,765,906,761,902C756,898,754,892,754,884V552C754,550,755,549,756,547C757,546,759,545,762,544C765,543,769,542,774,541C778,541,784,540,791,540C799,540,805,541,810,541C814,542,818,543,821,544C824,545,826,546,827,547C828,549,829,550,829,552V846H944C945,846,947,847,949,848C950,849,951,850,952,853C953,855,954,858,954,862C955,866,955,871,955,876zM240,213L283,157L302,171L259,227zM201,196L222,129L244,137L223,203zM156,124L179,123L181,194H158zM91,141L113,133L139,198L117,207zM36,179L54,164L100,217L82,232zM174,233C163,233,154,235,145,238L96,187L115,256C98,272,88,294,88,319C88,366,126,405,174,405C221,405,259,366,259,319C259,271,221,233,174,233zM174,362C150,362,130,343,130,319C130,295,150,276,174,276C197,276,217,295,217,319C217,343,197,362,174,362zM571,213L614,157L633,171L590,227zM532,196L553,129L575,137L554,203zM422,141L444,133L470,198L448,207zM367,179L385,164L431,217L414,232zM519,234L509,194H512L510,123L487,124L489,194H495L484,236C446,245,419,279,419,319C419,366,457,405,505,405C552,405,590,366,590,319C590,276,560,241,519,234zM505,362C481,362,461,343,461,319C461,295,481,276,505,276C528,276,548,295,548,319C548,343,528,362,505,362zM902,213L945,157L964,171L921,227zM818,124L841,123L843,194H820zM753,141L775,133L801,198L779,207zM698,179L716,164L762,217L745,232zM878,244L882,202L885,203L906,137L884,129L863,196L868,198L844,233C841,233,838,233,836,233C788,233,750,271,750,319C750,366,788,405,836,405C883,405,921,366,921,319C921,287,904,259,878,244zM836,362C812,362,792,343,792,319C792,295,812,276,836,276C859,276,879,295,879,319C879,343,859,362,836,362z"/></svg>