<svg width="1000" height="1000" viewBox="0 0 1000 1000" xmlns="http://www.w3.org/2000/svg"><path d="M290,209C292,216,299,221,305,221C307,221,308,221,310,220C318,218,323,209,320,201L268,17C266,8,257,4,249,6C241,8,236,17,238,25L290,209zM327,207C328,215,335,221,343,221C343,221,344,221,344,221C353,220,359,212,358,204L340,19C339,11,331,5,323,5C314,6,308,14,309,23L327,207zM378,221C378,221,379,221,379,221C387,221,394,215,395,206L408,22C409,14,402,6,394,5C385,5,378,11,377,20L363,204C363,213,369,220,378,221zM412,220C414,221,415,221,416,221C423,221,429,216,431,209L478,25C480,16,475,8,467,6C458,4,450,9,448,17L401,201C399,210,404,218,412,220zM250,212C253,218,258,221,264,221C266,221,269,220,271,219C279,216,282,206,278,198L189,14C185,6,176,3,168,7C161,11,157,20,161,28L250,212zM13,271L195,353L24,309C15,307,7,312,5,321C3,329,8,337,16,340L187,383L21,371C12,370,5,377,4,385C4,394,10,401,19,402L185,414L18,431C10,432,3,439,4,448C5,456,12,462,20,462C20,462,21,462,21,462L188,445L15,494C7,496,2,505,5,513C7,520,13,524,20,524C21,524,23,524,24,524L197,475L13,564C5,567,2,577,6,584C8,590,14,593,20,593C22,593,24,593,27,592L222,497C230,494,233,484,229,477C227,473,223,470,219,469C228,466,232,458,230,449C229,445,226,442,223,440C228,437,231,431,230,425C230,420,227,416,223,414C227,411,230,407,231,402C231,396,228,390,223,387C226,385,229,382,230,378C232,370,228,362,220,359C224,358,227,355,229,351C233,343,229,334,221,331L26,243C18,239,9,243,6,250C2,258,5,268,13,271zM11,191L206,323C209,325,212,326,215,326C220,326,225,324,228,319C233,312,231,302,224,298L28,165C21,160,12,162,7,169C2,176,4,186,11,191zM204,278C207,281,211,282,215,282C219,282,223,281,226,278C232,272,232,262,226,256L31,66C24,60,15,60,9,66C3,72,3,82,9,88L204,278zM202,214C205,219,210,221,215,221C218,221,221,220,224,218C231,213,233,203,228,196L95,12C90,5,80,3,73,8C66,13,65,23,70,30L202,214zM995,233C993,225,984,220,976,223L592,331C584,333,579,342,582,350C584,357,590,361,597,361C598,361,599,361,601,361L985,253C993,250,998,242,995,233zM598,404L982,365C990,364,997,356,996,348C995,339,987,333,979,334L595,373C587,374,580,381,581,390C582,398,589,404,597,404C597,404,598,404,598,404zM583,306C585,312,591,315,597,315C599,315,601,314,603,313L987,128C995,124,998,115,994,107C991,100,981,96,973,100L590,285C582,289,579,298,583,306zM596,444L979,473C980,473,980,473,980,473C988,473,995,467,996,458C996,450,990,442,981,442L598,413C589,413,582,419,581,428C580,436,587,444,596,444zM984,553L601,456C592,454,584,459,582,467C579,475,585,484,593,486L976,583C978,583,979,584,980,584C987,584,994,579,995,572C997,564,992,555,984,553zM584,253C587,257,592,259,597,259C600,259,603,258,606,257L915,34C922,29,924,19,919,12C914,5,904,3,897,8L588,231C581,236,579,246,584,253zM495,218C498,220,501,221,504,221C509,221,514,218,517,214L642,30C647,23,645,13,638,8C631,3,622,5,617,12L491,196C486,204,488,213,495,218zM554,216C557,219,561,221,565,221C569,221,573,219,576,216L755,32C761,26,761,16,755,10C749,4,739,4,733,10L554,194C548,201,548,210,554,216zM450,219C452,220,454,221,457,221C463,221,468,217,471,212L554,27C557,20,554,10,546,7C538,3,529,7,525,15L442,199C439,207,442,216,450,219zM503,578C498,571,488,569,481,574C474,579,472,589,477,596L762,991C765,995,769,997,774,997C777,997,781,996,783,994C790,989,792,979,787,972L503,578zM462,580C459,572,449,569,442,573C434,577,431,586,434,594L625,988C627,994,633,997,639,997C641,997,643,997,646,996C653,992,657,982,653,975L462,580zM428,583C426,574,417,570,409,572C401,574,396,583,398,591L510,986C512,993,518,997,525,997C526,997,527,997,529,997C537,994,542,986,540,977L428,583zM397,585C396,577,388,571,380,571C373,572,367,578,366,584C365,577,359,572,352,571C343,571,336,577,335,586L306,980C305,989,312,996,320,997C321,997,321,997,322,997C330,997,336,991,337,983L366,590L406,983C407,991,413,997,421,997C422,997,422,997,423,997C431,996,438,989,437,980L397,585zM555,576C548,570,539,570,533,576C527,582,527,592,533,598L938,993C941,996,945,997,949,997C953,997,957,996,960,992C966,986,966,976,960,970L555,576zM987,675L603,502C595,499,586,502,582,510C579,518,582,527,590,531L974,703C976,704,978,705,980,705C986,705,992,701,994,696C998,688,995,679,987,675zM989,818L605,557C598,552,589,554,584,561C579,569,581,578,588,583L972,844C974,846,977,847,980,847C985,847,990,844,993,840C998,833,996,823,989,818zM323,572C315,570,306,575,304,583L204,978C202,986,207,994,215,997C217,997,218,997,219,997C226,997,232,992,234,985L334,591C336,582,331,574,323,572zM20,675C23,675,26,674,29,672L224,531C231,526,233,517,228,510C223,503,213,501,206,506L11,647C4,652,2,662,7,669C10,673,15,675,20,675zM291,573C283,569,274,573,271,581L93,975C89,983,93,992,101,996C103,997,105,997,107,997C113,997,119,994,121,988L299,593C303,585,299,576,291,573zM9,776C12,779,16,781,20,781C24,781,28,779,31,776L226,575C232,569,232,559,226,553C220,547,210,547,204,554L9,754C3,760,3,770,9,776zM253,574C246,569,236,571,232,578L7,908C2,916,4,925,11,930C14,932,17,933,20,933C25,933,30,930,33,926L257,596C262,589,260,579,253,574z"/></svg>