<svg width="1000" height="1000" viewBox="0 0 1000 1000" xmlns="http://www.w3.org/2000/svg"><path d="M137,556C137,558,137,560,137,562C137,564,136,565,136,566C135,567,135,568,134,568C134,569,133,569,132,569H37C36,569,35,569,35,568C34,568,34,567,33,566C33,565,32,564,32,562C32,560,31,558,31,556C31,553,32,551,32,549C32,547,32,546,33,545C33,544,34,543,35,543C35,542,36,542,37,542H69V429L41,445C39,446,37,446,36,447C35,447,34,447,33,446C32,445,32,444,31,442C31,440,31,437,31,434C31,432,31,430,31,429C31,427,32,426,32,425C32,424,33,423,33,423C34,422,35,421,36,421L73,397C73,396,74,396,75,396C75,396,76,395,77,395C78,395,80,395,81,395C83,395,85,395,88,395C92,395,94,395,96,395C99,395,100,395,101,396C102,396,103,397,103,397C104,398,104,398,104,399V542H132C133,542,134,542,134,543C135,543,135,544,136,545C136,546,137,547,137,549C137,551,137,553,137,556zM276,556C276,558,276,560,276,562C275,564,275,565,274,566C274,567,273,568,273,568C272,569,271,569,271,569H175C175,569,174,569,173,568C173,568,172,567,172,566C171,565,171,564,170,562C170,560,170,558,170,556C170,553,170,551,170,549C171,547,171,546,171,545C172,544,173,543,173,543C174,542,174,542,175,542H207V429L180,445C178,446,176,446,175,447C173,447,172,447,172,446C171,445,170,444,170,442C170,440,170,437,170,434C170,432,170,430,170,429C170,427,170,426,170,425C171,424,171,423,172,423C173,422,173,421,174,421L212,397C212,396,213,396,213,396C214,396,215,395,216,395C217,395,218,395,220,395C222,395,224,395,227,395C230,395,233,395,235,395C237,395,239,395,240,396C241,396,242,397,242,397C242,398,242,398,242,399V542H271C271,542,272,542,273,543C273,543,274,544,275,545C275,546,275,547,276,549C276,551,276,553,276,556zM348,544C348,548,347,551,347,554C347,557,346,560,345,562C345,565,344,567,342,570C341,572,340,575,338,577L320,602C320,603,319,604,318,605C318,605,317,606,316,606C315,607,313,607,312,607C310,607,308,607,306,607C304,607,302,607,300,607C299,607,298,607,297,606C296,606,296,605,296,604C296,604,296,603,296,602L312,565V544C312,541,312,539,313,537C314,535,315,534,316,533C318,532,320,531,322,531C324,530,327,530,330,530C333,530,336,530,338,531C340,531,342,532,343,533C345,534,346,535,347,537C347,539,348,541,348,544zM348,463C348,467,347,470,347,473C346,475,345,477,343,479C342,481,340,482,338,482C335,483,332,483,329,483C325,483,322,483,319,482C317,482,315,481,314,479C312,477,311,475,311,473C310,470,310,467,310,463C310,460,310,456,311,454C311,451,312,449,314,448C315,446,317,445,319,444C322,443,325,443,329,443C332,443,335,443,338,444C340,445,342,446,343,448C345,449,346,451,347,454C347,456,348,460,348,463zM492,555C492,557,491,559,491,561C491,563,491,565,490,566C490,567,489,568,489,568C488,569,487,569,486,569H387C385,569,383,569,382,568C380,568,379,567,378,566C377,565,377,564,376,562C376,560,376,557,376,554C376,551,376,549,376,547C376,545,377,543,378,541C378,539,379,538,380,536C381,535,383,533,385,531L415,499C421,493,425,487,429,482C433,477,435,472,437,468C440,464,441,460,442,456C442,453,443,449,443,446C443,443,442,440,441,438C441,435,439,433,437,431C435,429,433,427,430,426C428,425,424,425,421,425C415,425,411,425,407,427C403,428,399,430,396,431C393,433,390,434,388,436C386,437,385,438,384,438C383,438,382,438,381,437C381,436,380,436,380,434C380,433,379,431,379,429C379,427,379,425,379,422C379,420,379,418,379,417C379,415,379,414,380,413C380,412,380,411,381,410C381,409,382,409,383,407C384,406,386,405,389,403C392,402,396,400,400,399C405,397,409,396,415,395C420,394,425,393,431,393C440,393,448,394,455,396C461,399,467,402,471,406C476,410,479,415,481,420C484,426,485,432,485,438C485,444,484,449,483,455C482,460,480,466,476,472C473,479,468,486,462,493C456,501,448,510,438,520L417,540H486C486,540,487,541,488,541C489,542,489,543,490,544C491,545,491,546,491,548C491,550,492,552,492,555zM630,555C630,557,630,559,630,561C630,563,629,565,629,566C628,567,628,568,627,568C626,569,626,569,625,569H525C523,569,522,569,520,568C519,568,518,567,517,566C516,565,515,564,515,562C514,560,514,557,514,554C514,551,514,549,515,547C515,545,515,543,516,541C517,539,518,538,519,536C520,535,521,533,523,531L553,499C559,493,564,487,568,482C571,477,574,472,576,468C578,464,580,460,580,456C581,453,581,449,581,446C581,443,581,440,580,438C579,435,578,433,576,431C574,429,572,427,569,426C566,425,563,425,559,425C554,425,549,425,545,427C541,428,538,430,535,431C532,433,529,434,527,436C525,437,523,438,522,438C521,438,521,438,520,437C519,436,519,436,519,434C518,433,518,431,518,429C518,427,517,425,517,422C517,420,518,418,518,417C518,415,518,414,518,413C519,412,519,411,519,410C520,409,521,409,522,407C523,406,525,405,528,403C531,402,534,400,539,399C543,397,548,396,553,395C559,394,564,393,570,393C579,393,587,394,593,396C600,399,606,402,610,406C614,410,618,415,620,420C622,426,623,432,623,438C623,444,623,449,622,455C621,460,618,466,615,472C612,479,607,486,601,493C595,501,586,510,576,520L556,540H624C625,540,626,541,627,541C627,542,628,543,629,544C629,545,629,546,630,548C630,550,630,552,630,555zM700,544C700,548,700,551,700,554C699,557,699,560,698,562C697,565,696,567,695,570C694,572,692,575,690,577L673,602C672,603,672,604,671,605C670,605,669,606,668,606C667,607,666,607,664,607C663,607,661,607,659,607C656,607,654,607,653,607C651,607,650,607,650,606C649,606,648,605,648,604C648,604,649,603,649,602L665,565V544C665,541,665,539,666,537C666,535,667,534,669,533C670,532,672,531,675,531C677,530,680,530,683,530C686,530,688,530,691,531C693,531,695,532,696,533C697,534,698,535,699,537C700,539,700,541,700,544zM700,463C700,467,700,470,699,473C699,475,698,477,696,479C695,481,693,482,690,482C688,483,685,483,681,483C678,483,674,483,672,482C670,482,668,481,666,479C665,477,664,475,663,473C663,470,662,467,662,463C662,460,663,456,663,454C664,451,665,449,666,448C668,446,670,445,672,444C674,443,678,443,681,443C685,443,688,443,690,444C693,445,695,446,696,448C698,449,699,451,699,454C700,456,700,460,700,463zM843,518C843,527,842,535,838,541C835,548,831,554,825,558C819,563,812,566,804,568C795,571,786,572,777,572C771,572,765,572,760,571C755,570,750,569,747,568C743,566,739,565,737,564C734,562,732,561,732,561C731,560,730,559,730,558C729,557,729,556,729,555C728,554,728,552,728,551C728,549,728,547,728,544C728,540,728,537,729,535C730,533,731,533,732,533C733,533,735,533,737,534C739,536,742,537,745,538C749,540,752,541,757,542C762,543,767,544,772,544C777,544,782,543,785,542C789,541,792,539,795,537C798,535,800,533,801,530C802,527,803,523,803,520C803,516,802,512,800,509C799,506,797,503,794,501C790,498,787,497,782,495C777,494,772,494,765,494H750C749,494,748,493,748,493C747,493,746,492,746,491C745,490,745,489,744,487C744,485,744,483,744,480C744,478,744,476,744,474C745,472,745,471,745,470C746,469,747,469,747,468C748,468,749,468,750,468H765C770,468,775,467,779,466C783,465,786,463,789,461C792,459,794,456,795,453C797,450,797,446,797,442C797,439,797,437,796,434C795,431,793,429,792,427C790,425,787,424,784,423C781,422,778,421,773,421C769,421,764,422,760,423C756,424,753,426,749,428C746,429,743,431,741,432C739,434,737,434,736,434C735,434,735,434,734,434C734,434,733,433,733,432C732,431,732,430,732,428C732,426,732,424,732,422C732,419,732,418,732,416C732,415,732,413,732,412C733,411,733,411,733,410C734,409,734,408,735,408C736,407,738,405,741,404C744,402,747,400,751,399C755,397,760,396,766,395C771,394,777,393,784,393C792,393,799,394,806,396C812,398,818,401,822,404C826,408,830,413,832,418C834,423,836,430,836,436C836,442,835,446,834,451C832,456,830,460,828,463C825,467,822,470,818,472C814,475,810,477,805,478V478C811,479,816,481,821,483C826,485,830,488,833,492C836,495,839,499,841,504C842,508,843,513,843,518zM982,518C982,527,980,535,977,541C974,548,969,554,963,558C957,563,950,566,942,568C934,571,925,572,915,572C909,572,904,572,899,571C894,570,889,569,885,568C881,566,878,565,875,564C873,562,871,561,870,561C869,560,869,559,868,558C868,557,868,556,867,555C867,554,867,552,867,551C867,549,866,547,866,544C866,540,867,537,868,535C868,533,869,533,871,533C872,533,873,533,875,534C878,536,880,537,884,538C887,540,891,541,896,542C900,543,905,544,911,544C916,544,920,543,924,542C928,541,931,539,934,537C936,535,938,533,939,530C941,527,941,523,941,520C941,516,941,512,939,509C937,506,935,503,932,501C929,498,925,497,920,495C916,494,910,494,904,494H889C888,494,887,493,886,493C885,493,885,492,884,491C884,490,883,489,883,487C883,485,883,483,883,480C883,478,883,476,883,474C883,472,884,471,884,470C885,469,885,469,886,468C887,468,888,468,889,468H904C909,468,913,467,917,466C921,465,925,463,928,461C930,459,932,456,934,453C935,450,936,446,936,442C936,439,935,437,934,434C933,431,932,429,930,427C928,425,926,424,923,423C920,422,916,421,912,421C907,421,903,422,899,423C895,424,891,426,888,428C885,429,882,431,880,432C877,434,876,434,875,434C874,434,873,434,873,434C872,434,872,433,871,432C871,431,871,430,871,428C870,426,870,424,870,422C870,419,870,418,870,416C871,415,871,413,871,412C871,411,872,411,872,410C872,409,873,408,874,408C875,407,877,405,879,404C882,402,886,400,890,399C894,397,899,396,904,395C910,394,916,393,922,393C931,393,938,394,944,396C951,398,956,401,961,404C965,408,968,413,971,418C973,423,974,430,974,436C974,442,973,446,972,451C971,456,969,460,966,463C964,467,960,470,957,472C953,475,948,477,943,478V478C949,479,955,481,959,483C964,485,968,488,972,492C975,495,978,499,979,504C981,508,982,513,982,518z"/></svg>