<svg width="1000" height="1000" viewBox="0 0 1000 1000" xmlns="http://www.w3.org/2000/svg"><path d="M897,221C784,151,601,237,507,273C400,227,176,133,82,254C65,275,45,315,47,345C47,348,48,351,48,354V896C48,910,58,920,72,920H82C95,920,105,910,105,896V896V458C111,467,118,474,125,481C193,548,308,539,403,509C436,498,475,476,508,476C540,476,578,497,613,509C648,520,685,532,725,534C875,544,927,445,970,343C956,288,937,246,897,221zM192,350C271,303,366,354,416,394C346,409,199,445,192,350zM591,396C640,354,737,303,818,350C808,445,667,407,591,396z"/></svg>