<svg width="1000" height="1000" viewBox="0 0 1000 1000" xmlns="http://www.w3.org/2000/svg"><path d="M425,634C425,636,424,638,423,639C423,641,420,641,418,642C416,643,412,644,408,645C404,645,398,645,391,645C384,645,379,645,374,645C370,644,366,644,363,642C361,641,359,640,358,639C357,638,356,636,356,634V489C356,480,355,473,354,466C352,459,350,454,347,449C344,445,340,441,335,438C330,436,324,434,318,434C309,434,302,438,293,444C284,450,276,459,266,472V634C266,636,265,638,264,639C263,641,261,641,259,642C256,643,252,644,248,645C243,645,237,645,231,645C224,645,219,645,215,645C211,644,207,644,204,642C202,641,199,640,198,639C198,638,195,636,195,634V489C195,480,195,473,193,466C191,459,189,454,186,449C183,445,179,441,174,438C170,436,163,434,157,434C148,434,140,438,132,444C123,450,115,459,105,472V634C105,636,104,638,103,639C102,641,100,641,98,642C95,643,91,644,87,645C82,645,77,645,70,645C63,645,58,645,54,645C50,644,46,644,43,642C41,641,38,640,38,639C37,638,36,636,36,634V389C36,387,37,386,38,384C38,383,39,382,41,381C44,380,47,380,51,379C55,378,59,378,65,378C71,378,76,378,80,379C84,380,87,380,88,381C91,382,92,384,93,384C94,386,95,387,95,389V417C108,402,122,391,135,384C148,377,163,373,177,373C188,373,196,374,205,377C213,379,220,382,227,386C233,390,238,395,243,400C248,405,252,412,255,419C262,411,270,404,277,398C284,393,291,388,298,384C305,380,312,378,318,377C325,375,332,374,339,374C355,374,369,377,380,383C391,388,401,396,408,405C415,415,420,426,423,438C426,451,427,464,427,478V634zM702,635C702,638,701,640,698,641C696,643,694,644,690,645C686,645,680,645,673,645C664,645,659,645,655,645C651,644,648,643,647,641C645,640,645,638,645,635V616C634,627,623,635,610,641C598,646,583,650,567,650C554,650,542,648,531,645C520,641,511,636,503,630C495,623,489,615,484,605C480,595,478,584,478,570C478,556,481,544,487,533C492,523,501,513,512,507C523,500,537,495,553,491C570,487,589,487,610,487H634V472C634,464,634,458,632,452C630,445,628,441,624,437C620,434,616,430,610,429C605,427,597,426,588,426C577,426,566,427,557,430C548,432,540,435,533,438C526,441,520,445,516,447C511,449,507,451,504,451C502,451,500,450,498,449C497,448,495,446,495,444C494,441,493,438,492,435C491,432,491,428,491,423C491,418,492,413,493,410C494,407,495,404,498,402C501,399,505,396,512,393C518,390,526,387,534,384C543,382,552,380,563,377C573,376,583,375,594,375C613,375,630,377,643,380C656,384,668,390,677,398C685,405,691,416,696,427C701,439,702,454,702,471V635zM634,530H607C596,530,587,530,578,532C570,534,564,536,559,539C553,542,550,546,548,551C545,555,545,561,545,567C545,577,548,585,554,591C560,598,570,600,581,600C591,600,600,598,608,593C616,588,624,580,633,571V530zM978,629C980,632,980,634,980,637C980,639,979,641,977,641C974,642,970,644,965,644C959,644,952,645,944,645C935,645,929,645,924,644C920,643,916,643,913,642C909,641,908,641,906,639C905,637,904,637,903,634L858,548L813,634C812,636,811,638,809,639C808,641,806,641,803,642C800,643,797,644,792,644C787,644,781,645,773,645C766,645,759,645,754,644C749,643,745,642,744,641C742,641,741,638,741,637C741,635,741,632,743,629L811,509L748,395C747,392,746,389,746,387C746,384,747,383,749,381C752,380,755,379,761,378C766,377,773,377,782,377C790,377,797,377,802,378C806,379,810,379,813,380C816,380,818,381,820,382C821,384,822,384,823,387L866,469L910,387C911,385,912,384,912,383C913,382,916,380,918,380C920,379,923,378,927,378C931,378,937,377,945,377C952,377,959,377,964,378C969,378,973,380,974,380C977,382,977,384,977,386C977,388,977,391,974,395L913,505L978,629z"/></svg>