<svg width="1000" height="1000" viewBox="0 0 1000 1000" xmlns="http://www.w3.org/2000/svg"><path d="M474,638C474,640,473,641,472,643C471,644,469,645,467,646C464,647,461,647,456,648C452,648,446,649,440,649C433,649,427,648,423,648C419,647,415,647,413,646C410,645,408,644,407,643C406,641,406,640,406,638V494C406,486,405,479,403,472C402,466,399,460,396,455C393,450,389,447,384,444C380,441,374,440,367,440C359,440,351,443,343,449C334,456,325,465,315,477V638C315,640,315,641,314,643C313,644,311,645,308,646C306,647,302,647,298,648C293,648,288,649,282,649C275,649,269,648,265,648C261,647,257,647,255,646C252,645,250,644,249,643C248,641,247,640,247,638V494C247,486,247,479,245,472C244,466,241,460,238,455C235,450,231,447,226,444C221,441,216,440,209,440C201,440,193,443,184,449C176,456,167,465,157,477V638C157,640,157,641,156,643C155,644,153,645,150,646C148,647,144,647,140,648C135,648,130,649,123,649C117,649,111,648,107,648C102,647,99,647,96,646C94,645,92,644,91,643C90,641,89,640,89,638V396C89,394,90,393,91,391C91,390,93,389,95,388C98,387,101,386,104,386C108,385,113,385,118,385C124,385,129,385,133,386C137,386,140,387,142,388C144,389,145,390,146,391C147,393,147,394,147,396V424C161,410,174,399,187,391C201,384,215,381,229,381C239,381,248,382,256,384C264,386,271,389,277,393C283,397,289,401,293,407C298,412,302,418,305,425C312,417,319,410,326,405C333,399,340,395,346,391C353,388,360,385,367,383C374,381,380,381,388,381C404,381,417,383,428,389C439,394,448,402,455,411C462,420,466,431,469,443C472,456,474,469,474,483V638zM614,314C614,328,611,337,606,343C600,348,590,351,574,351C559,351,549,348,543,343C538,338,535,329,535,316C535,302,538,292,544,287C549,282,560,279,575,279C590,279,601,282,606,287C611,292,614,301,614,314zM609,638C609,640,608,641,607,643C606,644,604,645,602,646C599,647,596,647,591,648C587,648,581,649,575,649C568,649,563,648,558,648C554,647,550,647,548,646C545,645,543,644,542,643C541,641,541,640,541,638V397C541,395,541,393,542,392C543,391,545,389,548,388C550,387,554,387,558,386C563,385,568,385,575,385C581,385,587,385,591,386C596,387,599,387,602,388C604,389,606,391,607,392C608,393,609,395,609,397V638zM908,638C908,640,907,641,906,643C905,644,903,645,901,646C898,647,895,647,890,648C886,648,880,649,874,649C867,649,862,648,857,648C853,647,849,647,847,646C844,645,843,644,841,643C840,641,840,640,840,638V500C840,488,839,479,837,472C836,466,833,460,830,455C827,450,822,447,817,444C812,441,806,440,799,440C790,440,782,443,773,449C764,456,755,465,745,477V638C745,640,745,641,744,643C743,644,741,645,738,646C735,647,732,647,728,648C723,648,718,649,711,649C704,649,699,648,695,648C690,647,687,647,684,646C681,645,680,644,679,643C677,641,677,640,677,638V396C677,394,677,393,678,391C679,390,681,389,683,388C686,387,689,386,692,386C696,385,701,385,706,385C712,385,717,385,721,386C724,386,727,387,729,388C731,389,733,390,734,391C735,393,735,394,735,396V424C749,410,762,399,776,391C790,384,804,381,819,381C836,381,850,383,861,389C872,394,881,402,888,411C895,420,900,431,903,443C906,456,908,471,908,488V638z"/></svg>