<svg width="1000" height="1000" viewBox="0 0 1000 1000" xmlns="http://www.w3.org/2000/svg"><path d="M216,384C217,387,218,389,218,390C217,392,216,393,215,394C213,395,210,396,205,396C201,396,196,397,189,397C183,397,178,397,174,396C170,396,167,396,165,395C163,394,161,394,160,393C159,392,158,391,158,389L123,323L89,389C88,391,87,392,86,393C85,394,84,394,82,395C80,396,77,396,73,396C70,397,65,397,59,397C53,397,48,396,44,396C41,396,38,395,36,394C35,393,34,392,34,390C34,389,34,387,36,384L87,292L40,206C38,203,38,201,38,200C37,198,38,196,40,195C42,194,45,194,49,193C53,193,58,193,65,193C71,193,76,193,80,193C84,193,87,194,89,194C91,194,92,195,93,196C94,197,95,198,96,199L129,262L162,199C163,198,163,197,164,197C165,196,166,195,168,194C170,194,172,193,176,193C179,193,183,193,189,193C195,193,200,193,203,193C207,193,210,194,211,195C213,196,214,197,214,199C213,201,213,203,211,206L165,291L216,384zM313,365C313,378,311,387,306,391C302,396,293,398,282,398C270,398,262,396,257,392C253,387,251,379,251,366C251,353,253,344,257,340C262,336,270,333,282,333C294,333,302,336,306,340C311,344,313,353,313,365zM428,365C428,378,425,387,421,391C416,396,408,398,396,398C385,398,377,396,372,392C368,387,365,379,365,366C365,353,368,344,372,340C377,336,385,333,397,333C408,333,416,336,421,340C425,344,428,353,428,365zM542,365C542,378,540,387,536,391C531,396,523,398,511,398C499,398,491,396,487,392C482,387,480,379,480,366C480,353,482,344,487,340C491,336,500,333,512,333C523,333,531,336,536,340C540,344,542,353,542,365zM657,365C657,378,655,387,650,391C646,396,638,398,626,398C614,398,606,396,602,392C597,387,595,379,595,366C595,353,597,344,602,340C606,336,614,333,626,333C638,333,646,336,651,340C655,344,657,353,657,365zM772,365C772,378,770,387,765,391C761,396,752,398,741,398C729,398,721,396,716,392C712,387,710,379,710,366C710,353,712,344,716,340C721,336,729,333,741,333C753,333,761,336,765,340C770,344,772,353,772,365zM918,395L896,462C895,465,891,468,885,469C880,471,872,472,861,472C855,472,851,471,848,471C844,470,842,470,840,468C838,467,837,466,837,464C837,463,838,461,838,458L863,395C862,395,860,393,859,392C857,390,856,388,855,386L791,214C789,209,788,205,788,203C788,200,789,198,791,197C792,195,795,194,799,194C803,193,808,193,815,193C821,193,826,193,829,193C833,193,835,194,837,195C839,195,841,197,842,198C843,200,844,203,845,206L889,331V331L930,203C931,200,932,197,933,196C934,195,937,194,940,194C943,193,948,193,956,193C962,193,967,193,971,194C975,194,978,195,980,197C981,198,982,200,982,203C982,205,982,209,981,212L918,395zM473,872C473,876,473,879,473,882C472,885,472,887,471,889C470,891,469,892,468,893C467,893,466,893,465,893H342C338,893,336,892,334,890C332,887,330,883,330,877V868C330,865,331,863,331,861C331,859,331,857,332,855C333,853,334,851,335,849C336,847,337,845,339,843L409,734H342C340,734,338,733,336,729C334,726,334,721,334,713C334,709,334,706,334,703C335,700,335,698,336,697C336,695,337,694,338,693C340,692,341,692,342,692H457C459,692,460,692,462,693C463,693,464,694,465,695C466,696,467,698,467,700C468,702,468,704,468,707V717C468,720,468,722,468,725C467,727,467,729,466,731C466,733,465,735,464,737C463,739,462,741,460,743L391,851H465C466,851,467,851,468,852C469,852,470,854,471,855C472,857,472,859,473,861C473,864,473,868,473,872zM333,556L401,457L463,556H422V637H378V557"/></svg>