<svg width="1000" height="1000" viewBox="0 0 1000 1000" xmlns="http://www.w3.org/2000/svg"><path d="M401,652C401,653,400,655,399,656C398,658,396,659,394,659C391,660,388,661,384,661C380,662,374,662,368,662C362,662,356,662,352,661C348,660,344,660,341,659C339,659,337,658,336,656C336,655,336,654,336,652V515C336,507,335,500,334,494C332,488,330,482,327,477C323,473,320,470,315,466C310,464,305,463,298,463C291,463,283,466,275,472C267,478,259,487,249,498V652C249,654,248,655,248,657C247,659,245,659,242,660C240,661,237,662,232,662C228,663,223,663,216,663C210,663,205,663,201,662C197,661,193,661,191,660C188,659,187,659,185,657C184,655,184,654,184,652V515C184,507,183,500,181,494C180,488,177,482,175,477C172,473,168,470,163,466C159,464,153,463,147,463C139,463,131,466,123,472C115,478,106,487,97,498V652C97,654,96,655,95,657C95,659,92,659,90,660C88,661,84,662,80,662C76,663,70,663,64,663C58,663,52,663,48,662C45,661,41,661,38,660C36,659,34,659,33,657C31,655,31,654,31,652V420C31,419,32,417,33,416C34,414,35,413,38,413C40,412,43,411,46,411C50,410,54,410,59,410C65,410,70,410,73,411C77,412,80,412,82,413C84,413,85,414,86,416C87,417,88,419,88,420V447C100,433,113,423,126,416C138,409,152,405,166,405C175,405,184,406,191,409C199,411,205,413,212,417C218,421,223,425,227,430C232,436,235,441,238,448C245,440,252,434,259,428C266,423,272,419,278,415C284,411,291,409,298,407C304,405,311,405,317,405C333,405,345,407,356,413C366,418,375,425,382,434C388,442,393,453,396,465C399,477,400,489,400,502V652zM698,534C698,553,696,571,691,588C685,604,677,618,667,630C656,641,644,651,627,657C612,663,593,666,572,666C552,666,534,663,518,658C503,652,490,644,480,633C470,622,463,609,458,593C453,577,451,559,451,538C451,519,453,501,459,484C464,468,472,454,482,442C492,430,505,421,522,415C538,409,556,405,577,405C598,405,616,409,631,414C646,420,659,428,669,439C679,450,686,463,691,479C696,495,698,513,698,534zM631,537C631,525,630,515,629,505C627,496,624,488,620,480C615,473,609,468,602,464C595,460,586,458,575,458C566,458,557,459,549,463C542,467,536,472,531,479C527,486,523,494,521,504C519,513,518,524,518,537C518,548,519,559,521,568C523,577,526,586,530,593C534,600,541,605,548,609C555,613,564,615,575,615C585,615,594,613,601,609C608,605,614,601,619,594C623,587,627,579,629,570C630,559,631,548,631,537zM970,652C970,653,969,655,968,656C967,658,966,659,963,659C961,660,959,661,955,661C951,661,947,662,941,662C936,662,931,662,928,661C925,661,922,660,920,659C917,659,916,658,915,656C914,655,913,653,913,652V626C902,638,889,648,876,655C863,663,848,666,832,666C814,666,799,663,788,656C776,649,766,640,758,629C750,617,745,604,741,588C738,573,736,556,736,539C736,519,738,500,742,484C747,467,753,453,762,441C770,430,780,421,794,415C806,409,821,405,838,405C851,405,863,408,873,413C883,419,894,427,904,437V312C904,310,905,309,905,307C906,305,908,305,911,304C913,303,916,302,921,302C926,301,930,301,937,301C943,301,948,301,952,302C956,302,960,303,963,304C965,305,966,306,968,307C969,309,970,310,970,312V652zM905,498C895,486,887,477,878,470C870,464,861,461,852,461C843,461,836,463,830,467C823,471,819,477,815,484C811,491,809,499,806,508C805,516,804,526,804,534C804,544,805,553,806,563C808,572,810,580,814,587C818,594,823,600,828,604C834,609,841,610,851,610C855,610,859,609,864,609C868,607,873,605,877,602C882,599,886,595,891,591C895,586,900,580,906,573V498z"/></svg>