<svg width="1000" height="1000" viewBox="0 0 1000 1000" xmlns="http://www.w3.org/2000/svg"><path d="M591,811C591,826,589,840,587,850C584,861,580,870,574,876C567,883,559,888,549,891C538,893,525,895,509,895C494,895,480,893,470,891C459,888,451,883,445,876C439,870,434,861,432,850C429,840,428,826,428,811C428,795,429,781,432,770C434,759,439,750,445,743C451,737,459,732,470,729C480,726,494,725,509,725C525,725,538,726,549,729C559,732,567,737,574,743C580,750,584,759,587,770C589,781,591,795,591,811zM573,642C572,646,571,649,569,652C567,655,564,658,559,660C554,662,548,664,540,665C531,666,521,666,509,666C497,666,487,666,479,665C471,664,464,662,459,660C455,658,451,655,449,652C447,649,446,646,446,642L431,118C431,113,432,109,434,105C437,101,441,98,447,95C453,93,461,91,471,90C481,89,494,88,509,88C525,88,537,89,547,90C557,91,565,93,571,96C577,98,581,101,584,105C586,109,588,113,588,118L573,642z"/></svg>