<svg width="1000" height="1000" viewBox="0 0 1000 1000" xmlns="http://www.w3.org/2000/svg"><path d="M483,561C483,573,482,582,480,588C477,594,474,597,470,597H429V679C429,682,429,684,427,686C426,687,423,689,420,690C416,691,412,692,406,693C400,693,393,693,384,693C376,693,369,693,363,693C357,692,353,691,349,690C346,689,344,687,342,686C341,684,340,682,340,679V597H167C163,597,161,597,158,596C155,595,153,593,151,590C150,587,148,583,148,578C147,572,146,565,146,556C146,548,147,542,147,536C147,531,148,526,149,521C149,517,151,513,152,509C154,505,156,501,158,496L299,247C300,245,302,243,305,242C308,240,312,239,317,238C322,237,328,236,336,236C344,235,353,235,364,235C376,235,386,235,394,236C403,237,410,237,415,239C420,240,423,242,426,243C428,245,429,248,429,250V524H470C473,524,477,526,479,532C482,538,483,547,483,561zM340,315V315L220,524H340V315zM834,654C834,661,833,666,833,671C832,676,831,680,830,683C829,686,827,688,825,689C824,691,821,691,819,691H558C553,691,548,691,545,690C541,689,538,687,536,684C533,682,532,678,530,673C529,668,529,661,529,653C529,645,529,638,530,633C531,627,532,622,534,618C536,614,538,610,541,605C544,601,548,597,552,592L631,508C647,491,659,476,669,463C679,450,686,437,691,426C697,415,700,405,702,395C704,386,705,377,705,369C705,361,704,354,702,347C699,340,696,334,691,329C686,324,680,320,673,317C666,314,657,312,647,312C633,312,621,314,610,318C600,321,590,325,582,329C574,334,568,338,562,341C557,345,553,347,550,347C547,347,546,346,544,345C543,343,541,341,540,338C540,334,539,330,538,324C538,319,537,312,537,304C537,299,537,294,538,291C538,287,539,284,539,281C540,279,541,276,542,274C543,272,545,270,548,267C551,264,557,261,565,256C572,252,582,248,593,244C605,240,618,236,631,233C645,231,660,229,675,229C698,229,719,232,736,238C754,244,769,252,781,263C792,274,801,286,807,301C812,315,815,331,815,348C815,363,814,377,811,392C808,406,802,421,794,438C785,454,772,472,756,492C740,512,718,536,692,562L639,617H818C820,617,822,617,824,619C826,620,828,622,829,625C831,628,832,632,832,637C833,642,834,647,834,654z"/></svg>