<svg width="1000" height="1000" viewBox="0 0 1000 1000" xmlns="http://www.w3.org/2000/svg"><path d="M761,18L27,752L240,965L974,231L761,18zM240,921L71,752L95,728L156,789L178,767L117,706L137,687L197,747L219,725L159,665L178,645L239,706L261,684L200,623L220,604L280,664L302,642L242,582L261,562L371,672L393,650L283,540L303,521L363,581L385,559L325,499L344,479L405,540L427,518L366,457L386,438L446,498L468,476L408,416L427,396L488,457L510,435L449,374L469,355L579,465L601,443L491,333L510,313L571,374L593,352L532,291L552,272L612,332L634,310L574,250L593,230L654,291L676,269L615,208L634,189L695,249L717,227L657,167L676,147L786,257L808,235L698,125L717,106L778,166L800,144L739,84L761,62L930,231L240,921z"/></svg>