<svg width="1000" height="1000" viewBox="0 0 1000 1000" xmlns="http://www.w3.org/2000/svg"><path d="M565,504M384,504M839,42C774,42,721,95,721,160C721,188,731,214,747,234L615,367V234C615,223,606,214,595,214C584,214,575,223,575,234V435H776C787,435,796,426,796,415C796,404,787,395,776,395H643L777,261C795,272,816,278,839,278C904,278,957,225,957,160C957,95,904,42,839,42zM839,238C821,238,805,232,792,222C791,222,790,221,790,220C788,219,787,218,785,217C770,202,761,182,761,160C761,117,796,82,839,82C882,82,917,117,917,160C917,203,882,238,839,238zM62,410C94,466,167,485,223,453C248,439,265,417,274,393L456,441L340,508C331,513,328,525,333,535C339,544,351,548,360,542L534,442L434,268C428,258,416,255,407,261C397,266,394,278,399,288L466,403L282,354C283,333,278,311,266,292C234,235,161,216,105,248C49,281,29,353,62,410zM232,312C241,327,244,344,242,361C241,361,241,362,241,363C240,365,240,367,240,369C235,389,223,407,203,419C166,440,118,427,96,390C75,352,88,304,125,283C162,261,210,274,232,312zM769,899C801,842,782,770,726,738C701,723,674,719,648,723L599,542L715,609C724,614,736,611,742,601C747,592,744,580,734,574L561,474L460,648C455,657,458,669,467,675C477,680,489,677,495,667L561,552L610,736C592,746,576,761,564,781C532,837,551,909,608,942C664,975,736,955,769,899zM599,801C608,785,621,774,636,768C637,768,638,767,639,767C641,767,643,766,645,765C664,759,686,761,706,772C743,794,756,842,734,879C713,916,665,929,627,908C590,886,577,838,599,801z"/></svg>