<svg width="1000" height="1000" viewBox="0 0 1000 1000" xmlns="http://www.w3.org/2000/svg"><path d="M841,510C837,510,832,511,827,511L760,240C795,221,820,184,820,141C820,80,770,30,709,30C650,30,602,76,598,135L360,182C342,147,305,123,263,123C201,123,151,173,151,234C151,281,180,321,220,337L165,736C106,738,58,787,58,847C58,908,108,958,169,958C230,958,279,909,280,849L750,684C770,713,803,732,841,732C903,732,952,682,952,621C952,560,903,510,841,510zM709,67C750,67,783,100,783,141C783,182,750,215,709,215C668,215,635,182,635,141C635,100,668,67,709,67zM189,234C189,194,222,161,263,161C303,161,336,194,336,234C336,275,303,308,263,308C222,308,189,275,189,234zM169,921C128,921,95,888,95,847C95,806,128,773,169,773C210,773,243,806,243,847C243,888,210,921,169,921zM730,621C730,631,731,640,734,648L274,810C262,778,236,752,204,742L259,345C260,345,261,346,263,346C324,346,374,296,374,234C374,229,373,224,372,219L603,173C617,219,659,252,709,252C713,252,718,252,722,251L790,523C755,541,730,578,730,621zM841,695C801,695,768,662,768,621C768,581,801,547,841,547C882,547,915,581,915,621C915,662,882,695,841,695z"/></svg>