<?xml version="1.0" encoding="utf-8"?>
<!-- Generator: Adobe Illustrator 21.0.0, SVG Export Plug-In . SVG Version: 6.00 Build 0)  -->
<svg version="1.1" baseProfile="tiny" id="Laag_1" xmlns="http://www.w3.org/2000/svg" xmlns:xlink="http://www.w3.org/1999/xlink"
	 x="0px" y="0px" viewBox="0 0 49.9 49.9" overflow="inherit" xml:space="preserve">
<g>
	<path d="M46.7,11.4l-21-11c-0.4-0.2-1-0.2-1.4,0l-21,11c-0.5,0.2-0.8,0.8-0.8,1.3v24.5c0,0.6,0.3,1.1,0.8,1.3l21,11
		c0.2,0.1,0.5,0.2,0.7,0.2c0.3,0,0.3,0,0.7-0.2l21-11c0.5-0.2,0.8-0.7,0.8-1.3V12.7C47.5,12.2,47.2,11.7,46.7,11.4z M25,3.3
		l17.8,9.4L25,22L7.2,12.7L25,3.3z M5.5,15.1L18.7,22l4.8,2.5v21.2l-18-9.5V15.1z M44.5,36.2l-18,9.5V24.6l18-9.4V36.2z"/>
	<ellipse cx="17.3" cy="12.8" rx="2.9" ry="2.1"/>
	<ellipse cx="25.7" cy="12.8" rx="2.9" ry="2.1"/>
	<ellipse cx="33.7" cy="12.8" rx="2.9" ry="2.1"/>
	<ellipse transform="matrix(0.7071 -0.7071 0.7071 0.7071 -15.4589 16.2577)" cx="11.9" cy="26.8" rx="2.1" ry="2.9"/>
	<ellipse transform="matrix(0.7071 -0.7071 0.7071 0.7071 -19.9145 22.3002)" cx="17" cy="35.2" rx="2.1" ry="2.9"/>
	<ellipse transform="matrix(0.7071 -0.7071 0.7071 0.7071 -10.6826 34.2988)" cx="36.1" cy="30" rx="2.9" ry="2.1"/>
</g>
</svg>
