<svg width="1000" height="1000" viewBox="0 0 1000 1000" xmlns="http://www.w3.org/2000/svg"><path d="M177,338H195V542H177zM272,557L350,369L367,376L289,564zM354,608L498,463L511,476L366,620zM410,686L599,607L606,624L417,702zM432,779H636V797H432zM294,824C294,839,291,852,286,864C280,876,273,886,263,894C254,902,242,909,229,913C215,917,201,919,184,919C176,919,167,919,160,918C152,917,145,915,139,914C132,912,127,910,123,909C119,907,117,906,116,905C114,903,114,902,113,901C112,900,112,898,112,896C111,894,111,892,111,890C111,887,111,884,111,880C111,876,111,872,111,870C111,867,112,864,112,863C113,861,114,860,115,859C116,858,117,858,118,858C119,858,121,859,124,860C127,862,131,864,136,866C141,868,147,870,154,871C160,873,169,874,178,874C187,874,194,873,201,871C208,870,214,867,219,863C223,859,227,854,230,849C232,843,233,836,233,828C233,821,232,815,230,809C228,804,225,799,220,796C216,792,210,789,202,787C195,785,186,785,175,785C167,785,160,785,153,786C146,787,139,787,133,787C129,787,126,786,124,784C123,782,122,778,122,772V651C122,645,123,641,125,639C127,636,131,635,136,635H268C269,635,270,635,272,636C273,637,274,639,274,640C275,642,276,645,276,648C277,651,277,655,277,659C277,668,276,674,274,678C273,682,271,684,268,684H168V743C173,743,178,742,183,742C188,742,194,742,199,742C214,742,228,744,239,747C251,751,261,756,269,763C277,770,283,778,287,788C292,799,294,810,294,824zM755,728C752,694,745,660,736,628C752,616,762,598,762,577C762,543,734,515,700,515C697,515,693,515,690,516C674,486,655,458,634,431C639,422,642,411,642,400C642,366,615,338,580,338C569,338,559,341,550,346C521,322,490,301,457,284C457,281,457,278,457,275C457,241,430,213,395,213C375,213,357,223,346,238C313,229,280,222,246,219C240,192,215,172,186,172C152,172,125,200,125,234C125,268,152,296,186,296C214,296,237,278,245,254C275,257,305,263,334,271C334,273,334,274,334,275C334,309,361,337,396,337C414,337,431,329,442,315C472,331,500,350,526,371C521,380,519,389,519,400C519,434,547,462,581,462C591,462,600,459,608,455C627,479,644,505,659,532C647,543,639,559,639,577C639,611,667,639,701,639C701,639,702,639,703,639C711,668,717,699,721,730C697,738,679,761,679,788C679,822,707,850,741,850C775,850,803,822,803,788C803,759,783,734,755,728zM214,252C208,261,198,267,186,267C168,267,154,252,154,234C154,216,168,201,186,201C198,201,208,207,214,216C217,221,219,227,219,234C219,240,217,246,214,252zM415,302C409,306,403,308,395,308C379,308,366,296,363,281C363,279,363,277,363,275C363,264,368,254,377,248C382,245,388,242,395,242C411,242,425,254,428,269C428,271,428,273,428,275C428,286,423,296,415,302zM613,406C610,419,601,429,588,432C586,432,583,433,580,433C562,433,548,418,548,400C548,397,548,394,549,391C552,379,562,370,574,368C576,367,578,367,580,367C599,367,613,382,613,400C613,402,613,404,613,406zM700,610C698,610,695,609,693,609C678,605,668,592,668,577C668,571,669,565,673,560C678,550,689,544,700,544C702,544,703,544,704,544C720,546,733,560,733,577C733,585,730,592,726,597C720,605,711,610,700,610zM741,821C723,821,708,806,708,788C708,777,714,767,723,761C728,757,734,755,741,755C747,755,753,757,758,760C767,765,774,776,774,788C774,806,759,821,741,821z"/></svg>