<svg width="1000" height="1000" viewBox="0 0 1000 1000" xmlns="http://www.w3.org/2000/svg"><path d="M69,201H87V263H69zM319,309L343,252L360,259L336,316zM532,447L576,404L589,416L545,460zM676,657L734,633L741,650L683,673zM729,905H791V923H729zM286,225C286,226,285,227,284,228C284,228,283,229,281,229C280,229,278,229,276,229C273,229,270,228,267,227C263,227,260,226,258,225C256,224,254,224,253,223C252,222,251,221,250,221C250,220,250,219,250,218L265,145C266,139,267,134,267,130C267,126,266,123,265,120C264,117,262,115,259,113C257,111,254,110,250,109C246,108,241,109,235,111C230,113,224,117,218,123L200,208C200,209,199,209,199,210C198,210,197,211,195,211C194,211,192,211,190,211C187,211,184,210,181,209C177,209,174,208,172,207C170,207,168,206,167,205C166,204,165,203,164,203C164,202,164,201,164,200L190,72C191,71,191,71,192,70C192,69,193,69,195,69C196,69,198,69,200,69C202,69,204,69,207,70C210,70,212,71,214,72C216,72,218,73,219,74C220,74,221,75,221,76C221,77,221,78,221,79L218,93C227,87,235,83,243,81C251,78,259,78,267,80C276,82,283,85,288,89C293,93,297,98,300,103C303,109,304,115,304,122C305,129,304,137,302,146L286,225zM535,356C534,357,533,357,532,358C531,358,530,358,529,358C528,357,526,356,524,355C522,354,519,353,516,351C513,349,511,347,509,345C507,344,506,342,505,341C504,340,504,339,504,338C503,337,504,336,504,335L546,274C550,269,552,264,553,261C555,257,555,254,555,251C555,248,554,245,553,242C551,239,549,237,546,235C542,232,537,231,532,231C526,231,519,232,511,235L462,307C462,307,461,308,460,308C459,308,458,308,456,308C455,308,453,307,451,306C449,305,447,303,444,301C441,299,438,297,436,296C435,294,433,293,432,292C431,290,431,289,431,288C431,287,431,287,432,286L505,178C506,178,506,177,507,177C508,176,509,176,510,177C512,177,513,178,515,178C517,179,519,181,521,182C524,184,526,186,528,187C529,188,530,190,531,191C531,192,532,193,532,194C532,194,532,195,531,196L523,208C533,206,542,205,551,206C559,207,566,210,573,215C580,220,586,225,589,231C593,237,594,243,595,249C595,255,594,262,591,268C589,275,585,282,580,289L535,356zM714,572C713,572,713,573,712,573C711,572,710,572,709,571C707,570,706,569,705,567C703,565,701,563,699,560C697,557,696,554,695,552C694,550,693,548,693,547C692,545,692,544,692,543C693,543,693,542,694,541L756,501C762,497,766,494,768,491C771,489,773,486,774,483C775,480,775,477,775,474C775,471,774,468,771,465C769,461,765,458,759,456C754,453,747,452,739,451L666,499C666,499,665,500,664,499C663,499,662,499,661,498C659,497,658,496,657,494C655,492,653,490,651,487C649,484,648,481,647,479C646,477,645,475,645,474C644,472,644,471,644,470C645,469,645,469,646,468L755,396C756,396,757,396,758,396C758,396,759,396,761,397C762,398,763,399,764,400C765,402,767,404,769,406C770,409,772,411,772,413C773,415,774,416,774,418C774,419,774,420,774,421C774,422,773,422,772,423L760,431C770,433,779,436,786,440C794,444,800,449,804,456C809,463,812,471,813,477C813,484,813,490,811,496C809,502,805,507,800,512C796,518,789,523,781,528L714,572zM798,840C797,840,796,840,795,840C794,839,793,838,793,837C792,836,791,834,791,832C790,830,789,827,789,823C788,820,788,817,787,814C787,812,787,810,787,809C788,807,788,806,789,805C789,805,790,804,791,804L864,790C870,789,875,788,878,786C882,785,884,783,887,781C889,778,890,776,891,773C892,770,892,766,892,763C891,758,888,754,884,750C880,746,874,742,866,738L781,754C780,754,780,754,779,754C778,753,777,752,776,751C776,750,775,748,774,746C773,744,773,741,772,737C771,734,771,731,771,728C771,726,771,724,771,723C771,721,772,720,772,719C773,719,774,718,774,718L902,694C903,693,904,694,905,694C906,694,907,695,907,696C908,697,909,699,909,701C910,703,910,705,911,708C912,711,912,714,912,716C912,718,912,719,912,721C912,722,911,723,911,723C910,724,909,724,908,724L893,727C902,733,910,739,915,746C920,752,923,759,925,767C927,776,926,784,925,790C923,797,920,802,916,807C912,811,906,815,900,818C894,821,886,823,877,825L798,840zM651,850C648,816,641,782,631,750C647,738,658,720,658,699C658,665,630,637,596,637C593,637,589,637,586,638C569,608,551,580,529,553C535,544,538,533,538,522C538,488,510,460,476,460C465,460,455,463,446,468C417,444,385,423,352,406C353,403,353,400,353,397C353,363,325,335,291,335C271,335,253,345,242,360C209,351,176,344,142,341C135,314,111,294,82,294C48,294,20,322,20,356C20,390,48,418,82,418C109,418,132,400,141,376C171,379,200,385,230,393C229,395,229,396,229,397C229,431,257,459,291,459C310,459,327,451,338,437C368,453,395,472,421,493C417,502,415,511,415,522C415,556,442,584,476,584C486,584,496,581,504,577C523,601,540,627,554,654C542,665,535,681,535,699C535,733,562,761,596,761C597,761,598,761,598,761C607,790,613,821,616,852C592,860,575,883,575,910C575,944,603,972,637,972C671,972,699,944,699,910C699,881,678,856,651,850zM110,374C104,383,94,389,82,389C64,389,49,374,49,356C49,338,64,323,82,323C94,323,104,329,110,338C113,344,115,350,115,356C115,362,113,368,110,374zM310,424C305,428,298,430,291,430C275,430,261,418,259,403C258,401,258,399,258,397C258,386,264,376,272,370C278,367,284,364,291,364C307,364,320,376,323,391C324,393,324,395,324,397C324,408,319,418,310,424zM508,528C506,541,496,551,484,554C482,554,479,555,476,555C458,555,443,540,443,522C443,519,444,516,444,513C448,501,458,492,470,490C472,489,474,489,476,489C494,489,509,504,509,522C509,524,509,526,508,528zM596,732C594,732,591,731,589,731C574,727,563,714,563,699C563,693,565,687,568,682C574,672,584,666,596,666C597,666,599,666,600,666C616,668,629,682,629,699C629,707,626,714,622,719C616,727,607,732,596,732zM637,943C619,943,604,928,604,910C604,899,610,889,619,883C624,879,630,877,637,877C643,877,649,879,654,882C663,887,670,898,670,910C670,928,655,943,637,943z"/></svg>