<svg width="1000" height="1000" viewBox="0 0 1000 1000" xmlns="http://www.w3.org/2000/svg"><path d="M240,213L283,157L302,171L259,227zM201,196L222,129L244,137L223,203zM156,124L179,123L181,194H158zM91,141L113,133L139,198L117,207zM36,179L54,164L100,217L82,232zM174,233C163,233,154,235,145,238L96,187L115,256C98,272,88,294,88,319C88,366,126,405,174,405C221,405,259,366,259,319C259,271,221,233,174,233zM174,362C150,362,130,343,130,319C130,295,150,276,174,276C197,276,217,295,217,319C217,343,197,362,174,362zM571,213L614,157L633,171L590,227zM532,196L553,129L575,137L554,203zM422,141L444,133L470,198L448,207zM367,179L385,164L431,217L414,232zM519,234L509,194H512L510,123L487,124L489,194H495L484,236C446,245,419,279,419,319C419,366,457,405,505,405C552,405,590,366,590,319C590,276,560,241,519,234zM505,362C481,362,461,343,461,319C461,295,481,276,505,276C528,276,548,295,548,319C548,343,528,362,505,362zM902,213L945,157L964,171L921,227zM818,124L841,123L843,194H820zM753,141L775,133L801,198L779,207zM698,179L716,164L762,217L745,232zM878,244L882,202L885,203L906,137L884,129L863,196L868,198L844,233C841,233,838,233,836,233C788,233,750,271,750,319C750,366,788,405,836,405C883,405,921,366,921,319C921,287,904,259,878,244zM836,362C812,362,792,343,792,319C792,295,812,276,836,276C859,276,879,295,879,319C879,343,859,362,836,362zM311,926C311,929,310,930,310,932C309,933,307,934,304,935C301,936,297,937,292,937C286,938,279,938,270,938C262,938,255,938,251,937C246,937,242,936,240,935C237,934,235,933,234,931C233,930,232,928,231,925L198,844C194,835,190,826,187,819C183,812,179,806,174,801C169,797,164,793,158,790C152,788,145,787,137,787H114V926C114,928,113,930,112,931C111,933,109,934,106,935C103,936,100,936,95,937C90,938,84,938,77,938C70,938,64,938,59,937C54,936,50,936,47,935C45,934,43,933,41,931C40,930,40,928,40,926V594C40,586,42,580,46,576C50,573,56,571,62,571H156C166,571,174,571,180,571C186,572,192,572,197,573C212,575,225,578,237,584C248,589,258,595,267,603C275,612,281,621,285,632C290,644,292,657,292,671C292,683,290,694,287,704C284,715,280,724,274,731C268,739,260,746,251,752C242,758,232,763,221,766C226,769,232,772,236,776C241,780,246,784,250,789C254,795,258,801,262,808C266,815,269,822,273,831L304,903C307,910,308,915,309,919C310,922,311,925,311,926zM215,679C215,667,212,656,207,648C201,640,193,634,180,631C176,630,172,629,167,628C162,628,156,628,147,628H114V731H152C162,731,172,730,180,727C187,725,194,721,199,717C205,712,209,707,211,700C214,694,215,687,215,679zM646,628C646,633,646,638,645,642C645,646,644,649,643,651C642,653,641,655,640,656C639,657,637,657,636,657C633,657,629,656,624,652C618,649,611,645,602,641C593,637,582,634,570,630C557,627,543,625,526,625C509,625,493,628,478,634C464,641,452,649,442,660C431,672,424,685,418,701C413,717,410,734,410,753C410,774,413,792,418,808C424,824,432,837,442,848C452,859,464,867,478,872C492,878,507,880,524,880C532,880,540,880,549,878C557,876,564,873,571,869V785H502C499,785,496,782,494,778C492,774,491,767,491,757C491,751,492,747,492,743C492,740,493,737,494,735C495,733,496,731,497,730C499,729,500,728,502,728H625C628,728,631,729,633,730C636,731,638,732,640,735C641,737,643,739,644,742C645,745,645,748,645,752V897C645,903,644,908,642,912C640,916,636,920,630,922C624,925,616,927,607,930C598,933,589,935,579,937C570,939,560,940,550,941C540,942,530,942,520,942C491,942,465,938,442,930C419,921,399,909,383,893C367,877,355,858,346,835C338,812,334,786,334,757C334,727,338,701,347,677C356,653,369,633,386,616C402,599,422,587,446,578C469,569,495,565,524,565C540,565,554,566,567,568C580,570,592,573,601,576C611,579,619,582,625,586C632,589,636,592,639,595C641,598,643,601,644,606C645,611,646,618,646,628zM970,827C970,840,968,851,965,862C961,872,956,882,950,890C944,898,936,905,927,911C919,917,909,921,899,925C888,929,877,932,865,933C853,935,840,936,825,936H728C722,936,716,934,712,931C708,927,706,921,706,913V594C706,586,708,580,712,576C716,573,722,571,728,571H819C842,571,861,573,876,576C892,580,905,586,916,594C926,601,934,611,940,622C946,634,948,648,948,664C948,673,947,681,945,689C943,696,940,704,935,710C931,716,926,722,919,727C913,732,906,736,898,739C908,741,918,744,926,749C935,753,943,759,949,767C956,774,961,783,965,793C968,803,970,814,970,827zM874,673C874,665,873,659,871,653C869,647,865,642,861,638C856,635,850,632,844,630C837,627,828,626,816,626H779V721H820C831,721,839,720,846,717C852,715,857,711,862,707C866,703,869,697,871,691C873,686,874,679,874,673zM893,829C893,821,892,813,889,806C886,800,882,794,876,790C871,785,864,782,856,779C847,777,836,775,823,775H779V879H832C843,879,851,878,858,876C865,874,871,871,877,867C882,862,886,857,889,851C892,844,893,837,893,829z"/></svg>