<svg width="1000" height="1000" viewBox="0 0 1000 1000" xmlns="http://www.w3.org/2000/svg"><path d="M292,967C292,969,291,970,291,972C290,973,288,974,285,975C282,976,278,977,273,977C267,978,260,978,250,978C242,978,236,978,231,977C227,977,223,976,220,975C218,974,216,973,214,971C213,970,212,968,212,966L179,884C175,874,171,866,167,859C163,852,159,846,155,841C150,836,145,833,139,830C133,828,126,826,118,826H94V966C94,968,94,970,93,971C91,973,89,974,86,975C84,976,80,977,75,977C70,978,64,978,57,978C50,978,44,978,39,977C34,977,30,976,28,975C25,974,23,973,22,971C20,970,20,968,20,966V633C20,625,22,619,26,615C31,612,36,610,42,610H137C147,610,154,610,161,610C167,611,173,611,178,612C192,614,206,617,217,623C229,628,239,634,247,643C256,651,262,660,266,672C271,683,273,696,273,710C273,723,271,734,268,744C265,754,260,763,254,771C248,779,241,786,232,792C223,797,213,802,202,806C207,808,212,812,217,815C222,819,227,824,231,829C235,835,239,841,243,848C247,854,250,862,254,871L285,943C288,950,289,956,290,959C291,962,292,965,292,967zM196,718C196,706,193,696,188,687C182,679,173,673,161,670C157,669,153,668,148,668C143,667,136,667,128,667H94V771H132C143,771,152,769,160,767C168,764,175,761,180,756C185,751,189,746,192,740C194,733,196,726,196,718zM636,667C636,672,636,677,635,681C635,685,634,688,633,690C632,693,631,694,630,695C629,696,627,697,626,697C623,697,619,695,614,692C608,688,601,685,592,681C583,677,572,673,560,670C547,666,532,664,516,664C498,664,482,668,468,674C453,680,441,688,431,700C421,711,413,724,407,740C402,756,399,773,399,792C399,813,402,832,407,848C413,864,421,877,431,888C441,899,453,907,467,912C481,918,497,920,514,920C522,920,530,920,538,918C546,916,554,913,561,909V824H491C488,824,485,822,483,818C482,814,481,806,481,796C481,791,481,786,481,783C482,779,483,776,483,774C484,772,486,770,487,769C488,768,490,768,491,768H615C618,768,621,768,623,769C626,770,628,772,629,774C631,776,633,779,634,782C634,784,635,788,635,792V937C635,943,634,948,632,952C630,957,626,960,620,962C614,965,606,967,597,970C588,973,579,975,569,977C559,979,549,980,539,981C529,982,520,982,510,982C480,982,454,978,431,970C408,961,388,949,372,933C356,917,344,898,335,875C327,852,323,826,323,797C323,767,327,740,336,716C345,692,358,672,375,655C391,639,411,626,435,617C458,608,485,604,513,604C529,604,544,605,557,607C570,609,581,612,591,615C601,618,609,621,615,625C622,628,626,632,629,634C631,637,633,641,634,645C635,650,636,657,636,667zM977,866C977,879,975,891,971,902C968,912,963,922,957,930C950,938,943,945,934,951C925,957,915,961,905,965C894,969,883,972,871,974C859,975,846,976,831,976H734C727,976,722,974,718,971C714,967,711,961,711,953V633C711,625,714,619,718,615C722,612,727,610,734,610H826C848,610,867,612,883,615C898,619,911,625,922,633C933,640,941,650,947,662C952,673,955,687,955,703C955,712,954,720,952,728C949,736,946,743,942,749C937,756,932,762,926,766C919,771,912,775,904,778C914,780,924,784,933,788C942,793,949,799,956,806C962,814,967,823,971,833C975,843,977,854,977,866zM881,712C881,705,879,698,877,692C875,686,871,682,867,678C862,674,857,671,850,669C843,667,834,666,822,666H785V761H826C837,761,846,760,852,757C858,754,864,751,868,746C872,742,875,737,877,731C880,725,881,719,881,712zM900,869C900,860,898,853,895,846C892,839,888,834,883,829C877,825,870,821,862,819C853,816,842,815,829,815H785V919H838C849,919,857,918,865,916C872,914,878,911,883,906C888,902,892,897,895,891C898,884,900,877,900,869zM816,102C908,181,830,238,779,253C715,271,684,299,689,321C695,346,746,334,779,327C803,321,900,335,814,419C711,521,501,532,397,507C301,484,139,393,158,225C178,57,380-1,509,0C607,1,728,26,816,102zM663,144C629,144,601,161,601,181C601,202,629,219,663,219C697,219,725,202,725,181C725,161,697,144,663,144z"/></svg>