<svg width="1000" height="1000" viewBox="0 0 1000 1000" xmlns="http://www.w3.org/2000/svg"><path d="M493,935C493,943,487,949,479,949C471,949,464,943,464,935C464,927,471,920,479,920C487,920,493,927,493,935zM134,412C134,420,128,426,120,426C112,426,105,420,105,412C105,404,112,397,120,397C128,397,134,404,134,412zM368,448C368,456,362,463,354,463C346,463,339,456,339,448C339,440,346,434,354,434C362,434,368,440,368,448zM668,889C668,897,661,903,653,903C645,903,639,897,639,889C639,881,645,874,653,874C661,874,668,881,668,889zM706,752C706,760,699,766,691,766C683,766,676,760,676,752C676,744,683,737,691,737C699,737,706,744,706,752zM848,821C848,829,841,835,833,835C825,835,819,829,819,821C819,812,825,806,833,806C841,806,848,812,848,821zM795,219C795,227,789,234,781,234C773,234,766,227,766,219C766,211,773,204,781,204C789,204,795,211,795,219zM906,643C906,651,899,657,891,657C883,657,876,651,876,643C876,635,883,628,891,628C899,628,906,635,906,643zM470,547C470,555,463,562,455,562C447,562,440,555,440,547C440,539,447,533,455,533C463,533,470,539,470,547zM316,361C316,369,309,376,301,376C293,376,287,369,287,361C287,353,293,347,301,347C309,347,316,353,316,361zM138,439C138,447,131,453,123,453C115,453,108,447,108,439C108,431,115,424,123,424C131,424,138,431,138,439zM834,120C834,128,828,135,820,135C812,135,805,128,805,120C805,112,812,105,820,105C828,105,834,112,834,120zM684,466C684,474,678,480,670,480C662,480,655,474,655,466C655,458,662,451,670,451C678,451,684,458,684,466zM372,221C372,229,365,235,357,235C349,235,343,229,343,221C343,213,349,206,357,206C365,206,372,213,372,221zM242,943C242,951,235,958,227,958C219,958,213,951,213,943C213,935,219,928,227,928C235,928,242,935,242,943zM594,169C594,177,588,183,580,183C571,183,565,177,565,169C565,161,571,154,580,154C588,154,594,161,594,169zM683,597C683,605,676,612,668,612C660,612,654,605,654,597C654,589,660,583,668,583C676,583,683,589,683,597zM409,33C409,41,403,47,395,47C387,47,380,41,380,33C380,25,387,18,395,18C403,18,409,25,409,33zM270,152C270,161,263,167,255,167C247,167,240,161,240,152C240,144,247,138,255,138C263,138,270,144,270,152zM218,807C218,815,211,822,203,822C195,822,188,815,188,807C188,799,195,792,203,792C211,792,218,799,218,807zM512,933C512,941,506,947,498,947C489,947,483,941,483,933C483,925,489,918,498,918C506,918,512,925,512,933zM411,113C411,121,405,128,396,128C388,128,382,121,382,113C382,105,388,99,396,99C405,99,411,105,411,113zM723,595C723,603,717,610,709,610C701,610,694,603,694,595C694,587,701,581,709,581C717,581,723,587,723,595zM462,837C462,845,455,852,447,852C439,852,432,845,432,837C432,829,439,823,447,823C455,823,462,829,462,837zM721,803C721,812,715,818,707,818C698,818,692,812,692,803C692,795,698,789,707,789C715,789,721,795,721,803zM738,438C738,446,731,453,723,453C715,453,708,446,708,438C708,430,715,423,723,423C731,423,738,430,738,438zM742,82C742,90,736,96,728,96C720,96,713,90,713,82C713,73,720,67,728,67C736,67,742,73,742,82zM266,914C266,922,260,928,252,928C243,928,237,922,237,914C237,905,243,899,252,899C260,899,266,905,266,914zM348,168C348,176,342,182,334,182C325,182,319,176,319,168C319,160,325,153,334,153C342,153,348,160,348,168zM207,114C207,122,200,128,192,128C184,128,178,122,178,114C178,105,184,99,192,99C200,99,207,105,207,114zM198,475C198,483,191,490,183,490C175,490,168,483,168,475C168,467,175,460,183,460C191,460,198,467,198,475zM351,835C351,843,345,850,336,850C328,850,322,843,322,835C322,827,328,821,336,821C345,821,351,827,351,835zM496,418C496,426,489,432,481,432C473,432,466,426,466,418C466,410,473,403,481,403C489,403,496,410,496,418zM684,727C684,735,677,741,669,741C661,741,655,735,655,727C655,719,661,712,669,712C677,712,684,719,684,727zM311,288C311,296,304,302,296,302C288,302,281,296,281,288C281,279,288,273,296,273C304,273,311,279,311,288zM707,844C707,852,700,858,692,858C684,858,678,852,678,844C678,836,684,829,692,829C700,829,707,836,707,844zM838,657C838,665,831,671,823,671C815,671,809,665,809,657C809,649,815,642,823,642C831,642,838,649,838,657zM256,515C256,523,249,530,241,530C233,530,226,523,226,515C226,507,233,500,241,500C249,500,256,507,256,515zM871,259C871,267,865,274,857,274C849,274,842,267,842,259C842,251,849,245,857,245C865,245,871,251,871,259zM291,190C291,198,284,205,276,205C268,205,261,198,261,190C261,182,268,175,276,175C284,175,291,182,291,190zM744,148C744,157,738,163,730,163C722,163,715,157,715,148C715,140,722,134,730,134C738,134,744,140,744,148zM482,962C482,970,475,977,467,977C459,977,452,970,452,962C452,954,459,948,467,948C475,948,482,954,482,962zM356,43C356,51,349,58,341,58C333,58,327,51,327,43C327,35,333,28,341,28C349,28,356,35,356,43zM726,740C726,748,719,755,711,755C703,755,696,748,696,740C696,732,703,725,711,725C719,725,726,732,726,740zM161,771C161,779,155,786,147,786C139,786,132,779,132,771C132,763,139,756,147,756C155,756,161,763,161,771zM514,59C514,67,507,73,499,73C491,73,485,67,485,59C485,51,491,44,499,44C507,44,514,51,514,59zM279,277C279,285,273,291,265,291C257,291,250,285,250,277C250,268,257,262,265,262C273,262,279,268,279,277zM212,419C212,427,206,433,198,433C189,433,183,427,183,419C183,411,189,404,198,404C206,404,212,411,212,419zM542,531C542,539,536,546,528,546C520,546,513,539,513,531C513,523,520,517,528,517C536,517,542,523,542,531zM491,56C491,64,484,71,476,71C468,71,461,64,461,56C461,48,468,42,476,42C484,42,491,48,491,56zM755,846C755,854,749,861,741,861C733,861,726,854,726,846C726,838,733,832,741,832C749,832,755,838,755,846zM796,197C796,205,790,211,782,211C774,211,767,205,767,197C767,189,774,182,782,182C790,182,796,189,796,197zM294,862C294,871,288,877,279,877C271,877,265,871,265,862C265,854,271,848,279,848C288,848,294,854,294,862zM281,161C281,169,275,175,267,175C259,175,252,169,252,161C252,153,259,146,267,146C275,146,281,153,281,161zM344,897C344,905,338,911,330,911C322,911,315,905,315,897C315,888,322,882,330,882C338,882,344,888,344,897zM295,937C295,945,288,952,280,952C272,952,265,945,265,937C265,929,272,922,280,922C288,922,295,929,295,937zM468,170C468,178,461,185,453,185C445,185,438,178,438,170C438,162,445,155,453,155C461,155,468,162,468,170zM573,603C573,611,567,617,558,617C550,617,544,611,544,603C544,595,550,588,558,588C567,588,573,595,573,603zM674,639C674,647,667,654,659,654C651,654,645,647,645,639C645,631,651,624,659,624C667,624,674,631,674,639zM162,278C162,286,155,293,147,293C139,293,132,286,132,278C132,270,139,264,147,264C155,264,162,270,162,278zM291,859C291,868,285,874,277,874C269,874,262,868,262,859C262,851,269,845,277,845C285,845,291,851,291,859zM370,132C370,140,363,146,355,146C347,146,340,140,340,132C340,124,347,117,355,117C363,117,370,124,370,132zM631,437C631,445,624,452,616,452C608,452,602,445,602,437C602,429,608,423,616,423C624,423,631,429,631,437zM350,98C350,106,343,113,335,113C327,113,320,106,320,98C320,90,327,83,335,83C343,83,350,90,350,98zM373,329C373,337,366,344,358,344C350,344,344,337,344,329C344,321,350,315,358,315C366,315,373,321,373,329zM351,827C351,835,345,841,337,841C329,841,322,835,322,827C322,819,329,812,337,812C345,812,351,819,351,827zM676,848C676,856,669,863,661,863C653,863,646,856,646,848C646,840,653,834,661,834C669,834,676,840,676,848zM771,68C771,76,764,83,756,83C748,83,742,76,742,68C742,60,748,53,756,53C764,53,771,60,771,68zM859,113C859,121,852,127,844,127C836,127,829,121,829,113C829,105,836,98,844,98C852,98,859,105,859,113zM528,896C528,904,522,911,514,911C505,911,499,904,499,896C499,888,505,881,514,881C522,881,528,888,528,896zM266,301C266,309,260,315,251,315C243,315,237,309,237,301C237,292,243,286,251,286C260,286,266,292,266,301zM524,845C524,853,517,860,509,860C501,860,494,853,494,845C494,837,501,830,509,830C517,830,524,837,524,845zM737,62C737,70,731,77,722,77C714,77,708,70,708,62C708,54,714,47,722,47C731,47,737,54,737,62zM317,364C317,372,310,379,302,379C294,379,287,372,287,364C287,356,294,349,302,349C310,349,317,356,317,364zM721,173C721,181,714,188,706,188C698,188,691,181,691,173C691,165,698,158,706,158C714,158,721,165,721,173zM829,125C829,133,822,140,814,140C806,140,800,133,800,125C800,117,806,110,814,110C822,110,829,117,829,125zM211,333C211,341,204,347,196,347C188,347,182,341,182,333C182,325,188,318,196,318C204,318,211,325,211,333zM449,108C449,116,442,122,434,122C426,122,419,116,419,108C419,100,426,93,434,93C442,93,449,100,449,108zM385,874C385,882,378,889,370,889C362,889,356,882,356,874C356,866,362,859,370,859C378,859,385,866,385,874zM749,482C749,491,742,497,734,497C726,497,719,491,719,482C719,474,726,468,734,468C742,468,749,474,749,482zM701,160C701,168,695,175,686,175C678,175,672,168,672,160C672,152,678,145,686,145C695,145,701,152,701,160zM357,318C357,326,350,333,342,333C334,333,328,326,328,318C328,310,334,303,342,303C350,303,357,310,357,318zM843,179C843,187,836,194,828,194C820,194,814,187,814,179C814,171,820,164,828,164C836,165,843,171,843,179zM674,200C674,208,668,215,660,215C652,215,645,208,645,200C645,192,652,186,660,186C668,186,674,192,674,200zM700,429C700,437,694,444,686,444C678,444,671,437,671,429C671,421,678,414,686,414C694,414,700,421,700,429zM442,820C442,828,435,834,427,834C419,834,412,828,412,820C412,812,419,805,427,805C435,805,442,812,442,820zM163,841C163,849,156,856,148,856C140,856,133,849,133,841C133,833,140,826,148,826C156,826,163,833,163,841zM835,831C835,839,828,845,820,845C812,845,805,839,805,831C805,823,812,816,820,816C828,816,835,823,835,831zM763,848C763,856,756,863,748,863C740,863,734,856,734,848C734,840,740,834,748,834C756,834,763,840,763,848zM392,396C392,404,386,411,378,411C370,411,363,404,363,396C363,388,370,381,378,381C386,381,392,388,392,396zM386,440C386,448,379,455,371,455C363,455,356,448,356,440C356,432,363,426,371,426C379,426,386,432,386,440zM819,119C819,127,812,134,804,134C796,134,790,127,790,119C790,111,796,105,804,105C812,105,819,111,819,119zM262,862C262,870,256,877,248,877C240,877,233,870,233,862C233,854,240,847,248,847C256,847,262,854,262,862zM213,418C213,426,207,433,199,433C191,433,184,426,184,418C184,410,191,403,199,403C207,403,213,410,213,418zM574,49C574,57,568,63,560,63C552,63,545,57,545,49C545,41,552,34,560,34C568,34,574,41,574,49zM462,13C462,21,455,27,447,27C439,27,433,21,433,13C433,5,439-2,447-2C455-2,462,5,462,13zM316,944C316,952,309,958,301,958C293,958,287,952,287,944C287,936,293,929,301,929C309,929,316,936,316,944zM379,908C379,916,372,923,364,923C356,923,350,916,350,908C350,900,356,893,364,893C372,893,379,900,379,908zM647,34C647,42,640,49,632,49C624,49,617,42,617,34C617,26,624,19,632,19C640,19,647,26,647,34zM527,850C527,858,520,865,512,865C504,865,498,858,498,850C498,842,504,836,512,836C520,836,527,842,527,850zM522,469C522,477,516,484,508,484C500,484,493,477,493,469C493,461,500,455,508,455C516,455,522,461,522,469zM544,862C544,870,537,877,529,877C521,877,514,870,514,862C514,854,521,847,529,847C537,847,544,854,544,862zM307,365C307,373,301,380,293,380C285,380,278,373,278,365C278,357,285,350,293,350C301,350,307,357,307,365zM168,941C168,949,161,956,153,956C145,956,138,949,138,941C138,933,145,926,153,926C161,926,168,933,168,941zM504,94C504,102,497,108,489,108C481,108,475,102,475,94C475,86,481,79,489,79C497,79,504,86,504,94zM751,891C751,899,744,906,736,906C728,906,722,899,722,891C722,883,728,876,736,876C744,876,751,883,751,891zM647,508C647,516,640,523,632,523C624,523,617,516,617,508C617,500,624,494,632,494C640,494,647,500,647,508zM577,170C577,178,571,185,563,185C555,185,548,178,548,170C548,162,555,156,563,156C571,156,577,162,577,170zM834,177C834,185,827,191,819,191C811,191,805,185,805,177C805,169,811,162,819,162C827,162,834,169,834,177zM425,379C425,387,418,393,410,393C402,393,395,387,395,379C395,371,402,364,410,364C418,364,425,371,425,379zM416,601C416,609,410,616,402,616C394,616,387,609,387,601C387,593,394,586,402,586C410,586,416,593,416,601zM371,143C371,151,365,157,357,157C349,157,342,151,342,143C342,135,349,128,357,128C365,128,371,135,371,143zM245,389C245,397,239,404,231,404C223,404,216,397,216,389C216,381,223,374,231,374C239,374,245,381,245,389zM629,839C629,847,622,854,614,854C606,854,600,847,600,839C600,831,606,824,614,824C622,824,629,831,629,839zM792,94C792,102,785,109,777,109C769,109,763,102,763,94C763,86,769,80,777,80C785,80,792,86,792,94zM228,868C228,876,222,883,214,883C206,883,199,876,199,868C199,860,206,854,214,854C222,854,228,860,228,868zM803,737C803,746,797,752,789,752C781,752,774,746,774,737C774,729,781,723,789,723C797,723,803,729,803,737zM164,829C164,837,158,844,150,844C142,844,135,837,135,829C135,821,142,814,150,814C158,814,164,821,164,829zM394,533C394,541,387,548,379,548C371,548,364,541,364,533C364,525,371,519,379,519C387,519,394,525,394,533zM832,683C832,691,826,697,818,697C809,697,803,691,803,683C803,675,809,668,818,668C826,668,832,675,832,683zM235,459C235,468,228,474,220,474C212,474,205,468,205,459C205,451,212,445,220,445C228,445,235,451,235,459zM165,317C165,325,159,331,151,331C143,331,136,325,136,317C136,309,143,302,151,302C159,302,165,308,165,317zM590,117C590,125,584,132,576,132C568,132,561,125,561,117C561,109,568,103,576,103C584,103,590,109,590,117zM195,312C195,321,188,327,180,327C172,327,165,321,165,312C165,304,172,298,180,298C188,298,195,304,195,312zM500,595C500,603,494,610,486,610C477,610,471,603,471,595C471,587,477,580,486,580C494,580,500,587,500,595zM276,446C276,454,270,461,262,461C254,461,247,454,247,446C247,438,253,432,262,432C270,432,276,438,276,446zM648,671C648,679,642,686,634,686C626,686,619,679,619,671C619,663,626,656,634,656C642,656,648,663,648,671zM267,193C267,201,261,208,252,208C244,208,238,201,238,193C238,185,244,179,252,179C261,179,267,185,267,193zM150,933C150,941,143,947,135,947C127,947,121,941,121,933C121,925,127,918,135,918C143,918,150,925,150,933zM826,812C826,820,820,826,812,826C804,826,797,820,797,812C797,804,804,797,812,797C820,797,826,804,826,812zM392,916C392,924,386,930,378,930C370,930,363,924,363,916C363,908,370,901,378,901C386,901,392,908,392,916zM738,739C738,747,731,754,723,754C715,754,709,747,709,739C709,731,715,725,723,725C731,725,738,731,738,739zM198,381C198,389,192,396,184,396C176,396,169,389,169,381C169,373,176,367,184,367C192,367,198,373,198,381zM838,751C838,759,831,766,823,766C815,766,808,759,808,751C808,743,815,736,823,736C831,736,838,743,838,751zM650,502C650,510,644,516,636,516C628,516,621,510,621,502C621,494,628,487,636,487C644,487,650,494,650,502zM252,266C252,274,245,280,237,280C229,280,223,274,223,266C223,258,229,251,237,251C245,251,252,258,252,266zM397,973C397,981,391,988,383,988C374,988,368,981,368,973C368,965,374,959,383,959C391,959,397,965,397,973zM652,882C652,890,646,897,638,897C630,897,623,890,623,882C623,874,630,867,638,867C646,867,652,874,652,882zM207,777C207,785,201,792,192,792C184,792,178,785,178,777C178,769,184,762,192,762C201,762,207,769,207,777zM191,811C191,819,185,826,177,826C169,826,162,819,162,811C162,803,169,796,177,796C185,796,191,803,191,811zM140,315C140,323,134,330,125,330C117,330,111,323,111,315C111,307,117,300,125,300C134,300,140,307,140,315zM395,398C395,406,388,413,380,413C372,413,366,406,366,398C366,390,372,384,380,384C388,384,395,390,395,398zM832,60C832,69,825,75,817,75C809,75,803,69,803,60C803,52,809,46,817,46C825,46,832,52,832,60zM279,788C279,796,272,802,264,802C256,802,249,796,249,788C249,780,256,773,264,773C272,773,279,780,279,788zM242,87C242,95,236,101,228,101C219,101,213,95,213,87C213,79,219,72,228,72C236,72,242,79,242,87zM654,895C654,903,648,910,640,910C631,910,625,903,625,895C625,887,631,880,640,880C648,880,654,887,654,895zM851,847C851,855,844,862,836,862C828,862,822,855,822,847C822,839,828,832,836,832C844,832,851,839,851,847zM903,628C903,636,897,643,888,643C880,643,874,636,874,628C874,620,880,614,888,614C897,614,903,620,903,628zM283,364C283,372,276,379,268,379C260,379,253,372,253,364C253,356,260,349,268,349C276,349,283,356,283,364zM777,636C777,644,771,650,763,650C754,650,748,644,748,636C748,627,754,621,763,621C771,621,777,627,777,636zM233,90C233,98,226,105,218,105C210,105,204,98,204,90C204,82,210,76,218,76C226,76,233,82,233,90zM622,917C622,925,616,932,607,932C599,932,593,925,593,917C593,909,599,903,607,903C616,903,622,909,622,917zM190,931C190,939,183,945,175,945C167,945,160,939,160,931C160,923,167,916,175,916C183,916,190,923,190,931zM465,124C465,132,459,139,451,139C442,139,436,132,436,124C436,116,442,110,451,110C459,110,465,116,465,124zM134,760C134,768,127,774,119,774C111,774,105,768,105,760C105,752,111,745,119,745C127,745,134,752,134,760zM703,678C703,686,696,692,688,692C680,692,674,686,674,678C674,670,680,663,688,663C696,663,703,669,703,678zM380,103C380,111,374,118,366,118C358,118,351,111,351,103C351,95,358,88,366,88C374,88,380,95,380,103zM633,968C633,976,626,982,618,982C610,982,604,976,604,968C604,959,610,953,618,953C626,953,633,959,633,968zM497,95C497,103,491,110,483,110C475,110,468,103,468,95C468,87,475,81,483,81C491,81,497,87,497,95zM835,677C835,685,828,692,820,692C812,692,806,685,806,677C806,669,812,663,820,663C828,663,835,669,835,677zM573,943C573,951,566,958,558,958C550,958,544,951,544,943C544,935,550,929,558,929C566,929,573,935,573,943zM556,518C556,526,549,532,541,532C533,532,527,526,527,518C527,510,533,503,541,503C549,503,556,510,556,518zM208,500C208,508,201,515,193,515C185,515,179,508,179,500C179,492,185,486,193,486C201,486,208,492,208,500zM851,509C851,517,844,523,836,523C828,523,822,517,822,509C822,501,828,494,836,494C844,494,851,501,851,509zM670,443C670,451,663,457,655,457C647,457,640,451,640,443C640,435,647,428,655,428C663,428,670,435,670,443zM162,912C162,921,155,927,147,927C139,927,133,921,133,912C133,904,139,898,147,898C155,898,162,904,162,912zM475,402C475,410,468,416,460,416C452,416,446,410,446,402C446,393,452,387,460,387C468,387,475,393,475,402zM762,186C762,194,755,201,747,201C739,201,732,194,732,186C732,178,739,171,747,171C755,171,762,178,762,186zM804,488C804,496,797,503,789,503C781,503,774,496,774,488C774,480,781,473,789,473C797,473,804,480,804,488zM761,591C761,599,754,606,746,606C738,606,732,599,732,591C732,583,738,577,746,577C754,577,761,583,761,591zM665,431C665,439,658,446,650,446C642,446,636,439,636,431C636,423,642,416,650,416C658,416,665,423,665,431zM309,427C309,435,302,442,294,442C286,442,279,435,279,427C279,419,286,412,294,412C302,412,309,419,309,427zM423,410C423,418,417,425,409,425C401,425,394,418,394,410C394,402,401,396,409,396C417,396,423,402,423,410zM546,977C546,985,539,992,531,992C523,992,516,985,516,977C516,969,523,963,531,963C539,963,546,969,546,977zM778,495C778,503,771,510,763,510C755,510,749,503,749,495C749,487,755,480,763,480C771,480,778,487,778,495zM862,280C862,288,856,294,848,294C839,294,833,288,833,280C833,272,839,265,848,265C856,265,862,272,862,280zM671,480C671,488,665,494,657,494C649,494,642,488,642,480C642,471,649,465,657,465C665,465,671,471,671,480zM234,802C234,810,227,817,219,817C211,817,204,810,204,802C204,794,211,788,219,788C227,788,234,794,234,802zM701,566C701,574,694,581,686,581C678,581,671,574,671,566C671,558,678,552,686,552C694,552,701,558,701,566zM595,859C595,867,588,874,580,874C572,874,566,867,566,859C566,851,572,844,580,844C588,844,595,851,595,859zM674,69C674,77,668,83,660,83C652,83,645,77,645,69C645,61,652,54,660,54C668,54,674,61,674,69zM314,906C314,914,308,921,300,921C292,921,285,914,285,906C285,898,292,891,300,891C308,891,314,898,314,906zM429,404C429,412,423,419,415,419C407,419,400,412,400,404C400,396,407,389,415,389C423,389,429,396,429,404zM450,80C450,88,443,95,435,95C427,95,420,88,420,80C420,72,427,66,435,66C443,66,450,72,450,80zM365,229C365,237,358,244,350,244C342,244,336,237,336,229C336,221,342,215,350,215C358,215,365,221,365,229zM706,900C706,909,700,915,692,915C683,915,677,909,677,900C677,892,683,886,692,886C700,886,706,892,706,900zM870,536C870,544,864,550,856,550C848,550,841,544,841,536C841,527,848,521,856,521C864,521,870,527,870,536zM904,724C904,732,897,738,889,738C881,738,874,732,874,724C874,716,881,709,889,709C897,709,904,716,904,724zM339,94C339,102,333,109,325,109C316,109,310,102,310,94C310,86,316,80,325,80C333,80,339,86,339,94zM656,961C656,969,650,976,642,976C633,976,627,969,627,961C627,953,633,947,642,947C650,947,656,953,656,961zM152,934C152,942,146,949,137,949C129,949,123,942,123,934C123,926,129,919,137,919C146,919,152,926,152,934zM853,241C853,249,847,256,839,256C831,256,824,249,824,241C824,233,831,227,839,227C847,227,853,233,853,241zM224,126C224,134,217,141,209,141C201,141,195,134,195,126C195,118,201,112,209,112C217,112,224,118,224,126zM720,92C720,100,714,106,706,106C698,106,691,100,691,92C691,83,698,77,706,77C714,77,720,83,720,92zM835,551C835,559,829,565,821,565C813,565,806,559,806,551C806,543,813,536,821,536C829,536,835,543,835,551zM420,449C420,457,413,464,405,464C397,464,390,457,390,449C390,441,397,435,405,435C413,435,420,441,420,449zM550,550C550,558,543,565,535,565C527,565,521,558,521,550C521,542,527,535,535,535C543,535,550,542,550,550zM382,449C382,457,375,464,367,464C359,464,353,457,353,449C353,441,359,435,367,435C375,435,382,441,382,449zM520,175C520,183,514,190,506,190C498,190,491,183,491,175C491,167,498,161,506,161C514,161,520,167,520,175zM362,585C362,593,355,599,347,599C339,599,332,593,332,585C332,577,339,570,347,570C355,570,362,577,362,585zM612,964C612,972,605,979,597,979C589,979,582,972,582,964C582,956,589,950,597,950C605,950,612,956,612,964zM767,227C767,235,761,242,753,242C745,242,738,235,738,227C738,219,745,212,753,212C761,212,767,219,767,227zM107,805C107,813,100,819,92,819C84,819,78,813,78,805C78,796,84,790,92,790C100,790,107,796,107,805zM782,770C782,778,775,784,767,784C759,784,753,778,753,770C753,762,759,755,767,755C775,755,782,762,782,770zM225,271C225,279,219,286,211,286C202,286,196,279,196,271C196,263,202,257,211,257C219,257,225,263,225,271zM240,299C240,307,234,313,226,313C218,313,211,307,211,299C211,291,218,284,226,284C234,284,240,291,240,299zM373,129C373,137,366,144,358,144C350,144,343,137,343,129C343,121,350,115,358,115C366,115,373,121,373,129zM706,771C706,779,700,786,692,786C683,786,677,779,677,771C677,763,683,756,692,756C700,756,706,763,706,771zM548,842C548,850,541,857,533,857C525,857,519,850,519,842C519,834,525,828,533,828C541,828,548,834,548,842zM748,901C748,909,741,915,733,915C725,915,719,909,719,901C719,893,725,886,733,886C741,886,748,893,748,901zM647,791C647,799,640,806,632,806C624,806,617,799,617,791C617,783,624,777,632,777C640,777,647,783,647,791zM810,845C810,853,804,860,796,860C788,860,781,853,781,845C781,837,788,831,796,831C804,831,810,837,810,845zM259,342C259,350,252,357,244,357C236,357,230,350,230,342C230,334,236,328,244,328C252,328,259,334,259,342zM760,587C760,596,753,602,745,602C737,602,730,596,730,587C730,579,737,573,745,573C753,573,760,579,760,587zM328,946C328,954,321,961,313,961C305,961,298,954,298,946C298,938,305,932,313,932C321,932,328,938,328,946zM483,890C483,898,477,904,469,904C461,904,454,898,454,890C454,882,461,875,469,875C477,875,483,882,483,890zM716,901C716,909,709,915,701,915C693,915,687,909,687,901C687,893,693,886,701,886C709,886,716,893,716,901zM117,814C117,823,110,829,102,829C94,829,87,823,87,814C87,806,94,800,102,800C110,800,117,806,117,814zM316,325C316,333,310,340,302,340C294,340,287,333,287,325C287,317,294,310,302,310C310,310,316,317,316,325zM354,128C354,137,347,143,339,143C331,143,324,137,324,128C324,120,331,114,339,114C347,114,354,120,354,128zM333,505C333,513,327,520,319,520C310,520,304,513,304,505C304,497,310,490,319,490C327,490,333,497,333,505zM213,255C213,264,207,270,199,270C190,270,184,264,184,255C184,247,190,241,199,241C207,241,213,247,213,255zM501,585C501,593,495,599,487,599C479,599,472,593,472,585C472,577,479,570,487,570C495,570,501,577,501,585zM847,91C847,99,840,106,832,106C824,106,817,99,817,91C817,83,824,76,832,76C840,76,847,83,847,91zM268,805C268,813,262,819,254,819C246,819,239,813,239,805C239,797,246,790,254,790C262,790,268,797,268,805zM395,963C395,971,388,978,380,978C372,978,366,971,366,963C366,955,372,948,380,948C388,948,395,955,395,963zM468,145C468,153,461,159,453,159C445,159,439,153,439,145C439,136,445,130,453,130C461,130,468,136,468,145zM433,529C433,537,426,544,418,544C410,544,404,537,404,529C404,521,410,515,418,515C426,515,433,521,433,529zM681,833C681,841,675,848,667,848C659,848,652,841,652,833C652,825,659,819,667,819C675,819,681,825,681,833zM284,196C284,204,277,210,269,210C261,210,255,204,255,196C255,188,261,181,269,181C277,181,284,188,284,196zM308,186C308,195,301,201,293,201C285,201,279,195,279,186C279,178,285,172,293,172C301,172,308,178,308,186zM452,587C452,595,445,601,437,601C429,601,422,595,422,587C422,578,429,572,437,572C445,572,452,578,452,587zM344,320C344,328,337,334,329,334C321,334,314,328,314,320C314,312,321,305,329,305C337,305,344,312,344,320zM337,254C337,262,331,269,323,269C314,269,308,262,308,254C308,246,314,239,323,239C331,239,337,246,337,254zM174,146C174,154,167,161,159,161C151,161,144,154,144,146C144,138,151,131,159,131C167,131,174,138,174,146zM587,917C587,925,580,932,572,932C564,932,558,925,558,917C558,909,564,903,572,903C580,903,587,909,587,917zM263,953C263,961,256,967,248,967C240,967,234,961,234,953C234,945,240,938,248,938C256,938,263,945,263,953zM726,142C726,150,719,157,711,157C703,157,697,150,697,142C697,134,703,128,711,128C719,128,726,134,726,142zM598,644C598,653,591,659,583,659C575,659,568,653,568,644C568,636,575,630,583,630C591,630,598,636,598,644zM529,610C529,618,522,625,514,625C506,625,499,618,499,610C499,602,506,595,514,595C522,595,529,602,529,610zM562,957C562,965,556,971,548,971C540,971,533,965,533,957C533,949,540,942,548,942C556,942,562,949,562,957zM803,190C803,198,796,204,788,204C780,204,774,198,774,190C774,181,780,175,788,175C796,175,803,181,803,190zM232,209C232,217,226,224,218,224C210,224,203,217,203,209C203,201,210,194,218,194C226,194,232,201,232,209zM222,392C222,400,215,406,207,406C199,406,193,400,193,392C193,384,199,377,207,377C215,377,222,384,222,392zM151,177C151,185,144,192,136,192C128,192,121,185,121,177C121,169,128,163,136,163C144,163,151,169,151,177zM439,56C439,64,432,71,424,71C416,71,410,64,410,56C410,48,416,42,424,42C432,42,439,48,439,56zM580,948C580,956,573,962,565,962C557,962,550,956,550,948C550,940,557,933,565,933C573,933,580,940,580,948zM547,448C547,456,541,463,533,463C524,463,518,456,518,448C518,440,524,434,533,434C541,434,547,440,547,448zM394,362C394,370,387,377,379,377C371,377,364,370,364,362C364,354,371,347,379,347C387,347,394,354,394,362zM471,512C471,520,465,527,457,527C449,527,442,520,442,512C442,504,449,497,457,497C465,497,471,504,471,512zM854,818C854,826,847,833,839,833C831,833,825,826,825,818C825,810,831,803,839,803C847,803,854,810,854,818zM646,880C646,888,639,895,631,895C623,895,617,888,617,880C617,872,623,866,631,866C639,866,646,872,646,880zM308,858C308,866,301,873,293,873C285,873,279,866,279,858C279,850,285,844,293,844C301,844,308,850,308,858zM785,782C785,790,779,797,771,797C763,797,756,790,756,782C756,774,763,767,771,767C779,767,785,774,785,782zM263,833C263,841,257,847,249,847C241,847,234,841,234,833C234,825,241,818,249,818C257,818,263,825,263,833zM198,204C198,212,191,219,183,219C175,219,168,212,168,204C168,196,175,190,183,190C191,190,198,196,198,204zM121,366C121,374,114,381,106,381C98,381,92,374,92,366C92,358,98,352,106,352C114,352,121,358,121,366zM475,39C475,47,469,53,461,53C452,53,446,47,446,39C446,31,452,24,461,24C469,24,475,31,475,39zM764,671C764,679,758,686,750,686C741,686,735,679,735,671C735,663,741,657,750,657C758,657,764,663,764,671zM517,858C517,866,511,872,502,872C494,872,488,866,488,858C488,849,494,843,502,843C511,843,517,849,517,858zM165,249C165,257,158,264,150,264C142,264,136,257,136,249C136,241,142,235,150,235C158,235,165,241,165,249zM427,57C427,65,421,71,413,71C405,71,398,65,398,57C398,49,405,42,413,42C421,42,427,49,427,57zM640,424C640,432,633,439,625,439C617,439,610,432,610,424C610,416,617,409,625,409C633,409,640,416,640,424zM896,667C896,675,890,682,882,682C874,682,867,675,867,667C867,659,874,652,882,652C890,652,896,659,896,667zM140,288C140,296,134,303,126,303C118,303,111,296,111,288C111,280,118,273,126,273C134,273,140,280,140,288z"/></svg>