<svg width="1000" height="1000" viewBox="0 0 1000 1000" xmlns="http://www.w3.org/2000/svg"><path d="M293,275C259,275,231,247,231,213C231,179,259,151,293,151C327,151,355,179,355,213C355,247,327,275,293,275zM293,180C275,180,260,195,260,213C260,231,275,246,293,246C311,246,326,231,326,213C326,195,311,180,293,180zM98,342C64,342,37,315,37,281C37,247,64,219,98,219C132,219,160,247,160,281C160,315,132,342,98,342zM98,248C80,248,66,262,66,281C66,299,80,313,98,313C116,313,131,299,131,281C131,262,116,248,98,248zM426,846V867H185C179,847,162,832,142,826V575L166,574L127,511L86,575H107V827C82,835,64,858,64,886C64,920,92,948,126,948C155,948,179,928,186,902H426L427,926L490,886L426,846zM126,919C108,919,93,904,93,886C93,868,108,853,126,853C144,853,159,868,159,886C159,904,144,919,126,919zM426,725V747H358C352,727,335,711,315,706V575L339,574L300,511L259,575H280V707C255,715,237,738,237,765C237,799,265,827,299,827C328,827,352,808,359,781H426L427,806L490,766L426,725zM299,798C281,798,266,783,266,765C266,747,281,733,299,733C317,733,332,747,332,765C332,783,317,798,299,798zM952,491H890C889,443,878,396,860,352C840,306,812,264,776,228C740,192,699,164,652,144C607,125,559,115,509,114V73C509,71,505,69,500,69C495,69,491,71,491,73V439C488,439,484,440,481,441L379,306L397,291L327,265L333,340L351,327L452,461C451,462,450,464,449,466L212,332L222,310L148,314L183,381L194,362L423,491H46C44,491,42,495,42,500C42,505,44,509,46,509H439C443,536,464,557,491,561V930C491,932,495,934,500,934C505,934,509,932,509,930V561C521,559,531,555,540,547L745,730C738,740,734,752,734,765C734,799,762,827,796,827C830,827,858,799,858,765C858,739,841,717,818,708L880,664L861,657L860,656C880,610,890,560,890,509H952C954,509,956,505,956,500C956,495,954,491,952,491zM500,533C482,533,467,518,467,500C467,482,482,467,500,467C518,467,533,482,533,500C533,518,518,533,500,533zM509,439V312C532,313,555,318,576,327L563,346L637,353L611,282L599,298L598,299C570,286,540,278,509,277V149C601,151,686,188,751,253C815,317,852,401,855,491H561C561,487,560,484,559,481L639,431C650,444,667,453,686,453C721,453,748,425,748,391C748,357,721,330,687,330C652,330,625,357,625,391C625,400,626,408,629,415L551,465C541,451,526,441,509,439zM654,391C654,373,668,359,687,359C705,359,719,373,719,391C719,410,705,424,687,424C668,424,654,410,654,391zM829,765C829,783,814,798,796,798C778,798,763,783,763,765C763,747,778,733,796,733C814,733,829,747,829,765zM828,642L806,634L818,708C811,705,803,704,796,704C781,704,768,709,758,717L552,534C556,527,560,518,561,509H855C855,555,846,600,828,642z"/></svg>