<svg width="1000" height="1000" viewBox="0 0 1000 1000" xmlns="http://www.w3.org/2000/svg"><path d="M414,474C414,481,414,487,413,492C412,497,411,501,410,504C408,507,406,509,404,510C402,511,400,512,398,512H279V641C279,644,279,646,277,648C276,650,274,652,271,653C268,654,264,655,259,656C253,657,247,657,239,657C232,657,226,657,220,656C215,655,211,654,208,653C205,652,203,650,202,648C200,646,199,644,199,641V512H81C79,512,77,511,75,510C73,509,71,507,70,504C68,501,67,497,66,492C65,487,65,481,65,474C65,467,65,462,66,457C67,452,68,448,69,445C71,442,72,440,74,438C76,437,78,437,80,437H199V308C199,305,200,303,202,301C203,298,205,297,208,295C211,294,215,293,220,292C226,291,232,291,239,291C247,291,253,291,259,292C264,293,268,294,271,295C274,297,276,298,277,301C279,303,279,305,279,308V437H399C401,437,403,437,405,438C407,440,408,442,410,445C411,448,412,452,413,457C414,462,414,467,414,474zM468,838C467,841,465,844,463,846C461,848,458,850,454,851C451,852,446,853,441,854C435,854,428,855,420,855C409,855,401,854,394,853C388,852,383,851,379,849C376,846,374,844,373,841C373,838,373,834,375,829L603,189C604,186,605,183,607,181C609,179,612,177,616,176C619,175,624,174,630,173C635,172,642,172,651,172C661,172,670,173,676,174C683,175,688,176,691,178C694,180,696,183,697,186C697,189,697,193,696,197L468,838zM891,474C891,488,890,499,887,505C884,510,880,513,873,513H715C708,513,704,510,701,504C698,498,697,488,697,474C697,460,698,449,701,444C704,438,708,435,715,435H873C876,435,879,435,881,437C883,438,885,440,887,443C888,446,889,450,890,455C891,461,891,467,891,474z"/></svg>