<?xml version="1.0" encoding="utf-8"?>
<!-- Generator: Adobe Illustrator 20.1.0, SVG Export Plug-In . SVG Version: 6.00 Build 0)  -->
<svg version="1.1" id="Layer_1" xmlns="http://www.w3.org/2000/svg" xmlns:xlink="http://www.w3.org/1999/xlink" x="0px" y="0px"
	 viewBox="0 0 1000 1000" enable-background="new 0 0 1000 1000" xml:space="preserve">
<g>
	<path fill="#231F20" d="M384.3257446,285.2755127c11.3387451-10.5535278,18.9468384-17.6347656,26.5549316-24.7160034
		c-8.507019-5.184021-17.1442261-14.515686-25.4801636-14.2539062c-6.8000488,0.213562-14.6596069,11.1279297-18.9053345,18.9945068
		C365.3413086,267.4379272,375.5691528,275.71875,384.3257446,285.2755127z"/>
	<path fill="#231F20" d="M327.9161987,250.7294312c-1.536377,14.4060669-2.7966309,26.2224731-4.0568237,38.0388794
		c2.6544189,0.3063965,5.3088989,0.6127319,7.9633179,0.9191284
		C352.0115967,274.8319092,352.2636108,266.0767822,327.9161987,250.7294312z"/>
	<path fill="#231F20" d="M414.2809448,390.7037354c1.9450073-4.5617676,1.8240967-10.0043335,2.6593628-15.0392456
		c-5.8514404-0.6733398-12.8442993-3.7097778-17.3250122-1.5454712
		c-10.4620361,5.0534058-18.9378662,14.7675171-29.6477051,18.6275024
		c-15.2043457,5.4799805-19.4974365,16.6846924-21.1719971,30.0517578
		c-1.126709,8.9936523-0.2145996,18.2426758-0.2145996,31.7407837c-3.6112061,20.2557373,0.569397,42.2044678,23.9894409,55.4607544
		c5.8323975,3.3012695,17.0894775,5.3928833,20.6878662,2.2067871c4.8033447-4.2530518,7.8931274-15.2352295,5.9390869-21.5344849
		C387.9888916,454.5393066,400.6220703,422.7382202,414.2809448,390.7037354z"/>
	<path fill="#231F20" d="M107.9960327,560.7584229c-3.0593872,1.3427734-5.4905396,13.710083-3.4637451,15.4439087
		c10.7102051,9.1611938,22.8283081,10.6027222,35.5665894,0.2442627
		C132.1873169,563.4011841,123.2417603,554.0670776,107.9960327,560.7584229z"/>
	<path fill="#231F20" d="M244.9451294,288.3768311c-19.1749268,9.7570801-39.1019897,20.2666626-54.0664673,35.1208496
		c-7.4188232,7.3641357-9.2007446,27.0984497-4.9104614,37.7696533c4.713623,11.7242432,20.0045776,8.8626099,31.2693481,2.4992676
		c9.6851196-5.4710693,18.9896851-11.7781982,29.0925293-16.3116455
		c17.6359863-7.9137573,23.5048828-22.3601685,24.5855713-35.2700195
		C271.4356079,288.6144409,261.2401733,280.0852051,244.9451294,288.3768311z"/>
	<path fill="#231F20" d="M351.6072998,344.7000122c19.3647461-6.6307983,34.973938-11.9755859,54.9888306-18.8289795
		C375.1793213,307.961792,366.4857788,311.1350098,351.6072998,344.7000122z"/>
	<path fill="#231F20" d="M644.2967529,286.8938599c1.0515747-0.6099854,2.1072998-1.204834,3.1700439-1.774292l-0.000061-0.000061
		h0.000061c-2.7639771-2.3775635-5.3997192-5.2356567-8.0608521-7.9985962
		c-4.4351807-4.6049194-8.9408569-8.9456787-14.2285156-10.3572388
		c-22.0684814-5.8912354-44.9679565-10.8881836-67.6304321-11.3233032
		c-10.0896606-0.1937866-20.8383789,10.897522-30.1535034,18.2952271
		c-1.3944092,1.1074219,2.3498535,13.8294067,5.5888062,14.7764282
		c18.3977051,5.3793335,37.3644409,8.8129883,58.0116577,13.3174438c8.8320923-0.868042,20.2850342-0.5569458,30.8493042-3.4693604
		c5.6679688-1.562561,10.9390259-4.5645142,16.1710205-7.7084351c1.0463867-0.6287842,2.0911865-1.2632446,3.1373291-1.8930054
		C642.1976929,288.1289062,643.2451782,287.5038452,644.2967529,286.8938599z"/>
	<path fill="#231F20" d="M707.053772,302.1650391c0.0393066-3.8228149-7.0654297-9.2888794-12.0674438-11.3093262
		c-17.3495483-7.0079346-46.1028442,12.507019-54.5180054,40.9984741
		c21.1494141-4.5960693,39.7738037-7.6539307,57.6209106-13.2091064
		C702.6193848,317.2349854,706.9946899,307.9024048,707.053772,302.1650391z"/>
	<path fill="#231F20" d="M575.1578369,527.4293213c-4.0614014,7.1991577-7.1318359,13.2163696-10.7259521,18.9024658
		c-9.9968262,15.8152466-33.7888794,19.4177246-47.3405762,9.1500854
		c-10.4403076-7.9102783-22.5396118-13.9407959-34.5429077-19.3951416
		c-13.164856-5.9822998-26.9996338-10.5338135-40.677124-15.3242798c-5.8079224-2.0341797-11.9874268-4.3355713-17.944519-4.197998
		c-4.8119507,0.111084-11.7800903,2.5078735-13.6816406,6.0792236c-1.9000854,3.5684204-0.4718018,12.0320435,2.6048584,14.5443115
		c9.3792725,7.6588745,6.8966675,14.2652588,3.3659668,23.8699951c-2.0641479,5.6151733,3.0328369,13.862793,4.9082031,20.9261475
		c6.5564575-3.107666,16.4091187-4.5213013,19.0425415-9.6452026c7.4727783-14.5401611,13.0081177-10.5952148,24.1568604-3.5432739
		c14.6762085,9.2833252,32.7053223,21.3078003,47.9896851,19.7075195
		c23.0671387-2.4152222,49.3756104-3.1207886,66.7814941-26.6203003
		C588.8462524,548.7174683,594.1582642,540.1615601,575.1578369,527.4293213z"/>
	<path fill="#231F20" d="M0,0v1000h1000V0H0z M355.9412231,660.0122681
		c-24.0133057,16.2075806-48.4993286,31.4805298-58.7391357,61.2056885
		c-1.9967041,5.7962036-8.6569824,9.9859619-16.0375366,18.0564575
		c-2.3639526-23.2644653,8.2263794-35.9877319,19.2201538-48.1326904
		c8.7369385-9.6516724,14.7664795-18.7751465,3.3447266-30.8913574
		c-9.8687134,4.1574707-17.4494629,7.3510132-24.7496948,10.4264526c-1.6452026-2.1494141-3.0371704-3.125-3.1317139-4.2132568
		c-3.3152466-38.1697388-1.4456177-40.0002441,32.7020874-22.5587158c14.1263428,7.215271,26.2263794,4.6179199,39.8126831,1.178833
		c4.8427734-1.2258301,10.7424927,1.7238159,16.15979,2.7675171
		C361.7103882,651.9763794,359.7861938,657.4172363,355.9412231,660.0122681z M506.8754883,753.0928345
		c-32.1820068,7.6608887-42.2418823,1.899353-54.0128174-28.6624756
		c-2.2846069-5.9318237-6.1079102-11.2709351-11.8265381-21.5793457
		c-3.4820557,21.9264526-6.0253906,37.9418335-8.5687866,53.9572144c-3.5405884-0.006958-7.0811768-0.013855-10.6217651-0.020813
		c-1.4163818-8.4631348-3.1262817-16.8925171-4.102417-25.4061279c-0.3822021-3.3334351,2.406311-7.6170654,1.135437-10.1618652
		c-5.9289551-11.8726807-12.7719116-23.2887573-19.2880859-34.8681641
		c-7.1577148,10.196228-14.4880981,20.2772827-21.4013672,30.6366577c-3.5133667,5.2646484-6.276001,11.0302734-9.3780518,16.569397
		c-3.1303711-1.197876-6.2606812-2.395752-9.3909912-3.5935669c3.013916-10.5717163,7.0895386-20.9707031,8.8432617-31.7475586
		c5.312561-32.6456299,19.4130249-46.718811,56.703064-45.0703125
		c30.6587524,1.3552246,57.3551025,13.0802612,86.2922974,17.6103516c4.1169434,0.6445312,9.750061,7.1677856,10.1586304,11.40625
		c0.3815308,3.9570312-4.4043579,9.6628418-8.3938599,12.5718994c-16.3757935,11.9414062-16.7808838,24.3737183-0.8557739,37.651001
		c3.8243408,3.1884766,6.5733032,7.666748,9.8168335,11.5518799
		C516.9688721,747.0757446,512.3292847,751.7946777,506.8754883,753.0928345z M584.3149414,742.3253784
		c-7.5991821-2.9498901-17.5227661-8.5196533-19.6554565-15.2355347c-5.1948853-16.3594971-6.9110107-33.9018555-9.05896-51.0890503
		c-0.4684448-3.7484741,2.1275635-9.3890381,5.166626-11.548584c2.1085205-1.49823,9.9743652,0.4297485,10.8591309,2.6133423
		c8.3056641,20.4980469,15.6600952,41.3814087,24.6359863,65.8197021
		C593.3766479,735.2960815,587.0667114,743.3936768,584.3149414,742.3253784z M577.8967285,660.6167603
		c15.8460083-22.9171143,35.3763428-14.8656006,68.2984619,31.2994385
		C623.9359741,681.7153931,601.6767578,671.5145264,577.8967285,660.6167603z M691.0792236,727.921814
		c-19.7922974-10.4086304-14.3117676-26.6142578-10.9251099-42.9296265
		C698.4367676,691.5018311,703.6377563,712.7850342,691.0792236,727.921814z M685.4924316,559.1165771
		c14.1080322-27.6610718,55.8986816-53.6522217,79.43927-50.7853394
		C752.7536621,529.1296997,706.5773315,559.2758179,685.4924316,559.1165771z M956.685791,553.984375
		c-26.7981567-6.6113892-56.0344849,0.3798218-79.5310669-25.2623901
		c-14.7999268-16.1515503-41.7260742-20.9514771-62.7838135-31.6847534
		c-17.0452271-8.6880493-33.4879761-18.5661011-50.1227417-28.0483398
		c-7.4243774-4.2320557-14.6640625-8.7879028-26.5750122-15.9585571
		c4.0125122,16.7650757,6.6323853,27.7109985,9.2521362,38.6569824c-3.1509399,1.3557129-6.3019409,2.7114258-9.4529419,4.0670776
		c-4.2426147-8.5679932-8.3337402-17.21521-12.7635498-25.6853638
		c-6.539978-12.5046997-11.0198364-27.1968384-20.5928955-36.7191162
		c-11.4765015-11.4155884-23.1013794-4.6985474-24.7269287,12.1608887
		c-1.5410156,15.9829712,0.3834229,33.0390625-4.5730591,47.8278809
		c-23.4142456,69.8624878-64.6082764,119.1948242-144.0075073,129.9386597
		c-39.4326172,5.3358765-78.5006104,9.4152832-115.2304688-3.7034302
		C352.1711426,596.927002,312.5978394,550.7044067,296.069519,484.21698
		c-9.3002319-37.411438,5.4110107-69.8190918,14.7260742-103.7434692
		c3.2071533-11.6802368,6.1605835-23.4301758,9.2268677-35.1364136c-19.8999634-6.8251953-28.6898193,0.43396-30.4542236,15.4203491
		c-1.9100342,16.2227783-12.9432373,20.9202271-24.7503662,29.4596558
		c-21.4641113,15.5237427-40.4940796,35.6847534-56.7114868,56.8447266
		c-17.300354,22.572876-29.9830322,48.6572266-45.0269165,72.9951172
		c-14.2212524,23.0070801-5.6830444,49.9955444,18.6745605,60.1217651
		c10.1781616,4.2313843,20.2922363,9.4672852,28.9448853,16.1705322c4.5392456,3.5166016,5.8584595,11.1896362,8.6317749,16.9856567
		c-7.914917,2.1442871-21.2850342,8.0673218-22.8475342,5.8115234c-9.2189941-13.3092041-19.6075439-9.3114624-31.7460938-7.0892944
		c-8.4121704,1.539978-17.6786499-1.4060669-26.5396729-2.5341797c-22.1092529-2.8148193-44.3051758-5.1323853-66.2786255-8.7802124
		c-23.0620728-3.8285522-28.9577026-16.2189331-15.6209717-35.208252
		c19.3272705-27.5187378,40.3060913-53.8809814,60.7033081-80.6428833
		c6.1080322-8.0139771,11.781311-14.1066284,24.4534912-9.1211548c11.229248,4.4177856,35.3543091-18.6156006,32.6508789-30.5524292
		c-0.8560181-3.779541-9.9284668-8.4607544-14.7070312-7.9293823c-6.836853,0.7602539-13.1831665,5.9311523-20.0758057,9.3875122
		c-9.1143188-17.8114624-0.7122192-27.3366699,10.1932373-36.3308105
		c9.131897-7.5314331,20.1278076-14.1763306,25.9588013-23.8339844c3.6409912-6.0303955,2.3106079-20.2813721-2.4622803-24.6619873
		c-4.5097046-4.1390991-18.9290771-3.4453125-24.5665283,0.8833008
		c-10.8389893,8.3225708-18.8131714,20.5096436-27.5014648,31.4696655
		c-14.5176392,18.3136597-28.5755615,36.9918823-43.1088257,55.2927856
		c-1.3565063,1.7081909-4.7289429,1.8154297-10.6879272,3.895813c3.5059204-21.9348145,22.953064-40.9676514,4.9750366-56.3319092
		c24.6817017-20.1281128,46.2884521-38.7736206,68.9785156-55.991394
		c28.0006714-21.2476807,7.3049927-54.625061,21.0859985-84.4602051c4.2047729,7.8126221,7.7401123,11.4382935,7.93927,15.2387695
		c1.1220703,21.4144897,13.8399048,21.9621582,29.1817017,16.3182983
		c23.5006714-8.6452637,47.8207397-16.104126,69.5178223-28.1608887
		c10.467041-5.8163452,16.6791382-20.4559937,23.0592041-32.0668335c4.5466309-8.2741699,6.15979-18.1602173,9.0820312-27.3269653
		c2.0266113,0.2661133,4.0532227,0.5322266,6.0797729,0.7983398c2.7344971,9.6402588,4.746582,19.5639648,8.3892212,28.8479004
		c4.4006348,11.2158203,11.7856445,19.7657471,23.1305542,7.2750854
		c13.2713013-14.6115112,24.4170532-24.8638306,44.8863525-8.3199463
		c10.7495117,8.6880493,51.6521606-5.9924927,62.0237427-17.597229c3.7828369-4.2325439,8.4385376-7.6850586,12.6960449-11.4934692
		c2.2567749,1.1647339,4.5135498,2.3294678,6.7703247,3.4942017c-3.1331787,11.3198853-6.0251465,22.715271-9.5305176,33.9187622
		c-1.227417,3.9230347-4.9928589,7.1600952-5.8078613,11.0826416c-2.0037842,9.6439209-3.1463623,19.4923706-3.7857666,29.3138428
		c-0.0299072,0.4598389,10.2141724,3.6503906,12.1627197,1.8239136c8.9096069-8.3517456,17.6158447-17.357605,24.2338257-27.5339966
		c3.3508911-5.1526489,0.1269531-17.8740845,3.3101807-19.2546387c11.8056641-5.1203613,25.3671265-10.4077759,37.6638794-9.2431641
		c21.1107178,1.9993286,41.7304688,8.9645996,62.6226807,13.5426636
		c28.6229248,6.2721558,57.2132568,16.0391846,86.0065918,16.760498
		c14.1488647,0.3544312,28.7921143-16.1690674,43.0697632-25.2769165
		c5.4494629-3.4762573,10.5022583-7.5744019,15.7357788-11.3890991c1.3117065,1.4898071,2.6234131,2.9795532,3.9351807,4.4692993
		c-4.9225464,7.456665-10.7893066,14.4760742-14.5012817,22.4931641
		c-3.6954346,7.9812622-5.2277222,16.9641724-7.7084351,25.5078735c11.9851685,2.9984131,24.1126099,8.7570801,35.9119263,8.1491089
		c9.9970703-0.5151367,19.6148071-8.3921509,30.6710815-13.611145c-5.6882324,33.7682495,9.020752,50.4111938,45.4174194,64.1300049
		c24.1315308,9.0957642,46.0394287,24.2401123,68.5375366,37.3709106
		c3.6790161,2.1471558,8.4130249,10.1270752,7.3399048,11.6413574
		c-19.1646118,27.0436401,8.4160767,37.359375,18.5996094,53.7676392c0.7369385,1.1873779,1.640625,2.3436279,2.0437012,3.6453857
		c0.3990479,1.2883911,0.2618408,2.7428589,0.6780396,8.6087646c-10.6997681-7.4478149-20.0044556-12.5466919-27.6182251-19.4976807
		c-18.6032104-16.9837646-34.9373169-36.8579102-55.0910645-51.5938721
		c-13.102356-9.5800781-31.3101196-12.1777344-48.375061-18.3153076
		c1.1707764-23.880188-33.3728027-44.8339844-65.5784302-35.6428833c-2.0158081,0.5752563-4.3251343,1.1275024-5.7893677,2.4657593
		c-8.8262329,8.0670166-17.4458008,16.3602905-26.1345215,24.5778198
		c10.8580322,4.2104492,21.444397,10.8146362,32.6361694,12.0848999c17.9573975,2.038269,36.3155518,0.5464478,56.7224121,5.1195068
		c-8.5967407,7.0907593-17.1934814,14.1815796-31.4342041,25.9276733
		c26.4680176,1.1890259,47.3614502,2.1276245,70.7880249,3.1800537
		c-19.1216431,28.3085327-18.9350586,28.0345459,5.8563843,44.911438
		c19.2678833,13.1166992,38.2538452,24.8369141,63.3839111,24.0119019
		c8.0307007-0.2636719,17.8635864,7.3869629,24.1936646,13.9856567c8.2403564,8.5900269,8.7318726,16.862854-6.6640625,20.8364868
		c-6.5032959,1.6784058-14.5239258,8.9877319-15.8905029,15.076355
		c-0.9358521,4.1691284,7.4284058,13.4176636,13.3806763,15.5715332c16.8598022,6.100769,34.697937,9.4474487,51.9586792,14.5308838
		c3.8148193,1.1235352,6.8379517,4.9354858,10.225647,7.5094604
		C964.2767944,550.3027954,959.8355103,554.7614136,956.685791,553.984375z"/>
</g>
</svg>
