<svg width="1000" height="1000" viewBox="0 0 1000 1000" xmlns="http://www.w3.org/2000/svg"><path d="M384,285C396,275,403,268,411,261C402,255,394,246,385,246C379,247,371,257,366,265C365,267,376,276,384,285zM328,251C326,265,325,277,324,289C327,289,329,289,332,290C352,275,352,266,328,251zM414,391C416,386,416,381,417,376C411,375,404,372,400,374C389,379,381,389,370,393C355,398,350,409,349,423C348,432,349,441,349,455C345,475,349,497,373,510C378,513,390,515,393,512C398,508,401,497,399,491C388,455,401,423,414,391zM108,561C105,562,103,574,105,576C115,585,127,587,140,576C132,563,123,554,108,561zM245,288C226,298,206,309,191,323C183,331,182,351,186,361C191,373,206,370,217,364C227,358,236,352,246,347C264,340,270,325,271,312C271,289,261,280,245,288zM352,345C371,338,387,333,407,326C375,308,366,311,352,345zM644,287C645,286,646,286,647,285V285V285C645,283,642,280,639,277C635,273,630,268,625,267C603,261,580,256,558,255C547,255,537,266,527,274C526,275,530,288,533,289C551,294,570,297,591,302C600,301,611,301,622,298C628,297,633,294,638,291C639,290,640,289,641,289C642,288,643,288,644,287zM707,302C707,298,700,293,695,291C678,284,649,303,640,332C662,327,680,324,698,319C703,317,707,308,707,302zM575,527C571,535,568,541,564,546C554,562,531,566,517,555C507,548,495,542,483,536C469,530,456,526,442,521C436,519,430,516,424,517C419,517,412,519,410,523C408,526,410,535,413,537C422,545,420,551,416,561C414,567,419,575,421,582C428,579,438,577,440,572C448,558,453,562,464,569C479,578,497,590,512,589C535,586,562,585,579,562C589,549,594,540,575,527zM0,0V1000H1000V0H0zM356,660C332,676,307,691,297,721C295,727,289,731,281,739C279,716,289,703,300,691C309,681,315,672,304,660C294,664,286,668,279,671C277,669,276,668,276,666C273,628,274,626,309,644C323,651,335,649,348,645C353,644,359,647,365,648C362,652,360,657,356,660zM507,753C475,761,465,755,453,724C451,718,447,713,441,703C438,725,435,741,432,757C429,757,425,757,422,757C420,748,419,740,418,731C417,728,420,724,419,721C413,709,406,698,400,686C392,697,385,707,378,717C375,722,372,728,369,734C366,732,363,731,359,730C362,719,367,709,368,698C374,666,388,651,425,653C456,655,482,666,511,671C515,671,521,678,521,682C522,686,517,692,513,695C497,707,496,719,512,732C516,736,519,740,522,744C517,747,512,752,507,753zM584,742C577,739,567,734,565,727C559,711,558,693,556,676C555,672,558,667,561,664C563,663,571,665,572,667C580,688,587,708,596,733C593,735,587,743,584,742zM578,661C594,638,613,646,646,692C624,682,602,672,578,661zM691,728C671,718,677,701,680,685C698,692,704,713,691,728zM685,559C700,531,741,505,765,508C753,529,707,559,685,559zM957,554C930,547,901,554,877,529C862,513,835,508,814,497C797,488,781,478,764,469C757,465,750,460,738,453C742,470,744,481,747,492C744,493,741,494,737,496C733,487,729,479,725,470C718,458,714,443,704,433C693,422,681,429,679,446C678,461,680,479,675,493C651,563,610,613,531,623C491,629,452,633,416,620C352,597,313,551,296,484C287,447,301,414,311,380C314,369,317,357,320,345C300,339,291,346,290,361C288,377,277,382,265,390C243,406,224,426,208,447C191,470,178,496,163,520C149,543,157,570,182,580C192,584,202,590,211,596C215,600,217,608,219,613C211,615,198,621,196,619C187,606,177,610,165,612C156,614,147,611,138,610C116,607,94,604,72,601C49,597,43,585,56,566C76,538,97,512,117,485C123,477,129,471,141,476C153,480,177,457,174,445C173,441,164,437,159,437C153,438,146,443,139,447C130,429,139,419,150,410C159,403,170,396,175,387C179,380,178,366,173,362C169,358,154,358,148,363C138,371,130,383,121,394C106,413,92,431,78,449C76,451,73,451,67,453C71,431,90,412,72,397C97,377,118,358,141,341C169,320,148,286,162,257C166,264,170,268,170,272C171,293,184,294,199,288C223,280,247,272,269,260C279,254,286,240,292,228C296,220,298,210,301,201C303,201,305,201,307,201C310,211,312,221,315,230C320,241,327,250,339,238C352,223,363,213,383,229C394,238,435,223,445,212C449,207,454,204,458,200C460,201,463,202,465,204C462,215,459,226,455,238C454,241,450,245,450,249C448,258,446,268,446,278C446,278,456,282,458,280C467,271,476,262,482,252C486,247,482,234,486,233C497,228,511,223,523,224C544,226,565,233,586,237C614,244,643,253,672,254C686,254,701,238,715,229C720,225,725,221,731,217C732,219,733,220,735,222C730,229,724,236,720,244C716,252,715,261,712,270C724,273,736,279,748,278C758,277,768,270,779,264C773,298,788,315,824,328C848,338,870,353,893,366C897,368,901,376,900,378C881,405,909,415,919,431C920,432,920,434,921,435C921,436,921,438,922,444C911,436,902,431,894,424C875,407,859,387,839,372C826,363,808,360,790,354C792,330,757,309,725,318C723,319,721,320,719,321C710,329,702,337,693,346C704,350,714,356,726,358C744,360,762,358,782,363C774,370,765,377,751,389C777,390,798,391,822,392C803,420,803,420,828,437C847,450,866,462,891,461C899,460,909,468,915,475C923,483,924,492,908,496C902,497,894,505,893,511C892,515,900,524,906,526C923,532,941,536,958,541C962,542,965,546,968,548C964,550,960,555,957,554z"/></svg>