<svg width="1000" height="1000" viewBox="0 0 1000 1000" xmlns="http://www.w3.org/2000/svg"><path d="M958,541C941,536,923,532,906,526C900,524,892,515,893,511C894,505,902,497,908,496C924,492,923,483,915,475C909,468,899,460,891,461C866,462,847,450,828,437C803,420,803,420,822,392C798,391,777,390,751,389C765,377,774,370,782,363C762,358,744,360,726,358C714,356,704,350,693,346C702,337,710,329,719,321C721,320,723,319,725,318C757,309,792,330,790,354C808,360,826,363,839,372C859,387,875,407,894,424C902,431,911,436,922,444C921,438,921,436,921,435C920,434,920,432,919,431C909,415,881,405,900,378C901,376,897,368,893,366C870,353,848,338,824,328C788,315,773,298,779,264C768,270,758,277,748,278C736,279,724,273,712,270C715,261,716,252,720,244C724,236,730,229,735,222C733,220,732,219,731,217C725,221,720,225,715,229C701,238,686,254,672,254C643,253,614,244,586,237C565,233,544,226,523,224C511,223,497,228,486,233C482,234,486,247,482,252C476,262,467,271,458,280C456,282,446,278,446,278C446,268,448,258,450,249C450,245,454,241,455,238C459,226,462,215,465,204C463,202,460,201,458,200C454,204,449,207,445,212C435,223,394,238,383,229C363,213,352,223,339,238C327,250,320,241,315,230C312,221,310,211,307,201C305,201,303,201,301,201C298,210,296,220,292,228C286,240,279,254,269,260C247,272,223,280,199,288C184,294,171,293,170,272C170,268,166,264,162,257C148,286,169,320,141,341C118,358,97,377,72,397C90,412,71,431,67,453C73,451,76,451,78,449C92,431,106,413,121,394C130,383,138,371,148,363C154,358,169,358,173,362C178,366,179,380,175,387C170,396,159,403,150,410C139,419,130,429,139,447C146,443,153,438,159,437C164,437,173,441,174,445C177,457,153,480,141,476C129,471,123,477,117,485C97,512,76,538,56,566C43,585,49,597,72,601C94,604,116,607,138,610C147,611,156,614,165,612C177,610,187,606,196,619C198,621,211,615,219,613C217,608,215,600,211,596C202,590,192,584,182,580C157,570,149,543,163,520C178,496,191,470,208,447C224,426,243,406,265,390C277,382,288,377,290,361C291,346,300,339,320,345C317,357,314,369,311,380C301,414,287,447,296,484C313,551,352,597,416,620C452,633,491,629,531,623C610,613,651,563,675,493C680,479,678,461,679,446C681,429,693,422,704,433C714,443,718,458,725,470C729,479,733,487,737,496C741,494,744,493,747,492C744,481,742,470,738,453C750,460,757,465,764,469C781,478,797,488,814,497C835,508,862,513,877,529C901,554,930,547,957,554C960,555,964,550,968,548C965,546,962,542,958,541zM105,576C103,574,105,562,108,561C123,554,132,563,140,576C127,587,115,585,105,576zM271,312C270,325,264,340,246,347C236,352,227,358,217,364C206,370,191,373,186,361C182,351,183,331,191,323C206,309,226,298,245,288C261,280,271,289,271,312zM366,265C371,257,379,247,385,246C394,246,402,255,411,261C403,268,396,275,384,285C376,276,365,267,366,265zM407,326C387,333,371,338,352,345C366,311,375,308,407,326zM332,290C329,289,327,289,324,289C325,277,326,265,328,251C352,266,352,275,332,290zM393,512C390,515,378,513,373,510C349,497,345,475,349,455C349,441,348,432,349,423C350,409,355,398,370,393C381,389,389,379,400,374C404,372,411,375,417,376C416,381,416,386,414,391C401,423,388,455,399,491C401,497,398,508,393,512zM579,562C562,585,535,586,512,589C497,590,479,578,464,569C453,562,448,558,440,572C438,577,428,579,421,582C419,575,414,567,416,561C420,551,422,545,413,537C410,535,408,526,410,523C412,519,419,517,424,517C430,516,436,519,442,521C456,526,469,530,483,536C495,542,507,548,517,555C531,566,554,562,564,546C568,541,571,535,575,527C594,540,589,549,579,562zM622,298C611,301,600,301,591,302C570,297,551,294,533,289C530,288,526,275,527,274C537,266,547,255,558,255C580,256,603,261,625,267C630,268,635,273,639,277C642,280,645,283,647,285V285V285C646,286,645,286,644,287C643,288,642,288,641,289C640,289,639,290,638,291C633,294,628,297,622,298zM640,332C649,303,678,284,695,291C700,293,707,298,707,302C707,308,703,317,698,319C680,324,662,327,640,332zM359,730C362,719,367,709,368,698C374,666,388,651,425,653C456,655,482,666,511,671C515,671,521,678,521,682C522,686,517,692,513,695C497,707,496,719,512,732C516,736,519,740,522,744C517,747,512,752,507,753C475,761,465,755,453,724C451,718,447,713,441,703C438,725,435,741,432,757C429,757,425,757,422,757C420,748,419,740,418,731C417,728,420,724,419,721C413,709,406,698,400,686C392,697,385,707,378,717C375,722,372,728,369,734C366,732,363,731,359,730zM304,660C294,664,286,668,279,671C277,669,276,668,276,666C273,628,274,626,309,644C323,651,335,649,348,645C353,644,359,647,365,648C362,652,360,657,356,660C332,676,307,691,297,721C295,727,289,731,281,739C279,716,289,703,300,691C309,681,315,672,304,660zM596,733C593,735,587,743,584,742C577,739,567,734,565,727C559,711,558,693,556,676C555,672,558,667,561,664C563,663,571,665,572,667C580,688,587,708,596,733zM578,661C594,638,613,646,646,692C624,682,602,672,578,661zM691,728C671,718,677,701,680,685C698,692,704,713,691,728zM685,559C700,531,741,505,765,508C753,529,707,559,685,559z"/></svg>