<svg width="1000" height="1000" viewBox="0 0 1000 1000" xmlns="http://www.w3.org/2000/svg"><path d="M167,416C167,427,165,436,161,444C157,452,151,458,144,464C137,469,129,473,119,476C109,478,99,480,87,480C81,480,74,479,68,478C62,477,56,476,51,474C46,473,42,471,39,469C35,468,33,466,32,465C30,463,29,461,28,458C27,455,27,450,27,444C27,440,27,437,27,435C27,432,28,430,28,429C29,428,30,427,30,426C31,426,32,425,34,425C35,425,37,426,40,428C43,430,47,432,51,434C56,436,61,438,67,439C72,441,79,442,86,442C91,442,95,442,99,441C102,440,106,438,108,436C111,435,113,432,114,430C116,427,116,424,116,420C116,416,115,413,113,410C110,407,107,404,103,402C98,400,94,398,88,396C83,394,78,392,72,389C67,387,61,384,56,381C51,378,46,375,42,370C38,366,34,361,32,354C29,348,28,341,28,332C28,323,30,315,33,308C36,301,41,294,48,289C54,284,62,280,71,277C81,274,91,273,102,273C108,273,114,273,119,274C125,275,129,276,134,277C138,278,142,280,145,281C148,283,150,284,151,285C153,286,154,287,154,288C155,289,155,290,155,292C156,293,156,295,156,297C156,299,156,302,156,305C156,309,156,312,156,314C156,316,156,318,155,319C155,321,154,322,153,322C152,323,151,323,150,323C149,323,147,322,145,321C142,319,139,318,135,316C131,315,126,313,121,312C116,310,110,309,104,309C99,309,95,310,92,311C88,312,85,313,83,315C81,317,79,319,78,321C77,324,77,326,77,329C77,333,78,337,80,340C83,343,86,345,91,347C95,349,100,351,105,353C111,355,116,357,122,360C127,362,133,365,138,368C144,371,148,374,153,379C157,383,160,388,163,394C165,401,167,408,167,416zM309,450C309,456,309,460,308,464C308,467,307,469,305,470C304,472,302,473,300,474C297,475,295,476,291,477C288,477,285,478,281,478C277,479,273,479,270,479C259,479,250,478,243,475C235,472,229,468,224,463C219,458,216,451,213,443C211,434,210,425,210,413V319H188C185,319,183,318,182,315C180,311,180,306,180,299C180,295,180,291,180,288C181,286,181,284,182,282C182,280,183,279,184,279C185,278,187,278,188,278H210V237C210,235,210,234,211,233C212,232,213,231,215,230C217,229,220,229,223,229C226,228,231,228,235,228C241,228,245,228,248,229C251,229,254,229,256,230C258,231,259,232,260,233C261,234,261,235,261,237V278H301C303,278,304,278,305,279C306,279,307,280,307,282C308,284,309,286,309,288C309,291,309,295,309,299C309,306,309,311,307,315C306,318,304,319,301,319H261V406C261,416,263,423,266,428C269,433,275,436,283,436C286,436,288,435,290,435C293,434,294,434,296,433C298,433,299,432,300,432C302,431,303,431,304,431C305,431,305,431,306,432C307,432,307,433,308,434C308,436,309,438,309,440C309,443,309,446,309,450zM499,469C499,470,498,472,497,473C496,474,493,475,490,475C487,476,483,476,477,476C471,476,467,476,464,475C461,475,459,474,458,473C457,472,456,470,456,469V454C449,462,440,468,430,473C421,477,410,480,398,480C389,480,380,478,371,476C363,473,356,470,350,465C344,460,340,453,336,446C333,439,331,430,331,420C331,409,334,400,338,392C342,384,348,378,356,373C365,367,375,364,387,361C400,359,414,358,430,358H448V346C448,341,448,336,446,331C445,327,443,323,441,321C438,318,434,316,430,314C426,313,420,312,413,312C405,312,397,313,390,315C384,317,378,319,372,321C367,324,363,326,359,328C356,330,353,331,351,331C349,331,348,330,347,329C346,328,345,327,344,325C343,323,343,321,342,318C342,316,342,313,342,310C342,306,342,302,343,300C343,297,345,295,346,293C348,291,352,289,357,286C361,284,367,282,373,280C380,278,387,276,394,275C402,273,410,273,418,273C432,273,445,274,455,277C465,280,473,284,480,290C487,296,491,303,494,312C497,322,499,333,499,345V469zM448,390H428C420,390,413,391,407,392C401,393,396,395,393,397C389,400,386,403,385,406C383,410,382,414,382,418C382,426,384,432,389,436C394,441,401,443,410,443C417,443,423,441,430,437C436,434,442,428,448,421V390zM668,302C668,307,668,311,668,314C668,317,667,319,667,321C666,323,665,324,665,325C664,326,663,326,661,326C660,326,659,326,657,325C656,325,655,324,653,324C651,323,649,323,647,322C645,322,643,321,640,321C638,321,635,322,632,323C629,324,626,326,623,329C620,331,617,334,613,338C610,343,606,348,602,354V468C602,469,602,470,601,471C600,473,599,473,597,474C595,475,592,475,589,476C586,476,582,476,576,476C571,476,567,476,564,476C561,475,558,475,556,474C554,473,553,473,552,471C551,470,551,469,551,468V285C551,283,551,282,552,281C552,280,554,279,555,278C557,278,559,277,562,277C565,276,569,276,573,276C577,276,581,276,584,277C587,277,589,278,590,278C592,279,593,280,594,281C594,282,595,283,595,285V307C600,301,604,295,608,290C613,286,617,282,620,280C624,277,628,275,632,274C636,273,640,273,643,273C645,273,647,273,649,273C651,273,653,274,656,274C658,275,660,275,661,276C663,276,664,277,665,278C666,278,666,279,667,280C667,281,667,282,668,283C668,285,668,287,668,290C668,293,668,297,668,302zM809,450C809,456,808,460,808,464C807,467,806,469,805,470C803,472,802,473,799,474C797,475,794,476,791,477C788,477,784,478,780,478C777,479,773,479,769,479C759,479,750,478,742,475C735,472,728,468,723,463C719,458,715,451,713,443C710,434,709,425,709,413V319H687C684,319,682,318,681,315C680,311,679,306,679,299C679,295,679,291,680,288C680,286,680,284,681,282C682,280,683,279,684,279C685,278,686,278,687,278H709V237C709,235,709,234,710,233C711,232,712,231,714,230C716,229,719,229,722,229C726,228,730,228,735,228C740,228,744,228,747,229C751,229,753,229,755,230C757,231,759,232,759,233C760,234,761,235,761,237V278H801C802,278,803,278,804,279C805,279,806,280,807,282C807,284,808,286,808,288C809,291,809,295,809,299C809,306,808,311,807,315C805,318,803,319,801,319H761V406C761,416,762,423,765,428C769,433,774,436,782,436C785,436,787,435,790,435C792,434,794,434,796,433C797,433,799,432,800,432C801,431,802,431,803,431C804,431,805,431,805,432C806,432,807,433,807,434C808,436,808,438,808,440C809,443,809,446,809,450zM975,416C975,427,973,436,969,444C966,452,960,458,953,464C946,469,937,473,928,476C918,478,907,480,896,480C889,480,883,479,876,478C870,477,864,476,860,474C855,473,850,471,847,469C844,468,842,466,840,465C838,463,837,461,837,458C836,455,835,450,835,444C835,440,835,437,836,435C836,432,836,430,837,429C837,428,838,427,839,426C840,426,841,425,842,425C844,425,846,426,849,428C852,430,855,432,860,434C864,436,869,438,875,439C881,441,887,442,895,442C900,442,904,442,907,441C911,440,914,438,917,436C919,435,921,432,923,430C924,427,925,424,925,420C925,416,924,413,921,410C919,407,915,404,911,402C907,400,902,398,897,396C892,394,886,392,881,389C875,387,870,384,864,381C859,378,854,375,850,370C846,366,843,361,840,354C838,348,836,341,836,332C836,323,838,315,841,308C845,301,850,294,856,289C863,284,871,280,880,277C889,274,899,273,911,273C917,273,922,273,928,274C933,275,938,276,942,277C947,278,950,280,953,281C956,283,959,284,960,285C961,286,962,287,963,288C963,289,964,290,964,292C964,293,964,295,965,297C965,299,965,302,965,305C965,309,965,312,965,314C964,316,964,318,964,319C963,321,963,322,962,322C961,323,960,323,959,323C958,323,956,322,953,321C950,319,947,318,943,316C939,315,935,313,930,312C925,310,919,309,912,309C907,309,903,310,900,311C897,312,894,313,892,315C889,317,888,319,887,321C886,324,885,326,885,329C885,333,886,337,889,340C892,343,895,345,899,347C903,349,908,351,914,353C919,355,925,357,930,360C936,362,941,365,947,368C952,371,957,374,961,379C965,383,969,388,971,394C974,401,975,408,975,416zM162,933C162,944,160,953,156,961C152,969,147,975,140,981C132,986,124,990,114,993C105,995,94,997,83,997C76,997,69,996,63,995C57,994,51,993,46,991C41,990,37,988,34,986C31,985,28,983,27,982C25,980,24,978,23,975C22,972,22,967,22,961C22,957,22,954,22,952C23,949,23,947,24,946C24,945,25,944,26,943C27,943,28,942,29,942C30,942,32,943,35,945C38,947,42,949,46,951C51,953,56,955,62,956C68,958,74,959,82,959C86,959,90,959,94,958C98,957,101,955,103,953C106,952,108,949,110,947C111,944,112,941,112,937C112,933,110,930,108,927C105,924,102,921,98,919C94,917,89,915,84,913C78,911,73,909,67,906C62,904,56,901,51,898C46,895,41,892,37,887C33,883,29,878,27,871C24,865,23,858,23,849C23,840,25,832,28,825C32,818,37,811,43,806C49,801,57,797,66,794C76,791,86,790,98,790C103,790,109,790,114,791C120,792,125,793,129,794C133,795,137,797,140,798C143,800,145,801,147,802C148,803,149,804,149,805C150,806,150,807,151,809C151,810,151,812,151,814C152,816,152,819,152,822C152,826,152,829,151,831C151,833,151,835,150,836C150,838,149,839,148,839C148,840,147,840,146,840C144,840,142,839,140,838C137,836,134,835,130,833C126,832,122,830,116,829C111,827,105,826,99,826C94,826,90,827,87,828C83,829,80,830,78,832C76,834,74,836,73,838C72,841,72,843,72,846C72,850,73,854,76,857C78,860,82,862,86,864C90,866,95,868,100,870C106,872,111,874,117,877C122,879,128,882,133,885C139,888,144,891,148,896C152,900,155,905,158,911C161,918,162,925,162,933zM123,107V0H59V107H0L45,165L91,223L136,165L182,107M123,624V517H59V624H0L45,682L91,740L136,682L182,624"/></svg>