<svg width="1000" height="1000" viewBox="0 0 1000 1000" xmlns="http://www.w3.org/2000/svg"><path d="M569,573C575,573,579,573,583,574C586,574,589,575,591,575C593,576,595,577,596,578C597,579,597,580,598,581C599,585,600,588,600,591C601,595,601,598,601,602C601,614,598,624,593,632C588,639,580,646,571,650C561,655,548,658,533,660C518,662,499,663,475,663H421C408,663,398,664,390,665C382,666,376,668,370,671C364,673,359,676,355,680C351,684,348,689,347,695C347,696,346,698,345,699C344,700,342,701,340,702C338,702,335,703,331,703C327,704,323,704,317,704C311,704,307,704,303,703C299,703,296,703,294,702C291,701,290,700,289,699C288,698,287,697,287,696C285,685,278,677,266,671C253,666,236,663,212,663H172C148,663,129,662,114,660C99,658,87,655,76,650C66,646,59,639,54,631C49,624,46,614,46,602C46,598,46,595,47,591C47,588,48,585,49,582C49,580,50,579,51,578C52,577,54,576,56,575C58,575,61,574,64,574C68,573,72,573,78,573C83,573,87,573,91,574C95,574,97,575,100,576C102,576,104,577,105,579C105,580,106,581,106,582V591C106,594,107,597,109,600C111,602,114,604,119,606C123,608,129,609,137,609C144,610,156,610,172,610H211C227,610,240,611,251,613C262,615,272,617,281,621C289,625,297,629,303,635C310,641,314,648,317,657C319,648,324,641,330,635C336,629,344,625,353,621C362,617,372,615,382,613C393,611,407,610,422,610H475C491,610,502,610,510,609C518,609,524,608,528,606C533,605,536,603,538,601C539,599,541,596,541,593V584C541,582,542,580,542,579C543,577,545,576,547,575C549,574,552,574,556,574C559,573,564,573,569,573zM930,573C933,573,935,573,936,574C938,574,939,575,940,575C941,576,942,577,942,578C943,579,943,580,944,581C944,585,945,588,945,591C945,595,945,598,945,602C945,614,944,624,941,632C939,639,935,646,930,650C926,655,920,658,913,660C905,662,896,663,885,663H859C853,663,848,664,844,665C841,666,837,668,835,671C832,673,829,676,827,680C826,684,824,689,824,695C824,696,823,698,823,699C822,700,821,701,820,702C819,702,818,703,816,703C814,704,812,704,809,704C807,704,804,704,803,703C801,703,799,703,798,702C797,701,796,700,796,699C795,698,795,697,795,696C794,685,791,677,785,671C779,666,771,663,759,663H740C729,663,720,662,712,660C705,658,699,655,695,650C690,646,686,639,684,631C681,624,680,614,680,602C680,598,680,595,680,591C681,588,681,585,681,582C682,580,682,579,682,578C683,577,684,576,685,575C686,575,687,574,689,574C690,573,693,573,695,573C698,573,700,573,701,574C703,574,705,575,706,576C707,576,708,577,708,579C708,580,709,581,709,582V591C709,594,709,597,710,600C711,602,713,604,715,606C717,608,720,609,723,609C727,610,733,610,740,610H759C766,610,773,611,778,613C783,615,788,617,792,621C796,625,800,629,803,635C806,641,808,648,809,657C811,648,813,641,816,635C819,629,822,625,827,621C831,617,835,615,841,613C846,611,852,610,860,610H885C892,610,898,610,902,609C905,609,908,608,910,606C912,605,914,603,915,601C916,599,916,596,916,593V584C916,582,917,580,917,579C917,577,918,576,919,575C920,574,922,574,923,574C925,573,927,573,930,573zM217,371C217,377,215,382,213,385C210,388,206,389,201,389H89C89,397,90,404,92,411C94,417,97,422,101,427C105,431,110,435,117,437C123,439,131,441,140,441C149,441,157,440,163,439C170,437,176,436,181,434C186,433,190,431,194,430C197,429,200,428,202,428C203,428,204,428,205,429C206,429,206,430,207,431C207,433,208,434,208,437C208,439,208,442,208,445C208,448,208,451,208,453C208,455,208,457,207,458C207,460,207,461,206,462C206,463,205,464,204,465C203,466,201,467,197,469C193,471,188,472,181,474C175,475,168,477,160,478C152,479,144,480,135,480C119,480,104,478,92,473C80,469,69,463,61,455C53,446,47,436,43,423C39,410,37,395,37,378C37,362,39,347,43,334C47,321,54,310,62,301C70,292,80,285,91,280C103,275,116,273,130,273C146,273,159,275,170,280C181,284,190,290,196,298C203,306,209,316,212,327C215,338,217,350,217,363V371zM167,356C167,342,164,330,158,322C152,314,142,309,129,309C122,309,117,311,112,313C107,316,103,319,100,323C97,327,94,332,92,338C91,344,90,350,89,356H167zM416,469C416,470,415,472,414,473C412,474,410,475,407,475C404,476,400,476,394,476C388,476,383,476,381,475C378,475,376,474,375,473C373,472,373,470,373,469V454C365,462,357,468,347,473C337,477,327,480,315,480C305,480,296,478,288,476C280,473,273,470,267,465C261,460,256,453,253,446C250,439,248,430,248,420C248,409,250,400,254,392C259,384,265,378,273,373C281,367,292,364,304,361C316,359,331,358,347,358H365V346C365,341,364,336,363,331C362,327,360,323,357,321C355,318,351,316,347,314C342,313,337,312,330,312C321,312,314,313,307,315C300,317,294,319,289,321C284,324,279,326,276,328C272,330,270,331,267,331C266,331,265,330,263,329C262,328,261,327,261,325C260,323,259,321,259,318C258,316,258,313,258,310C258,306,259,302,259,300C260,297,261,295,263,293C265,291,268,289,273,286C278,284,284,282,290,280C296,278,303,276,311,275C319,273,327,273,335,273C349,273,361,274,372,277C382,280,390,284,397,290C403,296,408,303,411,312C414,322,416,333,416,345V469zM365,390H345C337,390,330,391,324,392C318,393,313,395,309,397C306,400,303,403,301,406C300,410,299,414,299,418C299,426,301,432,306,436C311,441,318,443,326,443C333,443,340,441,346,437C352,434,359,428,365,421V390zM572,450C572,456,571,460,571,464C570,467,569,469,568,470C567,472,565,473,562,474C560,475,557,476,554,477C551,477,547,478,543,478C540,479,536,479,532,479C522,479,513,478,505,475C498,472,491,468,487,463C482,458,478,451,476,443C473,434,472,425,472,413V319H450C448,319,446,318,444,315C443,311,442,306,442,299C442,295,442,291,443,288C443,286,444,284,444,282C445,280,446,279,447,279C448,278,449,278,450,278H472V237C472,235,473,234,473,233C474,232,475,231,477,230C479,229,482,229,485,229C489,228,493,228,498,228C503,228,507,228,511,229C514,229,516,229,518,230C520,231,522,232,523,233C523,234,524,235,524,237V278H564C565,278,566,278,567,279C568,279,569,280,570,282C570,284,571,286,571,288C572,291,572,295,572,299C572,306,571,311,570,315C568,318,566,319,564,319H524V406C524,416,525,423,528,428C532,433,537,436,545,436C548,436,551,435,553,435C555,434,557,434,559,433C560,433,562,432,563,432C564,431,565,431,566,431C567,431,568,431,568,432C569,432,570,433,570,434C571,436,571,438,571,440C572,443,572,446,572,450zM760,222C760,233,758,240,754,244C750,248,742,250,730,250C718,250,711,248,707,244C703,240,701,233,701,223C701,213,703,206,707,202C711,198,719,196,731,196C742,196,750,198,754,202C758,205,760,212,760,222zM756,468C756,469,756,470,755,471C754,473,753,473,751,474C749,475,746,475,743,476C740,476,735,476,730,476C725,476,721,476,718,476C715,475,712,475,710,474C708,473,707,473,706,471C705,470,704,469,704,468V285C704,284,705,282,706,281C707,280,708,279,710,279C712,278,715,277,718,277C721,277,725,276,730,276C735,276,740,277,743,277C746,277,749,278,751,279C753,279,754,280,755,281C756,282,756,284,756,285V468zM916,450C916,456,916,460,915,464C915,467,914,469,912,470C911,472,909,473,907,474C904,475,902,476,898,477C895,477,892,478,888,478C884,479,880,479,877,479C866,479,857,478,850,475C842,472,836,468,831,463C826,458,823,451,820,443C818,434,817,425,817,413V319H795C792,319,790,318,789,315C787,311,787,306,787,299C787,295,787,291,787,288C788,286,788,284,789,282C789,280,790,279,791,279C792,278,794,278,795,278H817V237C817,235,817,234,818,233C819,232,820,231,822,230C824,229,827,229,830,229C833,228,837,228,842,228C847,228,852,228,855,229C858,229,861,229,863,230C865,231,866,232,867,233C868,234,868,235,868,237V278H908C910,278,911,278,912,279C913,279,914,280,914,282C915,284,916,286,916,288C916,291,916,295,916,299C916,306,916,311,914,315C913,318,911,319,908,319H868V406C868,416,870,423,873,428C876,433,882,436,890,436C893,436,895,435,897,435C899,434,901,434,903,433C905,433,906,432,907,432C909,431,910,431,911,431C911,431,912,431,913,432C914,432,914,433,915,434C915,436,916,438,916,440C916,443,916,446,916,450z"/></svg>