<svg width="1000" height="1000" viewBox="0 0 1000 1000" xmlns="http://www.w3.org/2000/svg"><path d="M35,81V102C35,105,35,107,34,109C34,111,33,112,31,113C30,114,29,115,27,115C25,116,22,116,20,116C17,116,15,116,13,115C11,115,9,114,8,113C7,112,6,111,5,109C5,107,4,105,4,102C4,99,4,96,5,93C5,90,6,87,6,85C7,82,8,79,9,77C11,74,12,72,14,69L37,34C37,33,38,33,39,32C39,32,40,31,41,31C42,30,43,30,45,30C46,30,48,29,50,29C52,29,53,29,54,30C56,30,56,30,57,30C58,31,58,31,58,32C58,33,58,34,57,34L35,81zM96,81V102C96,105,95,107,95,109C94,111,93,112,92,113C90,114,89,115,87,115C85,116,83,116,80,116C77,116,75,116,73,115C71,115,70,114,68,113C67,112,66,111,65,109C65,107,65,105,65,102C65,99,65,96,65,93C65,90,66,87,67,85C67,82,68,79,70,77C71,74,73,72,74,69L97,34C98,33,98,33,99,32C100,32,100,31,101,31C103,30,104,30,105,30C107,30,108,29,110,29C112,29,114,29,115,30C116,30,117,30,117,30C118,31,118,31,118,32C118,33,118,34,118,34L96,81zM308,250C308,253,308,256,308,258C307,260,307,261,306,262C305,263,304,264,302,265C300,265,298,266,296,266C293,267,291,267,288,268C286,268,283,268,281,268C273,268,266,267,260,265C255,263,250,260,246,256C243,251,240,246,239,240C237,233,236,226,236,217V128H215C213,128,212,127,211,125C210,124,209,121,209,117C209,115,210,113,210,111C210,110,210,109,211,108C211,107,212,106,213,106C213,105,214,105,215,105H236V69C236,68,236,67,237,67C237,66,238,66,239,65C240,65,241,64,243,64C245,64,247,64,250,64C253,64,255,64,257,64C259,64,260,65,261,65C262,66,263,66,263,67C264,67,264,68,264,69V105H303C304,105,305,105,305,106C306,106,307,107,307,108C308,109,308,110,308,111C308,113,308,115,308,117C308,121,308,124,307,125C306,127,305,128,303,128H264V213C264,223,266,231,269,237C272,242,277,245,285,245C288,245,290,244,292,244C294,243,296,243,297,242C299,242,300,241,302,241C303,240,304,240,305,240C305,240,306,240,306,240C307,240,307,241,307,242C308,243,308,244,308,245C308,246,308,248,308,250zM434,119C434,122,434,124,434,126C434,127,433,129,433,130C433,131,432,131,432,132C431,132,431,133,430,133C429,133,428,132,426,132C425,131,424,131,422,130C420,130,419,129,417,129C415,128,412,128,410,128C407,128,404,129,402,130C399,131,396,133,393,135C390,138,387,141,384,146C381,150,377,155,373,161V261C373,262,373,263,372,263C372,264,371,265,370,265C369,265,368,266,366,266C364,266,362,266,359,266C356,266,354,266,352,266C351,266,349,265,348,265C347,265,346,264,346,263C345,263,345,262,345,261V109C345,109,345,108,346,107C346,107,347,106,348,106C349,105,350,105,352,104C353,104,355,104,358,104C360,104,362,104,364,104C366,105,367,105,368,106C369,106,369,107,370,107C370,108,370,109,370,109V132C375,125,378,121,382,117C386,113,389,110,392,108C396,106,399,104,402,103C405,102,409,102,412,102C413,102,415,102,417,102C419,102,421,103,423,103C425,103,427,104,428,105C430,105,431,106,432,106C432,107,433,107,433,108C433,108,433,109,434,110C434,111,434,112,434,113C434,115,434,117,434,119zM497,58C497,65,495,69,493,72C490,74,486,75,479,75C473,75,468,74,466,72C463,69,462,65,462,59C462,52,463,48,466,45C468,43,473,42,480,42C486,42,491,43,493,45C495,47,497,52,497,58zM493,261C493,262,493,263,493,263C492,264,492,265,491,265C490,266,488,266,486,266C485,266,482,266,479,266C477,266,474,266,473,266C471,266,469,266,468,265C467,265,467,264,466,263C466,263,466,262,466,261V109C466,109,466,108,466,107C467,107,467,106,468,106C469,105,471,105,473,105C474,104,477,104,479,104C482,104,485,104,486,105C488,105,490,105,491,106C492,106,492,107,493,107C493,108,493,109,493,109V261zM770,261C770,262,770,263,769,263C769,264,768,265,767,265C766,266,765,266,763,266C761,266,759,266,756,266C753,266,751,266,749,266C747,266,746,266,745,265C744,265,743,264,743,263C742,263,742,262,742,261V169C742,163,741,157,740,151C739,146,737,142,735,138C732,134,729,131,725,129C722,127,717,126,712,126C705,126,699,128,693,133C686,138,679,146,671,155V261C671,262,671,263,671,263C670,264,669,265,668,265C667,266,666,266,664,266C662,266,660,266,657,266C655,266,652,266,651,266C649,266,647,266,646,265C645,265,644,264,644,263C644,263,643,262,643,261V169C643,163,643,157,642,151C640,146,638,142,636,138C634,134,630,131,627,129C623,127,618,126,613,126C607,126,600,128,594,133C587,138,580,146,573,155V261C573,262,572,263,572,263C571,264,571,265,570,265C569,266,567,266,566,266C564,266,561,266,559,266C556,266,554,266,552,266C550,266,549,266,548,265C546,265,546,264,545,263C545,263,545,262,545,261V109C545,109,545,108,545,107C546,107,546,106,547,106C548,105,550,105,551,104C553,104,555,104,557,104C560,104,562,104,564,104C565,105,567,105,567,106C568,106,569,107,569,107C570,108,570,109,570,109V130C578,120,587,113,595,109C603,104,611,102,619,102C625,102,631,103,636,104C641,106,646,108,649,110C653,113,656,116,659,120C662,123,664,127,666,132C671,126,676,122,680,118C685,114,689,111,693,109C698,106,702,105,706,103C710,102,714,102,718,102C728,102,736,104,742,107C749,110,754,115,758,121C763,126,765,133,767,141C769,149,770,157,770,165V261zM934,43C934,47,934,50,934,53C933,55,933,58,932,61C931,63,930,66,929,68C928,71,926,74,924,76L901,111C901,112,900,112,900,113C899,114,898,114,897,115C896,115,895,115,893,116C892,116,890,116,888,116C887,116,885,116,884,116C883,115,882,115,881,115C881,114,880,114,880,113C880,112,880,111,881,110L903,64V43C903,40,903,38,904,36C904,34,905,33,907,32C908,31,910,30,912,30C913,30,916,29,919,29C921,29,924,30,926,30C928,30,929,31,930,32C932,33,932,34,933,36C934,38,934,40,934,43zM994,43C994,47,994,50,994,53C994,55,993,58,992,61C992,63,991,66,989,68C988,71,986,74,985,76L962,111C961,112,961,112,960,113C959,114,958,114,957,115C956,115,955,115,954,116C952,116,951,116,949,116C947,116,945,116,944,116C943,115,942,115,942,115C941,114,941,114,941,113C941,112,941,111,941,110L963,64V43C963,40,964,38,964,36C965,34,966,33,967,32C968,31,970,30,972,30C974,30,976,29,979,29C982,29,984,30,986,30C988,30,989,31,991,32C992,33,993,34,993,36C994,38,994,40,994,43zM126,815V837C126,840,125,842,125,844C124,846,123,847,122,848C121,849,119,850,117,850C115,850,113,851,110,851C107,851,105,850,103,850C101,850,100,849,98,848C97,847,96,846,96,844C95,842,95,840,95,837C95,833,95,830,95,827C96,824,96,822,97,819C98,817,99,814,100,811C101,809,103,806,104,803L127,769C128,768,128,767,129,767C130,766,131,766,132,765C133,765,134,765,135,764C137,764,138,764,140,764C142,764,144,764,145,764C146,764,147,765,148,765C148,766,148,766,148,767C148,767,148,768,148,769L126,815zM186,815V837C186,840,186,842,185,844C185,846,184,847,182,848C181,849,179,850,177,850C175,850,173,851,170,851C168,851,165,850,164,850C162,850,160,849,159,848C158,847,157,846,156,844C155,842,155,840,155,837C155,833,155,830,156,827C156,824,156,822,157,819C158,817,159,814,160,811C161,809,163,806,165,803L188,769C188,768,189,767,189,767C190,766,191,766,192,765C193,765,194,765,196,764C197,764,199,764,201,764C203,764,204,764,205,764C207,764,207,765,208,765C209,766,209,766,209,767C209,767,209,768,208,769L186,815zM321,985C321,988,321,991,320,992C320,994,319,996,318,997C317,998,316,998,314,999C312,1000,310,1001,308,1001C306,1002,303,1002,301,1002C298,1003,296,1003,293,1003C285,1003,278,1002,273,1000C267,998,262,995,259,990C255,986,253,981,251,974C249,968,249,960,249,951V863H227C226,863,224,862,223,860C222,858,222,855,222,851C222,849,222,847,222,846C223,844,223,843,223,842C224,841,224,841,225,840C226,840,227,840,228,840H249V804C249,803,249,802,249,801C250,801,250,800,251,800C252,799,254,799,256,799C257,798,260,798,262,798C265,798,268,798,269,799C271,799,273,799,274,800C275,800,275,801,276,801C276,802,276,803,276,804V840H315C316,840,317,840,318,840C318,841,319,841,319,842C320,843,320,844,321,846C321,847,321,849,321,851C321,855,320,858,319,860C318,862,317,863,315,863H276V947C276,958,278,966,281,971C284,976,290,979,298,979C300,979,303,979,305,978C307,978,308,977,310,977C312,976,313,976,314,975C315,975,316,974,317,974C318,974,318,975,319,975C319,975,320,976,320,976C320,977,320,978,321,980C321,981,321,983,321,985zM446,854C446,856,446,859,446,860C446,862,446,863,446,864C445,865,445,866,444,866C444,867,443,867,442,867C441,867,440,867,439,866C438,866,436,865,434,865C433,864,431,864,429,863C427,863,425,863,422,863C420,863,417,863,414,864C411,866,409,867,406,870C403,873,400,876,396,880C393,885,389,890,386,896V996C386,997,385,997,385,998C384,999,384,999,383,1000C382,1000,380,1000,378,1001C377,1001,374,1001,372,1001C369,1001,367,1001,365,1001C363,1000,362,1000,361,1000C359,999,359,999,358,998C358,997,358,997,358,996V844C358,843,358,842,358,842C359,841,359,841,360,840C361,840,363,839,364,839C366,839,368,839,370,839C373,839,375,839,377,839C378,839,379,840,380,840C381,841,382,841,382,842C383,842,383,843,383,844V866C387,860,391,855,395,851C398,848,402,844,405,842C408,840,411,839,415,838C418,837,421,836,424,836C426,836,427,837,429,837C431,837,433,837,435,838C437,838,439,839,441,839C442,840,443,840,444,841C445,841,445,842,445,842C446,843,446,844,446,844C446,845,446,846,446,848C446,849,446,851,446,854zM509,793C509,799,508,804,505,806C503,809,498,810,492,810C485,810,481,809,478,806C476,804,475,800,475,793C475,787,476,782,478,780C481,778,485,776,492,776C499,776,503,777,505,780C508,782,509,786,509,793zM506,996C506,997,506,997,505,998C505,999,504,999,503,1000C502,1000,501,1000,499,1001C497,1001,495,1001,492,1001C489,1001,487,1001,485,1001C483,1000,482,1000,481,1000C480,999,479,999,479,998C478,997,478,997,478,996V844C478,843,478,843,479,842C479,841,480,841,481,840C482,840,483,839,485,839C487,839,489,839,492,839C495,839,497,839,499,839C501,839,502,840,503,840C504,841,505,841,505,842C506,843,506,843,506,844V996zM782,996C782,997,782,997,782,998C781,999,780,999,779,1000C778,1000,777,1000,775,1001C773,1001,771,1001,769,1001C766,1001,763,1001,762,1001C760,1000,758,1000,757,1000C756,999,755,999,755,998C755,997,754,997,754,996V904C754,897,754,891,753,886C752,881,750,876,747,872C745,869,742,866,738,864C734,862,729,861,724,861C718,861,711,863,705,868C699,873,691,880,684,890V996C684,997,683,997,683,998C683,999,682,999,681,1000C680,1000,678,1000,676,1001C675,1001,672,1001,670,1001C667,1001,665,1001,663,1001C661,1000,660,1000,659,1000C658,999,657,999,656,998C656,997,656,997,656,996V904C656,897,655,891,654,886C653,881,651,876,648,872C646,869,643,866,639,864C635,862,631,861,626,861C619,861,613,863,606,868C600,873,593,880,585,890V996C585,997,585,997,584,998C584,999,583,999,582,1000C581,1000,580,1000,578,1001C576,1001,574,1001,571,1001C568,1001,566,1001,564,1001C563,1000,561,1000,560,1000C559,999,558,999,558,998C557,997,557,997,557,996V844C557,843,557,842,558,842C558,841,559,841,560,840C561,840,562,839,564,839C565,839,567,839,570,839C572,839,574,839,576,839C578,839,579,840,580,840C581,841,581,841,582,842C582,842,582,843,582,844V864C591,855,599,848,607,843C615,839,623,836,632,836C638,836,644,837,649,839C654,840,658,842,662,845C666,847,669,851,672,854C674,858,676,862,678,866C683,861,688,856,693,853C697,849,702,846,706,843C710,841,714,839,718,838C722,837,726,836,730,836C740,836,748,838,755,842C761,845,767,850,771,855C775,861,778,868,780,876C781,883,782,891,782,900V996zM868,778C868,781,868,784,868,787C868,790,867,793,866,795C866,798,865,801,863,803C862,806,860,808,859,811L836,845C835,846,835,847,834,848C833,848,832,849,831,849C830,850,829,850,828,850C826,850,825,851,823,851C821,851,819,850,818,850C817,850,816,850,816,849C815,849,815,848,815,848C815,847,815,846,815,845L837,799V778C837,775,838,772,838,771C839,769,840,767,841,766C842,766,844,765,846,765C848,764,850,764,853,764C856,764,858,764,860,765C862,765,863,766,865,766C866,767,867,769,867,771C868,772,868,775,868,778zM929,778C929,781,929,784,928,787C928,790,927,793,927,795C926,798,925,801,924,803C922,806,921,808,919,811L896,845C896,846,895,847,894,848C894,848,893,849,892,849C891,850,890,850,888,850C887,850,885,851,883,851C881,851,880,850,879,850C877,850,877,850,876,849C875,849,875,848,875,848C875,847,875,846,876,845L898,799V778C898,775,898,772,899,771C899,769,900,767,901,766C903,766,904,765,906,765C908,764,911,764,913,764C916,764,918,764,920,765C922,765,924,766,925,766C926,767,927,769,928,771C928,772,929,775,929,778zM541,526V388H459V526H383L441,600L500,675L559,600L617,526"/></svg>