<svg width="1000" height="1000" viewBox="0 0 1000 1000" xmlns="http://www.w3.org/2000/svg"><path d="M161,423C161,434,159,443,155,451C151,459,146,465,139,471C132,476,123,480,113,483C104,485,93,487,82,487C75,487,68,486,62,485C56,484,50,483,45,481C40,480,36,478,33,476C30,475,27,473,26,472C24,470,23,468,22,465C22,462,21,457,21,451C21,447,21,444,22,442C22,439,22,437,23,436C23,435,24,434,25,433C26,433,27,432,28,432C29,432,32,433,35,435C38,437,41,439,46,441C50,443,55,445,61,446C67,448,73,449,81,449C85,449,90,449,93,448C97,447,100,445,103,443C105,442,107,439,109,437C110,434,111,431,111,427C111,423,109,420,107,417C104,414,101,411,97,409C93,407,88,405,83,403C77,401,72,399,66,396C61,394,55,391,50,388C45,385,40,382,36,377C32,373,28,368,26,361C23,355,22,348,22,339C22,330,24,322,27,315C31,308,36,301,42,296C49,291,56,287,66,284C75,281,85,280,97,280C103,280,108,280,114,281C119,282,124,283,128,284C133,285,136,287,139,288C142,290,145,291,146,292C147,293,148,294,149,295C149,296,150,297,150,299C150,300,150,302,151,304C151,306,151,309,151,312C151,316,151,319,151,321C150,323,150,325,150,326C149,328,148,329,148,329C147,330,146,330,145,330C143,330,142,329,139,328C136,326,133,325,129,323C125,322,121,320,116,319C110,317,105,316,98,316C93,316,89,317,86,318C82,319,80,320,77,322C75,324,74,326,73,328C71,331,71,333,71,336C71,340,72,344,75,347C77,350,81,352,85,354C89,356,94,358,100,360C105,362,110,364,116,367C122,369,127,372,132,375C138,378,143,381,147,386C151,390,155,395,157,401C160,408,161,415,161,423zM304,457C304,463,303,467,303,471C302,474,301,476,300,477C298,479,297,480,294,481C292,482,289,483,286,484C283,484,279,485,275,485C272,486,268,486,264,486C254,486,245,485,237,482C230,479,223,475,218,470C214,465,210,458,208,450C205,441,204,432,204,420V326H182C179,326,177,325,176,322C175,318,174,313,174,306C174,302,174,298,175,295C175,293,175,291,176,289C177,287,178,286,179,286C180,285,181,285,182,285H204V244C204,242,204,241,205,240C206,239,207,238,209,237C211,236,214,236,217,236C221,235,225,235,230,235C235,235,239,235,242,236C246,236,248,236,250,237C252,238,254,239,254,240C255,241,256,242,256,244V285H296C297,285,298,285,299,286C300,286,301,287,302,289C302,291,303,293,303,295C304,298,304,302,304,306C304,313,303,318,302,322C300,325,298,326,296,326H256V413C256,423,257,430,260,435C264,440,269,443,277,443C280,443,282,442,285,442C287,441,289,441,291,440C292,440,294,439,295,439C296,438,297,438,298,438C299,438,300,438,300,439C301,439,302,440,302,441C303,443,303,445,303,447C304,450,304,453,304,457zM459,309C459,314,459,318,459,321C458,324,458,326,457,328C457,330,456,331,455,332C454,333,453,333,452,333C451,333,449,333,448,332C447,332,445,331,443,331C442,330,440,330,438,329C436,329,433,328,431,328C428,328,425,329,422,330C420,331,417,333,413,336C410,338,407,341,404,345C400,350,397,355,393,361V475C393,476,393,477,392,478C391,480,390,480,388,481C386,482,383,482,380,483C376,483,372,483,367,483C362,483,358,483,355,483C351,482,349,482,347,481C345,480,343,480,342,478C342,477,341,476,341,475V292C341,290,342,289,342,288C343,287,344,286,346,285C348,285,350,284,353,284C356,283,359,283,363,283C368,283,371,283,374,284C377,284,379,285,381,285C383,286,384,287,384,288C385,289,385,290,385,292V314C390,308,395,302,399,297C403,293,407,289,411,287C415,284,419,282,423,281C426,280,430,280,434,280C436,280,438,280,440,280C442,280,444,281,446,281C448,282,450,282,452,283C454,283,455,284,456,285C456,285,457,286,457,287C458,288,458,289,458,290C458,292,459,294,459,297C459,300,459,304,459,309zM547,229C547,240,544,247,540,251C536,255,528,257,517,257C505,257,497,255,493,251C489,247,487,240,487,230C487,220,489,213,493,209C497,205,505,203,517,203C528,203,536,205,540,209C545,212,547,219,547,229zM543,475C543,476,542,477,541,478C541,480,539,480,537,481C535,482,533,482,529,483C526,483,522,483,517,483C512,483,508,483,504,483C501,482,498,482,496,481C494,480,493,480,492,478C491,477,491,476,491,475V292C491,291,491,289,492,288C493,287,494,286,496,286C498,285,501,284,504,284C508,284,512,283,517,283C522,283,526,284,529,284C533,284,535,285,537,286C539,286,541,287,541,288C542,289,543,291,543,292V475zM769,475C769,476,769,477,768,478C767,480,766,480,764,481C762,482,759,482,756,483C753,483,749,483,744,483C739,483,734,483,731,483C728,482,725,482,723,481C721,480,720,480,719,478C718,477,718,476,718,475V370C718,361,717,354,716,349C715,344,713,340,710,336C708,333,705,330,701,328C697,326,692,325,687,325C680,325,674,327,667,332C660,337,653,344,646,353V475C646,476,646,477,645,478C644,480,643,480,641,481C639,482,636,482,633,483C629,483,625,483,620,483C615,483,611,483,608,483C604,482,602,482,600,481C598,480,596,480,595,478C595,477,594,476,594,475V292C594,290,595,289,595,288C596,287,597,286,599,285C601,285,603,284,606,284C609,283,612,283,616,283C621,283,624,283,627,284C630,284,632,285,634,285C636,286,637,287,637,288C638,289,638,290,638,292V313C649,302,659,294,669,288C680,283,691,280,702,280C715,280,725,282,734,286C742,290,749,296,754,303C760,310,764,318,766,328C768,337,769,348,769,362V475zM985,304C985,311,985,316,983,319C982,322,980,324,978,324H956C959,327,961,331,963,335C964,339,964,343,964,348C964,359,963,368,959,376C956,385,950,392,944,397C937,403,929,407,920,410C910,413,900,415,888,415C883,415,877,414,872,413C866,411,862,409,859,407C858,409,856,411,855,414C854,416,853,419,853,422C853,426,855,429,858,432C862,434,866,436,873,436L917,438C928,438,937,440,945,442C953,445,960,448,966,453C971,457,976,463,979,469C982,476,983,483,983,491C983,500,981,509,977,517C973,525,967,532,959,538C951,544,941,548,929,552C917,555,903,557,887,557C872,557,858,556,847,553C836,551,827,547,820,543C813,539,808,533,805,527C801,521,800,514,800,507C800,503,800,498,802,494C803,490,804,486,807,482C809,479,812,475,815,472C818,468,822,465,826,462C820,459,816,454,813,449C809,443,808,438,808,431C808,423,810,416,813,409C817,402,822,396,828,391C823,386,819,380,816,374C813,367,812,359,812,349C812,338,814,328,818,320C821,312,827,304,833,299C840,293,848,288,857,285C867,282,877,281,888,281C894,281,899,281,905,282C910,282,915,283,919,285H978C980,285,982,286,983,289C985,292,985,297,985,304zM931,494C931,488,929,483,924,480C919,477,912,475,903,474L867,473C863,476,860,479,858,481C856,483,854,486,853,488C852,490,851,492,850,494C850,496,850,498,850,501C850,507,853,513,860,516C867,520,877,522,889,522C897,522,904,521,909,519C915,518,919,516,922,513C925,510,928,507,929,504C930,501,931,498,931,494zM919,348C919,338,916,330,911,325C905,319,898,316,888,316C883,316,878,317,874,319C870,321,867,323,865,326C862,329,860,332,859,336C858,340,857,344,857,348C857,358,860,365,865,371C871,376,878,379,888,379C893,379,898,378,902,376C906,375,909,372,911,369C914,367,916,363,917,359C918,356,919,352,919,348zM481,646C481,654,480,659,478,663C476,666,474,668,471,668H298C295,668,292,666,291,663C289,659,288,654,288,646C288,638,289,633,291,629C292,626,295,624,298,624H471C474,624,477,626,478,629C480,633,481,638,481,646zM481,737C481,745,480,751,478,754C476,757,474,759,471,759H298C295,759,292,757,291,754C289,751,288,745,288,737C288,729,289,724,291,720C292,717,295,715,298,715H471C474,715,477,717,478,720C480,724,481,729,481,737zM711,646C711,654,710,659,709,663C707,666,704,668,701,668H529C526,668,523,666,521,663C520,659,519,654,519,646C519,638,520,633,521,629C523,626,525,624,529,624H701C705,624,707,626,709,629C710,633,711,638,711,646zM711,737C711,745,710,751,709,754C707,757,704,759,701,759H529C526,759,523,757,521,754C520,751,519,745,519,737C519,729,520,724,521,720C523,717,525,715,529,715H701C705,715,707,717,709,720C710,724,711,729,711,737z"/></svg>