<svg width="1000" height="1000" viewBox="0 0 1000 1000" xmlns="http://www.w3.org/2000/svg"><path d="M152,59V79C152,82,151,84,151,86C150,87,149,89,148,90C147,91,145,91,143,92C142,92,139,92,137,92C134,92,132,92,130,92C128,91,127,91,126,90C125,89,124,87,123,86C123,84,122,82,122,79C122,76,122,73,123,70C123,67,124,65,124,62C125,60,126,58,127,55C128,53,130,50,132,48L153,15C154,14,154,13,155,13C156,12,156,12,157,11C158,11,159,11,161,11C162,10,164,10,166,10C167,10,169,10,170,10C171,11,172,11,172,11C173,12,173,12,173,13C173,13,173,14,173,15L152,59zM209,59V79C209,82,209,84,208,86C207,87,206,89,205,90C204,91,202,91,201,92C199,92,197,92,194,92C191,92,189,92,187,92C186,91,184,91,183,90C182,89,181,87,180,86C180,84,179,82,179,79C179,76,180,73,180,70C180,67,181,65,181,62C182,60,183,58,184,55C186,53,187,50,189,48L210,15C211,14,211,13,212,13C213,12,213,12,214,11C215,11,217,11,218,11C219,10,221,10,223,10C224,10,226,10,227,10C228,11,229,11,230,11C230,12,230,12,230,13C231,13,230,14,230,15L209,59zM417,156C417,168,415,179,412,189C409,198,405,207,399,214C392,221,385,227,376,231C366,235,356,237,344,237C332,237,321,235,313,232C304,228,297,223,291,216C285,209,281,201,278,192C275,182,273,171,273,159C273,147,275,137,278,127C281,117,285,109,292,101C298,94,305,89,315,85C324,81,334,79,347,79C358,79,369,81,378,84C386,88,394,93,399,99C405,106,410,114,413,124C416,133,417,144,417,156zM390,158C390,150,389,143,388,136C386,129,384,123,380,118C377,113,373,108,367,105C361,102,354,101,346,101C338,101,331,102,325,105C320,108,315,112,311,117C308,122,305,128,303,135C302,142,301,149,301,157C301,165,301,173,303,180C304,187,307,193,310,198C313,203,318,207,324,210C329,213,336,215,345,215C353,215,359,213,365,210C371,208,375,204,379,199C383,194,385,188,387,181C389,174,390,166,390,158zM515,230C515,231,515,231,514,232C514,233,513,233,512,233C511,234,510,234,508,234C506,235,504,235,502,235C499,235,497,235,495,234C494,234,492,234,491,233C490,233,489,233,489,232C489,231,489,231,489,230V16C489,16,489,15,489,14C489,14,490,13,491,13C492,12,494,12,495,12C497,11,499,11,502,11C504,11,506,11,508,12C510,12,511,12,512,13C513,13,514,14,514,14C515,15,515,16,515,16V230zM719,230C719,231,719,231,719,232C718,233,718,233,717,234C716,234,715,234,713,234C712,235,710,235,708,235C706,235,704,235,702,234C701,234,700,234,699,234C698,233,697,233,697,232C696,231,696,231,696,230V211C688,219,681,225,672,230C664,235,655,237,646,237C635,237,626,235,619,231C611,227,605,221,601,214C596,207,593,199,590,189C588,180,587,170,587,160C587,147,589,136,591,126C594,116,598,108,603,101C608,94,615,88,622,85C630,81,639,79,649,79C658,79,665,81,672,84C679,88,686,93,693,101V17C693,16,693,16,693,15C694,14,695,14,696,13C697,13,698,13,700,12C701,12,703,12,706,12C709,12,711,12,713,12C714,13,716,13,717,13C717,14,718,14,719,15C719,16,719,16,719,17V230zM693,129C686,120,679,113,672,108C666,104,659,102,651,102C645,102,639,103,634,106C630,110,626,114,623,119C620,124,618,130,616,137C615,143,614,150,614,157C614,164,615,171,616,178C617,185,619,191,622,196C625,202,628,206,633,209C638,213,643,214,650,214C654,214,657,214,660,213C664,212,667,210,670,208C674,206,677,203,681,199C685,196,689,191,693,186V129zM834,23C834,26,834,29,834,32C834,35,833,37,832,40C832,42,831,45,829,47C828,50,827,52,825,55L803,87C803,88,802,89,802,89C801,90,800,91,799,91C798,91,797,92,796,92C795,92,793,92,791,92C789,92,788,92,787,92C786,92,785,91,784,91C784,91,783,90,783,89C783,89,783,88,784,87L805,43V23C805,20,805,18,806,16C806,15,807,13,808,13C810,12,811,11,813,11C815,10,817,10,820,10C822,10,825,10,826,11C828,11,830,12,831,13C832,13,833,15,833,16C834,18,834,20,834,23zM891,23C891,26,891,29,891,32C891,35,890,37,889,40C889,42,888,45,887,47C885,50,884,52,882,55L861,87C860,88,860,89,859,89C858,90,857,91,856,91C855,91,854,92,853,92C852,92,850,92,848,92C847,92,845,92,844,92C843,92,842,91,841,91C841,91,841,90,841,89C841,89,841,88,841,87L862,43V23C862,20,862,18,863,16C863,15,864,13,866,13C867,12,868,11,870,11C872,10,874,10,877,10C879,10,882,10,883,11C885,11,887,12,888,13C889,13,890,15,891,16C891,18,891,20,891,23zM87,838V856C87,858,87,860,86,861C86,863,85,864,84,865C83,866,82,866,80,866C78,867,76,867,74,867C72,867,70,867,69,866C67,866,66,866,65,865C64,864,63,863,63,861C62,860,62,858,62,856C62,853,62,850,62,848C62,846,63,844,64,841C64,839,65,837,66,835C67,833,68,831,70,829L88,801C89,800,89,799,90,799C90,798,91,798,92,798C93,797,94,797,95,797C96,797,97,797,99,797C100,797,102,797,103,797C103,797,104,797,105,798C105,798,105,798,105,799C105,799,105,800,105,801L87,838zM136,838V856C136,858,136,860,135,861C135,863,134,864,133,865C132,866,131,866,129,866C127,867,125,867,123,867C121,867,119,867,118,866C116,866,115,866,114,865C113,864,112,863,112,861C111,860,111,858,111,856C111,853,111,850,111,848C111,846,112,844,113,841C113,839,114,837,115,835C116,833,117,831,119,829L137,801C138,800,138,799,139,799C139,798,140,798,141,798C142,797,143,797,144,797C145,797,146,797,148,797C149,797,151,797,152,797C153,797,153,797,154,798C154,798,154,798,155,799C155,799,154,800,154,801L136,838zM337,984C337,985,336,986,336,986C336,987,335,988,334,988C333,988,332,989,330,989C328,989,326,989,324,989C321,989,319,989,317,989C315,989,314,988,313,988C312,988,311,987,311,986C311,986,310,985,310,984V900C310,892,310,885,308,880C307,875,305,871,303,867C300,864,297,861,293,859C289,857,285,856,280,856C273,856,267,859,260,863C253,868,247,875,239,884V984C239,985,239,986,239,986C238,987,238,988,237,988C236,988,234,989,233,989C231,989,229,989,226,989C223,989,221,989,220,989C218,989,217,988,216,988C215,988,214,987,213,986C213,986,213,985,213,984V841C213,840,213,839,213,838C214,838,214,837,215,837C216,836,218,836,219,836C220,836,222,836,225,836C227,836,229,836,231,836C232,836,233,836,234,837C235,837,236,838,236,838C237,839,237,840,237,841V860C245,851,253,844,261,840C269,836,277,833,285,833C295,833,303,835,309,838C316,842,321,846,325,851C329,857,332,863,334,870C336,878,337,886,337,897V984zM540,906C540,910,539,913,537,915C535,917,532,918,530,918H435C435,926,436,933,438,939C439,946,442,951,446,956C449,960,454,964,460,966C466,969,474,970,482,970C489,970,495,969,500,968C506,967,510,966,514,965C518,963,521,962,524,961C526,960,528,959,530,959C530,959,531,959,532,960C532,960,533,961,533,961C533,962,534,963,534,964C534,966,534,967,534,969C534,971,534,972,534,973C534,974,534,975,533,976C533,976,533,977,533,978C532,978,532,979,531,980C531,980,529,981,526,982C523,984,519,985,515,986C510,988,505,989,499,990C493,991,487,991,480,991C468,991,458,990,449,986C440,983,432,978,426,972C420,965,416,957,412,947C409,937,408,926,408,913C408,901,409,890,413,880C416,870,420,862,426,855C432,848,440,843,448,839C457,835,466,833,477,833C488,833,498,835,506,839C514,842,520,847,525,853C530,860,534,867,536,875C539,883,540,892,540,901V906zM514,898C514,885,511,874,504,866C498,858,488,854,475,854C469,854,463,855,458,858C453,860,449,863,446,867C443,871,440,876,438,882C436,887,435,893,435,898H514zM812,840C812,841,812,842,812,843C812,844,811,845,811,847L769,984C768,985,768,986,767,986C766,987,765,988,764,988C763,989,761,989,759,989C757,989,754,989,751,989C748,989,745,989,743,989C741,989,739,988,737,988C736,988,735,987,735,986C734,985,733,985,733,984L703,879V878L702,879L674,984C674,985,674,986,673,986C672,987,671,988,670,988C668,989,667,989,664,989C662,989,659,989,656,989C653,989,650,989,648,989C646,989,644,988,643,988C642,988,641,987,640,986C640,985,639,985,639,984L597,847C596,845,596,844,596,843C595,842,595,841,595,840C595,839,595,839,596,838C596,837,597,837,598,837C599,836,600,836,602,836C604,836,606,836,608,836C611,836,614,836,616,836C617,836,619,836,620,837C621,837,621,838,622,838C622,839,623,840,623,841L658,959V961V959L690,841C690,840,691,839,691,838C691,838,692,837,693,837C694,836,695,836,697,836C699,836,701,836,704,836C706,836,708,836,710,836C712,836,713,836,714,837C715,837,715,838,716,838C716,839,717,840,717,840L751,959V961L752,959L786,841C786,840,786,839,787,838C787,838,788,837,789,837C790,836,791,836,793,836C795,836,797,836,800,836C803,836,805,836,806,836C808,836,809,836,810,837C811,837,811,838,812,838C812,839,812,839,812,840zM903,808C903,811,903,813,903,816C902,818,902,820,901,822C901,824,900,826,899,828C898,830,897,833,895,835L876,863C876,864,876,864,875,865C874,865,874,866,873,866C872,866,871,866,870,867C869,867,868,867,866,867C864,867,863,867,862,867C861,867,860,866,860,866C860,866,859,865,859,865C859,864,859,863,860,863L878,825V808C878,805,878,803,878,802C879,801,880,799,881,799C882,798,883,797,885,797C886,797,888,797,891,797C893,797,895,797,896,797C898,797,899,798,900,799C901,799,902,801,902,802C903,804,903,805,903,808zM952,808C952,811,952,813,952,816C951,818,951,820,950,822C950,824,949,826,948,828C947,830,946,833,944,835L925,863C925,864,925,864,924,865C923,865,923,866,922,866C921,866,920,866,919,867C918,867,917,867,915,867C913,867,912,867,911,867C910,867,910,866,909,866C909,866,908,865,908,865C908,864,908,863,909,863L927,825V808C927,805,927,803,927,802C928,801,929,799,930,799C931,798,932,797,934,797C935,797,937,797,940,797C942,797,943,797,945,797C947,797,948,798,949,799C950,799,951,801,951,802C952,804,952,805,952,808zM548,507V346H452V507H363L431,594L500,682L568,594L636,507"/></svg>