<svg width="1000" height="1000" viewBox="0 0 1000 1000" xmlns="http://www.w3.org/2000/svg"><path d="M246,525C246,527,246,528,245,529C244,530,242,531,240,532C238,533,235,533,232,534C228,534,223,534,218,534C212,534,208,534,204,534C200,533,197,533,195,532C193,531,192,530,191,529C190,528,189,527,189,525V410C189,401,189,393,187,387C186,382,184,377,181,373C178,369,175,366,170,364C166,361,161,360,155,360C148,360,141,363,134,368C126,374,118,381,110,391V525C110,527,110,528,109,529C108,530,107,531,104,532C102,533,99,533,96,534C92,534,88,534,82,534C76,534,72,534,68,534C65,533,62,533,59,532C57,531,56,530,55,529C54,528,53,527,53,525V228C53,227,54,225,55,224C56,223,57,222,59,221C62,220,65,219,68,219C72,219,76,218,82,218C88,218,92,219,96,219C99,219,102,220,104,221C107,222,108,223,109,224C110,225,110,227,110,228V340C120,330,130,323,140,318C151,313,161,311,172,311C186,311,197,313,207,318C216,322,224,328,230,336C236,344,240,353,242,364C245,374,246,387,246,402V525zM488,419C488,426,487,431,484,434C481,437,476,439,471,439H348C348,448,349,455,351,462C353,469,356,475,361,480C365,485,371,489,378,491C385,494,393,495,403,495C413,495,422,495,429,493C437,492,443,490,449,488C455,487,459,485,463,484C466,482,469,482,471,482C473,482,474,482,475,482C476,483,477,484,477,485C478,486,478,488,478,491C479,493,479,497,479,500C479,504,479,506,479,509C478,511,478,513,478,515C478,516,477,518,476,519C476,520,475,521,474,522C473,523,470,525,466,527C462,528,456,530,449,532C443,534,435,535,426,536C417,538,408,538,398,538C380,538,364,536,351,531C337,527,326,520,317,511C308,502,301,490,297,476C292,462,290,446,290,427C290,409,293,393,297,378C302,364,309,352,318,342C326,332,337,324,350,319C363,313,377,311,393,311C410,311,424,313,436,318C448,323,458,330,466,339C474,348,479,358,483,370C486,382,488,395,488,410V419zM433,402C434,386,430,374,423,365C417,356,406,351,392,351C384,351,378,352,373,355C367,358,363,362,359,366C356,371,353,376,351,382C349,389,348,395,348,402H433zM592,525C592,527,592,528,591,529C590,530,588,531,586,532C584,533,581,533,577,534C574,534,569,534,564,534C558,534,553,534,550,534C546,533,543,533,541,532C539,531,537,530,536,529C535,528,535,527,535,525V228C535,227,535,225,536,224C537,223,539,222,541,221C543,220,546,219,550,219C553,219,558,218,564,218C569,218,574,219,577,219C581,219,584,220,586,221C588,222,590,223,591,224C592,225,592,227,592,228V525zM706,525C706,527,705,528,704,529C703,530,702,531,700,532C698,533,695,533,691,534C687,534,683,534,677,534C672,534,667,534,663,534C660,533,657,533,655,532C653,531,651,530,650,529C649,528,649,527,649,525V228C649,227,649,225,650,224C651,223,653,222,655,221C657,220,660,219,663,219C667,219,672,218,677,218C683,218,687,219,691,219C695,219,698,220,700,221C702,222,703,223,704,224C705,225,706,227,706,228V525zM966,423C966,440,964,455,960,470C955,484,948,496,939,506C930,516,918,524,904,530C891,535,874,538,856,538C838,538,822,536,809,531C796,526,785,519,776,509C767,500,761,488,757,474C752,460,750,444,750,427C750,409,753,394,757,379C762,365,769,353,778,343C787,333,799,325,812,319C826,314,842,311,861,311C879,311,895,313,908,318C921,323,932,330,941,340C949,349,956,361,960,375C964,389,966,405,966,423zM908,425C908,415,907,406,905,397C904,389,901,382,897,375C894,369,889,364,882,361C876,358,868,356,859,356C850,356,843,357,837,360C830,364,825,368,821,374C817,380,814,387,812,395C810,404,809,413,809,424C809,434,810,443,811,452C813,460,816,467,819,473C823,480,828,484,834,488C841,491,849,493,858,493C866,493,874,491,880,488C887,485,892,481,896,475C900,469,903,462,905,453C907,445,908,435,908,425zM692,586C696,586,699,586,702,587C704,587,706,588,707,588C709,589,710,590,711,591C712,592,712,593,712,594C713,598,714,601,714,604C715,608,715,611,715,615C715,627,713,637,709,645C705,652,700,659,693,663C686,668,677,671,666,673C655,675,641,676,624,676H585C575,676,568,677,562,678C557,679,552,681,547,684C543,686,539,689,537,693C534,697,532,702,531,708C531,709,530,711,529,712C528,713,527,714,526,715C524,715,522,716,519,716C516,717,513,717,509,717C505,717,502,717,499,716C496,716,494,716,492,715C491,714,489,713,489,712C488,711,488,710,487,709C486,698,481,690,472,684C463,679,450,676,433,676H404C387,676,373,675,362,673C351,671,342,668,335,663C328,659,322,652,319,644C315,637,313,627,313,615C313,611,313,608,314,604C314,601,315,598,315,595C315,593,316,592,317,591C317,590,319,589,320,588C322,588,324,587,326,587C329,586,332,586,336,586C340,586,343,586,346,587C348,587,350,588,352,589C354,589,355,590,355,592C356,593,356,594,356,595L357,604C357,607,358,610,359,613C360,615,362,617,366,619C369,621,373,622,379,622C384,623,393,623,404,623H432C444,623,454,624,462,626C469,628,476,630,483,634C489,638,495,642,499,648C504,654,507,661,509,670C511,661,514,654,519,648C523,642,529,638,535,634C542,630,549,628,556,626C564,624,574,623,585,623H623C635,623,643,623,649,622C654,622,659,621,662,619C665,618,667,616,669,614C670,612,671,609,671,606V597C671,595,672,593,672,592C673,590,674,589,676,588C677,587,679,587,682,587C685,586,688,586,692,586z"/></svg>