<svg width="1000" height="1000" viewBox="0 0 1000 1000" xmlns="http://www.w3.org/2000/svg"><path d="M243,666C243,677,242,686,241,691C240,697,238,701,236,704C233,706,230,708,226,710C221,712,216,713,210,715C205,716,198,717,192,718C185,719,178,719,171,719C152,719,136,717,123,712C109,707,98,700,89,690C80,680,73,668,69,653C65,638,63,621,63,601V431H23C18,431,15,428,12,422C10,416,9,406,9,393C9,386,9,380,9,375C10,370,11,366,12,363C13,360,15,358,17,357C19,356,21,355,23,355H63V281C63,279,63,276,65,274C66,272,69,271,72,269C76,268,81,267,87,266C93,266,100,265,109,265C118,265,126,266,132,266C138,267,143,268,146,269C150,271,152,272,154,274C155,276,156,279,156,281V355H228C231,355,233,356,235,357C236,358,238,360,239,363C240,366,241,370,242,375C243,380,243,386,243,393C243,406,242,416,239,422C237,428,233,431,228,431H156V586C156,604,159,618,165,627C170,636,180,641,195,641C200,641,204,640,208,639C212,638,216,637,219,636C222,635,225,634,227,633C229,633,231,632,233,632C234,632,235,633,237,633C238,634,239,636,240,639C241,641,241,645,242,649C243,654,243,659,243,666zM585,700C585,704,584,706,582,708C579,710,575,712,570,713C565,713,557,714,546,714C535,714,527,713,522,713C517,712,513,710,511,708C509,706,508,704,508,700V674C495,688,479,700,462,708C444,716,425,720,403,720C386,720,370,718,355,713C340,709,327,702,317,693C306,684,298,673,292,659C286,646,283,630,283,612C283,593,286,576,294,562C302,548,313,536,328,527C343,517,361,511,384,506C406,502,432,499,461,499H494V479C494,469,493,460,491,452C488,444,485,438,480,433C475,427,469,424,461,421C453,419,443,417,431,417C415,417,401,419,389,423C377,426,366,430,357,434C347,438,339,442,333,446C327,449,322,451,318,451C315,451,312,450,310,448C308,446,307,444,305,441C304,438,303,434,302,429C301,424,301,419,301,413C301,406,302,400,303,395C304,391,306,387,310,383C313,379,319,375,328,371C337,367,347,363,358,359C370,355,383,352,397,350C410,348,424,346,439,346C465,346,487,349,506,354C524,359,539,367,551,377C563,388,572,402,577,418C583,435,585,454,585,477V700zM494,558H458C443,558,430,559,419,562C409,564,400,567,393,572C387,576,382,581,379,588C376,594,374,601,374,609C374,623,378,634,387,642C396,650,408,654,424,654C437,654,449,651,460,644C471,637,482,628,494,615V558zM975,699C975,701,974,704,973,705C971,707,969,709,966,710C962,711,957,712,951,713C945,713,938,714,929,714C920,714,912,713,906,713C900,712,895,711,892,710C888,709,886,707,884,705C883,704,882,701,882,699V510C882,494,881,481,878,472C876,463,873,455,868,448C864,442,858,437,851,433C844,430,836,428,826,428C814,428,802,432,790,441C778,449,765,462,752,479V699C752,701,752,704,750,705C749,707,746,709,742,710C739,711,734,712,728,713C722,713,715,714,705,714C696,714,689,713,683,713C677,712,672,711,669,710C665,709,662,707,661,705C659,704,659,701,659,699V368C659,365,659,363,661,361C662,359,664,358,667,356C670,355,675,354,680,354C685,353,691,353,699,353C707,353,713,353,718,354C724,354,728,355,731,356C733,358,735,359,737,361C738,363,739,365,739,368V406C757,386,776,371,794,361C813,351,833,346,854,346C876,346,895,350,911,358C926,365,939,375,948,388C958,401,965,415,969,433C973,450,975,470,975,494V699z"/></svg>