<svg width="1000" height="1000" viewBox="0 0 1000 1000" xmlns="http://www.w3.org/2000/svg"><path d="M239,559C239,567,239,573,238,577C237,581,236,584,234,585C233,587,230,588,227,590C224,591,221,592,217,593C213,594,208,595,204,595C199,596,194,596,189,596C176,596,165,594,156,591C146,588,139,583,132,576C126,569,122,561,119,550C116,540,114,528,114,514V396H87C84,396,81,394,79,390C78,386,77,380,77,370C77,365,77,361,77,357C78,354,79,351,79,349C80,347,81,346,83,345C84,344,85,344,87,344H114V293C114,291,115,289,116,288C117,287,118,285,121,285C123,284,127,283,131,282C135,282,140,282,147,282C153,282,158,282,162,282C167,283,170,284,172,285C175,285,176,287,177,288C178,289,179,291,179,293V344H229C231,344,232,344,233,345C235,346,236,347,237,349C237,351,238,354,239,357C239,361,239,365,239,370C239,380,238,386,237,390C235,394,232,396,229,396H179V504C179,517,181,526,185,532C189,539,196,542,206,542C209,542,213,541,215,541C218,540,220,540,223,539C225,538,227,537,228,537C229,536,231,536,232,536C233,536,234,536,235,537C236,537,237,539,237,540C238,542,238,545,239,548C239,551,239,555,239,559zM492,461C492,469,490,474,486,478C483,482,478,484,472,484H332C332,494,333,502,336,510C338,518,342,525,347,531C352,536,358,541,366,544C374,546,384,548,395,548C406,548,416,547,425,545C433,544,441,542,447,540C453,538,458,536,463,535C467,533,470,532,473,532C474,532,475,533,476,533C477,534,478,535,479,536C480,538,480,540,480,543C481,546,481,549,481,554C481,557,481,561,481,563C480,566,480,568,480,570C479,572,479,574,478,575C478,576,477,577,476,579C474,580,471,581,466,583C461,585,455,588,447,589C440,591,431,593,421,595C411,596,400,597,389,597C369,597,351,594,335,589C320,584,307,576,297,566C287,555,279,542,274,526C269,510,266,491,266,470C266,450,269,431,274,415C280,398,287,384,297,373C307,362,320,353,334,347C349,341,365,338,383,338C403,338,419,341,433,346C446,352,457,360,466,370C475,380,481,392,485,406C490,419,492,434,492,450V461zM429,442C429,424,426,410,418,399C410,389,398,384,382,384C374,384,366,385,360,388C354,391,349,396,345,401C341,406,338,412,336,419C334,427,332,434,332,442H429zM736,578C737,580,738,583,738,585C738,587,737,588,734,589C732,591,728,591,723,592C718,592,712,592,703,592C696,592,689,592,685,592C680,592,676,591,674,591C671,590,669,589,668,588C666,587,665,585,665,583L622,502L580,583C579,585,578,587,577,588C576,589,574,590,572,591C569,591,566,592,561,592C557,592,551,592,544,592C536,592,530,592,526,592C521,591,518,591,516,589C514,588,513,587,513,585C513,583,513,580,515,578L578,465L520,359C518,355,517,353,517,351C517,349,518,347,520,346C523,344,526,344,531,343C536,343,543,342,551,342C559,342,565,342,569,343C574,343,577,343,580,344C582,344,584,345,586,346C587,347,588,349,589,351L630,427L670,351C671,349,672,348,673,347C674,346,675,345,677,344C680,344,683,343,687,343C690,342,696,342,702,342C710,342,716,342,721,343C725,343,728,344,730,345C732,346,733,348,733,350C733,352,732,355,730,359L673,463L736,578zM915,559C915,567,914,573,913,577C912,581,911,584,910,585C908,587,906,588,903,590C900,591,896,592,892,593C888,594,884,595,879,595C874,596,870,596,865,596C852,596,841,594,831,591C822,588,814,583,808,576C802,569,797,561,794,550C791,540,790,528,790,514V396H762C759,396,757,394,755,390C753,386,752,380,752,370C752,365,753,361,753,357C753,354,754,351,755,349C756,347,757,346,758,345C759,344,761,344,763,344H790V293C790,291,790,289,791,288C792,287,794,285,796,285C799,284,802,283,806,282C811,282,816,282,822,282C828,282,834,282,838,282C842,283,845,284,848,285C850,285,852,287,853,288C854,289,854,291,854,293V344H904C906,344,908,344,909,345C910,346,911,347,912,349C913,351,914,354,914,357C914,361,915,365,915,370C915,380,914,386,912,390C910,394,908,396,905,396H854V504C854,517,856,526,860,532C864,539,871,542,881,542C885,542,888,541,891,541C893,540,896,540,898,539C900,538,902,537,903,537C905,536,906,536,907,536C909,536,909,536,910,537C911,537,912,539,913,540C913,542,914,545,914,548C914,551,915,555,915,559zM929,189H939V739H929z"/></svg>