<svg width="1000" height="1000" viewBox="0 0 1000 1000" xmlns="http://www.w3.org/2000/svg"><path d="M45,71V89C45,91,45,93,44,95C44,96,43,98,42,98C41,99,39,100,38,100C36,100,34,101,32,101C30,101,28,100,26,100C24,100,23,99,22,98C21,98,20,96,20,95C19,93,19,91,19,89C19,86,19,84,19,81C20,79,20,77,21,74C21,72,22,70,23,68C24,66,26,64,27,61L46,33C47,32,47,31,48,31C48,30,49,30,50,30C51,29,52,29,53,29C54,29,55,29,57,29C59,29,60,29,61,29C62,29,62,29,63,30C63,30,64,30,64,31C64,31,64,32,63,33L45,71zM95,71V89C95,91,95,93,94,95C94,96,93,98,92,98C91,99,89,100,88,100C86,100,84,101,82,101C80,101,78,100,76,100C75,100,73,99,72,98C71,98,70,96,70,95C69,93,69,91,69,89C69,86,69,84,70,81C70,79,70,77,71,74C72,72,72,70,73,68C75,66,76,64,77,61L96,33C97,32,97,31,98,31C98,30,99,30,100,30C101,29,102,29,103,29C104,29,105,29,107,29C109,29,110,29,111,29C112,29,113,29,113,30C114,30,114,30,114,31C114,31,114,32,113,33L95,71zM219,202C219,204,219,205,219,206C219,207,218,208,218,209C218,210,218,211,217,211C217,212,216,213,215,214C214,215,212,216,209,218C206,220,203,221,200,223C196,224,192,225,188,226C184,227,180,227,176,227C166,227,158,226,151,223C144,220,139,216,134,210C129,204,126,197,123,189C121,180,119,171,119,160C119,147,121,137,124,128C127,119,131,112,136,106C142,100,148,96,155,93C162,90,170,89,178,89C182,89,186,89,190,90C194,91,197,92,200,93C203,94,206,96,209,97C211,99,213,100,214,101C215,102,216,103,216,104C217,105,217,105,218,106C218,107,218,108,218,109C218,110,218,112,218,114C218,117,218,120,217,121C216,123,215,123,214,123C212,123,211,123,209,121C207,119,205,118,202,116C199,114,196,112,192,111C188,109,183,108,178,108C167,108,158,113,152,121C146,130,143,142,143,159C143,167,144,174,146,180C147,186,150,191,153,195C156,199,159,202,164,204C168,206,173,207,178,207C184,207,188,207,192,205C196,203,200,201,203,199C206,197,208,196,210,194C212,192,214,191,215,191C216,191,216,192,217,192C217,192,218,193,218,194C218,195,218,196,219,197C219,199,219,200,219,202zM358,221C358,222,358,223,357,223C357,224,356,224,356,224C355,225,354,225,352,225C351,225,349,226,346,226C344,226,342,225,341,225C339,225,338,225,337,224C336,224,336,224,335,223C335,223,335,222,335,221V147C335,140,334,134,333,130C332,126,330,122,328,119C326,116,323,113,320,111C317,110,313,109,308,109C302,109,296,111,291,115C285,119,279,125,273,133V221C273,222,272,223,272,223C272,224,271,224,270,224C269,225,268,225,267,225C265,225,263,226,261,226C259,226,257,225,255,225C254,225,253,225,252,224C251,224,250,224,250,223C250,223,249,222,249,221V34C249,33,250,33,250,32C250,32,251,31,252,31C253,30,254,30,255,30C257,30,259,30,261,30C263,30,265,30,267,30C268,30,269,30,270,31C271,31,272,32,272,32C272,33,273,33,273,34V110C279,103,286,97,293,94C299,91,306,89,313,89C321,89,328,90,334,93C340,96,344,100,348,105C352,109,354,115,356,121C357,128,358,135,358,145V221V221zM495,221C495,222,495,223,494,224C493,224,492,225,491,225C490,225,488,226,485,226C483,226,481,225,479,225C478,225,477,224,476,224C476,223,475,222,475,221V209C470,215,464,219,457,223C450,226,443,227,435,227C429,227,423,227,417,225C412,223,407,221,404,217C400,214,397,210,395,205C393,201,392,195,392,189C392,182,393,176,396,171C399,165,403,161,408,158C414,154,420,151,428,150C436,148,445,147,455,147H472V137C472,133,472,128,471,124C470,121,468,118,466,115C463,113,460,111,457,110C453,108,449,108,443,108C438,108,432,108,428,110C423,111,419,113,416,114C413,116,410,117,408,119C405,120,404,121,402,121C402,121,401,120,400,120C400,120,399,119,399,118C399,118,398,117,398,116C398,114,398,113,398,112C398,109,398,108,398,106C399,105,399,104,401,102C402,101,404,100,407,98C410,96,414,95,418,94C422,92,426,91,431,90C436,89,441,89,445,89C454,89,462,90,468,92C475,94,480,97,484,101C488,105,491,110,492,116C494,122,495,129,495,136V221V221zM472,164H452C446,164,441,164,436,165C431,167,427,168,424,170C421,172,419,175,417,178C416,181,415,184,415,188C415,194,417,200,422,204C426,207,431,209,439,209C445,209,451,208,456,205C461,202,466,197,472,191V164V164zM611,103C611,106,611,107,611,109C611,110,611,111,611,112C610,113,610,113,609,114C609,114,608,114,608,114C607,114,606,114,605,114C604,113,603,113,601,112C600,112,598,112,597,111C595,111,593,111,591,111C589,111,587,111,584,112C582,113,580,115,577,117C575,119,572,122,570,125C567,129,564,133,561,138V221C561,222,560,223,560,223C560,224,559,224,558,224C557,225,556,225,555,225C553,225,551,226,549,226C547,226,545,225,543,225C542,225,541,225,540,224C539,224,538,224,538,223C538,223,538,222,538,221V95C538,94,538,94,538,93C538,93,539,92,540,92C540,91,542,91,543,91C544,91,546,91,548,91C550,91,552,91,553,91C554,91,556,91,556,92C557,92,558,93,558,93C558,94,558,94,558,95V114C562,108,565,104,568,101C571,98,574,96,577,94C579,92,582,91,585,90C587,89,590,89,593,89C594,89,595,89,597,89C598,89,600,89,602,90C603,90,605,91,606,91C608,92,609,92,609,93C610,93,610,93,610,94C611,94,611,95,611,95C611,96,611,97,611,98C611,100,611,101,611,103zM712,187C712,193,711,199,708,204C706,209,702,213,698,217C694,220,688,223,682,225C676,226,670,227,662,227C658,227,654,227,650,226C645,226,642,225,639,224C635,223,633,221,630,220C628,219,627,218,626,217C624,216,624,215,623,213C623,212,623,209,623,206C623,205,623,203,623,202C623,201,623,200,624,199C624,198,624,198,625,197C625,197,626,197,627,197C628,197,629,197,631,199C633,200,636,201,638,203C641,204,645,206,649,207C653,208,658,209,663,209C667,209,670,208,673,208C677,207,679,206,682,204C684,202,686,200,687,198C688,195,689,192,689,189C689,185,688,182,686,180C684,177,682,175,679,173C676,171,673,170,669,168C665,167,661,165,657,164C653,162,650,160,646,158C642,156,639,154,636,151C633,148,630,145,628,141C627,137,626,132,626,126C626,121,627,117,629,112C630,108,633,104,637,100C641,97,646,94,651,92C657,90,664,89,672,89C675,89,678,89,682,90C685,90,688,91,691,92C693,93,696,94,698,95C700,96,701,96,702,97C703,98,704,99,704,99C704,100,705,100,705,101C705,102,705,103,705,104C705,105,705,106,705,107C705,109,705,110,705,111C705,113,705,114,704,114C704,115,704,116,703,116C703,116,702,116,702,116C701,116,700,116,698,115C696,114,694,113,692,112C689,110,686,109,683,108C680,107,676,107,671,107C667,107,664,107,661,108C658,109,655,110,654,112C652,114,650,115,649,118C648,120,648,122,648,125C648,129,649,132,651,134C652,137,655,139,658,141C661,143,664,144,668,146C672,147,676,149,680,150C684,152,688,154,692,156C695,158,699,160,702,163C705,166,707,169,709,173C711,177,712,182,712,187zM774,40C774,43,774,46,774,48C774,50,773,53,772,55C772,57,771,59,770,61C769,63,768,65,766,68L747,96C747,97,746,98,746,98C745,99,744,99,743,99C743,100,742,100,741,100C739,100,738,101,736,101C735,101,734,100,733,100C732,100,731,100,730,100C730,99,730,99,730,98C729,98,730,97,730,96L749,58V40C749,38,749,36,749,34C750,33,750,31,752,31C753,30,754,29,756,29C757,29,759,29,762,29C764,29,766,29,767,29C769,29,770,30,771,31C772,32,773,33,773,34C774,36,774,38,774,40zM824,40C824,43,824,46,824,48C824,50,823,53,823,55C822,57,821,59,820,61C819,63,818,65,816,68L797,96C797,97,796,98,796,98C795,99,794,99,794,99C793,100,792,100,791,100C790,100,788,101,786,101C785,101,784,100,783,100C782,100,781,100,781,100C780,99,780,99,780,98C780,98,780,97,780,96L799,58V40C799,38,799,36,799,34C800,33,801,31,802,31C803,30,804,29,806,29C807,29,809,29,812,29C814,29,816,29,817,29C819,29,820,30,821,31C822,32,823,33,824,34C824,36,824,38,824,40zM976,261C976,263,976,264,976,265C976,266,976,267,975,268C975,269,975,270,975,270C974,271,974,272,972,273C971,274,969,275,967,277C964,279,961,280,958,282C954,283,950,284,946,285C942,286,938,286,934,286C925,286,917,285,911,282C904,279,898,274,894,269C889,263,885,256,883,248C881,240,879,231,879,220C879,208,881,198,884,189C887,180,891,173,896,168C901,162,907,158,914,156C921,153,929,152,937,152C941,152,944,152,948,153C952,153,955,154,958,155C961,157,964,158,966,160C969,161,970,162,972,164C973,165,973,165,974,166C974,167,975,167,975,168C975,169,975,170,975,171C975,172,976,174,976,175C976,179,975,181,974,183C973,184,972,185,971,185C970,185,968,184,967,183C965,181,963,179,960,178C957,176,954,174,950,173C946,171,942,170,936,170C926,170,917,175,911,183C906,191,903,203,903,219C903,227,904,234,905,240C907,246,909,251,912,255C915,259,918,262,922,264C927,266,931,267,937,267C942,267,947,266,950,264C954,262,958,261,961,259C963,257,966,255,968,253C970,252,971,251,972,251C973,251,974,251,974,252C974,252,975,252,975,253C976,254,976,255,976,257C976,258,976,259,976,261zM988,498C988,499,988,499,987,500C987,500,987,501,986,501C985,501,984,502,982,502C981,502,979,502,977,502C975,502,973,502,971,502C970,502,969,501,968,501C967,501,966,500,966,500C966,499,966,499,966,498V426C966,419,965,414,964,409C963,405,961,401,959,398C957,395,954,393,951,391C948,390,944,389,940,389C934,389,928,391,923,395C917,399,911,405,905,412V498C905,499,905,499,905,500C904,500,904,501,903,501C902,501,901,502,899,502C898,502,896,502,894,502C892,502,890,502,888,502C887,502,886,501,885,501C884,501,883,500,883,500C883,499,883,499,883,498V316C883,315,883,315,883,314C883,314,884,313,885,313C886,312,887,312,888,312C890,312,892,312,894,312C896,312,898,312,899,312C901,312,902,312,903,313C904,313,904,314,905,314C905,315,905,315,905,316V389C911,383,918,378,925,374C931,371,938,369,944,369C952,369,959,371,965,373C970,376,975,380,978,384C982,389,984,395,986,401C987,407,988,414,988,423V498V498zM978,659C978,660,978,661,977,661C976,662,975,662,974,662C973,663,971,663,968,663C966,663,964,663,963,662C961,662,960,662,960,661C959,661,959,660,959,659V646C953,652,947,657,941,660C934,663,927,665,920,665C914,665,908,664,902,662C897,660,893,658,889,655C885,652,883,648,881,643C878,638,877,633,877,627C877,620,879,614,882,609C885,604,889,600,894,597C899,593,905,591,913,589C921,587,929,587,939,587H956V577C956,572,955,568,954,565C953,561,952,558,949,556C947,553,944,551,941,550C937,549,933,548,928,548C922,548,917,549,913,550C908,552,905,553,901,555C898,556,895,558,893,559C891,560,889,561,888,561C887,561,887,561,886,560C886,560,885,559,885,559C884,558,884,557,884,556C884,555,883,554,883,552C883,550,884,548,884,547C884,545,885,544,886,543C888,542,890,540,893,539C896,537,899,536,903,535C907,533,911,532,916,531C920,530,925,530,930,530C939,530,946,531,952,533C958,535,963,538,967,542C971,546,974,550,975,556C977,562,978,568,978,576V659zM956,603H937C930,603,925,603,920,604C916,605,912,607,909,609C906,611,904,613,903,616C901,619,900,622,900,626C900,633,903,638,907,641C911,645,916,647,924,647C929,647,935,646,940,642C945,639,950,635,956,629V603V603zM971,711C971,713,971,714,971,716C971,717,971,718,970,719C970,720,970,720,969,721C969,721,968,721,968,721C967,721,966,721,965,721C964,720,963,720,961,719C960,719,959,719,957,718C955,718,954,718,952,718C949,718,947,718,945,719C943,720,941,721,938,723C936,726,933,728,931,732C928,735,925,739,922,744V825C922,826,922,826,921,827C921,827,920,828,920,828C919,828,918,829,916,829C915,829,913,829,911,829C908,829,907,829,905,829C904,829,903,828,902,828C901,828,900,827,900,827C900,826,899,826,899,825V703C899,702,900,701,900,701C900,700,901,700,902,699C902,699,903,699,905,698C906,698,908,698,910,698C912,698,913,698,915,698C916,699,917,699,918,699C918,700,919,700,919,701C920,701,920,702,920,703V720C923,715,926,711,929,708C932,705,935,703,938,701C940,699,943,698,945,697C948,697,951,696,953,696C954,696,956,696,957,697C959,697,960,697,962,697C964,698,965,698,966,699C968,699,969,699,969,700C970,700,970,701,970,701C970,702,971,702,971,703C971,703,971,704,971,706C971,707,971,708,971,711zM971,948C971,954,970,959,968,964C965,969,962,973,958,977C953,980,948,983,943,984C937,986,930,987,923,987C919,987,915,986,911,986C907,985,903,984,900,983C897,982,894,981,892,980C890,979,888,978,887,977C886,976,886,975,885,973C885,971,884,969,884,966C884,965,885,963,885,962C885,961,885,960,885,959C886,958,886,958,887,958C887,957,888,957,888,957C889,957,891,958,893,959C895,960,897,962,900,963C903,964,906,966,910,967C914,968,918,969,924,969C927,969,931,968,934,968C937,967,940,966,942,964C944,962,946,960,947,958C948,956,949,953,949,949C949,946,948,943,946,941C945,938,942,936,939,934C936,932,933,931,930,929C926,928,922,927,918,925C914,923,911,922,907,920C903,918,900,915,897,913C894,910,892,906,890,903C888,899,887,894,887,889C887,884,888,879,890,875C892,870,895,867,899,863C902,860,907,857,913,855C918,853,925,852,932,852C935,852,939,853,942,853C945,854,948,854,951,855C953,856,956,857,957,858C959,859,961,860,962,860C963,861,963,862,964,862C964,863,964,863,964,864C964,865,965,866,965,867C965,868,965,869,965,870C965,872,965,873,965,874C965,875,964,876,964,877C964,878,963,878,963,879C962,879,962,879,961,879C961,879,959,879,958,878C956,877,954,876,952,874C949,873,946,872,943,871C940,870,936,870,932,870C928,870,925,870,922,871C919,872,916,873,915,875C913,876,911,878,910,880C909,882,909,885,909,887C909,891,910,894,912,896C914,899,916,901,919,903C922,904,925,906,929,908C932,909,936,910,940,912C944,914,948,915,952,917C955,919,959,921,961,924C964,927,967,930,969,934C970,938,971,942,971,948zM610,547L500,483V570C344,570,217,443,217,287H137C137,487,300,650,500,650V610V738L610,674L721,610L610,547z"/></svg>