<svg width="1000" height="1000" viewBox="0 0 1000 1000" xmlns="http://www.w3.org/2000/svg"><path d="M666,359C668,366,669,372,670,376C670,380,670,383,668,385C665,387,662,388,656,388C651,389,644,389,634,389C625,389,617,389,612,389C606,388,602,388,599,387C597,386,595,385,593,383C592,382,591,380,591,377L566,303H427L404,375C403,378,402,380,401,382C400,384,398,385,395,386C392,387,388,388,383,389C378,389,371,389,363,389C355,389,348,389,343,388C338,388,334,386,332,384C331,382,330,379,330,375C331,371,332,366,335,359L449,32C450,28,451,26,453,24C454,22,456,20,460,19C463,18,468,17,474,17C480,17,487,17,497,17C508,17,517,17,524,17C530,17,536,18,539,19C543,20,546,22,547,24C549,26,550,29,551,32L666,359zM496,89V89L444,246H548L496,89zM482,864C482,883,479,900,474,916C468,932,460,946,449,957C438,969,424,978,408,984C392,991,373,994,352,994C335,994,320,992,307,988C294,984,283,979,274,971C265,964,257,955,251,945C245,934,241,922,237,909C234,896,231,882,230,867C229,851,228,835,228,817C228,803,229,788,230,772C232,756,234,741,238,726C242,710,248,696,256,682C263,668,273,656,284,646C296,636,310,627,327,621C343,615,363,612,386,612C393,612,400,613,408,613C415,614,422,615,428,617C434,618,440,620,444,621C448,623,451,624,453,626C454,627,455,628,456,630C457,631,457,633,458,635C458,637,459,639,459,642C459,644,459,647,459,651C459,657,459,662,459,666C459,670,458,673,457,675C456,677,455,679,454,680C453,681,451,681,449,681C447,681,444,681,440,679C437,678,432,677,427,675C422,674,416,672,409,671C402,670,394,669,385,669C370,669,357,672,346,678C335,684,327,691,320,701C313,711,309,722,306,735C302,748,301,762,301,776C305,774,310,771,315,768C320,766,326,763,333,762C339,760,346,758,353,757C361,756,369,755,377,755C396,755,412,758,425,763C438,768,449,775,458,785C466,794,472,806,476,819C480,833,482,848,482,864zM409,871C409,862,408,853,406,846C404,839,402,832,398,827C394,822,389,818,383,816C377,813,369,812,360,812C355,812,349,813,344,813C339,814,334,816,329,817C324,819,319,821,315,824C310,826,306,828,302,831C302,851,303,868,306,882C308,896,311,906,316,914C320,922,326,928,332,931C339,935,347,936,356,936C365,936,372,935,379,932C386,928,391,924,395,918C400,912,403,905,405,897C408,889,409,881,409,871zM769,868C769,888,766,905,759,921C752,937,742,950,729,961C717,972,702,980,684,985C666,991,646,994,625,994C613,994,602,993,592,992C582,990,573,989,564,986C556,984,550,982,544,980C539,978,536,976,534,974C532,973,531,971,531,970C530,968,529,966,529,964C528,961,528,958,528,955C527,951,527,947,527,942C527,936,528,932,528,928C528,925,529,922,530,919C531,917,532,915,533,914C534,913,535,913,537,913C539,913,542,914,545,916C549,918,555,921,561,924C567,926,575,929,584,931C593,933,604,934,617,934C628,934,638,933,647,931C656,928,664,925,670,920C676,915,681,908,685,901C688,893,690,884,690,873C690,864,688,856,685,849C683,842,678,836,672,831C666,826,658,822,648,820C639,817,627,816,613,816C602,816,592,817,583,818C574,819,565,819,557,819C552,819,548,818,545,815C543,813,542,807,542,800V640C542,632,543,627,546,623C549,620,554,618,560,618H735C737,618,739,619,740,620C742,621,743,623,744,626C745,628,746,631,746,635C747,639,747,644,747,650C747,661,746,670,744,675C742,680,739,683,735,683H604V762C611,761,617,760,624,760C630,760,637,760,645,760C665,760,682,762,698,767C713,772,726,778,737,787C747,796,755,808,761,821C766,834,769,850,769,868zM538,505V376H462V505H391L446,574L500,644L554,574L609,505"/></svg>