<svg width="1000" height="1000" viewBox="0 0 1000 1000" xmlns="http://www.w3.org/2000/svg"><path d="M564,534V395H481V534H405L463,609L522,685L581,609L640,534M308,959C308,963,308,966,308,969C307,971,306,973,305,974C304,975,302,977,300,978C298,979,295,979,292,980C289,981,286,981,283,982C279,982,276,982,273,982C263,982,254,981,247,978C240,976,234,972,229,966C225,961,221,954,219,946C217,938,216,928,216,917V804H189C187,804,185,802,184,800C183,798,182,794,182,789C182,786,182,784,183,782C183,780,183,779,184,777C185,776,185,775,186,775C187,774,188,774,189,774H216V728C216,727,216,726,217,725C217,724,218,724,220,723C221,722,223,722,225,722C228,721,230,721,234,721C237,721,240,721,243,722C245,722,247,722,248,723C249,724,250,724,251,725C251,726,252,727,252,728V774H301C303,774,304,774,304,775C305,775,306,776,307,777C307,779,308,780,308,782C308,784,308,786,308,789C308,794,308,798,307,800C305,802,304,804,301,804H252V911C252,925,254,935,258,942C262,949,269,952,279,952C282,952,285,952,288,951C290,950,292,950,294,949C296,948,298,948,300,947C301,946,302,946,304,946C304,946,305,946,306,946C306,947,307,947,307,948C307,949,308,951,308,953C308,954,308,956,308,959zM516,868C516,874,514,878,512,880C509,882,506,884,502,884H374C374,894,376,904,378,913C380,921,384,929,389,935C394,941,400,946,408,949C416,952,426,954,438,954C447,954,455,953,462,952C470,950,476,948,481,947C486,945,491,943,494,941C498,940,500,939,502,939C503,939,504,939,504,940C505,940,506,941,506,942C507,943,507,945,507,946C508,948,508,950,508,953C508,955,508,956,507,958C507,959,507,960,507,961C507,963,506,964,506,964C505,965,505,966,504,967C503,968,501,969,497,971C493,973,488,974,482,976C476,978,469,979,460,981C452,982,444,983,435,983C419,983,405,980,393,976C381,972,371,965,362,956C354,947,348,937,344,923C340,910,338,895,338,877C338,861,340,846,344,832C348,819,355,808,363,799C371,789,381,782,392,777C404,772,416,770,431,770C446,770,459,772,469,777C480,782,489,789,496,797C503,805,508,815,511,826C514,837,516,849,516,862V868zM480,858C481,839,476,824,468,814C459,803,446,798,429,798C420,798,412,799,406,803C399,806,393,810,389,816C385,821,381,828,379,835C376,842,375,850,374,858H480zM710,969C711,971,712,973,712,974C712,976,711,977,709,978C708,978,706,979,703,979C700,980,697,980,692,980C688,980,685,980,682,980C680,979,678,979,676,978C675,978,673,977,673,977C672,976,671,975,671,974L624,897L578,974C577,975,577,976,576,977C575,977,574,978,572,978C571,979,569,979,567,980C564,980,561,980,557,980C553,980,549,980,547,979C544,979,542,978,541,978C540,977,539,976,539,974C539,973,540,971,541,969L601,875L544,784C543,782,543,780,543,779C543,777,543,776,545,775C546,774,548,774,551,773C554,773,557,773,562,773C566,773,569,773,572,773C574,774,576,774,578,774C579,775,580,775,581,776C582,777,582,778,583,779L627,851L672,779C672,778,673,777,674,776C674,775,675,775,677,774C678,774,680,774,682,773C684,773,687,773,691,773C695,773,698,773,701,773C704,774,706,774,707,775C708,776,709,777,709,778C709,780,708,782,707,784L650,874L710,969zM856,959C856,963,856,966,855,969C854,971,854,973,852,974C851,975,850,977,847,978C845,979,842,979,839,980C836,981,833,981,830,982C827,982,823,982,820,982C810,982,801,981,794,978C787,976,781,972,777,966C772,961,769,954,767,946C765,938,764,928,764,917V804H736C734,804,733,802,731,800C730,798,729,794,729,789C729,786,730,784,730,782C730,780,731,779,731,777C732,776,733,775,734,775C734,774,736,774,737,774H764V728C764,727,764,726,764,725C765,724,766,724,767,723C768,722,770,722,773,722C775,721,778,721,781,721C785,721,788,721,790,722C792,722,794,722,795,723C797,724,798,724,798,725C799,726,799,727,799,728V774H849C850,774,851,774,852,775C853,775,853,776,854,777C855,779,855,780,855,782C856,784,856,786,856,789C856,794,855,798,854,800C853,802,851,804,849,804H799V911C799,925,801,935,805,942C809,949,816,952,826,952C829,952,832,952,835,951C838,950,840,950,842,949C844,948,846,948,847,947C848,946,850,946,851,946C852,946,852,946,853,946C854,947,854,947,854,948C855,949,855,951,855,953C856,954,856,956,856,959zM312,30C312,33,312,36,311,38C311,40,311,41,310,42C309,44,309,44,308,45C307,46,306,46,305,46H226V287C226,288,226,289,225,290C225,291,224,292,222,292C221,293,219,293,217,294C214,294,211,294,208,294C204,294,201,294,199,294C196,293,195,293,193,292C192,292,191,291,190,290C190,289,189,288,189,287V46H111C110,46,109,46,108,45C107,44,106,44,106,42C105,41,105,40,104,38C104,36,104,33,104,30C104,28,104,25,104,23C105,21,105,19,106,18C106,17,107,16,108,15C109,15,110,15,111,15H305C306,15,307,15,308,15C309,16,309,17,310,18C311,19,311,21,311,23C312,25,312,28,312,30zM497,278C497,280,497,282,497,284C496,286,496,288,495,289C495,290,494,291,493,292C492,293,491,293,490,293H356C353,293,350,292,347,290C344,287,342,283,342,278V30C342,24,344,20,347,18C350,16,353,15,356,15H488C489,15,490,15,491,15C492,16,493,17,494,18C494,19,495,21,495,23C495,25,495,27,495,30C495,33,495,35,495,37C495,39,494,41,494,42C493,43,492,44,491,44C490,45,489,45,488,45H379V133H473C474,133,475,133,476,134C477,134,478,135,478,136C479,137,479,139,480,141C480,143,480,145,480,148C480,151,480,153,480,155C479,157,479,158,478,159C478,160,477,161,476,162C475,162,474,162,473,162H379V262H490C491,262,492,262,493,263C494,264,495,264,495,266C496,267,496,268,497,270C497,272,497,275,497,278zM725,279C727,283,728,285,728,287C729,289,728,290,727,291C726,293,723,293,721,294C718,294,714,294,709,294C704,294,701,294,698,294C696,294,693,293,692,293C690,292,689,291,689,291C688,290,687,289,686,287L625,177L562,287C561,289,560,290,560,291C559,292,558,292,556,293C555,293,552,294,550,294C547,294,544,294,540,294C535,294,531,294,528,294C526,293,524,293,523,291C522,290,521,289,522,287C522,285,523,283,525,279L601,152L528,28C527,25,526,22,525,20C525,18,525,17,526,16C527,15,529,14,532,14C535,13,539,13,544,13C548,13,552,13,554,14C557,14,559,14,561,15C562,15,564,16,564,17C565,18,566,19,567,20L626,124L686,20C687,19,687,18,688,17C689,16,690,15,691,15C692,14,694,14,697,14C699,13,703,13,707,13C711,13,715,13,718,14C720,14,722,15,724,16C725,17,725,18,725,20C725,22,724,25,722,28L650,151L725,279zM941,30C941,33,941,36,941,38C940,40,940,41,939,42C939,44,938,44,937,45C936,46,935,46,934,46H855V287C855,288,855,289,855,290C854,291,853,292,852,292C850,293,848,293,846,294C844,294,841,294,837,294C834,294,831,294,828,294C826,293,824,293,822,292C821,292,820,291,819,290C819,289,819,288,819,287V46H740C739,46,738,46,737,45C736,44,735,44,735,42C734,41,734,40,733,38C733,36,733,33,733,30C733,28,733,25,733,23C734,21,734,19,735,18C735,17,736,16,737,15C738,15,739,15,740,15H934C935,15,936,15,937,15C938,16,939,17,939,18C940,19,940,21,941,23C941,25,941,28,941,30z"/></svg>