<svg width="1000" height="1000" viewBox="0 0 1000 1000" xmlns="http://www.w3.org/2000/svg"><path d="M232,564C232,578,230,590,225,600C220,610,212,619,203,626C194,633,183,638,170,641C158,645,144,646,129,646C120,646,112,646,104,644C96,643,89,641,82,639C76,637,70,635,66,633C62,631,59,629,57,627C55,625,53,622,52,618C51,614,51,608,51,601C51,595,51,591,51,588C52,585,52,583,53,581C54,579,54,578,56,577C57,576,58,576,60,576C61,576,64,577,68,579C72,582,77,584,82,587C88,589,95,592,102,594C110,597,118,598,128,598C134,598,139,597,144,596C149,595,153,593,156,590C160,588,162,585,164,582C166,578,167,574,167,569C167,564,165,560,162,556C159,552,154,549,149,546C144,543,137,540,131,538C124,535,117,532,109,529C102,526,95,523,88,519C82,515,75,510,70,505C65,499,60,492,57,484C54,476,52,467,52,455C52,444,54,434,59,424C63,415,70,406,78,400C86,393,96,388,108,384C120,380,134,378,149,378C156,378,163,379,171,380C178,381,184,382,190,384C195,386,200,387,204,389C208,391,211,393,212,394C214,395,215,397,216,398C217,399,217,401,218,403C218,405,218,407,218,410C219,412,219,416,219,420C219,425,219,429,218,432C218,435,218,437,217,439C217,441,216,442,215,442C214,443,212,443,211,443C209,443,207,442,203,441C200,439,196,437,191,435C186,432,180,430,173,429C167,427,159,426,150,426C144,426,139,426,135,428C130,429,127,431,124,433C121,435,119,438,117,441C116,444,115,448,115,451C115,457,117,461,120,465C124,469,128,472,134,475C139,478,145,480,152,483C159,485,167,488,174,491C181,494,188,497,195,501C202,505,208,510,214,516C219,521,224,528,227,536C231,544,232,553,232,564zM508,631C508,633,508,635,507,636C506,637,504,638,502,639C500,640,497,641,493,641C490,642,485,642,480,642C474,642,469,642,465,641C462,641,459,640,457,639C454,638,453,637,452,636C451,635,451,633,451,631V604C438,618,424,629,411,636C397,643,383,646,368,646C352,646,338,644,327,638C316,633,307,626,300,617C293,607,289,597,286,584C283,572,281,557,281,539V394C281,392,282,390,283,389C284,388,285,386,288,386C291,385,294,384,298,384C303,383,308,383,315,383C321,383,327,383,331,384C335,384,338,385,341,386C344,386,345,388,347,389C348,390,348,392,348,394V528C348,540,349,550,351,556C352,563,355,569,358,573C361,578,365,582,370,584C375,587,381,588,388,588C397,588,405,585,414,579C422,573,432,563,441,552V394C441,392,442,390,443,389C444,388,446,386,448,386C451,385,454,384,458,384C463,383,468,383,475,383C481,383,487,383,491,384C495,384,499,385,501,386C504,386,505,388,506,389C508,390,508,392,508,394V631zM954,631C954,633,953,635,952,636C951,637,949,638,947,639C944,640,941,641,937,641C932,642,927,642,920,642C914,642,908,642,904,641C900,641,896,640,894,639C891,638,889,637,888,636C887,635,887,633,887,631V490C887,482,886,475,884,468C883,462,881,456,878,452C874,447,870,443,866,441C861,438,855,437,849,437C841,437,833,440,825,446C816,452,808,461,798,473V631C798,633,797,635,796,636C795,637,793,638,791,639C788,640,785,641,781,641C776,642,771,642,765,642C758,642,753,642,748,641C744,641,741,640,738,639C736,638,734,637,733,636C732,635,731,633,731,631V490C731,482,730,475,729,468C727,462,725,456,722,452C719,447,715,443,710,441C706,438,700,437,694,437C685,437,677,440,669,446C661,452,652,461,643,473V631C643,633,642,635,641,636C640,637,638,638,636,639C633,640,630,641,625,641C621,642,616,642,609,642C602,642,597,642,593,641C589,641,585,640,583,639C580,638,578,637,577,636C576,635,575,633,575,631V394C575,392,576,390,577,389C578,388,579,386,582,386C584,385,587,384,591,384C594,383,599,383,604,383C610,383,615,383,618,384C622,384,625,385,627,386C629,386,631,388,631,389C632,390,633,392,633,394V421C646,407,659,396,672,389C685,382,699,378,713,378C723,378,732,379,739,381C747,383,754,386,760,390C766,394,772,399,776,404C781,409,784,415,787,422C794,414,801,408,808,402C815,397,822,392,829,389C835,385,842,383,849,381C855,379,862,378,869,378C885,378,898,381,909,386C920,392,928,399,935,408C942,417,947,428,949,440C952,452,954,465,954,479V631z"/></svg>