<svg width="1000" height="1000" viewBox="0 0 1000 1000" xmlns="http://www.w3.org/2000/svg"><path d="M564,494V355H481V494H405L463,569L522,645L581,569L640,494M367,110C371,110,374,111,376,113C377,115,378,118,378,122V309C378,311,378,312,377,312C377,313,376,314,374,314C373,315,371,315,369,316C367,316,364,316,361,316C357,316,354,316,352,316C350,315,348,315,346,314C345,314,344,313,343,312C343,312,343,311,343,309V140H243V248C243,261,245,271,248,278C252,285,259,288,270,288C273,288,276,288,278,287C281,287,283,286,285,285C287,284,289,284,291,283C292,282,293,282,294,282C295,282,296,282,296,283C297,283,298,284,298,285C298,286,299,287,299,289C299,291,299,293,299,295C299,299,299,303,298,305C298,307,297,309,296,310C295,312,293,313,291,314C288,315,286,316,283,316C280,317,277,317,274,318C270,318,267,318,264,318C254,318,245,317,238,314C231,312,225,308,220,302C216,297,212,290,210,282C208,274,207,264,207,253V140H180C178,140,176,139,175,136C174,134,173,130,173,125C173,122,173,120,173,118C174,116,174,115,175,114C175,112,176,112,177,111C178,111,179,110,180,110H207V64C207,63,207,62,208,61C208,61,209,60,211,59C212,59,214,58,216,58C218,57,221,57,225,57C228,57,231,57,234,58C236,58,238,59,239,59C240,60,241,61,242,61C242,62,243,63,243,64V110H367zM382,50C382,59,381,64,378,67C374,70,369,72,360,72C352,72,346,71,343,68C340,65,338,59,338,51C338,43,340,37,343,34C346,31,352,29,361,29C369,29,375,31,378,34C381,37,382,42,382,50zM545,295C545,299,544,303,544,305C543,308,542,309,541,311C540,312,538,313,536,314C534,315,531,316,528,316C525,317,522,317,519,318C516,318,512,318,509,318C499,318,490,317,483,314C476,312,470,308,466,302C461,297,458,290,456,282C453,274,452,264,452,253V140H425C423,140,421,139,420,136C419,134,418,130,418,125C418,122,418,120,419,118C419,116,420,115,420,114C421,112,422,112,422,111C423,111,424,110,426,110H452V64C452,63,453,62,453,61C454,61,455,60,456,59C457,59,459,58,461,58C464,57,467,57,470,57C474,57,477,57,479,58C481,58,483,59,484,59C486,60,487,61,487,61C488,62,488,63,488,64V110H538C539,110,540,111,541,111C542,112,542,112,543,114C544,115,544,116,544,118C545,120,545,122,545,125C545,130,544,134,543,136C542,139,540,140,538,140H488V248C488,261,490,271,494,278C498,285,505,288,515,288C518,288,521,288,524,287C526,287,529,286,531,285C533,284,534,284,536,283C537,282,539,282,540,282C540,282,541,282,542,283C542,283,543,284,543,285C544,286,544,287,544,289C545,291,545,293,545,295zM627,309C627,311,627,312,626,312C626,313,625,314,623,314C622,315,620,315,618,316C616,316,613,316,609,316C606,316,603,316,601,316C598,315,597,315,595,314C594,314,593,313,592,312C592,312,592,311,592,309V22C592,21,592,20,592,19C593,18,594,17,595,17C597,16,598,16,601,16C603,15,606,15,609,15C613,15,616,15,618,16C620,16,622,16,623,17C625,17,626,18,626,19C627,20,627,21,627,22V309zM858,204C858,210,856,214,854,216C851,219,848,220,844,220H717C717,230,718,240,720,249C722,257,726,265,731,271C736,277,742,282,750,285C758,288,768,290,780,290C789,290,797,289,805,288C812,286,818,285,823,283C828,281,833,279,836,278C840,276,842,275,844,275C845,275,846,276,847,276C847,277,848,277,848,278C849,279,849,281,849,283C850,284,850,287,850,289C850,291,850,293,849,294C849,295,849,297,849,298C849,299,848,300,848,301C847,301,847,302,846,303C845,304,843,305,839,307C835,309,830,311,824,312C818,314,811,315,802,317C794,318,786,319,777,319C761,319,747,317,735,312C723,308,713,301,705,292C696,284,690,273,686,260C682,246,680,231,680,214C680,197,682,182,686,169C691,155,697,144,705,135C713,126,723,119,734,114C746,109,759,106,773,106C788,106,801,109,812,113C822,118,831,125,838,133C845,141,850,151,853,162C856,173,858,185,858,198V204zM822,194C823,175,818,160,810,150C801,139,788,134,771,134C762,134,754,136,748,139C741,142,736,147,731,152C727,157,723,164,721,171C718,178,717,186,717,194H822zM352,724C352,727,352,729,351,731C351,733,351,735,350,736C349,737,348,738,348,739C347,739,346,740,344,740H266V981C266,982,266,983,265,984C265,985,264,986,262,986C261,987,259,987,257,987C254,988,251,988,248,988C244,988,241,988,239,987C236,987,234,987,233,986C232,986,231,985,230,984C229,983,229,982,229,981V740H151C150,740,149,739,148,739C147,738,146,737,145,736C145,735,144,733,144,731C144,729,144,727,144,724C144,722,144,719,144,717C144,715,145,713,145,712C146,711,147,710,148,709C149,709,150,708,151,708H344C346,708,347,709,348,709C348,710,349,711,350,712C351,713,351,715,351,717C352,719,352,722,352,724zM427,722C427,731,426,736,423,739C420,742,414,744,405,744C397,744,391,742,388,739C385,737,384,731,384,723C384,714,385,709,388,706C391,703,397,701,406,701C414,701,420,703,423,706C426,709,427,714,427,722zM423,981C423,982,423,983,422,984C422,985,421,986,420,986C418,987,417,987,414,988C412,988,409,988,405,988C402,988,399,988,397,988C395,987,393,987,391,986C390,986,389,985,389,984C388,983,388,982,388,981V788C388,787,388,786,389,785C389,784,390,783,391,783C393,782,395,782,397,781C399,781,402,781,405,781C409,781,412,781,414,781C417,782,418,782,420,783C421,783,422,784,422,785C423,786,423,787,423,788V981zM570,967C570,971,570,975,569,977C569,979,568,981,567,982C566,984,564,985,562,986C559,987,557,987,554,988C551,989,548,989,544,990C541,990,538,990,535,990C524,990,516,989,509,986C502,984,496,980,491,974C486,969,483,962,481,954C479,946,478,936,478,925V812H451C449,812,447,810,446,808C444,806,444,802,444,797C444,794,444,792,444,790C445,788,445,787,446,785C446,784,447,783,448,783C449,782,450,782,451,782H478V736C478,735,478,734,479,733C479,732,480,732,481,731C483,730,485,730,487,730C489,729,492,729,496,729C499,729,502,729,504,730C507,730,508,730,510,731C511,732,512,732,513,733C513,734,513,735,513,736V782H563C564,782,565,782,566,783C567,783,568,784,568,785C569,787,569,788,570,790C570,792,570,794,570,797C570,802,570,806,568,808C567,810,565,812,563,812H513V920C513,933,515,943,519,950C523,957,530,960,541,960C544,960,547,960,549,959C552,958,554,958,556,957C558,956,560,956,561,955C563,954,564,954,565,954C566,954,567,954,567,955C568,955,568,956,569,957C569,958,569,959,570,961C570,962,570,965,570,967zM653,981C653,982,652,983,652,984C651,985,650,986,649,986C648,987,646,987,644,988C641,988,638,988,635,988C631,988,628,988,626,988C624,987,622,987,621,986C619,986,618,985,618,984C617,983,617,982,617,981V694C617,693,617,692,618,691C618,690,619,689,621,689C622,688,624,688,626,688C628,687,631,687,635,687C638,687,641,687,644,688C646,688,648,688,649,689C650,689,651,690,652,691C652,692,653,693,653,694V981zM883,876C883,882,882,886,879,888C876,890,873,892,870,892H742C742,902,743,912,745,921C747,929,751,937,756,943C761,949,768,954,776,957C784,960,794,962,805,962C815,962,823,961,830,960C837,958,843,956,849,955C854,953,858,951,862,950C865,948,868,947,869,947C870,947,871,948,872,948C873,949,873,949,874,950C874,951,875,953,875,955C875,956,875,959,875,961C875,963,875,965,875,966C875,967,875,968,874,970C874,971,874,972,873,972C873,973,872,974,871,975C871,976,868,977,864,979C861,981,856,982,849,984C843,986,836,987,828,989C820,990,811,991,802,991C786,991,772,989,760,984C748,980,738,973,730,964C722,956,716,945,712,931C707,918,705,903,705,885C705,869,707,854,712,841C716,827,722,816,730,807C738,798,748,790,760,785C771,781,784,778,798,778C813,778,826,781,837,785C848,790,856,797,863,805C870,813,875,823,879,834C882,845,883,857,883,870V876zM848,866C848,847,844,832,835,822C826,811,814,806,796,806C788,806,780,807,773,811C767,814,761,818,757,824C752,829,749,836,746,843C744,850,742,858,742,866H848z"/></svg>