<svg width="1000" height="1000" viewBox="0 0 1000 1000" xmlns="http://www.w3.org/2000/svg"><path d="M564,494V355H481V494H405L463,569L522,645L581,569L640,494M308,255C308,259,308,263,308,265C307,268,306,269,305,270C304,272,302,273,300,274C298,275,295,276,292,276C289,277,286,277,283,278C279,278,276,278,273,278C263,278,254,277,247,274C240,272,234,268,229,262C225,257,221,250,219,242C217,234,216,224,216,213V100H189C187,100,185,99,184,96C183,94,182,90,182,85C182,82,182,80,183,78C183,76,183,75,184,74C185,72,185,71,186,71C187,70,188,70,189,70H216V24C216,23,216,22,217,21C217,21,218,20,220,19C221,19,223,18,225,18C228,17,230,17,234,17C237,17,240,17,243,18C245,18,247,19,248,19C249,20,250,21,251,21C251,22,252,23,252,24V70H301C303,70,304,70,304,71C305,71,306,72,307,74C307,75,308,76,308,78C308,80,308,82,308,85C308,90,308,94,307,96C305,99,304,100,301,100H252V208C252,221,254,231,258,238C262,245,269,248,279,248C282,248,285,248,288,247C290,246,292,246,294,245C296,244,298,244,300,243C301,242,302,242,304,242C304,242,305,242,306,243C306,243,307,244,307,245C307,246,308,247,308,249C308,250,308,253,308,255zM516,164C516,170,514,174,512,176C509,179,506,180,502,180H374C374,190,376,200,378,209C380,217,384,225,389,231C394,237,400,242,408,245C416,248,426,250,438,250C447,250,455,249,462,248C470,246,476,245,481,243C486,241,491,239,494,238C498,236,500,235,502,235C503,235,504,236,504,236C505,237,506,237,506,238C507,239,507,241,507,243C508,244,508,247,508,249C508,251,508,253,507,254C507,255,507,257,507,258C507,259,506,260,506,261C505,261,505,262,504,263C503,264,501,265,497,267C493,269,488,270,482,272C476,274,469,275,460,277C452,278,444,279,435,279C419,279,405,277,393,272C381,268,371,261,362,252C354,244,348,233,344,219C340,206,338,191,338,173C338,157,340,142,344,129C348,115,355,104,363,95C371,86,381,79,392,74C404,69,416,66,431,66C446,66,459,69,469,73C480,78,489,85,496,93C503,101,508,111,511,122C514,133,516,145,516,158V164zM480,154C481,135,476,120,468,110C459,99,446,94,429,94C420,94,412,96,406,99C399,102,393,107,389,112C385,117,381,124,379,131C376,138,375,146,374,154H480zM710,265C711,267,712,269,712,270C712,272,711,273,709,274C708,275,706,275,703,276C700,276,697,276,692,276C688,276,685,276,682,276C680,276,678,275,676,275C675,274,673,274,673,273C672,272,671,271,671,270L624,193L578,270C577,271,577,272,576,273C575,274,574,274,572,275C571,275,569,276,567,276C564,276,561,276,557,276C553,276,549,276,547,276C544,275,542,275,541,274C540,273,539,272,539,270C539,269,540,267,541,265L601,171L544,80C543,78,543,76,543,75C543,73,543,72,545,71C546,70,548,70,551,70C554,69,557,69,562,69C566,69,569,69,572,69C574,70,576,70,578,70C579,71,580,71,581,72C582,73,582,74,583,75L627,147L672,75C672,74,673,73,674,72C674,72,675,71,677,71C678,70,680,70,682,69C684,69,687,69,691,69C695,69,698,69,701,70C704,70,706,70,707,71C708,72,709,73,709,75C709,76,708,78,707,80L650,170L710,265zM856,255C856,259,856,263,855,265C854,268,854,269,852,270C851,272,850,273,847,274C845,275,842,276,839,276C836,277,833,277,830,278C827,278,823,278,820,278C810,278,801,277,794,274C787,272,781,268,777,262C772,257,769,250,767,242C765,234,764,224,764,213V100H736C734,100,733,99,731,96C730,94,729,90,729,85C729,82,730,80,730,78C730,76,731,75,731,74C732,72,733,71,734,71C734,70,736,70,737,70H764V24C764,23,764,22,764,21C765,21,766,20,767,19C768,19,770,18,773,18C775,17,778,17,781,17C785,17,788,17,790,18C792,18,794,19,795,19C797,20,798,21,798,21C799,22,799,23,799,24V70H849C850,70,851,70,852,71C853,71,853,72,854,74C855,75,855,76,855,78C856,80,856,82,856,85C856,90,855,94,854,96C853,99,851,100,849,100H799V208C799,221,801,231,805,238C809,245,816,248,826,248C829,248,832,248,835,247C838,246,840,246,842,245C844,244,846,244,847,243C848,242,850,242,851,242C852,242,852,242,853,243C854,243,854,244,854,245C855,246,855,247,855,249C856,250,856,253,856,255zM312,724C312,727,312,729,311,731C311,733,311,735,310,736C309,737,309,738,308,739C307,740,306,740,305,740H226V981C226,982,226,983,225,984C225,985,224,986,222,986C221,987,219,987,217,987C214,988,211,988,208,988C204,988,201,988,199,987C196,987,195,987,193,986C192,986,191,985,190,984C190,983,189,982,189,981V740H111C110,740,109,740,108,739C107,738,106,737,106,736C105,735,105,733,104,731C104,729,104,727,104,724C104,722,104,719,104,717C105,715,105,713,106,712C106,711,107,710,108,709C109,709,110,708,111,708H305C306,708,307,709,308,709C309,710,309,711,310,712C311,713,311,715,311,717C312,719,312,722,312,724zM497,971C497,974,497,976,497,978C496,980,496,982,495,983C495,984,494,985,493,986C492,986,491,987,490,987H356C353,987,350,986,347,983C344,981,342,977,342,972V723C342,718,344,714,347,712C350,709,353,708,356,708H488C489,708,490,709,491,709C492,710,493,711,494,712C494,713,495,715,495,717C495,719,495,721,495,724C495,727,495,729,495,731C495,733,494,734,494,736C493,737,492,738,491,738C490,739,489,739,488,739H379V826H473C474,826,475,827,476,827C477,828,478,829,478,830C479,831,479,833,480,835C480,837,480,839,480,842C480,845,480,847,480,849C479,850,479,852,478,853C478,854,477,855,476,856C475,856,474,856,473,856H379V956H490C491,956,492,956,493,957C494,957,495,958,495,959C496,961,496,962,497,964C497,966,497,969,497,971zM725,973C727,977,728,979,728,981C729,983,728,984,727,985C726,986,723,987,721,987C718,988,714,988,709,988C704,988,701,988,698,988C696,987,693,987,692,986C690,986,689,985,689,984C688,984,687,983,686,981L625,871L562,981C561,983,560,984,560,985C559,985,558,986,556,987C555,987,552,987,550,988C547,988,544,988,540,988C535,988,531,988,528,987C526,987,524,986,523,985C522,984,521,983,522,981C522,979,523,977,525,973L601,845L528,722C527,719,526,716,525,714C525,712,525,711,526,710C527,708,529,708,532,708C535,707,539,707,544,707C548,707,552,707,554,707C557,708,559,708,561,708C562,709,564,710,564,711C565,712,566,713,567,714L626,818L686,714C687,713,687,712,688,711C689,710,690,709,691,708C692,708,694,708,697,707C699,707,703,707,707,707C711,707,715,707,718,708C720,708,722,709,724,710C725,711,725,712,725,714C725,716,724,719,722,722L650,845L725,973zM941,724C941,727,941,729,941,731C940,733,940,735,939,736C939,737,938,738,937,739C936,740,935,740,934,740H855V981C855,982,855,983,855,984C854,985,853,986,852,986C850,987,848,987,846,987C844,988,841,988,837,988C834,988,831,988,828,987C826,987,824,987,822,986C821,986,820,985,819,984C819,983,819,982,819,981V740H740C739,740,738,740,737,739C736,738,735,737,735,736C734,735,734,733,733,731C733,729,733,727,733,724C733,722,733,719,733,717C734,715,734,713,735,712C735,711,736,710,737,709C738,709,739,708,740,708H934C935,708,936,709,937,709C938,710,939,711,939,712C940,713,940,715,941,717C941,719,941,722,941,724z"/></svg>