<svg width="1000" height="1000" viewBox="0 0 1000 1000" xmlns="http://www.w3.org/2000/svg"><path d="M767,643C775,643,781,644,786,644C791,644,795,644,798,645C801,646,803,646,805,647C806,648,807,648,808,649C809,652,811,654,811,656C812,658,812,660,812,663C812,671,808,678,801,683C794,689,783,693,769,696C755,699,737,701,716,703C695,704,668,705,634,705H558C540,705,525,705,514,706C503,707,494,708,485,710C477,711,470,714,464,716C459,719,455,722,453,726C453,727,452,728,450,729C449,730,446,730,443,731C440,731,436,732,431,732C425,732,419,732,411,732C403,732,396,732,391,732C386,732,381,732,378,731C375,731,373,730,371,729C370,729,369,728,368,727C365,720,355,714,338,710C321,707,296,705,263,705H206C172,705,145,704,124,703C103,701,86,699,71,696C57,693,46,688,39,683C32,678,28,671,28,663C28,660,29,658,29,656C30,654,31,652,33,649C33,648,34,648,35,647C37,646,39,646,42,645C45,644,49,644,54,644C59,644,65,643,73,643C80,643,87,644,92,644C97,644,101,645,104,645C107,646,110,646,111,647C112,648,113,649,113,650V655C114,658,115,660,118,662C120,663,124,665,131,666C137,667,146,668,156,668C167,669,184,669,206,669H261C284,669,303,669,318,671C333,672,347,673,359,676C372,679,383,682,391,686C400,690,407,695,411,701C414,695,421,690,430,686C438,682,449,679,462,676C474,673,488,672,503,671C519,669,537,669,560,669H634C656,669,673,669,683,668C694,668,703,667,709,666C715,665,720,664,722,662C725,661,727,659,727,657V651C727,650,728,648,729,647C731,646,733,645,736,645C739,644,743,644,748,644C753,644,760,643,767,643zM283,415C283,416,282,418,282,420C282,422,281,425,280,428L235,580C235,582,234,583,233,585C232,586,230,587,228,588C226,589,223,589,220,589C216,590,211,590,205,590C198,590,194,589,190,589C186,589,183,588,181,588C178,587,177,586,176,584C175,583,174,582,174,580L145,478V476V478L119,580C118,582,118,583,117,585C116,586,114,587,112,588C110,589,107,589,103,589C99,590,94,590,88,590C81,590,76,589,73,589C69,589,66,588,64,588C61,587,60,586,59,584C58,583,57,582,57,580L12,428C11,425,11,422,10,420C10,418,10,416,10,415C10,413,10,412,11,411C11,410,13,410,15,409C16,409,19,408,22,408C25,408,29,408,33,408C38,408,42,408,46,408C49,408,51,409,53,409C55,410,56,411,57,412C57,413,58,414,58,416L91,538L92,541V538L123,416C123,414,124,413,125,412C126,411,127,410,129,409C130,409,132,408,135,408C138,408,142,408,147,408C151,408,155,408,158,408C161,408,163,409,165,409C166,410,168,411,168,412C169,412,170,414,170,415L203,538L204,541V538L236,416C236,414,237,413,238,412C238,411,240,410,241,409C243,409,245,408,248,408C251,408,255,408,260,408C265,408,268,408,271,408C274,408,276,409,278,409C280,410,281,410,282,411C282,412,283,413,283,415zM479,497C479,511,477,524,473,536C469,548,463,558,456,566C448,575,439,581,427,586C416,591,402,593,387,593C372,593,359,591,348,587C337,583,328,577,321,569C314,561,308,551,305,540C301,528,299,515,299,500C299,486,301,473,305,461C309,449,315,439,322,431C330,422,339,416,351,411C362,407,376,404,391,404C406,404,419,406,430,410C441,414,450,420,457,428C464,436,470,446,473,457C477,469,479,482,479,497zM430,499C430,491,429,483,428,476C427,469,425,463,421,458C418,453,414,449,409,446C404,443,397,442,389,442C382,442,376,443,371,445C366,448,361,452,358,457C355,462,352,468,350,475C349,481,348,489,348,498C348,506,349,514,350,521C351,528,354,534,357,539C360,544,364,548,369,551C374,554,381,555,389,555C396,555,402,554,407,551C412,549,417,545,420,540C423,535,426,529,428,522C429,516,430,508,430,499zM623,431C623,435,623,439,623,442C623,445,622,447,622,448C621,450,621,451,620,452C619,452,618,453,617,453C616,453,614,452,613,452C612,452,611,451,609,451C607,450,606,450,604,449C602,449,600,449,598,449C595,449,592,449,590,450C587,451,584,453,582,455C579,457,576,460,573,464C570,468,567,472,563,478V582C563,583,563,584,562,585C561,586,560,587,558,588C556,588,554,589,551,589C548,589,544,590,539,590C535,590,531,589,528,589C525,589,523,588,521,588C519,587,518,586,517,585C516,584,516,583,516,582V415C516,414,516,413,517,412C517,411,519,410,520,409C522,409,524,408,526,408C529,408,532,408,536,408C540,408,543,408,546,408C549,408,551,409,552,409C554,410,555,411,555,412C556,413,556,414,556,415V436C560,430,565,424,568,420C572,416,576,413,580,411C583,408,587,407,590,406C594,405,597,404,601,404C602,404,604,404,606,405C608,405,610,405,612,406C614,406,615,406,617,407C618,408,619,408,620,409C621,409,621,410,622,411C622,412,622,413,622,414C623,415,623,417,623,420C623,423,623,426,623,431zM806,582C806,584,806,585,805,586C804,587,803,587,802,588C800,589,798,589,796,589C793,590,790,590,786,590C782,590,779,590,777,589C774,589,772,589,771,588C769,587,768,587,767,586C766,585,766,584,766,582V564C758,573,748,580,739,585C730,590,719,593,708,593C695,593,684,590,675,585C667,580,659,574,654,565C648,557,644,547,642,536C639,525,638,513,638,501C638,486,640,473,643,461C646,449,651,439,657,430C663,422,670,416,680,411C689,407,699,404,711,404C720,404,729,406,737,410C744,414,752,419,759,427V336C759,335,760,334,760,333C761,332,762,331,764,330C766,330,768,329,771,329C774,328,778,328,783,328C787,328,791,328,794,329C797,329,799,330,801,330C803,331,804,332,805,333C806,334,806,335,806,336V582zM759,470C752,462,746,455,740,451C734,446,727,444,720,444C714,444,709,446,705,449C700,452,697,456,694,461C691,466,689,472,688,478C687,485,686,491,686,498C686,505,686,511,688,518C689,525,691,531,693,536C696,541,699,545,703,548C708,551,713,553,719,553C723,553,726,552,729,552C732,551,735,549,738,547C741,545,745,542,748,539C752,535,755,531,759,526V470zM992,403C992,414,991,423,988,431C985,439,981,446,975,452C970,458,964,463,956,467C949,471,941,473,932,474L930,510C930,513,928,514,925,515C921,517,916,517,910,517C906,517,902,517,899,517C897,517,894,516,893,516C891,515,890,515,889,514C888,513,888,512,888,510L886,466C886,462,886,459,887,456C887,454,888,452,889,450C891,449,892,448,894,447C896,447,899,446,902,446H904C911,446,917,445,921,443C926,441,930,438,933,435C936,431,939,427,940,423C942,418,942,413,942,407C942,401,941,396,940,391C938,386,935,382,932,378C929,374,924,372,919,370C914,368,908,367,901,367C894,367,889,367,884,369C879,370,875,371,871,373C868,374,865,376,863,377C860,378,859,379,857,379C856,379,856,378,855,378C854,377,854,376,853,375C853,373,852,371,852,368C852,366,851,362,851,358C851,354,852,350,852,348C852,346,853,345,854,343C856,342,858,341,861,339C865,337,869,336,874,334C879,333,884,332,890,331C896,330,903,329,909,329C924,329,936,331,947,335C957,339,966,345,973,352C979,359,984,366,987,375C991,384,992,394,992,403zM937,564C937,569,936,573,935,577C935,580,933,583,931,585C929,587,926,589,923,590C919,591,915,591,910,591C905,591,901,591,897,590C894,589,891,587,889,585C887,583,886,580,885,577C884,573,884,569,884,564C884,559,884,554,885,551C886,547,887,544,889,542C891,540,894,538,897,537C901,537,905,536,910,536C915,536,919,537,923,537C926,538,929,540,931,542C933,544,935,547,935,551C936,554,937,559,937,564z"/></svg>