<?xml version="1.0" encoding="utf-8"?>
<!-- Generator: Adobe Illustrator 20.1.0, SVG Export Plug-In . SVG Version: 6.00 Build 0)  -->
<svg version="1.1" id="Layer_1" xmlns="http://www.w3.org/2000/svg" xmlns:xlink="http://www.w3.org/1999/xlink" x="0px" y="0px"
	 viewBox="0 0 1000 1000" enable-background="new 0 0 1000 1000" xml:space="preserve">
<path d="M924.0961304,258.9320374c-44.2079468-91.9000092-167.6134644-88.0435791-257.5966187-79.0452576
	c-21.8530273,2.5709381-42.4206543,10.283783-62.9882202,17.9966278
	c-20.5675659,8.9983215-39.8496704,19.2821045-59.1317749,32.1368408
	c-14.1401978,10.2837982-26.9949341,20.5675812-38.5642395,33.4223175
	c-8.998291,10.2838135-17.9966125,20.5675964-25.7094727,32.1368408
	c-5.1418762,8.9983215-10.283783,17.9966431-15.4256897,26.9949646
	c-10.283783,23.1385193-16.7111511,47.5625305-23.1385193,71.9865417
	c-41.1351624-152.9713898,95.1250916-287.946167,241.6690979-309.7991943
	c19.2821045-2.5709457,38.564209-8.9983139,57.8463135-8.9983139
	c-19.2821045-10.2837906-39.8496704-25.7094765-57.8463135-24.4240036
	C501.9588623,64.1941223,324.5634766,251.8733063,400.4064331,440.8379822
	c-110.5507507-104.1234131-69.4155884-284.0897217,35.9932556-379.2148132
	c19.2821045-16.7111588,35.9932861-34.7077942,56.5608521-48.8480072
	c-20.5675659,1.2854738-43.7061157-2.5709476-59.1317749,7.7128429
	C278.2864075,131.0387726,226.8674622,376.56427,386.2662048,501.255249
	c-131.1183167-28.280426-190.2501221-176.1099243-168.3970642-302.0863647
	c7.7128448-41.1351624,19.2821045-79.699379,34.7077942-118.2635956
	c-16.7111511,10.2837906-39.8496857,20.5675812-46.2770538,34.7077942
	c-78.4139099,167.1115875-6.4273682,417.7789917,197.9629669,444.7739258
	C223.0110321,611.8059692,84.179863,417.6994324,80.3234406,254.4442596
	C70.03965,272.4408875,55.899437,290.4375305,57.1849098,308.4341736
	c10.2837944,183.8227539,196.6775055,371.5019226,389.4985962,294.3735046
	c-134.974762,133.68927-348.3634338,30.8513794-433.2047119-110.5507507c0,20.5675964-3.8564224,43.7060852,6.4273682,57.846344
	c97.6960144,152.9713745,323.9394226,230.0997925,465.3415527,88.6976929
	c6.4273682-7.7128906,14.1401978-14.1402588,20.5675659-21.8530884
	C453.1108704,798.199707,217.8691406,818.7672729,73.8960724,735.2114868
	c11.5692596,16.7111816,19.2821045,41.1351318,34.7077942,50.1334839
	c167.1115875,87.4122314,420.3499146,19.2821045,455.0577393-185.1082153
	c32.1368408,129.8328247-66.844635,253.2383423-187.6791992,293.0880127
	c-41.1351624,12.8547363-82.2703247,21.8530273-124.6909637,24.4240112
	c17.9966278,10.2837524,37.2787628,25.7094727,55.2753754,25.7094727
	C478.820343,933.1744385,657.5012207,778.9176025,615.0805664,587.381958
	c-2.5709229-11.5692139-5.1419067-21.8530273-8.998291-32.1368408
	c127.2619019,134.9747925,29.5658569,345.7924805-110.5507812,430.6337891c20.5675659,0,44.9915771,3.8563843,59.1317749-6.4273682
	C715.3475342,875.328125,777.050293,628.5171509,621.5079346,494.8278809
	c119.5490723,33.4223022,176.1099243,165.8261108,160.6842041,282.8042603
	c-7.7128296,51.4189453-23.1384888,100.2669678-43.7060547,146.5440063
	c16.7111206-11.5692749,41.1351318-19.2821045,48.8479614-34.7078247
	c73.2720337-152.9713745,34.7078247-377.9292908-141.4020996-443.4884644
	c-14.1401978-5.1418762-26.9949341-8.9983215-41.1351929-11.5692749
	C787.3340454,390.7044983,917.1669312,587.381958,917.1669312,750.637146
	c56.5608521-80.9848022-2.5709839-179.9663086-52.7044067-254.5238037
	c-11.5692749-19.2821045-25.7095337-34.7077942-42.4206543-48.8479919
	c-12.8547363-10.2838135-25.7094727-20.5675964-39.8497314-29.565918
	c-20.5675659-12.8547363-39.8496704-21.8530579-61.7026978-29.5658875
	c-17.9966431-5.1419067-35.9932861-10.283783-55.2753906-11.5692749
	c-15.4256592-1.2854614-30.8513794-1.2854614-47.562561,1.2854919c-19.2821045,2.5709229-38.564209,7.7128296-56.5608521,12.8547363
	c136.2602539-128.5473938,344.507019-24.4240112,426.7773438,116.9781189
	c-3.8564453-20.5675964,3.8564453-44.9916077-6.4273682-61.7027588
	c-96.4105225-146.5440063-305.942749-226.2433929-449.9158325-100.2669678
	c-10.2838135,10.2838135-21.8530579,19.2821045-29.565918,30.8513794
	c34.7078247-138.8311768,201.819397-190.2501221,327.9882812-152.3972015
	C886.1089478,240.3553772,924.0961304,258.9320374,924.0961304,258.9320374z"/>
</svg>
