<svg width="1000" height="1000" viewBox="0 0 1000 1000" xmlns="http://www.w3.org/2000/svg"><path d="M479,53C488,54,498,55,508,57C512,58,517,59,521,61C530,66,532,73,524,80C518,86,512,91,505,96C483,109,461,122,439,136C400,160,363,186,331,219C313,239,297,260,283,283C280,288,278,292,276,297C316,248,366,213,425,190C462,176,500,167,540,166C542,166,544,167,547,167C547,168,547,169,547,170C540,173,533,177,526,180C486,196,447,214,412,240C390,257,369,275,350,295C329,319,312,344,300,374C291,400,287,427,290,455C293,489,305,520,327,547C352,578,385,597,424,605C453,612,478,605,501,589C515,580,526,567,531,551C533,546,534,539,533,534C531,525,526,523,518,526C513,528,507,531,502,534C447,559,386,527,376,467C370,428,383,396,410,368C434,343,464,330,497,323C524,318,551,319,577,325C624,336,662,360,694,396C725,431,743,473,752,519C757,548,757,579,756,609C756,620,758,632,760,643C761,649,766,650,771,647C775,644,780,641,785,638C785,645,786,650,785,655C782,677,776,698,767,718C751,753,734,786,719,821C711,836,705,851,699,867C695,880,686,888,674,894C656,902,637,906,617,908C579,914,540,914,502,905C491,902,479,897,468,890C452,880,451,864,465,850C483,831,506,819,527,805C555,786,583,766,607,742C627,723,644,703,659,680C675,652,687,623,693,591C698,558,697,525,686,493C674,459,654,431,623,411C612,404,600,398,587,397C586,397,585,396,584,396C580,397,575,398,573,400C572,402,573,407,575,410C583,424,594,436,600,450C624,500,618,548,586,592C573,610,555,624,536,636C526,642,516,650,504,656C480,670,454,677,426,679C398,682,371,680,345,672C301,658,265,633,235,599C200,560,179,515,169,464C164,440,162,416,164,392C166,376,169,361,172,346C172,343,174,341,176,339C183,355,184,373,194,386C199,363,204,339,210,316C220,281,236,249,256,218C277,185,302,156,327,125C339,111,349,95,358,79C368,63,383,58,400,56C407,55,415,54,422,53C441,53,460,53,479,53z"/></svg>