<svg width="1000" height="1000" viewBox="0 0 1000 1000" xmlns="http://www.w3.org/2000/svg"><path d="M457,264L419,197L395,210L442,290V290L210,692V691H118V718H195L164,771H259L251,785L274,799L290,771H680L696,799L719,785L712,771H876L520,155L457,264zM696,744L681,718H720L686,659L662,673L673,691H652V718L650,719L665,744H305L320,719V718H344V691H251V718H289L274,744H211L520,209L533,232L519,224L473,304L497,317L540,243L747,603H661V617L619,544L596,557L642,637L661,626V630H754V614L829,744H696zM364,156L375,175L398,161L364,102L330,161L353,175M462,326L486,312L532,392L508,406zM529,442L552,428L598,508L575,522zM518,691H610V718H518zM385,691H477V718H385zM66,673L43,659L8,718H77V691H55M197,392L243,312L266,326L220,406zM63,624L109,544L133,557L86,637zM263,277L309,197L333,210L287,290zM130,508L176,428L199,442L153,522zM485,379L451,438L474,452L485,433L496,452L519,438M717,834L740,821L786,901L763,914zM516,487L540,474L586,554L563,567zM783,950L794,968H772V995H841L807,936M639,968H731V995H639zM372,968H465V995H372zM239,968H331V995H239zM506,968H598V995H506zM187,950L163,936L129,995H198V968H176M184,901L230,821L254,834L207,914zM384,554L430,474L454,487L408,567zM364,589L353,607V603H332L343,584L319,570L285,630H340L317,669L341,683L387,603M641,67L652,86L675,73L641,13L607,73L630,86M739,237L762,224L809,304L785,317zM806,353L829,339L875,419L852,433zM872,468L896,455L942,535L919,548zM672,122L696,108L742,188L718,202zM963,570L939,584L950,603H928V630H997M620,603H614L607,589L584,603H528V630H598L629,683L653,669L620,614M395,603H487V630H395zM795,603H887V630H795zM407,419L453,339L476,353L430,433zM540,188L586,108L610,122L563,202zM340,535L386,455L409,468L363,548z"/></svg>