<svg width="1000" height="1000" viewBox="0 0 1000 1000" xmlns="http://www.w3.org/2000/svg"><path d="M373,875L274,814L219,813L200,855L172,845L187,788L149,716L122,700L91,591L96,541L109,497L62,478L88,405L73,378L62,297L35,275L11,221L-1,161L98,148L109,172L219,165L201,207L256,246L212,304L273,353L256,433L264,460L291,532L299,546L310,484L330,468L348,430L350,355L368,305L340,283L408,201L400,112L453,171L514,166L633,161L588,217L602,286L605,307L622,354L673,393L648,486L680,488L696,549L705,522L698,463L752,392L760,345L733,333L748,235L758,176L815,174L848,168L885,159L1001,141L975,235L960,271L935,355L956,418L895,420L880,452L890,563L850,593L854,641L878,677L847,748L837,806L793,871L727,828L725,864L635,817L587,782L543,747L546,717L569,670L538,592L501,582L474,521L470,531L482,601L470,602L462,677L429,737L406,762L417,814L373,875zM219,783L283,784L365,835L384,807L373,753L405,719L433,668L443,576L447,575L438,527L475,447L416,401L523,416L513,438L538,457L503,511L523,557L561,567L601,672L576,725L575,734L605,759L651,792L697,816L699,775L785,830L809,795L818,740L844,680L825,651L819,579L859,549L849,446L876,390L915,389L904,356L932,260L947,224L960,178L890,189L853,198L817,204L783,205L777,239L766,315L793,327L781,405L730,471L736,525L708,604L686,649L658,640L666,553L657,517L609,514L639,405L596,372L576,314L572,291L556,210L569,194L516,196L440,202L438,200L439,211L383,279L404,295L380,361L378,437L354,487L338,500L320,608L259,651L286,581L264,545L236,470L225,434L240,365L171,309L214,253L164,217L172,198L90,203L80,181L34,187L39,212L59,256L90,281L102,368L120,402L100,461L145,479L126,546L122,588L148,680L172,694L219,783z"/></svg>