<?xml version="1.0" encoding="utf-8"?>
<!-- Generator: Adobe Illustrator 18.1.1, SVG Export Plug-In . SVG Version: 6.00 Build 0)  -->
<svg version="1.1" baseProfile="tiny" id="Laag_1" xmlns="http://www.w3.org/2000/svg" xmlns:xlink="http://www.w3.org/1999/xlink"
	 x="0px" y="0px" viewBox="-124 126.1 49.9 49.9" xml:space="preserve">
<path d="M-77.2,139.9c6.5,5.6,0.9,9.6-2.6,10.7c-4.5,1.3-6.7,3.3-6.4,4.9c0.4,1.8,4.1,0.9,6.4,0.4c1.7-0.4,8.5,0.6,2.5,6.5
	c-7.3,7.2-22.2,8-29.5,6.2c-6.8-1.7-18.3-8-16.9-20c1.4-11.9,15.7-16,24.8-15.9C-92,132.7-83.4,134.5-77.2,139.9z M-88.1,142.9
	c-2.4,0-4.4,1.2-4.4,2.6c0,1.5,2,2.6,4.4,2.6c2.4,0,4.4-1.2,4.4-2.6C-83.7,144-85.6,142.9-88.1,142.9z"/>
</svg>
