<?xml version="1.0" encoding="utf-8"?>
<!-- Generator: Adobe Illustrator 18.1.1, SVG Export Plug-In . SVG Version: 6.00 Build 0)  -->
<svg version="1.1" baseProfile="tiny" id="Laag_1" xmlns="http://www.w3.org/2000/svg" xmlns:xlink="http://www.w3.org/1999/xlink"
	 x="0px" y="0px" viewBox="-85 87 128 128" xml:space="preserve">
<g>
	<circle cx="3.1" cy="125.5" r="8.7"/>
	<path d="M0.7,141.3v8.9c0,1.5,1.3,2.8,2.8,2.8c1.5,0,2.8-1.3,2.8-2.8l0-8.9c0-1.5-1.3-2.8-2.8-2.8C1.9,138.5,0.7,139.7,0.7,141.3z"
		/>
	<path d="M-10,134.3l-6.3,6.3c-1.1,1.1-1.1,2.9,0,4c0.5,0.5,1.3,0.8,2,0.8c0.7,0,1.4-0.3,2-0.8l6.3-6.3c1.1-1.1,1.1-2.9,0-4
		C-7.1,133.2-8.9,133.2-10,134.3z"/>
	<path d="M3.9,111.3c1.5,0,2.8-1.3,2.8-2.8v-8.9c0-1.5-1.3-2.8-2.8-2.8c-1.5,0-2.8,1.3-2.8,2.8v8.9C1.1,110.1,2.4,111.3,3.9,111.3z"
		/>
	<path d="M15.4,116.3c0.7,0,1.4-0.3,2-0.8l6.3-6.3c1.1-1.1,1.1-2.9,0-4c-1.1-1.1-2.9-1.1-4,0l-6.3,6.3c-1.1,1.1-1.1,2.9,0,4
		C14,116,14.7,116.3,15.4,116.3z"/>
	<path d="M19.5,144.9c0.5,0.5,1.3,0.8,2,0.8c0.7,0,1.4-0.3,2-0.8c1.1-1.1,1.1-2.9,0-4l-6.3-6.3c-1.1-1.1-2.9-1.1-4,0
		c-1.1,1.1-1.1,2.9,0,4L19.5,144.9z"/>
	<path d="M17.3,125.1c0,1.5,1.3,2.8,2.8,2.8H29c1.5,0,2.8-1.3,2.8-2.8c0-1.5-1.3-2.8-2.8-2.8h-8.9C18.5,122.3,17.3,123.6,17.3,125.1
		z"/>
	<polygon points="-0.5,202.4 6.8,185.5 -73.4,185.5 -64,202.6 	"/>
	<polygon points="-37.2,131 -68,177.8 -35.5,178 	"/>
	<polygon points="-9.2,174.6 -31.8,146.9 -31.1,174.9 	"/>
	<path d="M-9.7,115.2c0.5,0.5,1.3,0.8,2,0.8c0.7,0,1.4-0.3,2-0.8c1.1-1.1,1.1-2.9,0-4l-6.3-6.3c-1.1-1.1-2.9-1.1-4,0
		c-1.1,1.1-1.1,2.9,0,4L-9.7,115.2z"/>
	<path d="M-21.6,127.5h8.9c1.5,0,2.8-1.3,2.8-2.8c0-1.5-1.3-2.8-2.8-2.8h-8.9c-1.5,0-2.8,1.3-2.8,2.8
		C-24.4,126.2-23.2,127.5-21.6,127.5z"/>
</g>
<path d="M36.4,215h-115c-3.6,0-6.5-2.9-6.5-6.4V94c0-3.6,2.9-6.4,6.5-6.4h115c3.6,0,6.5,2.9,6.5,6.4v114.5
	C42.9,212.1,40,215,36.4,215z M-78,208.1h114V94.5H-78V208.1z"/>
</svg>
